  0
SECTION
  2
HEADER
  9
$ACADVER
  1
AC1009
  9
$INSBASE
 10
0.0
 20
0.0
 30
0.0
  9
$EXTMIN
 10
1638.891867505044
 20
899.87580095683734
 30
0.0
  9
$EXTMAX
 10
1950.8929503728571
 20
1063.725040505987
 30
0.0
  9
$LIMMIN
 10
0.0
 20
0.0
  9
$LIMMAX
 10
12.0
 20
9.0
  9
$ORTHOMODE
 70
     0
  9
$REGENMODE
 70
     1
  9
$FILLMODE
 70
     1
  9
$QTEXTMODE
 70
     0
  9
$MIRRTEXT
 70
     0
  9
$DRAGMODE
 70
     2
  9
$LTSCALE
 40
1.0
  9
$OSMODE
 70
   815
  9
$ATTMODE
 70
     1
  9
$TEXTSIZE
 40
0.2
  9
$TRACEWID
 40
0.05
  9
$TEXTSTYLE
  7
STANDARD
  9
$CLAYER
  8
0
  9
$CELTYPE
  6
BYLAYER
  9
$CECOLOR
 62
   256
  9
$DIMSCALE
 40
1.0
  9
$DIMASZ
 40
0.18
  9
$DIMEXO
 40
0.0625
  9
$DIMDLI
 40
0.38
  9
$DIMRND
 40
0.0
  9
$DIMDLE
 40
0.0
  9
$DIMEXE
 40
0.18
  9
$DIMTP
 40
0.0
  9
$DIMTM
 40
0.0
  9
$DIMTXT
 40
0.18
  9
$DIMCEN
 40
0.09
  9
$DIMTSZ
 40
0.0
  9
$DIMTOL
 70
     0
  9
$DIMLIM
 70
     0
  9
$DIMTIH
 70
     1
  9
$DIMTOH
 70
     1
  9
$DIMSE1
 70
     0
  9
$DIMSE2
 70
     0
  9
$DIMTAD
 70
     0
  9
$DIMZIN
 70
     0
  9
$DIMBLK
  1

  9
$DIMASO
 70
     1
  9
$DIMSHO
 70
     1
  9
$DIMPOST
  1

  9
$DIMAPOST
  1

  9
$DIMALT
 70
     0
  9
$DIMALTD
 70
     2
  9
$DIMALTF
 40
25.399999999999999
  9
$DIMLFAC
 40
1.0
  9
$DIMTOFL
 70
     0
  9
$DIMTVP
 40
0.0
  9
$DIMTIX
 70
     0
  9
$DIMSOXD
 70
     0
  9
$DIMSAH
 70
     0
  9
$DIMBLK1
  1

  9
$DIMBLK2
  1

  9
$DIMSTYLE
  2
STANDARD
  9
$DIMCLRD
 70
     0
  9
$DIMCLRE
 70
     0
  9
$DIMCLRT
 70
     0
  9
$DIMTFAC
 40
1.0
  9
$DIMGAP
 40
0.09
  9
$LUNITS
 70
     2
  9
$LUPREC
 70
     4
  9
$SKETCHINC
 40
0.1
  9
$FILLETRAD
 40
0.0
  9
$AUNITS
 70
     0
  9
$AUPREC
 70
     0
  9
$MENU
  1
.
  9
$ELEVATION
 40
0.0
  9
$PELEVATION
 40
0.0
  9
$THICKNESS
 40
0.0
  9
$LIMCHECK
 70
     0
  9
$BLIPMODE
 70
     0
  9
$CHAMFERA
 40
0.0
  9
$CHAMFERB
 40
0.0
  9
$SKPOLY
 70
     0
  9
$TDCREATE
 40
2455892.9283915618
  9
$TDUPDATE
 40
2455933.886273507
  9
$TDINDWG
 40
0.0119424537
  9
$TDUSRTIMER
 40
0.0119379514
  9
$USRTIMER
 70
     1
  9
$ANGBASE
 50
0.0
  9
$ANGDIR
 70
     0
  9
$PDMODE
 70
     0
  9
$PDSIZE
 40
0.0
  9
$PLINEWID
 40
0.0
  9
$COORDS
 70
     0
  9
$SPLFRAME
 70
     0
  9
$SPLINETYPE
 70
     6
  9
$SPLINESEGS
 70
     8
  9
$ATTDIA
 70
     0
  9
$ATTREQ
 70
     1
  9
$HANDLING
 70
     1
  9
$HANDSEED
  5
FB5
  9
$SURFTAB1
 70
     6
  9
$SURFTAB2
 70
     6
  9
$SURFTYPE
 70
     6
  9
$SURFU
 70
     6
  9
$SURFV
 70
     6
  9
$UCSNAME
  2

  9
$UCSORG
 10
0.0
 20
0.0
 30
0.0
  9
$UCSXDIR
 10
1.0
 20
0.0
 30
0.0
  9
$UCSYDIR
 10
0.0
 20
1.0
 30
0.0
  9
$PUCSNAME
  2

  9
$PUCSORG
 10
0.0
 20
0.0
 30
0.0
  9
$PUCSXDIR
 10
1.0
 20
0.0
 30
0.0
  9
$PUCSYDIR
 10
0.0
 20
1.0
 30
0.0
  9
$USERI1
 70
     0
  9
$USERI2
 70
     0
  9
$USERI3
 70
     0
  9
$USERI4
 70
     0
  9
$USERI5
 70
     0
  9
$USERR1
 40
0.0
  9
$USERR2
 40
0.0
  9
$USERR3
 40
0.0
  9
$USERR4
 40
0.0
  9
$USERR5
 40
0.0
  9
$WORLDVIEW
 70
     1
  9
$SHADEDGE
 70
     3
  9
$SHADEDIF
 70
    70
  9
$TILEMODE
 70
     1
  9
$MAXACTVP
 70
    64
  9
$PLIMCHECK
 70
     0
  9
$PEXTMIN
 10
1.0000000000000000E+020
 20
1.0000000000000000E+020
 30
1.0000000000000000E+020
  9
$PEXTMAX
 10
-1.0000000000000000E+020
 20
-1.0000000000000000E+020
 30
-1.0000000000000000E+020
  9
$PLIMMIN
 10
0.0
 20
0.0
  9
$PLIMMAX
 10
12.0
 20
9.0
  9
$UNITMODE
 70
     0
  9
$VISRETAIN
 70
     1
  9
$PLINEGEN
 70
     0
  9
$PSLTSCALE
 70
     1
  0
ENDSEC
  0
SECTION
  2
TABLES
  0
TABLE
  2
VPORT
 70
     2
  0
VPORT
  2
*ACTIVE
 70
     0
 10
0.0
 20
0.0
 11
1.0
 21
1.0
 12
1712.2005518670319
 22
934.95339624700966
 13
0.0
 23
0.0
 14
1.0
 24
1.0
 15
0.0
 25
0.0
 16
0.0
 26
0.0
 36
1.0
 17
0.0
 27
0.0
 37
0.0
 40
431.80436022281822
 41
2.620390455531453
 42
50.0
 43
0.0
 44
0.0
 50
0.0
 51
0.0
 71
     0
 72
  1000
 73
     1
 74
     3
 75
     0
 76
     0
 77
     0
 78
     0
  0
ENDTAB
  0
TABLE
  2
LTYPE
 70
     2
  0
LTYPE
  2
CONTINUOUS
 70
     0
  3
Solid line
 72
    65
 73
     0
 40
0.0
  0
ENDTAB
  0
TABLE
  2
LAYER
 70
    11
  0
LAYER
  2
0
 70
     0
 62
     7
  6
CONTINUOUS
  0
LAYER
  2
1
 70
     0
 62
     7
  6
CONTINUOUS
  0
LAYER
  2
2
 70
     0
 62
     7
  6
CONTINUOUS
  0
LAYER
  2
3
 70
     0
 62
     7
  6
CONTINUOUS
  0
LAYER
  2
4
 70
     0
 62
     7
  6
CONTINUOUS
  0
LAYER
  2
5
 70
     0
 62
     7
  6
CONTINUOUS
  0
LAYER
  2
6
 70
     0
 62
     7
  6
CONTINUOUS
  0
LAYER
  2
7
 70
     0
 62
     7
  6
CONTINUOUS
  0
LAYER
  2
8
 70
     0
 62
     7
  6
CONTINUOUS
  0
LAYER
  2
9
 70
     0
 62
     7
  6
CONTINUOUS
  0
LAYER
  2
10
 70
     0
 62
     7
  6
CONTINUOUS
  0
ENDTAB
  0
TABLE
  2
STYLE
 70
     1
  0
STYLE
  2
STANDARD
 70
     0
 40
0.0
 41
1.0
 50
0.0
 71
     0
 42
0.2
  3
txt
  4

  0
ENDTAB
  0
TABLE
  2
VIEW
 70
     0
  0
ENDTAB
  0
TABLE
  2
UCS
 70
     0
  0
ENDTAB
  0
TABLE
  2
APPID
 70
     3
  0
APPID
  2
ACAD
 70
     0
  0
APPID
  2
ACAD_EXEMPT_FROM_CAD_STANDARDS
 70
     0
  0
APPID
  2
ACAECLAYERSTANDARD
 70
     0
  0
ENDTAB
  0
TABLE
  2
DIMSTYLE
 70
     3
  0
DIMSTYLE
  2
STANDARD
 70
     0
  3

  4

  5

  6

  7

 40
1.0
 41
0.18
 42
0.0625
 43
0.38
 44
0.18
 45
0.0
 46
0.0
 47
0.0
 48
0.0
140
0.18
141
0.09
142
0.0
143
25.399999999999999
144
1.0
145
0.0
146
1.0
147
0.09
 71
     0
 72
     0
 73
     1
 74
     1
 75
     0
 76
     0
 77
     0
 78
     0
170
     0
171
     2
172
     0
173
     0
174
     0
175
     0
176
     0
177
     0
178
     0
  0
DIMSTYLE
  2
ISO-25
 70
     0
  3

  4

  5

  6

  7

 40
1.0
 41
2.5
 42
0.625
 43
3.75
 44
1.25
 45
0.0
 46
0.0
 47
0.0
 48
0.0
140
2.5
141
2.5
142
0.0
143
0.03937007874016
144
1.0
145
0.0
146
1.0
147
0.625
 71
     0
 72
     0
 73
     0
 74
     0
 75
     0
 76
     0
 77
     1
 78
     8
170
     0
171
     3
172
     1
173
     0
174
     0
175
     0
176
     0
177
     0
178
     0
  0
ENDTAB
  0
ENDSEC
  0
SECTION
  2
BLOCKS
  0
BLOCK
  8
0
  2
$MODEL_SPACE
 70
     0
 10
0.0
 20
0.0
 30
0.0
  3
$MODEL_SPACE
  1

  0
ENDBLK
  5
EBF
  8
0
  0
BLOCK
 67
     1
  8
0
  2
$PAPER_SPACE
 70
     0
 10
0.0
 20
0.0
 30
0.0
  3
$PAPER_SPACE
  1

  0
ENDBLK
  5
EBB
 67
     1
  8
0
  0
ENDSEC
  0
SECTION
  2
ENTITIES
  0
POLYLINE
  5
A38
  8
1
 66
     1
 10
0.0
 20
0.0
 30
0.0
  0
VERTEX
  5
EE1
  8
1
 10
1914.02206683191
 20
942.01932325410792
 30
0.0
  0
VERTEX
  5
EE2
  8
1
 10
1907.435445628772
 20
943.98340603645602
 30
0.0
  0
VERTEX
  5
EE3
  8
1
 10
1880.2665699363879
 20
957.98233951319673
 30
0.0
  0
VERTEX
  5
EE4
  8
1
 10
1873.319011034195
 20
959.37311590956142
 30
0.0
  0
VERTEX
  5
EE5
  8
1
 10
1867.3082851493009
 20
965.95802932268271
 30
0.0
  0
VERTEX
  5
EE6
  8
1
 10
1858.938365045494
 20
970.22489235960325
 30
0.0
  0
VERTEX
  5
EE7
  8
1
 10
1840.7599418926311
 20
984.71545409119904
 30
0.0
  0
VERTEX
  5
EE8
  8
1
 10
1816.9782568253599
 20
1002.09803753585
 30
0.0
  0
VERTEX
  5
EE9
  8
1
 10
1813.6540015694279
 20
1003.024614900495
 30
0.0
  0
VERTEX
  5
EEA
  8
1
 10
1805.8789620006669
 20
1007.888975869122
 30
0.0
  0
VERTEX
  5
EEB
  8
1
 10
1790.6955036369679
 20
1012.963833366609
 30
0.0
  0
VERTEX
  5
EEC
  8
1
 10
1760.864113330781
 20
1028.6707596781559
 30
0.0
  0
VERTEX
  5
EED
  8
1
 10
1752.01371768935
 20
1033.330700456685
 30
0.0
  0
VERTEX
  5
EEE
  8
1
 10
1719.2305180153701
 20
1050.630388942978
 30
0.0
  0
VERTEX
  5
EEF
  8
1
 10
1716.4428607890729
 20
1052.8237849091799
 30
0.0
  0
VERTEX
  5
EF0
  8
1
 10
1714.077575049263
 20
1054.932820101468
 30
0.0
  0
VERTEX
  5
EF1
  8
1
 10
1710.338435701364
 20
1058.498661885071
 30
0.0
  0
VERTEX
  5
EF2
  8
1
 10
1706.285846454819
 20
1059.03319294986
 30
0.0
  0
VERTEX
  5
EF3
  8
1
 10
1699.923384484621
 20
1060.165081153634
 30
0.0
  0
VERTEX
  5
EF4
  8
1
 10
1691.071447138082
 20
1059.2810720858349
 30
0.0
  0
VERTEX
  5
EF5
  8
1
 10
1680.675729191792
 20
1063.5234912855581
 30
0.0
  0
VERTEX
  5
EF6
  8
1
 10
1668.162920652371
 20
1063.456307982452
 30
0.0
  0
VERTEX
  5
EF7
  8
1
 10
1653.4973695971851
 20
1063.725040505987
 30
0.0
  0
VERTEX
  5
EF8
  8
1
 10
1638.891867505044
 20
1055.6640758496319
 30
0.0
  0
VERTEX
  5
EF9
  8
1
 10
1638.891867505044
 20
1020.494771111025
 30
0.0
  0
VERTEX
  5
EFA
  8
1
 10
1661.4976996943981
 20
1025.6105575970971
 30
0.0
  0
VERTEX
  5
EFB
  8
1
 10
1688.378331083647
 20
1027.2161922833459
 30
0.0
  0
VERTEX
  5
EFC
  8
1
 10
1706.5674178081231
 20
1025.224474459734
 30
0.0
  0
VERTEX
  5
EFD
  8
1
 10
1714.726314729111
 20
1021.457884038903
 30
0.0
  0
VERTEX
  5
EFE
  8
1
 10
1724.045651801486
 20
1013.3167006251
 30
0.0
  0
VERTEX
  5
EFF
  8
1
 10
1776.932751513551
 20
953.97497355094686
 30
0.0
  0
VERTEX
  5
F00
  8
1
 10
1782.800557435769
 20
949.32562919384145
 30
0.0
  0
VERTEX
  5
F01
  8
1
 10
1787.127001068812
 20
946.77790953886961
 30
0.0
  0
VERTEX
  5
F02
  8
1
 10
1790.2406858928639
 20
946.22917440049775
 30
0.0
  0
VERTEX
  5
F03
  8
1
 10
1795.9992800014429
 20
945.8417378831864
 30
0.0
  0
VERTEX
  5
F04
  8
1
 10
1804.472806929843
 20
946.3880029340371
 30
0.0
  0
VERTEX
  5
F05
  8
1
 10
1820.9900392253101
 20
948.64018359429281
 30
0.0
  0
VERTEX
  5
F06
  8
1
 10
1840.7495043657291
 20
952.34543849837564
 30
0.0
  0
VERTEX
  5
F07
  8
1
 10
1856.7012320313211
 20
955.33667417917525
 30
0.0
  0
VERTEX
  5
F08
  8
1
 10
1863.867185917414
 20
956.08347423060115
 30
0.0
  0
VERTEX
  5
F09
  8
1
 10
1868.004379867461
 20
956.16576442880466
 30
0.0
  0
VERTEX
  5
F0A
  8
1
 10
1870.7613775837301
 20
956.06255512411997
 30
0.0
  0
VERTEX
  5
F0B
  8
1
 10
1873.458027786178
 20
955.67408924615995
 30
0.0
  0
VERTEX
  5
F0C
  8
1
 10
1891.214451411937
 20
946.25736383750859
 30
0.0
  0
VERTEX
  5
F0D
  8
1
 10
1897.9290979257521
 20
943.68922069171356
 30
0.0
  0
VERTEX
  5
F0E
  8
1
 10
1904.953765565404
 20
942.21315893767394
 30
0.0
  0
VERTEX
  5
F0F
  8
1
 10
1914.02206683191
 20
942.01932325410792
 30
0.0
  0
SEQEND
  5
F10
  8
1
  0
POLYLINE
  5
A39
  8
2
 66
     1
 10
0.0
 20
0.0
 30
0.0
  0
VERTEX
  5
F11
  8
2
 10
1873.458027786178
 20
955.67408924615995
 30
0.0
  0
VERTEX
  5
F12
  8
2
 10
1876.012507442402
 20
951.89676461852468
 30
0.0
  0
VERTEX
  5
F13
  8
2
 10
1881.041653902633
 20
946.79226139501679
 30
0.0
  0
VERTEX
  5
F14
  8
2
 10
1887.919829331574
 20
941.98529201881763
 30
0.0
  0
VERTEX
  5
F15
  8
2
 10
1899.814130109879
 20
937.39124149248516
 30
0.0
  0
VERTEX
  5
F16
  8
2
 10
1906.0406879331661
 20
936.57452350987012
 30
0.0
  0
VERTEX
  5
F17
  8
2
 10
1907.8666617904221
 20
936.6031929099214
 30
0.0
  0
VERTEX
  5
F18
  8
2
 10
1921.879620274688
 20
936.82320871743025
 30
0.0
  0
VERTEX
  5
F19
  8
2
 10
1914.02206683191
 20
942.01932325410792
 30
0.0
  0
VERTEX
  5
F1A
  8
2
 10
1904.953765565404
 20
942.21315893767394
 30
0.0
  0
VERTEX
  5
F1B
  8
2
 10
1897.9290979257521
 20
943.68922069171356
 30
0.0
  0
VERTEX
  5
F1C
  8
2
 10
1891.214451411937
 20
946.25736383750859
 30
0.0
  0
VERTEX
  5
F1D
  8
2
 10
1873.458027786178
 20
955.67408924615995
 30
0.0
  0
SEQEND
  5
F1E
  8
2
  0
POLYLINE
  5
A3A
  8
2
 66
     1
 10
0.0
 20
0.0
 30
0.0
  0
VERTEX
  5
F1F
  8
2
 10
1863.867185917414
 20
956.08347423060115
 30
0.0
  0
VERTEX
  5
F20
  8
2
 10
1856.7012320313211
 20
955.33667417917525
 30
0.0
  0
VERTEX
  5
F21
  8
2
 10
1840.7495043657291
 20
952.34543849837564
 30
0.0
  0
VERTEX
  5
F22
  8
2
 10
1820.9900392253101
 20
948.64018359429281
 30
0.0
  0
VERTEX
  5
F23
  8
2
 10
1804.4728069298451
 20
946.3880029340371
 30
0.0
  0
VERTEX
  5
F24
  8
2
 10
1795.9992800014429
 20
945.8417378831864
 30
0.0
  0
VERTEX
  5
F25
  8
2
 10
1790.2406858928639
 20
946.22917440049775
 30
0.0
  0
VERTEX
  5
F26
  8
2
 10
1787.127001068812
 20
946.77790953886961
 30
0.0
  0
VERTEX
  5
F27
  8
2
 10
1782.800557435769
 20
949.32562919384145
 30
0.0
  0
VERTEX
  5
F28
  8
2
 10
1776.932751513551
 20
953.97497355094686
 30
0.0
  0
VERTEX
  5
F29
  8
2
 10
1724.0456518014871
 20
1013.316700625099
 30
0.0
  0
VERTEX
  5
F2A
  8
2
 10
1714.726314729111
 20
1021.457884038903
 30
0.0
  0
VERTEX
  5
F2B
  8
2
 10
1706.5674178081231
 20
1025.224474459734
 30
0.0
  0
VERTEX
  5
F2C
  8
2
 10
1688.378331083647
 20
1027.2161922833459
 30
0.0
  0
VERTEX
  5
F2D
  8
2
 10
1661.4976996943981
 20
1025.6105575970971
 30
0.0
  0
VERTEX
  5
F2E
  8
2
 10
1638.891867505044
 20
1020.494771111025
 30
0.0
  0
VERTEX
  5
F2F
  8
2
 10
1638.891867505044
 20
947.37690242347253
 30
0.0
  0
VERTEX
  5
F30
  8
2
 10
1664.28146955947
 20
960.52876093076873
 30
0.0
  0
VERTEX
  5
F31
  8
2
 10
1675.3452295540289
 20
965.04865360360316
 30
0.0
  0
VERTEX
  5
F32
  8
2
 10
1683.410574321168
 20
967.2508996204042
 30
0.0
  0
VERTEX
  5
F33
  8
2
 10
1689.94414308459
 20
968.43778150005619
 30
0.0
  0
VERTEX
  5
F34
  8
2
 10
1699.299014987103
 20
968.81758322657959
 30
0.0
  0
VERTEX
  5
F35
  8
2
 10
1706.7235150100919
 20
968.20040195769343
 30
0.0
  0
VERTEX
  5
F36
  8
2
 10
1711.8622948522191
 20
966.40516128222498
 30
0.0
  0
VERTEX
  5
F37
  8
2
 10
1764.1724804147741
 20
928.64702804989565
 30
0.0
  0
VERTEX
  5
F38
  8
2
 10
1767.2901973702451
 20
926.80047408872258
 30
0.0
  0
VERTEX
  5
F39
  8
2
 10
1775.7808786760661
 20
923.35895940279875
 30
0.0
  0
VERTEX
  5
F3A
  8
2
 10
1780.5976477729371
 20
922.08634451886871
 30
0.0
  0
VERTEX
  5
F3B
  8
2
 10
1799.5703032107481
 20
922.76679519099957
 30
0.0
  0
VERTEX
  5
F3C
  8
2
 10
1808.5687113266131
 20
924.47166575747394
 30
0.0
  0
VERTEX
  5
F3D
  8
2
 10
1821.099922412692
 20
928.89924108535661
 30
0.0
  0
VERTEX
  5
F3E
  8
2
 10
1830.2194150976691
 20
933.95409860239351
 30
0.0
  0
VERTEX
  5
F3F
  8
2
 10
1856.49223851806
 20
953.49297125145267
 30
0.0
  0
VERTEX
  5
F40
  8
2
 10
1860.420211178046
 20
955.3957922782746
 30
0.0
  0
VERTEX
  5
F41
  8
2
 10
1863.867185917414
 20
956.08347423060115
 30
0.0
  0
SEQEND
  5
F42
  8
2
  0
POLYLINE
  5
A3B
  8
3
 66
     1
 10
0.0
 20
0.0
 30
0.0
  0
VERTEX
  5
F43
  8
3
 10
1638.891867505044
 20
914.48879485215195
 30
0.0
  0
VERTEX
  5
F44
  8
3
 10
1703.444380869749
 20
919.40732873258366
 30
0.0
  0
VERTEX
  5
F45
  8
3
 10
1780.5976477729371
 20
922.08634451886871
 30
0.0
  0
VERTEX
  5
F46
  8
3
 10
1775.780878676067
 20
923.35895940279875
 30
0.0
  0
VERTEX
  5
F47
  8
3
 10
1767.2901973702451
 20
926.80047408872258
 30
0.0
  0
VERTEX
  5
F48
  8
3
 10
1764.1724804147741
 20
928.64702804989565
 30
0.0
  0
VERTEX
  5
F49
  8
3
 10
1711.8622948522191
 20
966.40516128222498
 30
0.0
  0
VERTEX
  5
F4A
  8
3
 10
1706.7235150100919
 20
968.20040195769343
 30
0.0
  0
VERTEX
  5
F4B
  8
3
 10
1699.299014987103
 20
968.81758322657959
 30
0.0
  0
VERTEX
  5
F4C
  8
3
 10
1689.94414308459
 20
968.43778150005619
 30
0.0
  0
VERTEX
  5
F4D
  8
3
 10
1683.410574321168
 20
967.2508996204042
 30
0.0
  0
VERTEX
  5
F4E
  8
3
 10
1675.3452295540289
 20
965.04865360360316
 30
0.0
  0
VERTEX
  5
F4F
  8
3
 10
1664.28146955947
 20
960.52876093076873
 30
0.0
  0
VERTEX
  5
F50
  8
3
 10
1638.891867505044
 20
947.37690242347253
 30
0.0
  0
VERTEX
  5
F51
  8
3
 10
1638.891867505044
 20
914.48879485215195
 30
0.0
  0
SEQEND
  5
F52
  8
3
  0
POLYLINE
  5
A3C
  8
3
 66
     1
 10
0.0
 20
0.0
 30
0.0
  0
VERTEX
  5
F53
  8
3
 10
1799.570303210754
 20
922.76679519099991
 30
0.0
  0
VERTEX
  5
F54
  8
3
 10
1871.550398054475
 20
928.53006809255419
 30
0.0
  0
VERTEX
  5
F55
  8
3
 10
1932.811613195269
 20
928.97734965342499
 30
0.0
  0
VERTEX
  5
F56
  8
3
 10
1929.737173717464
 20
931.96160104473029
 30
0.0
  0
VERTEX
  5
F57
  8
3
 10
1921.879620274688
 20
936.82320871743025
 30
0.0
  0
VERTEX
  5
F58
  8
3
 10
1907.8666617904221
 20
936.6031929099214
 30
0.0
  0
VERTEX
  5
F59
  8
3
 10
1906.0406879331661
 20
936.57452350987012
 30
0.0
  0
VERTEX
  5
F5A
  8
3
 10
1899.814130109879
 20
937.39124149248516
 30
0.0
  0
VERTEX
  5
F5B
  8
3
 10
1887.919829331574
 20
941.98529201881763
 30
0.0
  0
VERTEX
  5
F5C
  8
3
 10
1881.041653902633
 20
946.79226139501679
 30
0.0
  0
VERTEX
  5
F5D
  8
3
 10
1876.012507442402
 20
951.89676461852468
 30
0.0
  0
VERTEX
  5
F5E
  8
3
 10
1873.458027786178
 20
955.67408924615995
 30
0.0
  0
VERTEX
  5
F5F
  8
3
 10
1870.7613775837301
 20
956.06255512411997
 30
0.0
  0
VERTEX
  5
F60
  8
3
 10
1868.004379867461
 20
956.16576442880466
 30
0.0
  0
VERTEX
  5
F61
  8
3
 10
1863.867185917414
 20
956.08347423060115
 30
0.0
  0
VERTEX
  5
F62
  8
3
 10
1860.420211178046
 20
955.3957922782746
 30
0.0
  0
VERTEX
  5
F63
  8
3
 10
1856.49223851806
 20
953.49297125145267
 30
0.0
  0
VERTEX
  5
F64
  8
3
 10
1830.21941509767
 20
933.95409860239442
 30
0.0
  0
VERTEX
  5
F65
  8
3
 10
1821.099922412692
 20
928.89924108535661
 30
0.0
  0
VERTEX
  5
F66
  8
3
 10
1808.5687113266131
 20
924.47166575747394
 30
0.0
  0
VERTEX
  5
F67
  8
3
 10
1799.5703032107481
 20
922.76679519099923
 30
0.0
  0
SEQEND
  5
F68
  8
3
  0
POLYLINE
  5
A3D
  8
4
 66
     1
 10
0.0
 20
0.0
 30
0.0
  0
VERTEX
  5
F69
  8
4
 10
1638.891867505044
 20
903.89543044311677
 30
0.0
  0
VERTEX
  5
F6A
  8
4
 10
1697.2228193980229
 20
908.33132938663346
 30
0.0
  0
VERTEX
  5
F6B
  8
4
 10
1778.815504222634
 20
914.53621534625563
 30
0.0
  0
VERTEX
  5
F6C
  8
4
 10
1873.2801038300231
 20
924.92431522597303
 30
0.0
  0
VERTEX
  5
F6D
  8
4
 10
1938.790249369313
 20
926.20311864648909
 30
0.0
  0
VERTEX
  5
F6E
  8
4
 10
1936.0501330126081
 20
928.01070049334965
 30
0.0
  0
VERTEX
  5
F6F
  8
4
 10
1933.8214621592149
 20
927.99712441320924
 30
0.0
  0
VERTEX
  5
F70
  8
4
 10
1932.811613195269
 20
928.97734965342499
 30
0.0
  0
VERTEX
  5
F71
  8
4
 10
1871.550398054475
 20
928.53006809255419
 30
0.0
  0
VERTEX
  5
F72
  8
4
 10
1799.570303210754
 20
922.76679519099991
 30
0.0
  0
VERTEX
  5
F73
  8
4
 10
1780.5976477729371
 20
922.08634451886871
 30
0.0
  0
VERTEX
  5
F74
  8
4
 10
1703.444380869749
 20
919.40732873258366
 30
0.0
  0
VERTEX
  5
F75
  8
4
 10
1638.891867505044
 20
914.48879485215195
 30
0.0
  0
VERTEX
  5
F76
  8
4
 10
1638.891867505044
 20
903.89543044311677
 30
0.0
  0
SEQEND
  5
F77
  8
4
  0
POLYLINE
  5
A3E
  8
5
 66
     1
 10
0.0
 20
0.0
 30
0.0
  0
VERTEX
  5
F78
  8
5
 10
1638.891867505044
 20
899.89721916643362
 30
0.0
  0
VERTEX
  5
F79
  8
5
 10
1950.8929503728571
 20
899.89721916643362
 30
0.0
  0
VERTEX
  5
F7A
  8
5
 10
1948.016600859534
 20
919.97622807203675
 30
0.0
  0
VERTEX
  5
F7B
  8
5
 10
1938.790249369313
 20
926.20311864648909
 30
0.0
  0
VERTEX
  5
F7C
  8
5
 10
1873.2801038300231
 20
924.92431522597303
 30
0.0
  0
VERTEX
  5
F7D
  8
5
 10
1778.815504222634
 20
914.53621534625563
 30
0.0
  0
VERTEX
  5
F7E
  8
5
 10
1697.2228193980229
 20
908.33132938663346
 30
0.0
  0
VERTEX
  5
F7F
  8
5
 10
1638.891867505044
 20
903.89543044311677
 30
0.0
  0
VERTEX
  5
F80
  8
5
 10
1638.891867505044
 20
899.87580095683734
 30
0.0
  0
SEQEND
  5
F81
  8
5
  0
POLYLINE
  5
A3F
  8
10
 66
     1
 10
0.0
 20
0.0
 30
0.0
  0
VERTEX
  5
F82
  8
10
 10
1938.790249369313
 20
926.20311864648909
 30
0.0
  0
VERTEX
  5
F83
  8
10
 10
1948.016600859534
 20
919.97622807203675
 30
0.0
  0
VERTEX
  5
F84
  8
10
 10
1942.8237023950221
 20
926.4747273261836
 30
0.0
  0
VERTEX
  5
F85
  8
10
 10
1938.790249369313
 20
926.20311864648909
 30
0.0
  0
SEQEND
  5
F86
  8
10
  0
POLYLINE
  5
A40
  8
9
 66
     1
 10
0.0
 20
0.0
 30
0.0
  0
VERTEX
  5
F87
  8
9
 10
1938.790249369313
 20
926.20311864648909
 30
0.0
  0
VERTEX
  5
F88
  8
9
 10
1942.8237023950221
 20
926.4747273261836
 30
0.0
  0
VERTEX
  5
F89
  8
9
 10
1941.160595719668
 20
929.01963046743765
 30
0.0
  0
VERTEX
  5
F8A
  8
9
 10
1932.811613195272
 20
928.97734965342499
 30
0.0
  0
VERTEX
  5
F8B
  8
9
 10
1933.8214621592149
 20
927.99712441320924
 30
0.0
  0
VERTEX
  5
F8C
  8
9
 10
1936.0501330126081
 20
928.01070049334965
 30
0.0
  0
VERTEX
  5
F8D
  8
9
 10
1938.790249369313
 20
926.20311864648909
 30
0.0
  0
SEQEND
  5
F8E
  8
9
  0
POLYLINE
  5
A41
  8
8
 66
     1
 10
0.0
 20
0.0
 30
0.0
  0
VERTEX
  5
F8F
  8
8
 10
1932.811613195272
 20
928.97734965342499
 30
0.0
  0
VERTEX
  5
F90
  8
8
 10
1941.1605995635421
 20
929.01962496125145
 30
0.0
  0
VERTEX
  5
F91
  8
8
 10
1939.7851933873851
 20
930.98254005832325
 30
0.0
  0
VERTEX
  5
F92
  8
8
 10
1931.999443408489
 20
936.04105876315134
 30
0.0
  0
VERTEX
  5
F93
  8
8
 10
1931.1481687695441
 20
937.20165133543105
 30
0.0
  0
VERTEX
  5
F94
  8
8
 10
1921.879620274688
 20
936.82320871743025
 30
0.0
  0
VERTEX
  5
F95
  8
8
 10
1929.737173717464
 20
931.96160104473029
 30
0.0
  0
VERTEX
  5
F96
  8
8
 10
1932.811613195272
 20
928.97734965342499
 30
0.0
  0
SEQEND
  5
F97
  8
8
  0
POLYLINE
  5
A42
  8
7
 66
     1
 10
0.0
 20
0.0
 30
0.0
  0
VERTEX
  5
F98
  8
7
 10
1921.879620274688
 20
936.82320871743025
 30
0.0
  0
VERTEX
  5
F99
  8
7
 10
1931.1481687695441
 20
937.20165133543105
 30
0.0
  0
VERTEX
  5
F9A
  8
7
 10
1928.591003704367
 20
940.97622908271194
 30
0.0
  0
VERTEX
  5
F9B
  8
7
 10
1927.7058179709361
 20
941.7268319508496
 30
0.0
  0
VERTEX
  5
F9C
  8
7
 10
1914.02206683191
 20
942.01932325410792
 30
0.0
  0
SEQEND
  5
F9D
  8
7
  0
POLYLINE
  5
A43
  8
6
 66
     1
 10
0.0
 20
0.0
 30
0.0
  0
VERTEX
  5
F9E
  8
6
 10
1914.02206683191
 20
942.01932325410792
 30
0.0
  0
VERTEX
  5
F9F
  8
6
 10
1927.7058179708799
 20
941.72683195089724
 30
0.0
  0
VERTEX
  5
FA0
  8
6
 10
1922.7107387336209
 20
945.96954302246274
 30
0.0
  0
VERTEX
  5
FA1
  8
6
 10
1909.417558469215
 20
951.00767781687864
 30
0.0
  0
VERTEX
  5
FA2
  8
6
 10
1895.3115736104439
 20
954.56426250591426
 30
0.0
  0
VERTEX
  5
FA3
  8
6
 10
1880.46385381757
 20
959.8451756104223
 30
0.0
  0
VERTEX
  5
FA4
  8
6
 10
1867.3082851493009
 20
965.95802932268271
 30
0.0
  0
VERTEX
  5
FA5
  8
6
 10
1873.319011034195
 20
959.37311590956142
 30
0.0
  0
VERTEX
  5
FA6
  8
6
 10
1880.2665699363879
 20
957.98233951319673
 30
0.0
  0
VERTEX
  5
FA7
  8
6
 10
1907.435445628772
 20
943.98340603645602
 30
0.0
  0
VERTEX
  5
FA8
  8
6
 10
1914.02206683191
 20
942.01932325410792
 30
0.0
  0
SEQEND
  5
FA9
  8
6
  0
ENDSEC
  0
EOF
