  0
SECTION
  2
ENTITIES
  0
CIRCLE
  8
0
 62
0
 10
     6.4802
 20
     1.6121
 30
     0.0000
 40
     0.0100
  0
CIRCLE
  8
0
 62
0
 10
     6.4502
 20
     1.5950
 30
     0.0000
 40
     0.0100
  0
CIRCLE
  8
0
 62
0
 10
     6.4502
 20
     1.5950
 30
     0.0000
 40
     0.0100
  0
CIRCLE
  8
0
 62
0
 10
     6.4802
 20
     1.6121
 30
     0.0000
 40
     0.0100
  0
CIRCLE
  8
0
 62
0
 10
     6.4502
 20
     1.5950
 30
     0.0000
 40
     0.0100
  0
CIRCLE
  8
0
 62
0
 10
     6.4802
 20
     1.6121
 30
     0.0000
 40
     0.0100
  0
CIRCLE
  8
0
 62
0
 10
     6.4802
 20
     1.6121
 30
     0.0000
 40
     0.0100
  0
CIRCLE
  8
0
 62
0
 10
     6.4502
 20
     1.5950
 30
     0.0000
 40
     0.0100
  0
CIRCLE
  8
0
 62
0
 10
     6.4802
 20
     1.6121
 30
     0.0000
 40
     0.0100
  0
CIRCLE
  8
0
 62
0
 10
     6.4502
 20
     1.5950
 30
     0.0000
 40
     0.0100
  0
CIRCLE
  8
0
 62
0
 10
     6.6038
 20
     1.4267
 30
     0.0000
 40
     0.0100
  0
CIRCLE
  8
0
 62
0
 10
     6.5959
 20
     1.4523
 30
     0.0000
 40
     0.0100
  0
CIRCLE
  8
0
 62
0
 10
     6.4357
 20
     1.4004
 30
     0.0000
 40
     0.0100
  0
CIRCLE
  8
0
 62
0
 10
     6.4381
 20
     1.3654
 30
     0.0000
 40
     0.0100
  0
CIRCLE
  8
500
 62
1
 10
     6.4297
 20
     1.3824
 30
     0.0000
 40
     0.0090
  0
CIRCLE
  8
0
 62
0
 10
     6.6094
 20
     1.3086
 30
     0.0000
 40
     0.0100
  0
CIRCLE
  8
0
 62
0
 10
     6.5963
 20
     1.3237
 30
     0.0000
 40
     0.0100
  0
CIRCLE
  8
0
 62
0
 10
     6.5635
 20
     1.2173
 30
     0.0000
 40
     0.0100
  0
CIRCLE
  8
0
 62
0
 10
     6.5726
 20
     1.2358
 30
     0.0000
 40
     0.0100
  0
CIRCLE
  8
0
 62
0
 10
     6.5434
 20
     1.2164
 30
     0.0000
 40
     0.0100
  0
CIRCLE
  8
0
 62
0
 10
     6.5540
 20
     1.2032
 30
     0.0000
 40
     0.0069
  0
CIRCLE
  8
500
 62
1
 10
     6.5409
 20
     1.2001
 30
     0.0000
 40
     0.0064
  0
CIRCLE
  8
50
 62
10
 10
     6.4702
 20
     1.5948
 30
     0.0000
 40
     0.0100
  0
CIRCLE
  8
50
 62
10
 10
     6.4400
 20
     1.5778
 30
     0.0000
 40
     0.0100
  0
CIRCLE
  8
50
 62
10
 10
     6.4502
 20
     1.5950
 30
     0.0000
 40
     0.0100
  0
CIRCLE
  8
50
 62
10
 10
     6.4296
 20
     1.5605
 30
     0.0000
 40
     0.0100
  0
CIRCLE
  8
50
 62
10
 10
     6.4802
 20
     1.6121
 30
     0.0000
 40
     0.0100
  0
CIRCLE
  8
50
 62
10
 10
     6.4904
 20
     1.6293
 30
     0.0000
 40
     0.0100
  0
CIRCLE
  8
50
 62
10
 10
     6.5744
 20
     1.5566
 30
     0.0000
 40
     0.0100
  0
CIRCLE
  8
50
 62
10
 10
     6.5104
 20
     1.6293
 30
     0.0000
 40
     0.0100
  0
CIRCLE
  8
50
 62
10
 10
     6.5669
 20
     1.5751
 30
     0.0000
 40
     0.0100
  0
CIRCLE
  8
50
 62
10
 10
     6.5004
 20
     1.6411
 30
     0.0000
 40
     0.0055
  0
CIRCLE
  8
50
 62
10
 10
     6.4374
 20
     1.4397
 30
     0.0000
 40
     0.0100
  0
CIRCLE
  8
50
 62
10
 10
     6.4457
 20
     1.4215
 30
     0.0000
 40
     0.0100
  0
CIRCLE
  8
50
 62
10
 10
     6.4275
 20
     1.4571
 30
     0.0000
 40
     0.0100
  0
CIRCLE
  8
50
 62
10
 10
     6.5925
 20
     1.4721
 30
     0.0000
 40
     0.0100
  0
CIRCLE
  8
50
 62
10
 10
     6.4192
 20
     1.4755
 30
     0.0000
 40
     0.0100
  0
CIRCLE
  8
50
 62
10
 10
     6.5959
 20
     1.4523
 30
     0.0000
 40
     0.0100
  0
CIRCLE
  8
50
 62
10
 10
     6.5974
 20
     1.4915
 30
     0.0000
 40
     0.0100
  0
CIRCLE
  8
50
 62
10
 10
     6.5938
 20
     1.5112
 30
     0.0000
 40
     0.0100
  0
CIRCLE
  8
50
 62
10
 10
     6.4486
 20
     1.3851
 30
     0.0000
 40
     0.0100
  0
CIRCLE
  8
50
 62
10
 10
     6.4357
 20
     1.4004
 30
     0.0000
 40
     0.0100
  0
CIRCLE
  8
50
 62
10
 10
     6.6038
 20
     1.4267
 30
     0.0000
 40
     0.0100
  0
CIRCLE
  8
50
 62
10
 10
     6.4500
 20
     1.3492
 30
     0.0000
 40
     0.0100
  0
CIRCLE
  8
50
 62
10
 10
     6.6025
 20
     1.4023
 30
     0.0000
 40
     0.0100
  0
CIRCLE
  8
50
 62
10
 10
     6.6115
 20
     1.4431
 30
     0.0000
 40
     0.0081
  0
CIRCLE
  8
50
 62
10
 10
     6.4381
 20
     1.3654
 30
     0.0000
 40
     0.0100
  0
CIRCLE
  8
50
 62
10
 10
     6.6116
 20
     1.4578
 30
     0.0000
 40
     0.0067
  0
CIRCLE
  8
50
 62
10
 10
     6.4297
 20
     1.3824
 30
     0.0000
 40
     0.0090
  0
CIRCLE
  8
50
 62
10
 10
     6.4402
 20
     1.3316
 30
     0.0000
 40
     0.0100
  0
CIRCLE
  8
50
 62
10
 10
     6.4499
 20
     1.3141
 30
     0.0000
 40
     0.0100
  0
CIRCLE
  8
50
 62
10
 10
     6.4602
 20
     1.2970
 30
     0.0000
 40
     0.0100
  0
CIRCLE
  8
50
 62
10
 10
     6.5963
 20
     1.3237
 30
     0.0000
 40
     0.0100
  0
CIRCLE
  8
50
 62
10
 10
     6.4721
 20
     1.2809
 30
     0.0000
 40
     0.0100
  0
CIRCLE
  8
50
 62
10
 10
     6.4522
 20
     1.2787
 30
     0.0000
 40
     0.0100
  0
CIRCLE
  8
50
 62
10
 10
     6.6094
 20
     1.3086
 30
     0.0000
 40
     0.0100
  0
CIRCLE
  8
50
 62
10
 10
     6.4785
 20
     1.2619
 30
     0.0000
 40
     0.0100
  0
CIRCLE
  8
50
 62
10
 10
     6.4916
 20
     1.2468
 30
     0.0000
 40
     0.0100
  0
CIRCLE
  8
50
 62
10
 10
     6.4596
 20
     1.2613
 30
     0.0000
 40
     0.0089
  0
CIRCLE
  8
50
 62
10
 10
     6.6013
 20
     1.2884
 30
     0.0000
 40
     0.0100
  0
CIRCLE
  8
50
 62
10
 10
     6.6151
 20
     1.3267
 30
     0.0000
 40
     0.0092
  0
CIRCLE
  8
50
 62
10
 10
     6.5927
 20
     1.2704
 30
     0.0000
 40
     0.0100
  0
CIRCLE
  8
50
 62
10
 10
     6.4874
 20
     1.2273
 30
     0.0000
 40
     0.0100
  0
CIRCLE
  8
50
 62
10
 10
     6.5823
 20
     1.2533
 30
     0.0000
 40
     0.0100
  0
CIRCLE
  8
50
 62
10
 10
     6.5171
 20
     1.2165
 30
     0.0000
 40
     0.0100
  0
CIRCLE
  8
50
 62
10
 10
     6.5434
 20
     1.2164
 30
     0.0000
 40
     0.0100
  0
CIRCLE
  8
50
 62
10
 10
     6.5726
 20
     1.2358
 30
     0.0000
 40
     0.0100
  0
CIRCLE
  8
50
 62
10
 10
     6.6008
 20
     1.2537
 30
     0.0000
 40
     0.0084
  0
CIRCLE
  8
50
 62
10
 10
     6.4981
 20
     1.2104
 30
     0.0000
 40
     0.0100
  0
CIRCLE
  8
50
 62
10
 10
     6.5635
 20
     1.2173
 30
     0.0000
 40
     0.0100
  0
CIRCLE
  8
50
 62
10
 10
     6.6090
 20
     1.2665
 30
     0.0000
 40
     0.0067
  0
CIRCLE
  8
50
 62
10
 10
     6.5934
 20
     1.2386
 30
     0.0000
 40
     0.0084
  0
CIRCLE
  8
50
 62
10
 10
     6.5114
 20
     1.2016
 30
     0.0000
 40
     0.0060
  0
CIRCLE
  8
50
 62
10
 10
     6.5540
 20
     1.2032
 30
     0.0000
 40
     0.0069
  0
CIRCLE
  8
50
 62
10
 10
     6.5827
 20
     1.2193
 30
     0.0000
 40
     0.0094
  0
CIRCLE
  8
50
 62
10
 10
     6.5749
 20
     1.2060
 30
     0.0000
 40
     0.0060
  0
CIRCLE
  8
50
 62
10
 10
     6.5409
 20
     1.2001
 30
     0.0000
 40
     0.0064
  0
CIRCLE
  8
80
 62
4
 10
     6.4686
 20
     1.2456
 30
     0.0000
 40
     0.0091
  0
CIRCLE
  8
80
 62
4
 10
     6.4829
 20
     1.2126
 30
     0.0000
 40
     0.0054
  0
CIRCLE
  8
80
 62
4
 10
     6.4413
 20
     1.2944
 30
     0.0000
 40
     0.0092
  0
CIRCLE
  8
80
 62
4
 10
     6.4304
 20
     1.3147
 30
     0.0000
 40
     0.0096
  0
CIRCLE
  8
80
 62
4
 10
     6.5263
 20
     1.2008
 30
     0.0000
 40
     0.0082
  0
CIRCLE
  8
80
 62
4
 10
     6.6148
 20
     1.2785
 30
     0.0000
 40
     0.0067
  0
CIRCLE
  8
80
 62
4
 10
     6.6178
 20
     1.2935
 30
     0.0000
 40
     0.0073
  0
CIRCLE
  8
80
 62
4
 10
     6.6151
 20
     1.4139
 30
     0.0000
 40
     0.0071
  0
CIRCLE
  8
80
 62
4
 10
     6.4261
 20
     1.4178
 30
     0.0000
 40
     0.0099
  0
CIRCLE
  8
80
 62
4
 10
     6.6098
 20
     1.4717
 30
     0.0000
 40
     0.0073
  0
CIRCLE
  8
80
 62
4
 10
     6.4189
 20
     1.4406
 30
     0.0000
 40
     0.0087
  0
CIRCLE
  8
80
 62
4
 10
     6.4113
 20
     1.4608
 30
     0.0000
 40
     0.0066
  0
CIRCLE
  8
80
 62
4
 10
     6.6082
 20
     1.5036
 30
     0.0000
 40
     0.0062
  0
CIRCLE
  8
80
 62
4
 10
     6.4217
 20
     1.5770
 30
     0.0000
 40
     0.0084
  0
CIRCLE
  8
80
 62
4
 10
     6.4621
 20
     1.6110
 30
     0.0000
 40
     0.0081
  0
CIRCLE
  8
80
 62
4
 10
     6.4352
 20
     1.5922
 30
     0.0000
 40
     0.0054
  0
ENDSEC
  0
EOF
