  0
SECTION
  2
HEADER
  9
$ACADVER
  1
AC1009
  9
$INSBASE
 10
0.0
 20
0.0
 30
0.0
  9
$EXTMIN
 10
0.0049
 20
1.6086
 30
0.0
  9
$EXTMAX
 10
0.1928
 20
1.7101999999999991
 30
0.0
  9
$LIMMIN
 10
0.0
 20
0.0
  9
$LIMMAX
 10
12.0
 20
9.0
  9
$ORTHOMODE
 70
     0
  9
$REGENMODE
 70
     1
  9
$FILLMODE
 70
     0
  9
$QTEXTMODE
 70
     0
  9
$MIRRTEXT
 70
     0
  9
$DRAGMODE
 70
     2
  9
$LTSCALE
 40
1.0
  9
$OSMODE
 70
   937
  9
$ATTMODE
 70
     1
  9
$TEXTSIZE
 40
0.2
  9
$TRACEWID
 40
0.05
  9
$TEXTSTYLE
  7
STANDARD
  9
$CLAYER
  8
0
  9
$CELTYPE
  6
BYLAYER
  9
$CECOLOR
 62
   256
  9
$DIMSCALE
 40
1.0
  9
$DIMASZ
 40
0.18
  9
$DIMEXO
 40
0.0625
  9
$DIMDLI
 40
0.38
  9
$DIMRND
 40
0.0
  9
$DIMDLE
 40
0.0
  9
$DIMEXE
 40
0.18
  9
$DIMTP
 40
0.0
  9
$DIMTM
 40
0.0
  9
$DIMTXT
 40
0.18
  9
$DIMCEN
 40
0.09
  9
$DIMTSZ
 40
0.0
  9
$DIMTOL
 70
     0
  9
$DIMLIM
 70
     0
  9
$DIMTIH
 70
     1
  9
$DIMTOH
 70
     1
  9
$DIMSE1
 70
     0
  9
$DIMSE2
 70
     0
  9
$DIMTAD
 70
     0
  9
$DIMZIN
 70
     0
  9
$DIMBLK
  1

  9
$DIMASO
 70
     1
  9
$DIMSHO
 70
     1
  9
$DIMPOST
  1

  9
$DIMAPOST
  1

  9
$DIMALT
 70
     0
  9
$DIMALTD
 70
     2
  9
$DIMALTF
 40
25.399999999999999
  9
$DIMLFAC
 40
1.0
  9
$DIMTOFL
 70
     0
  9
$DIMTVP
 40
0.0
  9
$DIMTIX
 70
     0
  9
$DIMSOXD
 70
     0
  9
$DIMSAH
 70
     0
  9
$DIMBLK1
  1

  9
$DIMBLK2
  1

  9
$DIMSTYLE
  2
STANDARD
  9
$DIMCLRD
 70
     0
  9
$DIMCLRE
 70
     0
  9
$DIMCLRT
 70
     0
  9
$DIMTFAC
 40
1.0
  9
$DIMGAP
 40
0.09
  9
$LUNITS
 70
     2
  9
$LUPREC
 70
     4
  9
$SKETCHINC
 40
0.1
  9
$FILLETRAD
 40
0.0
  9
$AUNITS
 70
     0
  9
$AUPREC
 70
     0
  9
$MENU
  1
.
  9
$ELEVATION
 40
0.0
  9
$PELEVATION
 40
0.0
  9
$THICKNESS
 40
0.0
  9
$LIMCHECK
 70
     0
  9
$BLIPMODE
 70
     0
  9
$CHAMFERA
 40
0.0
  9
$CHAMFERB
 40
0.0
  9
$SKPOLY
 70
     0
  9
$TDCREATE
 40
2456557.4610530562
  9
$TDUPDATE
 40
2456965.4738434949
  9
$TDINDWG
 40
0.0180340625
  9
$TDUSRTIMER
 40
0.0180176157
  9
$USRTIMER
 70
     1
  9
$ANGBASE
 50
0.0
  9
$ANGDIR
 70
     0
  9
$PDMODE
 70
     0
  9
$PDSIZE
 40
0.0
  9
$PLINEWID
 40
0.0
  9
$COORDS
 70
     2
  9
$SPLFRAME
 70
     0
  9
$SPLINETYPE
 70
     6
  9
$SPLINESEGS
 70
     8
  9
$ATTDIA
 70
     0
  9
$ATTREQ
 70
     1
  9
$HANDLING
 70
     1
  9
$HANDSEED
  5
AEC1
  9
$SURFTAB1
 70
     6
  9
$SURFTAB2
 70
     6
  9
$SURFTYPE
 70
     6
  9
$SURFU
 70
     6
  9
$SURFV
 70
     6
  9
$UCSNAME
  2

  9
$UCSORG
 10
0.0
 20
0.0
 30
0.0
  9
$UCSXDIR
 10
1.0
 20
0.0
 30
0.0
  9
$UCSYDIR
 10
0.0
 20
1.0
 30
0.0
  9
$PUCSNAME
  2

  9
$PUCSORG
 10
0.0
 20
0.0
 30
0.0
  9
$PUCSXDIR
 10
1.0
 20
0.0
 30
0.0
  9
$PUCSYDIR
 10
0.0
 20
1.0
 30
0.0
  9
$USERI1
 70
     0
  9
$USERI2
 70
     0
  9
$USERI3
 70
     0
  9
$USERI4
 70
     0
  9
$USERI5
 70
     0
  9
$USERR1
 40
0.0
  9
$USERR2
 40
0.0
  9
$USERR3
 40
0.0
  9
$USERR4
 40
0.0
  9
$USERR5
 40
0.0
  9
$WORLDVIEW
 70
     1
  9
$SHADEDGE
 70
     3
  9
$SHADEDIF
 70
    70
  9
$TILEMODE
 70
     1
  9
$MAXACTVP
 70
    64
  9
$PLIMCHECK
 70
     0
  9
$PEXTMIN
 10
1.0000000000000000E+020
 20
1.0000000000000000E+020
 30
1.0000000000000000E+020
  9
$PEXTMAX
 10
-1.0000000000000000E+020
 20
-1.0000000000000000E+020
 30
-1.0000000000000000E+020
  9
$PLIMMIN
 10
0.0
 20
0.0
  9
$PLIMMAX
 10
12.0
 20
9.0
  9
$UNITMODE
 70
     0
  9
$VISRETAIN
 70
     1
  9
$PLINEGEN
 70
     0
  9
$PSLTSCALE
 70
     1
  0
ENDSEC
  0
SECTION
  2
TABLES
  0
TABLE
  2
VPORT
 70
     2
  0
VPORT
  2
*ACTIVE
 70
     0
 10
0.0
 20
0.0
 11
1.0
 21
1.0
 12
0.3328403244853787
 22
1.6138854149108539
 13
0.0
 23
0.0
 14
1.0
 24
1.0
 15
0.0
 25
0.0
 16
0.0
 26
0.0
 36
1.0
 17
0.0
 27
0.0
 37
0.0
 40
0.6657049010468819
 41
2.783018867924528
 42
50.0
 43
0.0
 44
0.0
 50
0.0
 51
0.0
 71
     0
 72
  1000
 73
     1
 74
     3
 75
     0
 76
     0
 77
     0
 78
     0
  0
ENDTAB
  0
TABLE
  2
LTYPE
 70
     1
  0
LTYPE
  2
CONTINUOUS
 70
     0
  3
Solid line
 72
    65
 73
     0
 40
0.0
  0
ENDTAB
  0
TABLE
  2
LAYER
 70
   148
  0
LAYER
  2
0
 70
     0
 62
     7
  6
CONTINUOUS
  0
LAYER
  2
11
 70
     0
 62
     7
  6
CONTINUOUS
  0
LAYER
  2
12
 70
     0
 62
     7
  6
CONTINUOUS
  0
LAYER
  2
16
 70
     0
 62
     7
  6
CONTINUOUS
  0
LAYER
  2
28
 70
     0
 62
     7
  6
CONTINUOUS
  0
LAYER
  2
34
 70
     0
 62
     7
  6
CONTINUOUS
  0
LAYER
  2
36
 70
     0
 62
     7
  6
CONTINUOUS
  0
LAYER
  2
37
 70
     0
 62
     7
  6
CONTINUOUS
  0
ENDTAB
  0
TABLE
  2
STYLE
 70
     1
  0
STYLE
  2
STANDARD
 70
     0
 40
0.0
 41
1.0
 50
0.0
 71
     0
 42
0.2
  3
txt
  4

  0
ENDTAB
  0
TABLE
  2
VIEW
 70
     0
  0
ENDTAB
  0
TABLE
  2
UCS
 70
     0
  0
ENDTAB
  0
TABLE
  2
APPID
 70
     4
  0
APPID
  2
ACAD
 70
     0
  0
APPID
  2
ACAD_EXEMPT_FROM_CAD_STANDARDS
 70
     0
  0
APPID
  2
ACAD_PSEXT
 70
     0
  0
APPID
  2
ACAECLAYERSTANDARD
 70
     0
  0
ENDTAB
  0
TABLE
  2
DIMSTYLE
 70
     2
  0
DIMSTYLE
  2
STANDARD
 70
     0
  3

  4

  5

  6

  7

 40
1.0
 41
0.18
 42
0.0625
 43
0.38
 44
0.18
 45
0.0
 46
0.0
 47
0.0
 48
0.0
140
0.18
141
0.09
142
0.0
143
25.399999999999999
144
1.0
145
0.0
146
1.0
147
0.09
 71
     0
 72
     0
 73
     1
 74
     1
 75
     0
 76
     0
 77
     0
 78
     0
170
     0
171
     2
172
     0
173
     0
174
     0
175
     0
176
     0
177
     0
178
     0
  0
ENDTAB
  0
ENDSEC
  0
SECTION
  2
BLOCKS
  0
BLOCK
  8
0
  2
$MODEL_SPACE
 70
     0
 10
0.0
 20
0.0
 30
0.0
  3
$MODEL_SPACE
  1

  0
ENDBLK
  5
9CC7
  8
0
  0
BLOCK
 67
     1
  8
0
  2
$PAPER_SPACE
 70
     0
 10
0.0
 20
0.0
 30
0.0
  3
$PAPER_SPACE
  1

  0
ENDBLK
  5
9CC3
 67
     1
  8
0
  0
ENDSEC
  0
SECTION
  2
ENTITIES
  0
POLYLINE
  5
6AA7
  8
11
 62
    11
 66
     1
 10
0.0
 20
0.0
 30
0.0
  0
VERTEX
  5
AD4D
  8
11
 62
    11
 10
0.0867
 20
1.650099999999999
 30
0.0
  0
VERTEX
  5
AD4E
  8
11
 62
    11
 10
0.0861
 20
1.6516999999999991
 30
0.0
  0
VERTEX
  5
AD4F
  8
11
 62
    11
 10
0.0854
 20
1.6516
 30
0.0
  0
VERTEX
  5
AD50
  8
11
 62
    11
 10
0.0847
 20
1.6528
 30
0.0
  0
VERTEX
  5
AD51
  8
11
 62
    11
 10
0.0825
 20
1.653
 30
0.0
  0
VERTEX
  5
AD52
  8
11
 62
    11
 10
0.0813
 20
1.653799999999999
 30
0.0
  0
VERTEX
  5
AD53
  8
11
 62
    11
 10
0.0795
 20
1.6546000000000001
 30
0.0
  0
VERTEX
  5
AD54
  8
11
 62
    11
 10
0.0781
 20
1.6547000000000001
 30
0.0
  0
VERTEX
  5
AD55
  8
11
 62
    11
 10
0.0764
 20
1.6546000000000001
 30
0.0
  0
VERTEX
  5
AD56
  8
11
 62
    11
 10
0.0754
 20
1.6548
 30
0.0
  0
VERTEX
  5
AD57
  8
11
 62
    11
 10
0.0734
 20
1.655899999999999
 30
0.0
  0
VERTEX
  5
AD58
  8
11
 62
    11
 10
0.0709
 20
1.6555999999999991
 30
0.0
  0
VERTEX
  5
AD59
  8
11
 62
    11
 10
0.0692
 20
1.6557999999999991
 30
0.0
  0
VERTEX
  5
AD5A
  8
11
 62
    11
 10
0.0671
 20
1.6555999999999991
 30
0.0
  0
VERTEX
  5
AD5B
  8
11
 62
    11
 10
0.0659
 20
1.6554999999999991
 30
0.0
  0
VERTEX
  5
AD5C
  8
11
 62
    11
 10
0.0654
 20
1.6549
 30
0.0
  0
VERTEX
  5
AD5D
  8
11
 62
    11
 10
0.0641
 20
1.6554999999999991
 30
0.0
  0
VERTEX
  5
AD5E
  8
11
 62
    11
 10
0.0619
 20
1.6552999999999991
 30
0.0
  0
VERTEX
  5
AD5F
  8
11
 62
    11
 10
0.0616
 20
1.6545000000000001
 30
0.0
  0
VERTEX
  5
AD60
  8
11
 62
    11
 10
0.0613
 20
1.655199999999998
 30
0.0
  0
VERTEX
  5
AD61
  8
11
 62
    11
 10
0.0598
 20
1.655
 30
0.0
  0
VERTEX
  5
AD62
  8
11
 62
    11
 10
0.0584
 20
1.655199999999998
 30
0.0
  0
VERTEX
  5
AD63
  8
11
 62
    11
 10
0.0571
 20
1.6554
 30
0.0
  0
VERTEX
  5
AD64
  8
11
 62
    11
 10
0.0565
 20
1.6543000000000001
 30
0.0
  0
VERTEX
  5
AD65
  8
11
 62
    11
 10
0.0559
 20
1.653
 30
0.0
  0
VERTEX
  5
AD66
  8
11
 62
    11
 10
0.0564
 20
1.6514999999999991
 30
0.0
  0
VERTEX
  5
AD67
  8
11
 62
    11
 10
0.0563
 20
1.649899999999997
 30
0.0
  0
VERTEX
  5
AD68
  8
11
 62
    11
 10
0.0564
 20
1.6472999999999991
 30
0.0
  0
VERTEX
  5
AD69
  8
11
 62
    11
 10
0.0567
 20
1.6448999999999969
 30
0.0
  0
VERTEX
  5
AD6A
  8
11
 62
    11
 10
0.057
 20
1.6429
 30
0.0
  0
VERTEX
  5
AD6B
  8
11
 62
    11
 10
0.0587
 20
1.6411999999999991
 30
0.0
  0
VERTEX
  5
AD6C
  8
11
 62
    11
 10
0.0617
 20
1.6394
 30
0.0
  0
VERTEX
  5
AD6D
  8
11
 62
    11
 10
0.0641
 20
1.6391999999999991
 30
0.0
  0
VERTEX
  5
AD6E
  8
11
 62
    11
 10
0.065
 20
1.6392999999999991
 30
0.0
  0
VERTEX
  5
AD6F
  8
11
 62
    11
 10
0.067
 20
1.6386000000000001
 30
0.0
  0
VERTEX
  5
AD70
  8
11
 62
    11
 10
0.0695
 20
1.6389
 30
0.0
  0
VERTEX
  5
AD71
  8
11
 62
    11
 10
0.0713
 20
1.637999999999999
 30
0.0
  0
VERTEX
  5
AD72
  8
11
 62
    11
 10
0.0733
 20
1.6383000000000001
 30
0.0
  0
VERTEX
  5
AD73
  8
11
 62
    11
 10
0.0752
 20
1.637999999999999
 30
0.0
  0
VERTEX
  5
AD74
  8
11
 62
    11
 10
0.0766
 20
1.638099999999997
 30
0.0
  0
VERTEX
  5
AD75
  8
11
 62
    11
 10
0.0782
 20
1.636999999999998
 30
0.0
  0
VERTEX
  5
AD76
  8
11
 62
    11
 10
0.0811
 20
1.636999999999998
 30
0.0
  0
VERTEX
  5
AD77
  8
11
 62
    11
 10
0.0829
 20
1.6375
 30
0.0
  0
VERTEX
  5
AD78
  8
11
 62
    11
 10
0.0855
 20
1.6375999999999991
 30
0.0
  0
VERTEX
  5
AD79
  8
11
 62
    11
 10
0.0871
 20
1.6384000000000001
 30
0.0
  0
VERTEX
  5
AD7A
  8
11
 62
    11
 10
0.0884
 20
1.639
 30
0.0
  0
VERTEX
  5
AD7B
  8
11
 62
    11
 10
0.0894
 20
1.641
 30
0.0
  0
VERTEX
  5
AD7C
  8
11
 62
    11
 10
0.0915
 20
1.641899999999997
 30
0.0
  0
VERTEX
  5
AD7D
  8
11
 62
    11
 10
0.0928
 20
1.6448999999999969
 30
0.0
  0
VERTEX
  5
AD7E
  8
11
 62
    11
 10
0.0934
 20
1.6462000000000001
 30
0.0
  0
VERTEX
  5
AD7F
  8
11
 62
    11
 10
0.0867
 20
1.650099999999999
 30
0.0
  0
SEQEND
  5
AD80
  8
11
 62
    11
  0
POLYLINE
  5
6AA8
  8
12
 62
    12
 66
     1
 10
0.0
 20
0.0
 30
0.0
  0
VERTEX
  5
AD81
  8
12
 62
    12
 10
0.118
 20
1.7092999999999969
 30
0.0
  0
VERTEX
  5
AD82
  8
12
 62
    12
 10
0.1157
 20
1.7101999999999991
 30
0.0
  0
VERTEX
  5
AD83
  8
12
 62
    12
 10
0.1135
 20
1.7099999999999991
 30
0.0
  0
VERTEX
  5
AD84
  8
12
 62
    12
 10
0.1108
 20
1.7099999999999991
 30
0.0
  0
VERTEX
  5
AD85
  8
12
 62
    12
 10
0.108
 20
1.708499999999999
 30
0.0
  0
VERTEX
  5
AD86
  8
12
 62
    12
 10
0.1062
 20
1.708499999999999
 30
0.0
  0
VERTEX
  5
AD87
  8
12
 62
    12
 10
0.1054
 20
1.7076999999999991
 30
0.0
  0
VERTEX
  5
AD88
  8
12
 62
    12
 10
0.1041
 20
1.7072000000000001
 30
0.0
  0
VERTEX
  5
AD89
  8
12
 62
    12
 10
0.1034
 20
1.7057999999999991
 30
0.0
  0
VERTEX
  5
AD8A
  8
12
 62
    12
 10
0.103
 20
1.7039999999999991
 30
0.0
  0
VERTEX
  5
AD8B
  8
12
 62
    12
 10
0.1025
 20
1.7019
 30
0.0
  0
VERTEX
  5
AD8C
  8
12
 62
    12
 10
0.1021
 20
1.7014
 30
0.0
  0
VERTEX
  5
AD8D
  8
12
 62
    12
 10
0.1012
 20
1.7000999999999991
 30
0.0
  0
VERTEX
  5
AD8E
  8
12
 62
    12
 10
0.0998
 20
1.6989000000000001
 30
0.0
  0
VERTEX
  5
AD8F
  8
12
 62
    12
 10
0.0986
 20
1.6969000000000001
 30
0.0
  0
VERTEX
  5
AD90
  8
12
 62
    12
 10
0.0972
 20
1.6946000000000001
 30
0.0
  0
VERTEX
  5
AD91
  8
12
 62
    12
 10
0.0962
 20
1.6935
 30
0.0
  0
VERTEX
  5
AD92
  8
12
 62
    12
 10
0.0957
 20
1.692199999999997
 30
0.0
  0
VERTEX
  5
AD93
  8
12
 62
    12
 10
0.0949
 20
1.6897999999999991
 30
0.0
  0
VERTEX
  5
AD94
  8
12
 62
    12
 10
0.0936
 20
1.6878
 30
0.0
  0
VERTEX
  5
AD95
  8
12
 62
    12
 10
0.0925
 20
1.6868000000000001
 30
0.0
  0
VERTEX
  5
AD96
  8
12
 62
    12
 10
0.0934
 20
1.6839999999999991
 30
0.0
  0
VERTEX
  5
AD97
  8
12
 62
    12
 10
0.0939
 20
1.6812
 30
0.0
  0
VERTEX
  5
AD98
  8
12
 62
    12
 10
0.0957
 20
1.6789000000000001
 30
0.0
  0
VERTEX
  5
AD99
  8
12
 62
    12
 10
0.0971
 20
1.677299999999998
 30
0.0
  0
VERTEX
  5
AD9A
  8
12
 62
    12
 10
0.098
 20
1.676099999999999
 30
0.0
  0
VERTEX
  5
AD9B
  8
12
 62
    12
 10
0.0996
 20
1.6756
 30
0.0
  0
VERTEX
  5
AD9C
  8
12
 62
    12
 10
0.1006
 20
1.675399999999998
 30
0.0
  0
VERTEX
  5
AD9D
  8
12
 62
    12
 10
0.1019
 20
1.6748000000000001
 30
0.0
  0
VERTEX
  5
AD9E
  8
12
 62
    12
 10
0.1029
 20
1.6757999999999991
 30
0.0
  0
VERTEX
  5
AD9F
  8
12
 62
    12
 10
0.106
 20
1.676099999999999
 30
0.0
  0
VERTEX
  5
ADA0
  8
12
 62
    12
 10
0.1078
 20
1.6767000000000001
 30
0.0
  0
VERTEX
  5
ADA1
  8
12
 62
    12
 10
0.1089
 20
1.6771
 30
0.0
  0
VERTEX
  5
ADA2
  8
12
 62
    12
 10
0.1104
 20
1.6786000000000001
 30
0.0
  0
VERTEX
  5
ADA3
  8
12
 62
    12
 10
0.1119
 20
1.680299999999999
 30
0.0
  0
VERTEX
  5
ADA4
  8
12
 62
    12
 10
0.1129
 20
1.6815999999999991
 30
0.0
  0
VERTEX
  5
ADA5
  8
12
 62
    12
 10
0.1134
 20
1.6829000000000001
 30
0.0
  0
VERTEX
  5
ADA6
  8
12
 62
    12
 10
0.1149
 20
1.6850000000000001
 30
0.0
  0
VERTEX
  5
ADA7
  8
12
 62
    12
 10
0.1162
 20
1.6873
 30
0.0
  0
VERTEX
  5
ADA8
  8
12
 62
    12
 10
0.1178
 20
1.6897999999999991
 30
0.0
  0
VERTEX
  5
ADA9
  8
12
 62
    12
 10
0.1176
 20
1.692099999999999
 30
0.0
  0
VERTEX
  5
ADAA
  8
12
 62
    12
 10
0.1182
 20
1.6946000000000001
 30
0.0
  0
VERTEX
  5
ADAB
  8
12
 62
    12
 10
0.1192
 20
1.6967000000000001
 30
0.0
  0
VERTEX
  5
ADAC
  8
12
 62
    12
 10
0.1202
 20
1.698399999999999
 30
0.0
  0
VERTEX
  5
ADAD
  8
12
 62
    12
 10
0.1202
 20
1.7012999999999969
 30
0.0
  0
VERTEX
  5
ADAE
  8
12
 62
    12
 10
0.1214
 20
1.7032
 30
0.0
  0
VERTEX
  5
ADAF
  8
12
 62
    12
 10
0.1207
 20
1.7040999999999991
 30
0.0
  0
VERTEX
  5
ADB0
  8
12
 62
    12
 10
0.121
 20
1.7056
 30
0.0
  0
VERTEX
  5
ADB1
  8
12
 62
    12
 10
0.1202
 20
1.706599999999999
 30
0.0
  0
VERTEX
  5
ADB2
  8
12
 62
    12
 10
0.119
 20
1.708
 30
0.0
  0
VERTEX
  5
ADB3
  8
12
 62
    12
 10
0.118
 20
1.7092999999999969
 30
0.0
  0
SEQEND
  5
ADB4
  8
12
 62
    12
  0
POLYLINE
  5
6AAC
  8
16
 62
    16
 66
     1
 10
0.0
 20
0.0
 30
0.0
  0
VERTEX
  5
ADB5
  8
16
 62
    16
 10
0.125
 20
1.671199999999998
 30
0.0
  0
VERTEX
  5
ADB6
  8
16
 62
    16
 10
0.1227
 20
1.6704000000000001
 30
0.0
  0
VERTEX
  5
ADB7
  8
16
 62
    16
 10
0.1209
 20
1.6716999999999991
 30
0.0
  0
VERTEX
  5
ADB8
  8
16
 62
    16
 10
0.1207
 20
1.6711
 30
0.0
  0
VERTEX
  5
ADB9
  8
16
 62
    16
 10
0.1198
 20
1.6713
 30
0.0
  0
VERTEX
  5
ADBA
  8
16
 62
    16
 10
0.1175
 20
1.6695
 30
0.0
  0
VERTEX
  5
ADBB
  8
16
 62
    16
 10
0.1163
 20
1.667999999999999
 30
0.0
  0
VERTEX
  5
ADBC
  8
16
 62
    16
 10
0.1152
 20
1.6657999999999991
 30
0.0
  0
VERTEX
  5
ADBD
  8
16
 62
    16
 10
0.1143
 20
1.663999999999997
 30
0.0
  0
VERTEX
  5
ADBE
  8
16
 62
    16
 10
0.1145
 20
1.6617999999999991
 30
0.0
  0
VERTEX
  5
ADBF
  8
16
 62
    16
 10
0.1143
 20
1.6589999999999969
 30
0.0
  0
VERTEX
  5
ADC0
  8
16
 62
    16
 10
0.1142
 20
1.657099999999998
 30
0.0
  0
VERTEX
  5
ADC1
  8
16
 62
    16
 10
0.1139
 20
1.6551
 30
0.0
  0
VERTEX
  5
ADC2
  8
16
 62
    16
 10
0.1149
 20
1.651899999999999
 30
0.0
  0
VERTEX
  5
ADC3
  8
16
 62
    16
 10
0.1146
 20
1.6493999999999991
 30
0.0
  0
VERTEX
  5
ADC4
  8
16
 62
    16
 10
0.1155
 20
1.6475999999999991
 30
0.0
  0
VERTEX
  5
ADC5
  8
16
 62
    16
 10
0.1162
 20
1.6447000000000001
 30
0.0
  0
VERTEX
  5
ADC6
  8
16
 62
    16
 10
0.1156
 20
1.6426000000000001
 30
0.0
  0
VERTEX
  5
ADC7
  8
16
 62
    16
 10
0.1159
 20
1.6411999999999991
 30
0.0
  0
VERTEX
  5
ADC8
  8
16
 62
    16
 10
0.1175
 20
1.639799999999999
 30
0.0
  0
VERTEX
  5
ADC9
  8
16
 62
    16
 10
0.1195
 20
1.637699999999999
 30
0.0
  0
VERTEX
  5
ADCA
  8
16
 62
    16
 10
0.1205
 20
1.635799999999997
 30
0.0
  0
VERTEX
  5
ADCB
  8
16
 62
    16
 10
0.1211
 20
1.634999999999998
 30
0.0
  0
VERTEX
  5
ADCC
  8
16
 62
    16
 10
0.1222
 20
1.6334999999999991
 30
0.0
  0
VERTEX
  5
ADCD
  8
16
 62
    16
 10
0.1223
 20
1.6322000000000001
 30
0.0
  0
VERTEX
  5
ADCE
  8
16
 62
    16
 10
0.124
 20
1.6326000000000001
 30
0.0
  0
VERTEX
  5
ADCF
  8
16
 62
    16
 10
0.1274
 20
1.6324000000000001
 30
0.0
  0
VERTEX
  5
ADD0
  8
16
 62
    16
 10
0.1298
 20
1.6324000000000001
 30
0.0
  0
VERTEX
  5
ADD1
  8
16
 62
    16
 10
0.1328
 20
1.6341000000000001
 30
0.0
  0
VERTEX
  5
ADD2
  8
16
 62
    16
 10
0.1348
 20
1.6345000000000001
 30
0.0
  0
VERTEX
  5
ADD3
  8
16
 62
    16
 10
0.1352
 20
1.635899999999999
 30
0.0
  0
VERTEX
  5
ADD4
  8
16
 62
    16
 10
0.1351
 20
1.6382000000000001
 30
0.0
  0
VERTEX
  5
ADD5
  8
16
 62
    16
 10
0.1358
 20
1.6408
 30
0.0
  0
VERTEX
  5
ADD6
  8
16
 62
    16
 10
0.137
 20
1.6429
 30
0.0
  0
VERTEX
  5
ADD7
  8
16
 62
    16
 10
0.1369
 20
1.644099999999999
 30
0.0
  0
VERTEX
  5
ADD8
  8
16
 62
    16
 10
0.1363
 20
1.646099999999997
 30
0.0
  0
VERTEX
  5
ADD9
  8
16
 62
    16
 10
0.1362
 20
1.647899999999999
 30
0.0
  0
VERTEX
  5
ADDA
  8
16
 62
    16
 10
0.1359
 20
1.6491999999999969
 30
0.0
  0
VERTEX
  5
ADDB
  8
16
 62
    16
 10
0.136
 20
1.650999999999998
 30
0.0
  0
VERTEX
  5
ADDC
  8
16
 62
    16
 10
0.1356
 20
1.6531
 30
0.0
  0
VERTEX
  5
ADDD
  8
16
 62
    16
 10
0.1355
 20
1.653999999999999
 30
0.0
  0
VERTEX
  5
ADDE
  8
16
 62
    16
 10
0.1348
 20
1.6556999999999991
 30
0.0
  0
VERTEX
  5
ADDF
  8
16
 62
    16
 10
0.1348
 20
1.6573999999999991
 30
0.0
  0
VERTEX
  5
ADE0
  8
16
 62
    16
 10
0.1341
 20
1.6592999999999991
 30
0.0
  0
VERTEX
  5
ADE1
  8
16
 62
    16
 10
0.1343
 20
1.6612999999999991
 30
0.0
  0
VERTEX
  5
ADE2
  8
16
 62
    16
 10
0.1349
 20
1.6631
 30
0.0
  0
VERTEX
  5
ADE3
  8
16
 62
    16
 10
0.1337
 20
1.6665000000000001
 30
0.0
  0
VERTEX
  5
ADE4
  8
16
 62
    16
 10
0.1312
 20
1.6685000000000001
 30
0.0
  0
VERTEX
  5
ADE5
  8
16
 62
    16
 10
0.1293
 20
1.671199999999998
 30
0.0
  0
VERTEX
  5
ADE6
  8
16
 62
    16
 10
0.1269
 20
1.672199999999999
 30
0.0
  0
VERTEX
  5
ADE7
  8
16
 62
    16
 10
0.125
 20
1.671199999999998
 30
0.0
  0
SEQEND
  5
ADE8
  8
16
 62
    16
  0
POLYLINE
  5
6AB8
  8
28
 62
    28
 66
     1
 10
0.0
 20
0.0
 30
0.0
  0
VERTEX
  5
ADE9
  8
28
 62
    28
 10
0.0097
 20
1.6584000000000001
 30
0.0
  0
VERTEX
  5
ADEA
  8
28
 62
    28
 10
0.0122
 20
1.6573
 30
0.0
  0
VERTEX
  5
ADEB
  8
28
 62
    28
 10
0.0149
 20
1.6563000000000001
 30
0.0
  0
VERTEX
  5
ADEC
  8
28
 62
    28
 10
0.0163
 20
1.6567000000000001
 30
0.0
  0
VERTEX
  5
ADED
  8
28
 62
    28
 10
0.0201
 20
1.658199999999999
 30
0.0
  0
VERTEX
  5
ADEE
  8
28
 62
    28
 10
0.0216
 20
1.6585000000000001
 30
0.0
  0
VERTEX
  5
ADEF
  8
28
 62
    28
 10
0.0243
 20
1.6594999999999991
 30
0.0
  0
VERTEX
  5
ADF0
  8
28
 62
    28
 10
0.0265
 20
1.6603000000000001
 30
0.0
  0
VERTEX
  5
ADF1
  8
28
 62
    28
 10
0.0282
 20
1.6608000000000001
 30
0.0
  0
VERTEX
  5
ADF2
  8
28
 62
    28
 10
0.0291
 20
1.6629
 30
0.0
  0
VERTEX
  5
ADF3
  8
28
 62
    28
 10
0.0295
 20
1.6635999999999991
 30
0.0
  0
VERTEX
  5
ADF4
  8
28
 62
    28
 10
0.032
 20
1.666199999999999
 30
0.0
  0
VERTEX
  5
ADF5
  8
28
 62
    28
 10
0.0329
 20
1.6676
 30
0.0
  0
VERTEX
  5
ADF6
  8
28
 62
    28
 10
0.0338
 20
1.6695999999999991
 30
0.0
  0
VERTEX
  5
ADF7
  8
28
 62
    28
 10
0.0356
 20
1.672099999999999
 30
0.0
  0
VERTEX
  5
ADF8
  8
28
 62
    28
 10
0.0372
 20
1.6728000000000001
 30
0.0
  0
VERTEX
  5
ADF9
  8
28
 62
    28
 10
0.0373
 20
1.674099999999999
 30
0.0
  0
VERTEX
  5
ADFA
  8
28
 62
    28
 10
0.0375
 20
1.676199999999997
 30
0.0
  0
VERTEX
  5
ADFB
  8
28
 62
    28
 10
0.0392
 20
1.677999999999999
 30
0.0
  0
VERTEX
  5
ADFC
  8
28
 62
    28
 10
0.0413
 20
1.6798
 30
0.0
  0
VERTEX
  5
ADFD
  8
28
 62
    28
 10
0.0417
 20
1.6827000000000001
 30
0.0
  0
VERTEX
  5
ADFE
  8
28
 62
    28
 10
0.0416
 20
1.6867000000000001
 30
0.0
  0
VERTEX
  5
ADFF
  8
28
 62
    28
 10
0.0402
 20
1.688199999999999
 30
0.0
  0
VERTEX
  5
AE00
  8
28
 62
    28
 10
0.0388
 20
1.691399999999998
 30
0.0
  0
VERTEX
  5
AE01
  8
28
 62
    28
 10
0.0377
 20
1.692099999999999
 30
0.0
  0
VERTEX
  5
AE02
  8
28
 62
    28
 10
0.0356
 20
1.6931
 30
0.0
  0
VERTEX
  5
AE03
  8
28
 62
    28
 10
0.0326
 20
1.694399999999999
 30
0.0
  0
VERTEX
  5
AE04
  8
28
 62
    28
 10
0.0318
 20
1.6948000000000001
 30
0.0
  0
VERTEX
  5
AE05
  8
28
 62
    28
 10
0.0293
 20
1.6940999999999991
 30
0.0
  0
VERTEX
  5
AE06
  8
28
 62
    28
 10
0.0288
 20
1.6940999999999991
 30
0.0
  0
VERTEX
  5
AE07
  8
28
 62
    28
 10
0.0274
 20
1.6932
 30
0.0
  0
VERTEX
  5
AE08
  8
28
 62
    28
 10
0.0245
 20
1.6932999999999969
 30
0.0
  0
VERTEX
  5
AE09
  8
28
 62
    28
 10
0.0226
 20
1.692399999999999
 30
0.0
  0
VERTEX
  5
AE0A
  8
28
 62
    28
 10
0.0212
 20
1.6897999999999991
 30
0.0
  0
VERTEX
  5
AE0B
  8
28
 62
    28
 10
0.0194
 20
1.6865000000000001
 30
0.0
  0
VERTEX
  5
AE0C
  8
28
 62
    28
 10
0.0173
 20
1.685299999999998
 30
0.0
  0
VERTEX
  5
AE0D
  8
28
 62
    28
 10
0.017
 20
1.6834999999999991
 30
0.0
  0
VERTEX
  5
AE0E
  8
28
 62
    28
 10
0.0167
 20
1.6813
 30
0.0
  0
VERTEX
  5
AE0F
  8
28
 62
    28
 10
0.0144
 20
1.6795999999999991
 30
0.0
  0
VERTEX
  5
AE10
  8
28
 62
    28
 10
0.0144
 20
1.6793
 30
0.0
  0
VERTEX
  5
AE11
  8
28
 62
    28
 10
0.0115
 20
1.676099999999999
 30
0.0
  0
VERTEX
  5
AE12
  8
28
 62
    28
 10
0.0102
 20
1.6729000000000001
 30
0.0
  0
VERTEX
  5
AE13
  8
28
 62
    28
 10
0.0079
 20
1.6714
 30
0.0
  0
VERTEX
  5
AE14
  8
28
 62
    28
 10
0.0071
 20
1.6691
 30
0.0
  0
VERTEX
  5
AE15
  8
28
 62
    28
 10
0.0061
 20
1.6678999999999991
 30
0.0
  0
VERTEX
  5
AE16
  8
28
 62
    28
 10
0.0049
 20
1.6655999999999991
 30
0.0
  0
VERTEX
  5
AE17
  8
28
 62
    28
 10
0.0067
 20
1.6644000000000001
 30
0.0
  0
VERTEX
  5
AE18
  8
28
 62
    28
 10
0.0067
 20
1.6615999999999991
 30
0.0
  0
VERTEX
  5
AE19
  8
28
 62
    28
 10
0.0069
 20
1.6608000000000001
 30
0.0
  0
VERTEX
  5
AE1A
  8
28
 62
    28
 10
0.0083
 20
1.6597999999999991
 30
0.0
  0
VERTEX
  5
AE1B
  8
28
 62
    28
 10
0.0097
 20
1.6584000000000001
 30
0.0
  0
SEQEND
  5
AE1C
  8
28
 62
    28
  0
POLYLINE
  5
6ABE
  8
34
 62
    34
 66
     1
 10
0.0
 20
0.0
 30
0.0
  0
VERTEX
  5
AE1D
  8
34
 62
    34
 10
0.1506
 20
1.6466000000000001
 30
0.0
  0
VERTEX
  5
AE1E
  8
34
 62
    34
 10
0.1526
 20
1.6442000000000001
 30
0.0
  0
VERTEX
  5
AE1F
  8
34
 62
    34
 10
0.1539
 20
1.6428
 30
0.0
  0
VERTEX
  5
AE20
  8
34
 62
    34
 10
0.1557
 20
1.641799999999999
 30
0.0
  0
VERTEX
  5
AE21
  8
34
 62
    34
 10
0.1577
 20
1.641899999999997
 30
0.0
  0
VERTEX
  5
AE22
  8
34
 62
    34
 10
0.1591
 20
1.6405000000000001
 30
0.0
  0
VERTEX
  5
AE23
  8
34
 62
    34
 10
0.1605
 20
1.641
 30
0.0
  0
VERTEX
  5
AE24
  8
34
 62
    34
 10
0.1634
 20
1.6402000000000001
 30
0.0
  0
VERTEX
  5
AE25
  8
34
 62
    34
 10
0.1651
 20
1.6402000000000001
 30
0.0
  0
VERTEX
  5
AE26
  8
34
 62
    34
 10
0.1683
 20
1.6407
 30
0.0
  0
VERTEX
  5
AE27
  8
34
 62
    34
 10
0.1696
 20
1.641799999999999
 30
0.0
  0
VERTEX
  5
AE28
  8
34
 62
    34
 10
0.1721
 20
1.642099999999999
 30
0.0
  0
VERTEX
  5
AE29
  8
34
 62
    34
 10
0.1739
 20
1.6422000000000001
 30
0.0
  0
VERTEX
  5
AE2A
  8
34
 62
    34
 10
0.1753
 20
1.6428
 30
0.0
  0
VERTEX
  5
AE2B
  8
34
 62
    34
 10
0.1777
 20
1.6422000000000001
 30
0.0
  0
VERTEX
  5
AE2C
  8
34
 62
    34
 10
0.1811
 20
1.642999999999998
 30
0.0
  0
VERTEX
  5
AE2D
  8
34
 62
    34
 10
0.184
 20
1.6426000000000001
 30
0.0
  0
VERTEX
  5
AE2E
  8
34
 62
    34
 10
0.1867
 20
1.6429
 30
0.0
  0
VERTEX
  5
AE2F
  8
34
 62
    34
 10
0.1878
 20
1.643899999999999
 30
0.0
  0
VERTEX
  5
AE30
  8
34
 62
    34
 10
0.1886
 20
1.6448
 30
0.0
  0
VERTEX
  5
AE31
  8
34
 62
    34
 10
0.1895
 20
1.6464000000000001
 30
0.0
  0
VERTEX
  5
AE32
  8
34
 62
    34
 10
0.1907
 20
1.6471999999999991
 30
0.0
  0
VERTEX
  5
AE33
  8
34
 62
    34
 10
0.1911
 20
1.649099999999998
 30
0.0
  0
VERTEX
  5
AE34
  8
34
 62
    34
 10
0.1923
 20
1.6512999999999991
 30
0.0
  0
VERTEX
  5
AE35
  8
34
 62
    34
 10
0.1928
 20
1.6528999999999969
 30
0.0
  0
VERTEX
  5
AE36
  8
34
 62
    34
 10
0.1908
 20
1.6546000000000001
 30
0.0
  0
VERTEX
  5
AE37
  8
34
 62
    34
 10
0.1898
 20
1.656199999999999
 30
0.0
  0
VERTEX
  5
AE38
  8
34
 62
    34
 10
0.1891
 20
1.6576999999999991
 30
0.0
  0
VERTEX
  5
AE39
  8
34
 62
    34
 10
0.1871
 20
1.6591
 30
0.0
  0
VERTEX
  5
AE3A
  8
34
 62
    34
 10
0.185
 20
1.6608000000000001
 30
0.0
  0
VERTEX
  5
AE3B
  8
34
 62
    34
 10
0.1825
 20
1.661
 30
0.0
  0
VERTEX
  5
AE3C
  8
34
 62
    34
 10
0.1791
 20
1.6615999999999991
 30
0.0
  0
VERTEX
  5
AE3D
  8
34
 62
    34
 10
0.177
 20
1.6613999999999991
 30
0.0
  0
VERTEX
  5
AE3E
  8
34
 62
    34
 10
0.1757
 20
1.6611
 30
0.0
  0
VERTEX
  5
AE3F
  8
34
 62
    34
 10
0.1742
 20
1.6624000000000001
 30
0.0
  0
VERTEX
  5
AE40
  8
34
 62
    34
 10
0.1735
 20
1.661899999999999
 30
0.0
  0
VERTEX
  5
AE41
  8
34
 62
    34
 10
0.1718
 20
1.6629
 30
0.0
  0
VERTEX
  5
AE42
  8
34
 62
    34
 10
0.169
 20
1.662099999999997
 30
0.0
  0
VERTEX
  5
AE43
  8
34
 62
    34
 10
0.1664
 20
1.661899999999999
 30
0.0
  0
VERTEX
  5
AE44
  8
34
 62
    34
 10
0.1649
 20
1.6615
 30
0.0
  0
VERTEX
  5
AE45
  8
34
 62
    34
 10
0.1626
 20
1.6597999999999991
 30
0.0
  0
VERTEX
  5
AE46
  8
34
 62
    34
 10
0.1615
 20
1.6589
 30
0.0
  0
VERTEX
  5
AE47
  8
34
 62
    34
 10
0.1591
 20
1.6589
 30
0.0
  0
VERTEX
  5
AE48
  8
34
 62
    34
 10
0.1576
 20
1.6589
 30
0.0
  0
VERTEX
  5
AE49
  8
34
 62
    34
 10
0.1555
 20
1.6573999999999991
 30
0.0
  0
VERTEX
  5
AE4A
  8
34
 62
    34
 10
0.1536
 20
1.6564000000000001
 30
0.0
  0
VERTEX
  5
AE4B
  8
34
 62
    34
 10
0.153
 20
1.653999999999999
 30
0.0
  0
VERTEX
  5
AE4C
  8
34
 62
    34
 10
0.1528
 20
1.652199999999997
 30
0.0
  0
VERTEX
  5
AE4D
  8
34
 62
    34
 10
0.1528
 20
1.6504000000000001
 30
0.0
  0
VERTEX
  5
AE4E
  8
34
 62
    34
 10
0.1533
 20
1.6488
 30
0.0
  0
VERTEX
  5
AE4F
  8
34
 62
    34
 10
0.1506
 20
1.6466000000000001
 30
0.0
  0
SEQEND
  5
AE50
  8
34
 62
    34
  0
POLYLINE
  5
6AC0
  8
36
 62
    36
 66
     1
 10
0.0
 20
0.0
 30
0.0
  0
VERTEX
  5
AE51
  8
36
 62
    36
 10
0.1719
 20
1.690299999999997
 30
0.0
  0
VERTEX
  5
AE52
  8
36
 62
    36
 10
0.1703
 20
1.6913
 30
0.0
  0
VERTEX
  5
AE53
  8
36
 62
    36
 10
0.1689
 20
1.6935
 30
0.0
  0
VERTEX
  5
AE54
  8
36
 62
    36
 10
0.1668
 20
1.6950000000000001
 30
0.0
  0
VERTEX
  5
AE55
  8
36
 62
    36
 10
0.1649
 20
1.6967000000000001
 30
0.0
  0
VERTEX
  5
AE56
  8
36
 62
    36
 10
0.1634
 20
1.6969000000000001
 30
0.0
  0
VERTEX
  5
AE57
  8
36
 62
    36
 10
0.1613
 20
1.6967000000000001
 30
0.0
  0
VERTEX
  5
AE58
  8
36
 62
    36
 10
0.1597
 20
1.696399999999997
 30
0.0
  0
VERTEX
  5
AE59
  8
36
 62
    36
 10
0.1578
 20
1.6953
 30
0.0
  0
VERTEX
  5
AE5A
  8
36
 62
    36
 10
0.1565
 20
1.6935999999999991
 30
0.0
  0
VERTEX
  5
AE5B
  8
36
 62
    36
 10
0.1549
 20
1.6930000000000001
 30
0.0
  0
VERTEX
  5
AE5C
  8
36
 62
    36
 10
0.1535
 20
1.691399999999998
 30
0.0
  0
VERTEX
  5
AE5D
  8
36
 62
    36
 10
0.1518
 20
1.6906000000000001
 30
0.0
  0
VERTEX
  5
AE5E
  8
36
 62
    36
 10
0.1494
 20
1.690299999999997
 30
0.0
  0
VERTEX
  5
AE5F
  8
36
 62
    36
 10
0.1473
 20
1.690099999999999
 30
0.0
  0
VERTEX
  5
AE60
  8
36
 62
    36
 10
0.1454
 20
1.6893
 30
0.0
  0
VERTEX
  5
AE61
  8
36
 62
    36
 10
0.1437
 20
1.688399999999997
 30
0.0
  0
VERTEX
  5
AE62
  8
36
 62
    36
 10
0.1415
 20
1.6875999999999991
 30
0.0
  0
VERTEX
  5
AE63
  8
36
 62
    36
 10
0.1395
 20
1.686399999999999
 30
0.0
  0
VERTEX
  5
AE64
  8
36
 62
    36
 10
0.1382
 20
1.684399999999999
 30
0.0
  0
VERTEX
  5
AE65
  8
36
 62
    36
 10
0.1376
 20
1.6839999999999991
 30
0.0
  0
VERTEX
  5
AE66
  8
36
 62
    36
 10
0.1364
 20
1.6833
 30
0.0
  0
VERTEX
  5
AE67
  8
36
 62
    36
 10
0.1358
 20
1.6812
 30
0.0
  0
VERTEX
  5
AE68
  8
36
 62
    36
 10
0.1352
 20
1.680399999999997
 30
0.0
  0
VERTEX
  5
AE69
  8
36
 62
    36
 10
0.1351
 20
1.6794
 30
0.0
  0
VERTEX
  5
AE6A
  8
36
 62
    36
 10
0.1363
 20
1.677999999999999
 30
0.0
  0
VERTEX
  5
AE6B
  8
36
 62
    36
 10
0.1375
 20
1.676099999999999
 30
0.0
  0
VERTEX
  5
AE6C
  8
36
 62
    36
 10
0.1384
 20
1.6737
 30
0.0
  0
VERTEX
  5
AE6D
  8
36
 62
    36
 10
0.1398
 20
1.6734999999999991
 30
0.0
  0
VERTEX
  5
AE6E
  8
36
 62
    36
 10
0.142
 20
1.6724000000000001
 30
0.0
  0
VERTEX
  5
AE6F
  8
36
 62
    36
 10
0.1448
 20
1.6717999999999991
 30
0.0
  0
VERTEX
  5
AE70
  8
36
 62
    36
 10
0.1465
 20
1.6726000000000001
 30
0.0
  0
VERTEX
  5
AE71
  8
36
 62
    36
 10
0.1476
 20
1.6727000000000001
 30
0.0
  0
VERTEX
  5
AE72
  8
36
 62
    36
 10
0.1491
 20
1.673
 30
0.0
  0
VERTEX
  5
AE73
  8
36
 62
    36
 10
0.1503
 20
1.6737
 30
0.0
  0
VERTEX
  5
AE74
  8
36
 62
    36
 10
0.1514
 20
1.674299999999997
 30
0.0
  0
VERTEX
  5
AE75
  8
36
 62
    36
 10
0.1527
 20
1.673999999999999
 30
0.0
  0
VERTEX
  5
AE76
  8
36
 62
    36
 10
0.1535
 20
1.6737999999999991
 30
0.0
  0
VERTEX
  5
AE77
  8
36
 62
    36
 10
0.1544
 20
1.6745000000000001
 30
0.0
  0
VERTEX
  5
AE78
  8
36
 62
    36
 10
0.1559
 20
1.676099999999999
 30
0.0
  0
VERTEX
  5
AE79
  8
36
 62
    36
 10
0.1582
 20
1.6766000000000001
 30
0.0
  0
VERTEX
  5
AE7A
  8
36
 62
    36
 10
0.1595
 20
1.678099999999997
 30
0.0
  0
VERTEX
  5
AE7B
  8
36
 62
    36
 10
0.1606
 20
1.6793
 30
0.0
  0
VERTEX
  5
AE7C
  8
36
 62
    36
 10
0.1622
 20
1.6807000000000001
 30
0.0
  0
VERTEX
  5
AE7D
  8
36
 62
    36
 10
0.1631
 20
1.6818999999999991
 30
0.0
  0
VERTEX
  5
AE7E
  8
36
 62
    36
 10
0.1644
 20
1.6833
 30
0.0
  0
VERTEX
  5
AE7F
  8
36
 62
    36
 10
0.1657
 20
1.6836
 30
0.0
  0
VERTEX
  5
AE80
  8
36
 62
    36
 10
0.1663
 20
1.684099999999999
 30
0.0
  0
VERTEX
  5
AE81
  8
36
 62
    36
 10
0.1665
 20
1.6854
 30
0.0
  0
VERTEX
  5
AE82
  8
36
 62
    36
 10
0.1661
 20
1.6874
 30
0.0
  0
VERTEX
  5
AE83
  8
36
 62
    36
 10
0.1719
 20
1.690299999999997
 30
0.0
  0
SEQEND
  5
AE84
  8
36
 62
    36
  0
POLYLINE
  5
6AC1
  8
37
 62
    37
 66
     1
 10
0.0
 20
0.0
 30
0.0
  0
VERTEX
  5
AE85
  8
37
 62
    37
 10
0.1059
 20
1.6201000000000001
 30
0.0
  0
VERTEX
  5
AE86
  8
37
 62
    37
 10
0.1049
 20
1.621599999999999
 30
0.0
  0
VERTEX
  5
AE87
  8
37
 62
    37
 10
0.1038
 20
1.6222000000000001
 30
0.0
  0
VERTEX
  5
AE88
  8
37
 62
    37
 10
0.102
 20
1.6227
 30
0.0
  0
VERTEX
  5
AE89
  8
37
 62
    37
 10
0.1002
 20
1.623699999999999
 30
0.0
  0
VERTEX
  5
AE8A
  8
37
 62
    37
 10
0.0998
 20
1.6254999999999991
 30
0.0
  0
VERTEX
  5
AE8B
  8
37
 62
    37
 10
0.0989
 20
1.6269
 30
0.0
  0
VERTEX
  5
AE8C
  8
37
 62
    37
 10
0.0977
 20
1.6286
 30
0.0
  0
VERTEX
  5
AE8D
  8
37
 62
    37
 10
0.0952
 20
1.629599999999999
 30
0.0
  0
VERTEX
  5
AE8E
  8
37
 62
    37
 10
0.0925
 20
1.6306
 30
0.0
  0
VERTEX
  5
AE8F
  8
37
 62
    37
 10
0.09
 20
1.6306
 30
0.0
  0
VERTEX
  5
AE90
  8
37
 62
    37
 10
0.0866
 20
1.6302000000000001
 30
0.0
  0
VERTEX
  5
AE91
  8
37
 62
    37
 10
0.0837
 20
1.629799999999999
 30
0.0
  0
VERTEX
  5
AE92
  8
37
 62
    37
 10
0.0808
 20
1.6285000000000001
 30
0.0
  0
VERTEX
  5
AE93
  8
37
 62
    37
 10
0.0782
 20
1.6283000000000001
 30
0.0
  0
VERTEX
  5
AE94
  8
37
 62
    37
 10
0.0778
 20
1.6266
 30
0.0
  0
VERTEX
  5
AE95
  8
37
 62
    37
 10
0.0767
 20
1.625799999999999
 30
0.0
  0
VERTEX
  5
AE96
  8
37
 62
    37
 10
0.0761
 20
1.6250999999999991
 30
0.0
  0
VERTEX
  5
AE97
  8
37
 62
    37
 10
0.0749
 20
1.6245000000000001
 30
0.0
  0
VERTEX
  5
AE98
  8
37
 62
    37
 10
0.0731
 20
1.623899999999999
 30
0.0
  0
VERTEX
  5
AE99
  8
37
 62
    37
 10
0.0723
 20
1.6232999999999991
 30
0.0
  0
VERTEX
  5
AE9A
  8
37
 62
    37
 10
0.0711
 20
1.6225000000000001
 30
0.0
  0
VERTEX
  5
AE9B
  8
37
 62
    37
 10
0.069
 20
1.6212999999999991
 30
0.0
  0
VERTEX
  5
AE9C
  8
37
 62
    37
 10
0.0682
 20
1.6185999999999969
 30
0.0
  0
VERTEX
  5
AE9D
  8
37
 62
    37
 10
0.0665
 20
1.6166999999999969
 30
0.0
  0
VERTEX
  5
AE9E
  8
37
 62
    37
 10
0.0669
 20
1.6146
 30
0.0
  0
VERTEX
  5
AE9F
  8
37
 62
    37
 10
0.0667
 20
1.6121000000000001
 30
0.0
  0
VERTEX
  5
AEA0
  8
37
 62
    37
 10
0.0679
 20
1.611499999999999
 30
0.0
  0
VERTEX
  5
AEA1
  8
37
 62
    37
 10
0.0688
 20
1.609799999999999
 30
0.0
  0
VERTEX
  5
AEA2
  8
37
 62
    37
 10
0.0708
 20
1.6090999999999991
 30
0.0
  0
VERTEX
  5
AEA3
  8
37
 62
    37
 10
0.0738
 20
1.6086
 30
0.0
  0
VERTEX
  5
AEA4
  8
37
 62
    37
 10
0.0754
 20
1.6089999999999991
 30
0.0
  0
VERTEX
  5
AEA5
  8
37
 62
    37
 10
0.0777
 20
1.6090999999999991
 30
0.0
  0
VERTEX
  5
AEA6
  8
37
 62
    37
 10
0.0796
 20
1.6089999999999991
 30
0.0
  0
VERTEX
  5
AEA7
  8
37
 62
    37
 10
0.0814
 20
1.6092999999999991
 30
0.0
  0
VERTEX
  5
AEA8
  8
37
 62
    37
 10
0.0843
 20
1.6101000000000001
 30
0.0
  0
VERTEX
  5
AEA9
  8
37
 62
    37
 10
0.0855
 20
1.6093999999999991
 30
0.0
  0
VERTEX
  5
AEAA
  8
37
 62
    37
 10
0.087
 20
1.6102000000000001
 30
0.0
  0
VERTEX
  5
AEAB
  8
37
 62
    37
 10
0.0883
 20
1.6099000000000001
 30
0.0
  0
VERTEX
  5
AEAC
  8
37
 62
    37
 10
0.0896
 20
1.6109999999999991
 30
0.0
  0
VERTEX
  5
AEAD
  8
37
 62
    37
 10
0.0918
 20
1.611499999999999
 30
0.0
  0
VERTEX
  5
AEAE
  8
37
 62
    37
 10
0.0931
 20
1.6108999999999991
 30
0.0
  0
VERTEX
  5
AEAF
  8
37
 62
    37
 10
0.0944
 20
1.6109999999999991
 30
0.0
  0
VERTEX
  5
AEB0
  8
37
 62
    37
 10
0.0962
 20
1.6107
 30
0.0
  0
VERTEX
  5
AEB1
  8
37
 62
    37
 10
0.0976
 20
1.6108
 30
0.0
  0
VERTEX
  5
AEB2
  8
37
 62
    37
 10
0.1003
 20
1.6107
 30
0.0
  0
VERTEX
  5
AEB3
  8
37
 62
    37
 10
0.1008
 20
1.6110999999999991
 30
0.0
  0
VERTEX
  5
AEB4
  8
37
 62
    37
 10
0.1016
 20
1.6131
 30
0.0
  0
VERTEX
  5
AEB5
  8
37
 62
    37
 10
0.1023
 20
1.6149
 30
0.0
  0
VERTEX
  5
AEB6
  8
37
 62
    37
 10
0.1028
 20
1.6169
 30
0.0
  0
VERTEX
  5
AEB7
  8
37
 62
    37
 10
0.1059
 20
1.6201000000000001
 30
0.0
  0
SEQEND
  5
AEB8
  8
37
 62
    37
  0
ENDSEC
  0
EOF
