  0
SECTION
  2
ENTITIES
  0
CIRCLE
  8
0
 62
0
 10
     9.1054
 20
     1.8360
 30
     0.0000
 40
     0.0252
  0
CIRCLE
  8
0
 62
0
 10
     9.1693
 20
     1.8192
 30
     0.0000
 40
     0.0215
  0
CIRCLE
  8
0
 62
0
 10
     9.4851
 20
     1.4265
 30
     0.0000
 40
     0.0303
  0
CIRCLE
  8
0
 62
0
 10
     9.4677
 20
     1.4806
 30
     0.0000
 40
     0.0265
  0
CIRCLE
  8
0
 62
0
 10
     9.5132
 20
     1.3640
 30
     0.0000
 40
     0.0381
  0
CIRCLE
  8
0
 62
0
 10
     9.5359
 20
     1.4187
 30
     0.0000
 40
     0.0210
  0
CIRCLE
  8
0
 62
0
 10
     9.5757
 20
     1.3293
 30
     0.0000
 40
     0.0334
  0
CIRCLE
  8
0
 62
0
 10
     9.6169
 20
     1.2769
 30
     0.0000
 40
     0.0332
  0
CIRCLE
  8
0
 62
0
 10
     9.7052
 20
     1.0663
 30
     0.0000
 40
     0.0237
  0
CIRCLE
  8
0
 62
0
 10
     9.6789
 20
     1.0022
 30
     0.0000
 40
     0.0293
  0
CIRCLE
  8
0
 62
0
 10
     8.7511
 20
     2.2881
 30
     0.0000
 40
     0.0138
  0
CIRCLE
  8
0
 62
0
 10
     8.6996
 20
     2.2737
 30
     0.0000
 40
     0.0397
  0
CIRCLE
  8
0
 62
0
 10
     9.7031
 20
     0.6498
 30
     0.0000
 40
     0.0207
  0
CIRCLE
  8
0
 62
0
 10
     9.7142
 20
     0.7172
 30
     0.0000
 40
     0.0147
  0
CIRCLE
  8
0
 62
0
 10
     9.6772
 20
     0.1551
 30
     0.0000
 40
     0.0275
  0
CIRCLE
  8
0
 62
0
 10
     9.7147
 20
     0.1366
 30
     0.0000
 40
     0.0143
  0
CIRCLE
  8
0
 62
0
 10
     9.6736
 20
    -0.0461
 30
     0.0000
 40
     0.0172
  0
CIRCLE
  8
0
 62
0
 10
     9.6945
 20
    -0.0109
 30
     0.0000
 40
     0.0237
  0
CIRCLE
  8
0
 62
0
 10
     7.5162
 20
     3.0488
 30
     0.0000
 40
     0.0150
  0
CIRCLE
  8
0
 62
0
 10
     7.4514
 20
     3.0488
 30
     0.0000
 40
     0.0234
  0
CIRCLE
  8
0
 62
0
 10
     7.3220
 20
     3.1684
 30
     0.0000
 40
     0.0127
  0
CIRCLE
  8
0
 62
0
 10
     7.2404
 20
     3.1646
 30
     0.0000
 40
     0.0368
  0
CIRCLE
  8
0
 62
0
 10
     7.1449
 20
     3.4471
 30
     0.0000
 40
     0.0156
  0
CIRCLE
  8
0
 62
0
 10
     7.0998
 20
     3.4542
 30
     0.0000
 40
     0.0300
  0
CIRCLE
  8
0
 62
0
 10
     7.1415
 20
     3.7698
 30
     0.0000
 40
     0.0191
  0
CIRCLE
  8
0
 62
0
 10
     7.0854
 20
     3.8196
 30
     0.0000
 40
     0.0371
  0
CIRCLE
  8
0
 62
0
 10
     7.1415
 20
     4.1256
 30
     0.0000
 40
     0.0192
  0
CIRCLE
  8
0
 62
0
 10
     7.0844
 20
     4.1969
 30
     0.0000
 40
     0.0286
  0
CIRCLE
  8
0
 62
0
 10
     7.1415
 20
     4.1256
 30
     0.0000
 40
     0.0192
  0
CIRCLE
  8
0
 62
0
 10
     7.0844
 20
     4.1969
 30
     0.0000
 40
     0.0286
  0
CIRCLE
  8
0
 62
0
 10
     6.8109
 20
     4.5539
 30
     0.0000
 40
     0.0223
  0
CIRCLE
  8
0
 62
0
 10
     6.7271
 20
     4.5575
 30
     0.0000
 40
     0.0331
  0
CIRCLE
  8
0
 62
0
 10
     6.7769
 20
     4.5850
 30
     0.0000
 40
     0.0238
  0
CIRCLE
  8
0
 62
0
 10
     6.6893
 20
     4.6118
 30
     0.0000
 40
     0.0331
  0
CIRCLE
  8
0
 62
0
 10
     6.6122
 20
     4.7566
 30
     0.0000
 40
     0.0165
  0
CIRCLE
  8
0
 62
0
 10
     6.5610
 20
     4.7341
 30
     0.0000
 40
     0.0394
  0
CIRCLE
  8
0
 62
0
 10
     6.5907
 20
     4.7797
 30
     0.0000
 40
     0.0150
  0
CIRCLE
  8
0
 62
0
 10
     6.5094
 20
     4.7899
 30
     0.0000
 40
     0.0366
  0
CIRCLE
  8
0
 62
0
 10
     6.3777
 20
     4.9868
 30
     0.0000
 40
     0.0161
  0
CIRCLE
  8
0
 62
0
 10
     6.3422
 20
     4.9610
 30
     0.0000
 40
     0.0277
  0
CIRCLE
  8
0
 62
0
 10
     6.3155
 20
     5.0381
 30
     0.0000
 40
     0.0230
  0
CIRCLE
  8
0
 62
0
 10
     6.2328
 20
     5.0767
 30
     0.0000
 40
     0.0205
  0
CIRCLE
  8
0
 62
0
 10
     6.2756
 20
     5.0780
 30
     0.0000
 40
     0.0224
  0
CIRCLE
  8
0
 62
0
 10
     6.1957
 20
     5.1202
 30
     0.0000
 40
     0.0366
  0
CIRCLE
  8
0
 62
0
 10
     6.2756
 20
     5.0780
 30
     0.0000
 40
     0.0224
  0
CIRCLE
  8
0
 62
0
 10
     6.1957
 20
     5.1202
 30
     0.0000
 40
     0.0366
  0
CIRCLE
  8
0
 62
0
 10
     5.7729
 20
     5.2809
 30
     0.0000
 40
     0.0306
  0
CIRCLE
  8
0
 62
0
 10
     5.6720
 20
     5.2656
 30
     0.0000
 40
     0.0262
  0
CIRCLE
  8
0
 62
0
 10
     5.5644
 20
     5.2815
 30
     0.0000
 40
     0.0292
  0
CIRCLE
  8
0
 62
0
 10
     5.4481
 20
     5.2570
 30
     0.0000
 40
     0.0378
  0
CIRCLE
  8
0
 62
0
 10
     5.3095
 20
     5.2857
 30
     0.0000
 40
     0.0380
  0
CIRCLE
  8
0
 62
0
 10
     5.4074
 20
     5.2970
 30
     0.0000
 40
     0.0193
  0
CIRCLE
  8
0
 62
0
 10
     3.7753
 20
    -0.0436
 30
     0.0000
 40
     0.0196
  0
CIRCLE
  8
0
 62
0
 10
     3.8464
 20
    -0.0435
 30
     0.0000
 40
     0.0198
  0
CIRCLE
  8
0
 62
0
 10
     4.8852
 20
     5.3570
 30
     0.0000
 40
     0.0157
  0
CIRCLE
  8
0
 62
0
 10
     4.8033
 20
     5.3602
 30
     0.0000
 40
     0.0299
  0
CIRCLE
  8
0
 62
0
 10
     4.6254
 20
     5.5646
 30
     0.0000
 40
     0.0157
  0
CIRCLE
  8
0
 62
0
 10
     4.5828
 20
     5.5359
 30
     0.0000
 40
     0.0357
  0
CIRCLE
  8
0
 62
0
 10
     4.4901
 20
     5.6725
 30
     0.0000
 40
     0.0159
  0
CIRCLE
  8
0
 62
0
 10
     4.4546
 20
     5.6411
 30
     0.0000
 40
     0.0315
  0
CIRCLE
  8
0
 62
0
 10
     4.4411
 20
     5.7166
 30
     0.0000
 40
     0.0121
  0
CIRCLE
  8
0
 62
0
 10
     4.3669
 20
     5.7308
 30
     0.0000
 40
     0.0291
  0
CIRCLE
  8
0
 62
0
 10
     2.3465
 20
     0.0260
 30
     0.0000
 40
     0.0229
  0
CIRCLE
  8
0
 62
0
 10
     2.3770
 20
    -0.0446
 30
     0.0000
 40
     0.0187
  0
CIRCLE
  8
0
 62
0
 10
     2.3570
 20
     3.2666
 30
     0.0000
 40
     0.0334
  0
CIRCLE
  8
0
 62
0
 10
     2.3831
 20
     3.3641
 30
     0.0000
 40
     0.0239
  0
CIRCLE
  8
0
 62
0
 10
     3.7830
 20
     5.9430
 30
     0.0000
 40
     0.0216
  0
CIRCLE
  8
0
 62
0
 10
     3.7042
 20
     5.9171
 30
     0.0000
 40
     0.0362
  0
CIRCLE
  8
0
 62
0
 10
     3.0513
 20
     5.7407
 30
     0.0000
 40
     0.0166
  0
CIRCLE
  8
0
 62
0
 10
     3.0190
 20
     5.6615
 30
     0.0000
 40
     0.0326
  0
CIRCLE
  8
500
 62
1
 10
     3.0242
 20
     5.7148
 30
     0.0000
 40
     0.0209
  0
CIRCLE
  8
0
 62
0
 10
     2.5470
 20
     5.2586
 30
     0.0000
 40
     0.0270
  0
CIRCLE
  8
0
 62
0
 10
     2.4926
 20
     5.2540
 30
     0.0000
 40
     0.0276
  0
CIRCLE
  8
50
 62
10
 10
     9.1471
 20
     1.6986
 30
     0.0000
 40
     0.0328
  0
CIRCLE
  8
50
 62
10
 10
     9.2624
 20
     1.6268
 30
     0.0000
 40
     0.0334
  0
CIRCLE
  8
50
 62
10
 10
     9.1557
 20
     1.7547
 30
     0.0000
 40
     0.0240
  0
CIRCLE
  8
50
 62
10
 10
     9.2159
 20
     1.7190
 30
     0.0000
 40
     0.0390
  0
CIRCLE
  8
50
 62
10
 10
     9.3252
 20
     1.6015
 30
     0.0000
 40
     0.0343
  0
CIRCLE
  8
50
 62
10
 10
     9.3387
 20
     1.5137
 30
     0.0000
 40
     0.0290
  0
CIRCLE
  8
50
 62
10
 10
     9.3093
 20
     1.6544
 30
     0.0000
 40
     0.0210
  0
CIRCLE
  8
50
 62
10
 10
     9.0501
 20
     1.8082
 30
     0.0000
 40
     0.0367
  0
CIRCLE
  8
50
 62
10
 10
     9.1315
 20
     1.7952
 30
     0.0000
 40
     0.0232
  0
CIRCLE
  8
50
 62
10
 10
     9.1978
 20
     1.7814
 30
     0.0000
 40
     0.0259
  0
CIRCLE
  8
50
 62
10
 10
     9.2770
 20
     1.6914
 30
     0.0000
 40
     0.0281
  0
CIRCLE
  8
50
 62
10
 10
     9.1054
 20
     1.8360
 30
     0.0000
 40
     0.0252
  0
CIRCLE
  8
50
 62
10
 10
     9.3837
 20
     1.4878
 30
     0.0000
 40
     0.0230
  0
CIRCLE
  8
50
 62
10
 10
     9.1693
 20
     1.8192
 30
     0.0000
 40
     0.0215
  0
CIRCLE
  8
50
 62
10
 10
     9.4024
 20
     1.4182
 30
     0.0000
 40
     0.0212
  0
CIRCLE
  8
50
 62
10
 10
     9.3766
 20
     1.5606
 30
     0.0000
 40
     0.0314
  0
CIRCLE
  8
50
 62
10
 10
     9.0242
 20
     1.8648
 30
     0.0000
 40
     0.0256
  0
CIRCLE
  8
50
 62
10
 10
     9.0790
 20
     1.8897
 30
     0.0000
 40
     0.0346
  0
CIRCLE
  8
50
 62
10
 10
     9.1458
 20
     1.8505
 30
     0.0000
 40
     0.0177
  0
CIRCLE
  8
50
 62
10
 10
     9.3736
 20
     1.6062
 30
     0.0000
 40
     0.0143
  0
CIRCLE
  8
50
 62
10
 10
     9.4267
 20
     1.5220
 30
     0.0000
 40
     0.0319
  0
CIRCLE
  8
50
 62
10
 10
     9.4216
 20
     1.4595
 30
     0.0000
 40
     0.0242
  0
CIRCLE
  8
50
 62
10
 10
     9.4415
 20
     1.3779
 30
     0.0000
 40
     0.0349
  0
CIRCLE
  8
50
 62
10
 10
     9.4677
 20
     1.4806
 30
     0.0000
 40
     0.0265
  0
CIRCLE
  8
50
 62
10
 10
     9.0181
 20
     1.9205
 30
     0.0000
 40
     0.0305
  0
CIRCLE
  8
50
 62
10
 10
     9.4851
 20
     1.4265
 30
     0.0000
 40
     0.0303
  0
CIRCLE
  8
50
 62
10
 10
     9.0629
 20
     1.9402
 30
     0.0000
 40
     0.0184
  0
CIRCLE
  8
50
 62
10
 10
     8.9626
 20
     1.9471
 30
     0.0000
 40
     0.0311
  0
CIRCLE
  8
50
 62
10
 10
     9.0129
 20
     1.9795
 30
     0.0000
 40
     0.0287
  0
CIRCLE
  8
50
 62
10
 10
     9.5132
 20
     1.3640
 30
     0.0000
 40
     0.0381
  0
CIRCLE
  8
50
 62
10
 10
     9.5040
 20
     1.4653
 30
     0.0000
 40
     0.0130
  0
CIRCLE
  8
50
 62
10
 10
     9.5359
 20
     1.4187
 30
     0.0000
 40
     0.0210
  0
CIRCLE
  8
50
 62
10
 10
     9.5201
 20
     1.2932
 30
     0.0000
 40
     0.0329
  0
CIRCLE
  8
50
 62
10
 10
     8.9570
 20
     2.0162
 30
     0.0000
 40
     0.0382
  0
CIRCLE
  8
50
 62
10
 10
     9.5757
 20
     1.3293
 30
     0.0000
 40
     0.0334
  0
CIRCLE
  8
50
 62
10
 10
     8.8966
 20
     1.9929
 30
     0.0000
 40
     0.0267
  0
CIRCLE
  8
50
 62
10
 10
     8.9032
 20
     2.0395
 30
     0.0000
 40
     0.0205
  0
CIRCLE
  8
50
 62
10
 10
     9.5642
 20
     1.3902
 30
     0.0000
 40
     0.0192
  0
CIRCLE
  8
50
 62
10
 10
     9.5637
 20
     1.2578
 30
     0.0000
 40
     0.0233
  0
CIRCLE
  8
50
 62
10
 10
     9.6169
 20
     1.2769
 30
     0.0000
 40
     0.0332
  0
CIRCLE
  8
50
 62
10
 10
     8.8504
 20
     2.0279
 30
     0.0000
 40
     0.0313
  0
CIRCLE
  8
50
 62
10
 10
     8.9324
 20
     2.0738
 30
     0.0000
 40
     0.0245
  0
CIRCLE
  8
50
 62
10
 10
     8.8777
 20
     2.0765
 30
     0.0000
 40
     0.0244
  0
CIRCLE
  8
50
 62
10
 10
     9.6335
 20
     1.2086
 30
     0.0000
 40
     0.0371
  0
CIRCLE
  8
50
 62
10
 10
     9.6430
 20
     1.1513
 30
     0.0000
 40
     0.0209
  0
CIRCLE
  8
50
 62
10
 10
     9.6682
 20
     1.2565
 30
     0.0000
 40
     0.0220
  0
CIRCLE
  8
50
 62
10
 10
     8.9066
 20
     2.1095
 30
     0.0000
 40
     0.0195
  0
CIRCLE
  8
50
 62
10
 10
     8.8229
 20
     2.0836
 30
     0.0000
 40
     0.0309
  0
CIRCLE
  8
50
 62
10
 10
     8.8669
 20
     2.1215
 30
     0.0000
 40
     0.0220
  0
CIRCLE
  8
50
 62
10
 10
     9.6259
 20
     1.3262
 30
     0.0000
 40
     0.0170
  0
CIRCLE
  8
50
 62
10
 10
     9.6959
 20
     1.2175
 30
     0.0000
 40
     0.0258
  0
CIRCLE
  8
50
 62
10
 10
     8.8165
 20
     2.1457
 30
     0.0000
 40
     0.0316
  0
CIRCLE
  8
50
 62
10
 10
     9.6616
 20
     1.2917
 30
     0.0000
 40
     0.0139
  0
CIRCLE
  8
50
 62
10
 10
     9.6962
 20
     1.1589
 30
     0.0000
 40
     0.0327
  0
CIRCLE
  8
50
 62
10
 10
     9.6644
 20
     1.1092
 30
     0.0000
 40
     0.0263
  0
CIRCLE
  8
50
 62
10
 10
     8.7648
 20
     2.1741
 30
     0.0000
 40
     0.0275
  0
CIRCLE
  8
50
 62
10
 10
     8.8103
 20
     2.2039
 30
     0.0000
 40
     0.0269
  0
CIRCLE
  8
50
 62
10
 10
     8.7153
 20
     2.2049
 30
     0.0000
 40
     0.0308
  0
CIRCLE
  8
50
 62
10
 10
     9.6536
 20
     1.0549
 30
     0.0000
 40
     0.0291
  0
CIRCLE
  8
50
 62
10
 10
     9.6208
 20
     0.9872
 30
     0.0000
 40
     0.0306
  0
CIRCLE
  8
50
 62
10
 10
     9.7098
 20
     1.1089
 30
     0.0000
 40
     0.0192
  0
CIRCLE
  8
50
 62
10
 10
     8.7658
 20
     2.2438
 30
     0.0000
 40
     0.0329
  0
CIRCLE
  8
50
 62
10
 10
     9.6182
 20
     1.0971
 30
     0.0000
 40
     0.0214
  0
CIRCLE
  8
50
 62
10
 10
     9.6471
 20
     0.9403
 30
     0.0000
 40
     0.0231
  0
CIRCLE
  8
50
 62
10
 10
     9.6789
 20
     1.0022
 30
     0.0000
 40
     0.0293
  0
CIRCLE
  8
50
 62
10
 10
     9.7052
 20
     1.0663
 30
     0.0000
 40
     0.0237
  0
CIRCLE
  8
50
 62
10
 10
     8.8462
 20
     2.1818
 30
     0.0000
 40
     0.0153
  0
CIRCLE
  8
50
 62
10
 10
     8.6996
 20
     2.2737
 30
     0.0000
 40
     0.0397
  0
CIRCLE
  8
50
 62
10
 10
     9.6298
 20
     0.8940
 30
     0.0000
 40
     0.0264
  0
CIRCLE
  8
50
 62
10
 10
     9.6993
 20
     0.9470
 30
     0.0000
 40
     0.0296
  0
CIRCLE
  8
50
 62
10
 10
     8.7511
 20
     2.2881
 30
     0.0000
 40
     0.0138
  0
CIRCLE
  8
50
 62
10
 10
     8.6226
 20
     2.2893
 30
     0.0000
 40
     0.0388
  0
CIRCLE
  8
50
 62
10
 10
     9.7143
 20
     1.0287
 30
     0.0000
 40
     0.0149
  0
CIRCLE
  8
50
 62
10
 10
     9.6837
 20
     0.8922
 30
     0.0000
 40
     0.0274
  0
CIRCLE
  8
50
 62
10
 10
     8.6714
 20
     2.3366
 30
     0.0000
 40
     0.0291
  0
CIRCLE
  8
50
 62
10
 10
     8.7367
 20
     2.3081
 30
     0.0000
 40
     0.0109
  0
CIRCLE
  8
50
 62
10
 10
     9.6540
 20
     0.8413
 30
     0.0000
 40
     0.0316
  0
CIRCLE
  8
50
 62
10
 10
     8.5636
 20
     2.3356
 30
     0.0000
 40
     0.0362
  0
CIRCLE
  8
50
 62
10
 10
     9.7070
 20
     0.8487
 30
     0.0000
 40
     0.0219
  0
CIRCLE
  8
50
 62
10
 10
     9.7185
 20
     1.0037
 30
     0.0000
 40
     0.0104
  0
CIRCLE
  8
50
 62
10
 10
     8.6213
 20
     2.3638
 30
     0.0000
 40
     0.0280
  0
CIRCLE
  8
50
 62
10
 10
     8.4962
 20
     2.3395
 30
     0.0000
 40
     0.0313
  0
CIRCLE
  8
50
 62
10
 10
     9.6978
 20
     0.7965
 30
     0.0000
 40
     0.0311
  0
CIRCLE
  8
50
 62
10
 10
     8.5779
 20
     2.3963
 30
     0.0000
 40
     0.0262
  0
CIRCLE
  8
50
 62
10
 10
     8.5284
 20
     2.3798
 30
     0.0000
 40
     0.0203
  0
CIRCLE
  8
50
 62
10
 10
     9.6118
 20
     0.7165
 30
     0.0000
 40
     0.0349
  0
CIRCLE
  8
50
 62
10
 10
     9.6477
 20
     0.7653
 30
     0.0000
 40
     0.0257
  0
CIRCLE
  8
50
 62
10
 10
     9.6234
 20
     0.6605
 30
     0.0000
 40
     0.0222
  0
CIRCLE
  8
50
 62
10
 10
     8.4363
 20
     2.3749
 30
     0.0000
 40
     0.0383
  0
CIRCLE
  8
50
 62
10
 10
     8.5365
 20
     2.4218
 30
     0.0000
 40
     0.0224
  0
CIRCLE
  8
50
 62
10
 10
     9.6219
 20
     0.5889
 30
     0.0000
 40
     0.0341
  0
CIRCLE
  8
50
 62
10
 10
     9.6901
 20
     0.7444
 30
     0.0000
 40
     0.0216
  0
CIRCLE
  8
50
 62
10
 10
     8.4951
 20
     2.4058
 30
     0.0000
 40
     0.0219
  0
CIRCLE
  8
50
 62
10
 10
     9.6742
 20
     0.6936
 30
     0.0000
 40
     0.0317
  0
CIRCLE
  8
50
 62
10
 10
     9.6103
 20
     0.5322
 30
     0.0000
 40
     0.0238
  0
CIRCLE
  8
50
 62
10
 10
     8.5020
 20
     2.4481
 30
     0.0000
 40
     0.0210
  0
CIRCLE
  8
50
 62
10
 10
     9.6106
 20
     0.4693
 30
     0.0000
 40
     0.0391
  0
CIRCLE
  8
50
 62
10
 10
     9.6623
 20
     0.6428
 30
     0.0000
 40
     0.0205
  0
CIRCLE
  8
50
 62
10
 10
     9.6723
 20
     0.5368
 30
     0.0000
 40
     0.0383
  0
CIRCLE
  8
50
 62
10
 10
     8.3975
 20
     2.4307
 30
     0.0000
 40
     0.0296
  0
CIRCLE
  8
50
 62
10
 10
     8.4488
 20
     2.4338
 30
     0.0000
 40
     0.0217
  0
CIRCLE
  8
50
 62
10
 10
     9.7031
 20
     0.6498
 30
     0.0000
 40
     0.0207
  0
CIRCLE
  8
50
 62
10
 10
     9.7142
 20
     0.7172
 30
     0.0000
 40
     0.0147
  0
CIRCLE
  8
50
 62
10
 10
     8.4680
 20
     2.4702
 30
     0.0000
 40
     0.0195
  0
CIRCLE
  8
50
 62
10
 10
     9.6172
 20
     0.3921
 30
     0.0000
 40
     0.0384
  0
CIRCLE
  8
50
 62
10
 10
     9.6890
 20
     0.6087
 30
     0.0000
 40
     0.0227
  0
CIRCLE
  8
50
 62
10
 10
     8.4209
 20
     2.4856
 30
     0.0000
 40
     0.0301
  0
CIRCLE
  8
50
 62
10
 10
     9.6819
 20
     0.4668
 30
     0.0000
 40
     0.0324
  0
CIRCLE
  8
50
 62
10
 10
     9.6874
 20
     0.4021
 30
     0.0000
 40
     0.0325
  0
CIRCLE
  8
50
 62
10
 10
     8.3588
 20
     2.4685
 30
     0.0000
 40
     0.0245
  0
CIRCLE
  8
50
 62
10
 10
     8.3756
 20
     2.5125
 30
     0.0000
 40
     0.0226
  0
CIRCLE
  8
50
 62
10
 10
     8.3164
 20
     2.5081
 30
     0.0000
 40
     0.0335
  0
CIRCLE
  8
50
 62
10
 10
     9.7161
 20
     0.4372
 30
     0.0000
 40
     0.0128
  0
CIRCLE
  8
50
 62
10
 10
     9.6643
 20
     0.3490
 30
     0.0000
 40
     0.0254
  0
CIRCLE
  8
50
 62
10
 10
     9.7092
 20
     0.3546
 30
     0.0000
 40
     0.0197
  0
CIRCLE
  8
50
 62
10
 10
     9.6411
 20
     0.3003
 30
     0.0000
 40
     0.0284
  0
CIRCLE
  8
50
 62
10
 10
     8.3518
 20
     2.5436
 30
     0.0000
 40
     0.0166
  0
CIRCLE
  8
50
 62
10
 10
     8.2522
 20
     2.5356
 30
     0.0000
 40
     0.0364
  0
CIRCLE
  8
50
 62
10
 10
     8.3206
 20
     2.5600
 30
     0.0000
 40
     0.0187
  0
CIRCLE
  8
50
 62
10
 10
     9.6976
 20
     0.3125
 30
     0.0000
 40
     0.0239
  0
CIRCLE
  8
50
 62
10
 10
     9.6115
 20
     0.2388
 30
     0.0000
 40
     0.0399
  0
CIRCLE
  8
50
 62
10
 10
     8.2874
 20
     2.5790
 30
     0.0000
 40
     0.0196
  0
CIRCLE
  8
50
 62
10
 10
     8.1955
 20
     2.5614
 30
     0.0000
 40
     0.0259
  0
CIRCLE
  8
50
 62
10
 10
     9.6836
 20
     0.2612
 30
     0.0000
 40
     0.0293
  0
CIRCLE
  8
50
 62
10
 10
     9.0863
 20
     0.0520
 30
     0.0000
 40
     0.0365
  0
CIRCLE
  8
50
 62
10
 10
     9.1782
 20
     0.0472
 30
     0.0000
 40
     0.0253
  0
CIRCLE
  8
50
 62
10
 10
     8.8808
 20
     0.0444
 30
     0.0000
 40
     0.0354
  0
CIRCLE
  8
50
 62
10
 10
     9.2598
 20
     0.0479
 30
     0.0000
 40
     0.0269
  0
CIRCLE
  8
50
 62
10
 10
     9.3095
 20
     0.0191
 30
     0.0000
 40
     0.0306
  0
CIRCLE
  8
50
 62
10
 10
     9.2183
 20
     0.0251
 30
     0.0000
 40
     0.0205
  0
CIRCLE
  8
50
 62
10
 10
     9.1375
 20
     0.0129
 30
     0.0000
 40
     0.0280
  0
CIRCLE
  8
50
 62
10
 10
     8.9335
 20
     0.0184
 30
     0.0000
 40
     0.0234
  0
CIRCLE
  8
50
 62
10
 10
     9.0126
 20
     0.0323
 30
     0.0000
 40
     0.0397
  0
CIRCLE
  8
50
 62
10
 10
     9.6695
 20
     0.2078
 30
     0.0000
 40
     0.0259
  0
CIRCLE
  8
50
 62
10
 10
     8.2351
 20
     2.5968
 30
     0.0000
 40
     0.0272
  0
CIRCLE
  8
50
 62
10
 10
     8.1754
 20
     2.6214
 30
     0.0000
 40
     0.0373
  0
CIRCLE
  8
50
 62
10
 10
     8.7677
 20
     0.0518
 30
     0.0000
 40
     0.0318
  0
CIRCLE
  8
50
 62
10
 10
     9.0698
 20
    -0.0212
 30
     0.0000
 40
     0.0385
  0
CIRCLE
  8
50
 62
10
 10
     8.9685
 20
    -0.0147
 30
     0.0000
 40
     0.0248
  0
CIRCLE
  8
50
 62
10
 10
     8.8959
 20
    -0.0181
 30
     0.0000
 40
     0.0290
  0
CIRCLE
  8
50
 62
10
 10
     9.3881
 20
     0.0114
 30
     0.0000
 40
     0.0391
  0
CIRCLE
  8
50
 62
10
 10
     9.6296
 20
     0.1767
 30
     0.0000
 40
     0.0248
  0
CIRCLE
  8
50
 62
10
 10
     9.2538
 20
    -0.0230
 30
     0.0000
 40
     0.0393
  0
CIRCLE
  8
50
 62
10
 10
     8.8312
 20
    -0.0077
 30
     0.0000
 40
     0.0365
  0
CIRCLE
  8
50
 62
10
 10
     9.0102
 20
    -0.0395
 30
     0.0000
 40
     0.0238
  0
CIRCLE
  8
50
 62
10
 10
     8.7078
 20
     0.0443
 30
     0.0000
 40
     0.0285
  0
CIRCLE
  8
50
 62
10
 10
     9.1299
 20
    -0.0387
 30
     0.0000
 40
     0.0242
  0
CIRCLE
  8
50
 62
10
 10
     9.3178
 20
    -0.0371
 30
     0.0000
 40
     0.0262
  0
CIRCLE
  8
50
 62
10
 10
     9.4426
 20
     0.0383
 30
     0.0000
 40
     0.0217
  0
CIRCLE
  8
50
 62
10
 10
     9.6248
 20
     0.1140
 30
     0.0000
 40
     0.0381
  0
CIRCLE
  8
50
 62
10
 10
     9.7109
 20
     0.2225
 30
     0.0000
 40
     0.0180
  0
CIRCLE
  8
50
 62
10
 10
     9.6772
 20
     0.1551
 30
     0.0000
 40
     0.0275
  0
CIRCLE
  8
50
 62
10
 10
     8.0822
 20
     2.5923
 30
     0.0000
 40
     0.0292
  0
CIRCLE
  8
50
 62
10
 10
     8.1085
 20
     2.6524
 30
     0.0000
 40
     0.0364
  0
CIRCLE
  8
50
 62
10
 10
     8.7406
 20
     0.0011
 30
     0.0000
 40
     0.0256
  0
CIRCLE
  8
50
 62
10
 10
     8.6543
 20
     0.0071
 30
     0.0000
 40
     0.0367
  0
CIRCLE
  8
50
 62
10
 10
     8.9760
 20
    -0.0510
 30
     0.0000
 40
     0.0123
  0
CIRCLE
  8
50
 62
10
 10
     8.9362
 20
    -0.0443
 30
     0.0000
 40
     0.0190
  0
CIRCLE
  8
50
 62
10
 10
     9.4472
 20
    -0.0056
 30
     0.0000
 40
     0.0225
  0
CIRCLE
  8
50
 62
10
 10
     9.6908
 20
     0.0998
 30
     0.0000
 40
     0.0294
  0
CIRCLE
  8
50
 62
10
 10
     8.0492
 20
     2.6357
 30
     0.0000
 40
     0.0252
  0
CIRCLE
  8
50
 62
10
 10
     8.6000
 20
     0.0251
 30
     0.0000
 40
     0.0205
  0
CIRCLE
  8
50
 62
10
 10
     8.7757
 20
    -0.0370
 30
     0.0000
 40
     0.0262
  0
CIRCLE
  8
50
 62
10
 10
     8.7022
 20
    -0.0357
 30
     0.0000
 40
     0.0276
  0
CIRCLE
  8
50
 62
10
 10
     9.4883
 20
     0.0284
 30
     0.0000
 40
     0.0250
  0
CIRCLE
  8
50
 62
10
 10
     9.7147
 20
     0.1366
 30
     0.0000
 40
     0.0143
  0
CIRCLE
  8
50
 62
10
 10
     9.5601
 20
     0.0313
 30
     0.0000
 40
     0.0240
  0
CIRCLE
  8
50
 62
10
 10
     9.6424
 20
     0.0530
 30
     0.0000
 40
     0.0255
  0
CIRCLE
  8
50
 62
10
 10
     9.3640
 20
    -0.0429
 30
     0.0000
 40
     0.0204
  0
CIRCLE
  8
50
 62
10
 10
     9.4198
 20
    -0.0410
 30
     0.0000
 40
     0.0223
  0
CIRCLE
  8
50
 62
10
 10
     8.4710
 20
     0.0379
 30
     0.0000
 40
     0.0291
  0
CIRCLE
  8
50
 62
10
 10
     8.5410
 20
     0.0277
 30
     0.0000
 40
     0.0205
  0
CIRCLE
  8
50
 62
10
 10
     8.5934
 20
    -0.0291
 30
     0.0000
 40
     0.0341
  0
CIRCLE
  8
50
 62
10
 10
     9.7163
 20
     0.1633
 30
     0.0000
 40
     0.0126
  0
CIRCLE
  8
50
 62
10
 10
     9.4910
 20
    -0.0201
 30
     0.0000
 40
     0.0236
  0
CIRCLE
  8
50
 62
10
 10
     9.6956
 20
     0.0417
 30
     0.0000
 40
     0.0289
  0
CIRCLE
  8
50
 62
10
 10
     9.6080
 20
     0.0129
 30
     0.0000
 40
     0.0273
  0
CIRCLE
  8
50
 62
10
 10
     8.0526
 20
     2.6944
 30
     0.0000
 40
     0.0336
  0
CIRCLE
  8
50
 62
10
 10
     8.5071
 20
     0.0008
 30
     0.0000
 40
     0.0228
  0
CIRCLE
  8
50
 62
10
 10
     8.4194
 20
     0.0524
 30
     0.0000
 40
     0.0207
  0
CIRCLE
  8
50
 62
10
 10
     8.6590
 20
    -0.0463
 30
     0.0000
 40
     0.0169
  0
CIRCLE
  8
50
 62
10
 10
     9.5607
 20
    -0.0280
 30
     0.0000
 40
     0.0353
  0
CIRCLE
  8
50
 62
10
 10
     9.6555
 20
     0.0090
 30
     0.0000
 40
     0.0202
  0
CIRCLE
  8
50
 62
10
 10
     7.9851
 20
     2.6734
 30
     0.0000
 40
     0.0371
  0
CIRCLE
  8
50
 62
10
 10
     8.0082
 20
     2.7276
 30
     0.0000
 40
     0.0218
  0
CIRCLE
  8
50
 62
10
 10
     8.4614
 20
    -0.0164
 30
     0.0000
 40
     0.0261
  0
CIRCLE
  8
50
 62
10
 10
     8.3791
 20
     0.0408
 30
     0.0000
 40
     0.0212
  0
CIRCLE
  8
50
 62
10
 10
     9.6355
 20
    -0.0304
 30
     0.0000
 40
     0.0240
  0
CIRCLE
  8
50
 62
10
 10
     9.6945
 20
    -0.0109
 30
     0.0000
 40
     0.0237
  0
CIRCLE
  8
50
 62
10
 10
     8.3296
 20
     0.0125
 30
     0.0000
 40
     0.0358
  0
CIRCLE
  8
50
 62
10
 10
     8.5367
 20
    -0.0340
 30
     0.0000
 40
     0.0228
  0
CIRCLE
  8
50
 62
10
 10
     8.4117
 20
     0.0054
 30
     0.0000
 40
     0.0269
  0
CIRCLE
  8
50
 62
10
 10
     7.9149
 20
     2.6957
 30
     0.0000
 40
     0.0365
  0
CIRCLE
  8
50
 62
10
 10
     7.9576
 20
     2.7526
 30
     0.0000
 40
     0.0347
  0
CIRCLE
  8
50
 62
10
 10
     8.2630
 20
     0.0197
 30
     0.0000
 40
     0.0255
  0
CIRCLE
  8
50
 62
10
 10
     8.4216
 20
    -0.0415
 30
     0.0000
 40
     0.0210
  0
CIRCLE
  8
50
 62
10
 10
     8.3734
 20
    -0.0337
 30
     0.0000
 40
     0.0278
  0
CIRCLE
  8
50
 62
10
 10
     9.6736
 20
    -0.0461
 30
     0.0000
 40
     0.0172
  0
CIRCLE
  8
50
 62
10
 10
     7.8963
 20
     2.7561
 30
     0.0000
 40
     0.0267
  0
CIRCLE
  8
50
 62
10
 10
     8.2815
 20
    -0.0329
 30
     0.0000
 40
     0.0303
  0
CIRCLE
  8
50
 62
10
 10
     8.2188
 20
     0.0041
 30
     0.0000
 40
     0.0214
  0
CIRCLE
  8
50
 62
10
 10
     8.1585
 20
     0.0168
 30
     0.0000
 40
     0.0368
  0
CIRCLE
  8
50
 62
10
 10
     8.3286
 20
    -0.0449
 30
     0.0000
 40
     0.0183
  0
CIRCLE
  8
50
 62
10
 10
     8.2281
 20
    -0.0398
 30
     0.0000
 40
     0.0234
  0
CIRCLE
  8
50
 62
10
 10
     8.1009
 20
     0.0324
 30
     0.0000
 40
     0.0229
  0
CIRCLE
  8
50
 62
10
 10
     7.9225
 20
     2.7965
 30
     0.0000
 40
     0.0215
  0
CIRCLE
  8
50
 62
10
 10
     7.8708
 20
     2.8085
 30
     0.0000
 40
     0.0315
  0
CIRCLE
  8
50
 62
10
 10
     9.7058
 20
    -0.0480
 30
     0.0000
 40
     0.0152
  0
CIRCLE
  8
50
 62
10
 10
     8.1042
 20
    -0.0182
 30
     0.0000
 40
     0.0278
  0
CIRCLE
  8
50
 62
10
 10
     8.0404
 20
     0.0216
 30
     0.0000
 40
     0.0385
  0
CIRCLE
  8
50
 62
10
 10
     7.9832
 20
     0.0554
 30
     0.0000
 40
     0.0280
  0
CIRCLE
  8
50
 62
10
 10
     8.0566
 20
    -0.0390
 30
     0.0000
 40
     0.0242
  0
CIRCLE
  8
50
 62
10
 10
     8.1485
 20
    -0.0412
 30
     0.0000
 40
     0.0221
  0
CIRCLE
  8
50
 62
10
 10
     7.8035
 20
     2.7871
 30
     0.0000
 40
     0.0391
  0
CIRCLE
  8
50
 62
10
 10
     7.8291
 20
     2.8438
 30
     0.0000
 40
     0.0231
  0
CIRCLE
  8
50
 62
10
 10
     7.9734
 20
    -0.0057
 30
     0.0000
 40
     0.0339
  0
CIRCLE
  8
50
 62
10
 10
     7.9174
 20
     0.0290
 30
     0.0000
 40
     0.0320
  0
CIRCLE
  8
50
 62
10
 10
     7.7804
 20
     2.8477
 30
     0.0000
 40
     0.0258
  0
CIRCLE
  8
50
 62
10
 10
     7.8592
 20
     0.0541
 30
     0.0000
 40
     0.0314
  0
CIRCLE
  8
50
 62
10
 10
     7.9161
 20
    -0.0322
 30
     0.0000
 40
     0.0292
  0
CIRCLE
  8
50
 62
10
 10
     7.7240
 20
     2.8576
 30
     0.0000
 40
     0.0314
  0
CIRCLE
  8
50
 62
10
 10
     7.7641
 20
     2.8919
 30
     0.0000
 40
     0.0214
  0
CIRCLE
  8
50
 62
10
 10
     7.7969
 20
     2.8824
 30
     0.0000
 40
     0.0127
  0
CIRCLE
  8
50
 62
10
 10
     7.7239
 20
     2.9131
 30
     0.0000
 40
     0.0241
  0
CIRCLE
  8
50
 62
10
 10
     8.0124
 20
    -0.0431
 30
     0.0000
 40
     0.0202
  0
CIRCLE
  8
50
 62
10
 10
     7.6822
 20
     2.8919
 30
     0.0000
 40
     0.0226
  0
CIRCLE
  8
50
 62
10
 10
     7.7975
 20
     0.0485
 30
     0.0000
 40
     0.0306
  0
CIRCLE
  8
50
 62
10
 10
     7.8698
 20
    -0.0002
 30
     0.0000
 40
     0.0239
  0
CIRCLE
  8
50
 62
10
 10
     7.8686
 20
    -0.0436
 30
     0.0000
 40
     0.0196
  0
CIRCLE
  8
50
 62
10
 10
     7.8226
 20
     0.0008
 30
     0.0000
 40
     0.0234
  0
CIRCLE
  8
50
 62
10
 10
     7.6704
 20
     2.8337
 30
     0.0000
 40
     0.0273
  0
CIRCLE
  8
50
 62
10
 10
     7.6833
 20
     2.9381
 30
     0.0000
 40
     0.0236
  0
CIRCLE
  8
50
 62
10
 10
     7.6264
 20
     2.9149
 30
     0.0000
 40
     0.0378
  0
CIRCLE
  8
50
 62
10
 10
     7.7621
 20
    -0.0104
 30
     0.0000
 40
     0.0381
  0
CIRCLE
  8
50
 62
10
 10
     7.8284
 20
    -0.0427
 30
     0.0000
 40
     0.0205
  0
CIRCLE
  8
50
 62
10
 10
     7.7433
 20
     0.0487
 30
     0.0000
 40
     0.0209
  0
CIRCLE
  8
50
 62
10
 10
     7.6402
 20
     0.0032
 30
     0.0000
 40
     0.0316
  0
CIRCLE
  8
50
 62
10
 10
     7.6515
 20
     2.9643
 30
     0.0000
 40
     0.0175
  0
CIRCLE
  8
50
 62
10
 10
     7.5690
 20
     2.9299
 30
     0.0000
 40
     0.0215
  0
CIRCLE
  8
50
 62
10
 10
     7.5943
 20
     2.9758
 30
     0.0000
 40
     0.0310
  0
CIRCLE
  8
50
 62
10
 10
     7.5180
 20
     2.9531
 30
     0.0000
 40
     0.0345
  0
CIRCLE
  8
50
 62
10
 10
     7.5727
 20
     0.0089
 30
     0.0000
 40
     0.0362
  0
CIRCLE
  8
50
 62
10
 10
     7.6945
 20
    -0.0308
 30
     0.0000
 40
     0.0325
  0
CIRCLE
  8
50
 62
10
 10
     7.5448
 20
     3.0129
 30
     0.0000
 40
     0.0309
  0
CIRCLE
  8
50
 62
10
 10
     7.6466
 20
    -0.0456
 30
     0.0000
 40
     0.0177
  0
CIRCLE
  8
50
 62
10
 10
     7.4815
 20
     0.0527
 30
     0.0000
 40
     0.0206
  0
CIRCLE
  8
50
 62
10
 10
     7.6066
 20
    -0.0367
 30
     0.0000
 40
     0.0206
  0
CIRCLE
  8
50
 62
10
 10
     7.4700
 20
     2.9791
 30
     0.0000
 40
     0.0200
  0
CIRCLE
  8
50
 62
10
 10
     7.4345
 20
     0.0561
 30
     0.0000
 40
     0.0265
  0
CIRCLE
  8
50
 62
10
 10
     7.5045
 20
     0.0054
 30
     0.0000
 40
     0.0320
  0
CIRCLE
  8
50
 62
10
 10
     7.4895
 20
     3.0194
 30
     0.0000
 40
     0.0247
  0
CIRCLE
  8
50
 62
10
 10
     7.5689
 20
    -0.0452
 30
     0.0000
 40
     0.0181
  0
CIRCLE
  8
50
 62
10
 10
     7.4410
 20
    -0.0019
 30
     0.0000
 40
     0.0318
  0
CIRCLE
  8
50
 62
10
 10
     7.5296
 20
    -0.0418
 30
     0.0000
 40
     0.0214
  0
CIRCLE
  8
50
 62
10
 10
     7.3779
 20
     0.0073
 30
     0.0000
 40
     0.0319
  0
CIRCLE
  8
50
 62
10
 10
     7.5162
 20
     3.0488
 30
     0.0000
 40
     0.0150
  0
CIRCLE
  8
50
 62
10
 10
     7.4368
 20
     3.0054
 30
     0.0000
 40
     0.0223
  0
CIRCLE
  8
50
 62
10
 10
     7.4887
 20
    -0.0437
 30
     0.0000
 40
     0.0196
  0
CIRCLE
  8
50
 62
10
 10
     7.4032
 20
    -0.0408
 30
     0.0000
 40
     0.0224
  0
CIRCLE
  8
50
 62
10
 10
     7.4514
 20
     3.0488
 30
     0.0000
 40
     0.0234
  0
CIRCLE
  8
50
 62
10
 10
     7.3882
 20
     3.0160
 30
     0.0000
 40
     0.0274
  0
CIRCLE
  8
50
 62
10
 10
     7.4082
 20
     3.0604
 30
     0.0000
 40
     0.0213
  0
CIRCLE
  8
50
 62
10
 10
     7.3482
 20
     3.0425
 30
     0.0000
 40
     0.0205
  0
CIRCLE
  8
50
 62
10
 10
     7.2621
 20
     0.0548
 30
     0.0000
 40
     0.0366
  0
CIRCLE
  8
50
 62
10
 10
     7.3599
 20
    -0.0424
 30
     0.0000
 40
     0.0208
  0
CIRCLE
  8
50
 62
10
 10
     7.4397
 20
    -0.0485
 30
     0.0000
 40
     0.0148
  0
CIRCLE
  8
50
 62
10
 10
     7.1915
 20
     0.0482
 30
     0.0000
 40
     0.0342
  0
CIRCLE
  8
50
 62
10
 10
     7.4884
 20
     3.0637
 30
     0.0000
 40
     0.0165
  0
CIRCLE
  8
50
 62
10
 10
     7.3142
 20
    -0.0113
 30
     0.0000
 40
     0.0345
  0
CIRCLE
  8
50
 62
10
 10
     7.4372
 20
     3.0902
 30
     0.0000
 40
     0.0203
  0
CIRCLE
  8
50
 62
10
 10
     7.3634
 20
     3.0985
 30
     0.0000
 40
     0.0376
  0
CIRCLE
  8
50
 62
10
 10
     7.2995
 20
     3.0659
 30
     0.0000
 40
     0.0302
  0
CIRCLE
  8
50
 62
10
 10
     7.2447
 20
    -0.0149
 30
     0.0000
 40
     0.0352
  0
CIRCLE
  8
50
 62
10
 10
     7.3000
 20
     3.1288
 30
     0.0000
 40
     0.0327
  0
CIRCLE
  8
50
 62
10
 10
     7.1902
 20
    -0.0061
 30
     0.0000
 40
     0.0201
  0
CIRCLE
  8
50
 62
10
 10
     7.3449
 20
     3.1497
 30
     0.0000
 40
     0.0169
  0
CIRCLE
  8
50
 62
10
 10
     7.2404
 20
     3.1646
 30
     0.0000
 40
     0.0368
  0
CIRCLE
  8
50
 62
10
 10
     7.3220
 20
     3.1684
 30
     0.0000
 40
     0.0127
  0
CIRCLE
  8
50
 62
10
 10
     7.2818
 20
    -0.0484
 30
     0.0000
 40
     0.0148
  0
CIRCLE
  8
50
 62
10
 10
     7.1299
 20
     0.0082
 30
     0.0000
 40
     0.0392
  0
CIRCLE
  8
50
 62
10
 10
     7.1991
 20
    -0.0442
 30
     0.0000
 40
     0.0191
  0
CIRCLE
  8
50
 62
10
 10
     7.0636
 20
     0.0478
 30
     0.0000
 40
     0.0300
  0
CIRCLE
  8
50
 62
10
 10
     7.1739
 20
     3.1469
 30
     0.0000
 40
     0.0319
  0
CIRCLE
  8
50
 62
10
 10
     7.0613
 20
    -0.0154
 30
     0.0000
 40
     0.0333
  0
CIRCLE
  8
50
 62
10
 10
     7.1599
 20
    -0.0431
 30
     0.0000
 40
     0.0202
  0
CIRCLE
  8
50
 62
10
 10
     7.4123
 20
     3.1130
 30
     0.0000
 40
     0.0135
  0
CIRCLE
  8
50
 62
10
 10
     7.2933
 20
     3.1794
 30
     0.0000
 40
     0.0181
  0
CIRCLE
  8
50
 62
10
 10
     7.1866
 20
     3.2137
 30
     0.0000
 40
     0.0360
  0
CIRCLE
  8
50
 62
10
 10
     7.0130
 20
     0.0211
 30
     0.0000
 40
     0.0272
  0
CIRCLE
  8
50
 62
10
 10
     7.1048
 20
    -0.0443
 30
     0.0000
 40
     0.0190
  0
CIRCLE
  8
50
 62
10
 10
     7.1253
 20
     3.1868
 30
     0.0000
 40
     0.0310
  0
CIRCLE
  8
50
 62
10
 10
     7.1280
 20
     3.2515
 30
     0.0000
 40
     0.0338
  0
CIRCLE
  8
50
 62
10
 10
     7.0064
 20
    -0.0291
 30
     0.0000
 40
     0.0234
  0
CIRCLE
  8
50
 62
10
 10
     6.9566
 20
     0.0199
 30
     0.0000
 40
     0.0292
  0
CIRCLE
  8
50
 62
10
 10
     7.0720
 20
     3.2428
 30
     0.0000
 40
     0.0228
  0
CIRCLE
  8
50
 62
10
 10
     6.8955
 20
     0.0400
 30
     0.0000
 40
     0.0351
  0
CIRCLE
  8
50
 62
10
 10
     6.9565
 20
    -0.0363
 30
     0.0000
 40
     0.0270
  0
CIRCLE
  8
50
 62
10
 10
     7.0339
 20
    -0.0513
 30
     0.0000
 40
     0.0120
  0
CIRCLE
  8
50
 62
10
 10
     6.9004
 20
    -0.0252
 30
     0.0000
 40
     0.0302
  0
CIRCLE
  8
50
 62
10
 10
     7.0801
 20
     3.2976
 30
     0.0000
 40
     0.0326
  0
CIRCLE
  8
50
 62
10
 10
     7.1344
 20
     3.3076
 30
     0.0000
 40
     0.0226
  0
CIRCLE
  8
50
 62
10
 10
     6.8515
 20
    -0.0004
 30
     0.0000
 40
     0.0246
  0
CIRCLE
  8
50
 62
10
 10
     7.1085
 20
     3.3517
 30
     0.0000
 40
     0.0286
  0
CIRCLE
  8
50
 62
10
 10
     6.7865
 20
     0.0415
 30
     0.0000
 40
     0.0377
  0
CIRCLE
  8
50
 62
10
 10
     6.8547
 20
    -0.0441
 30
     0.0000
 40
     0.0192
  0
CIRCLE
  8
50
 62
10
 10
     6.8096
 20
    -0.0315
 30
     0.0000
 40
     0.0276
  0
CIRCLE
  8
50
 62
10
 10
     7.0707
 20
     3.3993
 30
     0.0000
 40
     0.0321
  0
CIRCLE
  8
50
 62
10
 10
     6.7141
 20
     0.0297
 30
     0.0000
 40
     0.0356
  0
CIRCLE
  8
50
 62
10
 10
     7.1316
 20
     3.4045
 30
     0.0000
 40
     0.0290
  0
CIRCLE
  8
50
 62
10
 10
     6.7633
 20
    -0.0135
 30
     0.0000
 40
     0.0220
  0
CIRCLE
  8
50
 62
10
 10
     7.1476
 20
     3.3657
 30
     0.0000
 40
     0.0130
  0
CIRCLE
  8
50
 62
10
 10
     7.0998
 20
     3.4542
 30
     0.0000
 40
     0.0300
  0
CIRCLE
  8
50
 62
10
 10
     6.6511
 20
     0.0435
 30
     0.0000
 40
     0.0289
  0
CIRCLE
  8
50
 62
10
 10
     6.7211
 20
    -0.0282
 30
     0.0000
 40
     0.0228
  0
CIRCLE
  8
50
 62
10
 10
     6.6770
 20
    -0.0157
 30
     0.0000
 40
     0.0230
  0
CIRCLE
  8
50
 62
10
 10
     6.7525
 20
    -0.0486
 30
     0.0000
 40
     0.0147
  0
CIRCLE
  8
50
 62
10
 10
     7.1449
 20
     3.4471
 30
     0.0000
 40
     0.0156
  0
CIRCLE
  8
50
 62
10
 10
     7.1409
 20
     3.4822
 30
     0.0000
 40
     0.0197
  0
CIRCLE
  8
50
 62
10
 10
     7.0418
 20
     3.4554
 30
     0.0000
 40
     0.0280
  0
CIRCLE
  8
50
 62
10
 10
     6.6159
 20
    -0.0136
 30
     0.0000
 40
     0.0381
  0
CIRCLE
  8
50
 62
10
 10
     7.1073
 20
     3.5043
 30
     0.0000
 40
     0.0206
  0
CIRCLE
  8
50
 62
10
 10
     6.5554
 20
     0.0145
 30
     0.0000
 40
     0.0286
  0
CIRCLE
  8
50
 62
10
 10
     7.1426
 20
     3.5198
 30
     0.0000
 40
     0.0180
  0
CIRCLE
  8
50
 62
10
 10
     7.0497
 20
     3.5227
 30
     0.0000
 40
     0.0398
  0
CIRCLE
  8
50
 62
10
 10
     6.4911
 20
     0.0060
 30
     0.0000
 40
     0.0362
  0
CIRCLE
  8
50
 62
10
 10
     6.5583
 20
    -0.0386
 30
     0.0000
 40
     0.0247
  0
CIRCLE
  8
50
 62
10
 10
     6.5148
 20
    -0.0441
 30
     0.0000
 40
     0.0192
  0
CIRCLE
  8
50
 62
10
 10
     6.4223
 20
     0.0073
 30
     0.0000
 40
     0.0326
  0
CIRCLE
  8
50
 62
10
 10
     7.1119
 20
     3.5604
 30
     0.0000
 40
     0.0330
  0
CIRCLE
  8
50
 62
10
 10
     6.6566
 20
    -0.0481
 30
     0.0000
 40
     0.0152
  0
CIRCLE
  8
50
 62
10
 10
     6.4783
 20
    -0.0460
 30
     0.0000
 40
     0.0173
  0
CIRCLE
  8
50
 62
10
 10
     6.3693
 20
     0.0334
 30
     0.0000
 40
     0.0264
  0
CIRCLE
  8
50
 62
10
 10
     6.3662
 20
    -0.0252
 30
     0.0000
 40
     0.0322
  0
CIRCLE
  8
50
 62
10
 10
     7.0576
 20
     3.5919
 30
     0.0000
 40
     0.0298
  0
CIRCLE
  8
50
 62
10
 10
     6.4141
 20
    -0.0440
 30
     0.0000
 40
     0.0193
  0
CIRCLE
  8
50
 62
10
 10
     6.3098
 20
     0.0138
 30
     0.0000
 40
     0.0363
  0
CIRCLE
  8
50
 62
10
 10
     7.1061
 20
     3.6185
 30
     0.0000
 40
     0.0255
  0
CIRCLE
  8
50
 62
10
 10
     7.1437
 20
     3.5989
 30
     0.0000
 40
     0.0169
  0
CIRCLE
  8
50
 62
10
 10
     7.0637
 20
     3.6470
 30
     0.0000
 40
     0.0256
  0
CIRCLE
  8
50
 62
10
 10
     6.3164
 20
    -0.0427
 30
     0.0000
 40
     0.0206
  0
CIRCLE
  8
50
 62
10
 10
     7.1177
 20
     3.6813
 30
     0.0000
 40
     0.0383
  0
CIRCLE
  8
50
 62
10
 10
     6.2359
 20
     0.0301
 30
     0.0000
 40
     0.0393
  0
CIRCLE
  8
50
 62
10
 10
     6.1732
 20
     0.0536
 30
     0.0000
 40
     0.0277
  0
CIRCLE
  8
50
 62
10
 10
     6.2656
 20
    -0.0214
 30
     0.0000
 40
     0.0202
  0
CIRCLE
  8
50
 62
10
 10
     7.0534
 20
     3.7004
 30
     0.0000
 40
     0.0287
  0
CIRCLE
  8
50
 62
10
 10
     7.0928
 20
     3.7490
 30
     0.0000
 40
     0.0338
  0
CIRCLE
  8
50
 62
10
 10
     6.1778
 20
    -0.0001
 30
     0.0000
 40
     0.0262
  0
CIRCLE
  8
50
 62
10
 10
     6.1179
 20
     0.0347
 30
     0.0000
 40
     0.0307
  0
CIRCLE
  8
50
 62
10
 10
     7.1422
 20
     3.7323
 30
     0.0000
 40
     0.0184
  0
CIRCLE
  8
50
 62
10
 10
     7.0415
 20
     3.7764
 30
     0.0000
 40
     0.0244
  0
CIRCLE
  8
50
 62
10
 10
     6.1254
 20
    -0.0294
 30
     0.0000
 40
     0.0339
  0
CIRCLE
  8
50
 62
10
 10
     7.1415
 20
     3.7698
 30
     0.0000
 40
     0.0191
  0
CIRCLE
  8
50
 62
10
 10
     7.0854
 20
     3.8196
 30
     0.0000
 40
     0.0371
  0
CIRCLE
  8
50
 62
10
 10
     6.1755
 20
    -0.0447
 30
     0.0000
 40
     0.0185
  0
CIRCLE
  8
50
 62
10
 10
     6.0614
 20
     0.0057
 30
     0.0000
 40
     0.0328
  0
CIRCLE
  8
50
 62
10
 10
     6.0173
 20
     0.0426
 30
     0.0000
 40
     0.0247
  0
CIRCLE
  8
50
 62
10
 10
     7.1410
 20
     3.8084
 30
     0.0000
 40
     0.0196
  0
CIRCLE
  8
50
 62
10
 10
     6.2140
 20
    -0.0319
 30
     0.0000
 40
     0.0221
  0
CIRCLE
  8
50
 62
10
 10
     7.0872
 20
     3.8902
 30
     0.0000
 40
     0.0336
  0
CIRCLE
  8
50
 62
10
 10
     6.0747
 20
    -0.0443
 30
     0.0000
 40
     0.0190
  0
CIRCLE
  8
50
 62
10
 10
     5.9941
 20
    -0.0155
 30
     0.0000
 40
     0.0379
  0
CIRCLE
  8
50
 62
10
 10
     7.1369
 20
     3.8512
 30
     0.0000
 40
     0.0234
  0
CIRCLE
  8
50
 62
10
 10
     7.0831
 20
     3.9478
 30
     0.0000
 40
     0.0242
  0
CIRCLE
  8
50
 62
10
 10
     7.1406
 20
     3.8944
 30
     0.0000
 40
     0.0200
  0
CIRCLE
  8
50
 62
10
 10
     5.9356
 20
     0.0151
 30
     0.0000
 40
     0.0281
  0
CIRCLE
  8
50
 62
10
 10
     7.1337
 20
     3.9408
 30
     0.0000
 40
     0.0269
  0
CIRCLE
  8
50
 62
10
 10
     7.0410
 20
     3.9883
 30
     0.0000
 40
     0.0342
  0
CIRCLE
  8
50
 62
10
 10
     7.1129
 20
     4.0015
 30
     0.0000
 40
     0.0372
  0
CIRCLE
  8
50
 62
10
 10
     5.9352
 20
    -0.0381
 30
     0.0000
 40
     0.0251
  0
CIRCLE
  8
50
 62
10
 10
     5.8682
 20
     0.0072
 30
     0.0000
 40
     0.0399
  0
CIRCLE
  8
50
 62
10
 10
     7.0645
 20
     4.0477
 30
     0.0000
 40
     0.0296
  0
CIRCLE
  8
50
 62
10
 10
     5.8017
 20
     0.0252
 30
     0.0000
 40
     0.0290
  0
CIRCLE
  8
50
 62
10
 10
     5.8927
 20
    -0.0453
 30
     0.0000
 40
     0.0180
  0
CIRCLE
  8
50
 62
10
 10
     5.8591
 20
    -0.0476
 30
     0.0000
 40
     0.0157
  0
CIRCLE
  8
50
 62
10
 10
     7.1245
 20
     4.0735
 30
     0.0000
 40
     0.0357
  0
CIRCLE
  8
50
 62
10
 10
     5.8110
 20
    -0.0332
 30
     0.0000
 40
     0.0301
  0
CIRCLE
  8
50
 62
10
 10
     7.0449
 20
     4.0962
 30
     0.0000
 40
     0.0227
  0
CIRCLE
  8
50
 62
10
 10
     5.7556
 20
    -0.0110
 30
     0.0000
 40
     0.0296
  0
CIRCLE
  8
50
 62
10
 10
     5.6948
 20
     0.0409
 30
     0.0000
 40
     0.0335
  0
CIRCLE
  8
50
 62
10
 10
     7.0883
 20
     4.1337
 30
     0.0000
 40
     0.0347
  0
CIRCLE
  8
50
 62
10
 10
     5.6929
 20
    -0.0279
 30
     0.0000
 40
     0.0354
  0
CIRCLE
  8
50
 62
10
 10
     7.1415
 20
     4.1256
 30
     0.0000
 40
     0.0192
  0
CIRCLE
  8
50
 62
10
 10
     7.0844
 20
     4.1969
 30
     0.0000
 40
     0.0286
  0
CIRCLE
  8
50
 62
10
 10
     5.6337
 20
     0.0101
 30
     0.0000
 40
     0.0350
  0
CIRCLE
  8
50
 62
10
 10
     7.0390
 20
     4.2228
 30
     0.0000
 40
     0.0236
  0
CIRCLE
  8
50
 62
10
 10
     5.6405
 20
    -0.0439
 30
     0.0000
 40
     0.0194
  0
CIRCLE
  8
50
 62
10
 10
     7.0828
 20
     4.2585
 30
     0.0000
 40
     0.0329
  0
CIRCLE
  8
50
 62
10
 10
     5.5720
 20
     0.0230
 30
     0.0000
 40
     0.0281
  0
CIRCLE
  8
50
 62
10
 10
     7.1331
 20
     4.2249
 30
     0.0000
 40
     0.0275
  0
CIRCLE
  8
50
 62
10
 10
     5.6001
 20
    -0.0357
 30
     0.0000
 40
     0.0217
  0
CIRCLE
  8
50
 62
10
 10
     7.0253
 20
     4.2702
 30
     0.0000
 40
     0.0258
  0
CIRCLE
  8
50
 62
10
 10
     7.0564
 20
     4.3076
 30
     0.0000
 40
     0.0229
  0
CIRCLE
  8
50
 62
10
 10
     5.5146
 20
     0.0246
 30
     0.0000
 40
     0.0293
  0
CIRCLE
  8
50
 62
10
 10
     6.9720
 20
     4.2940
 30
     0.0000
 40
     0.0202
  0
CIRCLE
  8
50
 62
10
 10
     5.5570
 20
    -0.0254
 30
     0.0000
 40
     0.0225
  0
CIRCLE
  8
50
 62
10
 10
     7.0091
 20
     4.3227
 30
     0.0000
 40
     0.0267
  0
CIRCLE
  8
50
 62
10
 10
     6.9481
 20
     4.3376
 30
     0.0000
 40
     0.0295
  0
CIRCLE
  8
50
 62
10
 10
     5.5056
 20
    -0.0336
 30
     0.0000
 40
     0.0296
  0
CIRCLE
  8
50
 62
10
 10
     6.9913
 20
     4.3721
 30
     0.0000
 40
     0.0259
  0
CIRCLE
  8
50
 62
10
 10
     5.4568
 20
     0.0071
 30
     0.0000
 40
     0.0311
  0
CIRCLE
  8
50
 62
10
 10
     5.4574
 20
    -0.0437
 30
     0.0000
 40
     0.0196
  0
CIRCLE
  8
50
 62
10
 10
     5.4164
 20
     0.0405
 30
     0.0000
 40
     0.0213
  0
CIRCLE
  8
50
 62
10
 10
     6.9397
 20
     4.3986
 30
     0.0000
 40
     0.0321
  0
CIRCLE
  8
50
 62
10
 10
     5.3952
 20
    -0.0088
 30
     0.0000
 40
     0.0324
  0
CIRCLE
  8
50
 62
10
 10
     5.3607
 20
     0.0318
 30
     0.0000
 40
     0.0210
  0
CIRCLE
  8
50
 62
10
 10
     7.0437
 20
     4.3402
 30
     0.0000
 40
     0.0120
  0
CIRCLE
  8
50
 62
10
 10
     6.8788
 20
     4.4157
 30
     0.0000
 40
     0.0313
  0
CIRCLE
  8
50
 62
10
 10
     5.3374
 20
    -0.0084
 30
     0.0000
 40
     0.0255
  0
CIRCLE
  8
50
 62
10
 10
     6.8274
 20
     4.4357
 30
     0.0000
 40
     0.0239
  0
CIRCLE
  8
50
 62
10
 10
     6.9201
 20
     4.4482
 30
     0.0000
 40
     0.0213
  0
CIRCLE
  8
50
 62
10
 10
     5.3186
 20
     0.0397
 30
     0.0000
 40
     0.0214
  0
CIRCLE
  8
50
 62
10
 10
     5.3605
 20
    -0.0453
 30
     0.0000
 40
     0.0180
  0
CIRCLE
  8
50
 62
10
 10
     6.8773
 20
     4.4774
 30
     0.0000
 40
     0.0304
  0
CIRCLE
  8
50
 62
10
 10
     6.7810
 20
     4.4671
 30
     0.0000
 40
     0.0321
  0
CIRCLE
  8
50
 62
10
 10
     6.8266
 20
     4.5062
 30
     0.0000
 40
     0.0280
  0
CIRCLE
  8
50
 62
10
 10
     5.3272
 20
    -0.0479
 30
     0.0000
 40
     0.0153
  0
CIRCLE
  8
50
 62
10
 10
     5.2831
 20
     0.0026
 30
     0.0000
 40
     0.0298
  0
CIRCLE
  8
50
 62
10
 10
     6.7744
 20
     4.5238
 30
     0.0000
 40
     0.0250
  0
CIRCLE
  8
50
 62
10
 10
     5.2411
 20
     0.0438
 30
     0.0000
 40
     0.0290
  0
CIRCLE
  8
50
 62
10
 10
     5.2198
 20
    -0.0186
 30
     0.0000
 40
     0.0369
  0
CIRCLE
  8
50
 62
10
 10
     6.8109
 20
     4.5539
 30
     0.0000
 40
     0.0223
  0
CIRCLE
  8
50
 62
10
 10
     6.7271
 20
     4.5575
 30
     0.0000
 40
     0.0331
  0
CIRCLE
  8
50
 62
10
 10
     6.7769
 20
     4.5850
 30
     0.0000
 40
     0.0238
  0
CIRCLE
  8
50
 62
10
 10
     5.1498
 20
    -0.0067
 30
     0.0000
 40
     0.0341
  0
CIRCLE
  8
50
 62
10
 10
     6.6893
 20
     4.6118
 30
     0.0000
 40
     0.0331
  0
CIRCLE
  8
50
 62
10
 10
     5.2935
 20
    -0.0447
 30
     0.0000
 40
     0.0186
  0
CIRCLE
  8
50
 62
10
 10
     5.0808
 20
    -0.0092
 30
     0.0000
 40
     0.0350
  0
CIRCLE
  8
50
 62
10
 10
     6.7446
 20
     4.6184
 30
     0.0000
 40
     0.0226
  0
CIRCLE
  8
50
 62
10
 10
     6.6323
 20
     4.6230
 30
     0.0000
 40
     0.0251
  0
CIRCLE
  8
50
 62
10
 10
     5.0205
 20
     0.0093
 30
     0.0000
 40
     0.0281
  0
CIRCLE
  8
50
 62
10
 10
     6.7212
 20
     4.6498
 30
     0.0000
 40
     0.0165
  0
CIRCLE
  8
50
 62
10
 10
     6.6631
 20
     4.6757
 30
     0.0000
 40
     0.0360
  0
CIRCLE
  8
50
 62
10
 10
     5.1767
 20
    -0.0480
 30
     0.0000
 40
     0.0153
  0
CIRCLE
  8
50
 62
10
 10
     5.1174
 20
    -0.0462
 30
     0.0000
 40
     0.0170
  0
CIRCLE
  8
50
 62
10
 10
     5.0321
 20
    -0.0404
 30
     0.0000
 40
     0.0229
  0
CIRCLE
  8
50
 62
10
 10
     4.9724
 20
     0.0431
 30
     0.0000
 40
     0.0307
  0
CIRCLE
  8
50
 62
10
 10
     6.5932
 20
     4.6678
 30
     0.0000
 40
     0.0343
  0
CIRCLE
  8
50
 62
10
 10
     6.6216
 20
     4.7180
 30
     0.0000
 40
     0.0233
  0
CIRCLE
  8
50
 62
10
 10
     4.9806
 20
    -0.0320
 30
     0.0000
 40
     0.0293
  0
CIRCLE
  8
50
 62
10
 10
     4.9201
 20
    -0.0018
 30
     0.0000
 40
     0.0383
  0
CIRCLE
  8
50
 62
10
 10
     6.5610
 20
     4.7341
 30
     0.0000
 40
     0.0394
  0
CIRCLE
  8
50
 62
10
 10
     6.6122
 20
     4.7566
 30
     0.0000
 40
     0.0165
  0
CIRCLE
  8
50
 62
10
 10
     6.5094
 20
     4.7899
 30
     0.0000
 40
     0.0366
  0
CIRCLE
  8
50
 62
10
 10
     4.8642
 20
     0.0321
 30
     0.0000
 40
     0.0271
  0
CIRCLE
  8
50
 62
10
 10
     6.5907
 20
     4.7797
 30
     0.0000
 40
     0.0150
  0
CIRCLE
  8
50
 62
10
 10
     4.8547
 20
    -0.0253
 30
     0.0000
 40
     0.0312
  0
CIRCLE
  8
50
 62
10
 10
     6.4562
 20
     4.7701
 30
     0.0000
 40
     0.0201
  0
CIRCLE
  8
50
 62
10
 10
     6.4526
 20
     4.8160
 30
     0.0000
 40
     0.0259
  0
CIRCLE
  8
50
 62
10
 10
     4.8123
 20
     0.0153
 30
     0.0000
 40
     0.0275
  0
CIRCLE
  8
50
 62
10
 10
     6.5639
 20
     4.8005
 30
     0.0000
 40
     0.0190
  0
CIRCLE
  8
50
 62
10
 10
     6.4931
 20
     4.8544
 30
     0.0000
 40
     0.0299
  0
CIRCLE
  8
50
 62
10
 10
     6.3944
 20
     4.8255
 30
     0.0000
 40
     0.0331
  0
CIRCLE
  8
50
 62
10
 10
     4.8005
 20
    -0.0345
 30
     0.0000
 40
     0.0237
  0
CIRCLE
  8
50
 62
10
 10
     4.7605
 20
     0.0381
 30
     0.0000
 40
     0.0208
  0
CIRCLE
  8
50
 62
10
 10
     4.7476
 20
    -0.0141
 30
     0.0000
 40
     0.0330
  0
CIRCLE
  8
50
 62
10
 10
     4.7179
 20
     0.0346
 30
     0.0000
 40
     0.0219
  0
CIRCLE
  8
50
 62
10
 10
     6.4331
 20
     4.8840
 30
     0.0000
 40
     0.0370
  0
CIRCLE
  8
50
 62
10
 10
     4.6761
 20
     0.0276
 30
     0.0000
 40
     0.0206
  0
CIRCLE
  8
50
 62
10
 10
     6.5440
 20
     4.8268
 30
     0.0000
 40
     0.0141
  0
CIRCLE
  8
50
 62
10
 10
     6.3757
 20
     4.8960
 30
     0.0000
 40
     0.0215
  0
CIRCLE
  8
50
 62
10
 10
     4.6934
 20
    -0.0106
 30
     0.0000
 40
     0.0213
  0
CIRCLE
  8
50
 62
10
 10
     4.6119
 20
     0.0537
 30
     0.0000
 40
     0.0331
  0
CIRCLE
  8
50
 62
10
 10
     6.3991
 20
     4.9439
 30
     0.0000
 40
     0.0318
  0
CIRCLE
  8
50
 62
10
 10
     6.3422
 20
     4.9610
 30
     0.0000
 40
     0.0277
  0
CIRCLE
  8
50
 62
10
 10
     4.6508
 20
    -0.0060
 30
     0.0000
 40
     0.0215
  0
CIRCLE
  8
50
 62
10
 10
     6.2472
 20
     4.9720
 30
     0.0000
 40
     0.0227
  0
CIRCLE
  8
50
 62
10
 10
     4.7087
 20
    -0.0460
 30
     0.0000
 40
     0.0173
  0
CIRCLE
  8
50
 62
10
 10
     4.5520
 20
     0.0423
 30
     0.0000
 40
     0.0278
  0
CIRCLE
  8
50
 62
10
 10
     4.5996
 20
    -0.0079
 30
     0.0000
 40
     0.0297
  0
CIRCLE
  8
50
 62
10
 10
     6.3777
 20
     4.9868
 30
     0.0000
 40
     0.0161
  0
CIRCLE
  8
50
 62
10
 10
     4.5423
 20
    -0.0125
 30
     0.0000
 40
     0.0278
  0
CIRCLE
  8
50
 62
10
 10
     4.4917
 20
     0.0494
 30
     0.0000
 40
     0.0330
  0
CIRCLE
  8
50
 62
10
 10
     6.2948
 20
     4.9910
 30
     0.0000
 40
     0.0285
  0
CIRCLE
  8
50
 62
10
 10
     4.6685
 20
    -0.0434
 30
     0.0000
 40
     0.0199
  0
CIRCLE
  8
50
 62
10
 10
     6.3483
 20
     5.0091
 30
     0.0000
 40
     0.0208
  0
CIRCLE
  8
50
 62
10
 10
     4.4932
 20
    -0.0053
 30
     0.0000
 40
     0.0218
  0
CIRCLE
  8
50
 62
10
 10
     6.1876
 20
     5.0539
 30
     0.0000
 40
     0.0302
  0
CIRCLE
  8
50
 62
10
 10
     6.2534
 20
     5.0314
 30
     0.0000
 40
     0.0293
  0
CIRCLE
  8
50
 62
10
 10
     4.4366
 20
     0.0542
 30
     0.0000
 40
     0.0223
  0
CIRCLE
  8
50
 62
10
 10
     4.5071
 20
    -0.0439
 30
     0.0000
 40
     0.0193
  0
CIRCLE
  8
50
 62
10
 10
     6.3155
 20
     5.0381
 30
     0.0000
 40
     0.0230
  0
CIRCLE
  8
50
 62
10
 10
     6.2328
 20
     5.0767
 30
     0.0000
 40
     0.0205
  0
CIRCLE
  8
50
 62
10
 10
     6.1304
 20
     5.0849
 30
     0.0000
 40
     0.0349
  0
CIRCLE
  8
50
 62
10
 10
     6.2756
 20
     5.0780
 30
     0.0000
 40
     0.0224
  0
CIRCLE
  8
50
 62
10
 10
     4.5723
 20
    -0.0461
 30
     0.0000
 40
     0.0172
  0
CIRCLE
  8
50
 62
10
 10
     6.1957
 20
     5.1202
 30
     0.0000
 40
     0.0366
  0
CIRCLE
  8
50
 62
10
 10
     4.4438
 20
     0.0039
 30
     0.0000
 40
     0.0285
  0
CIRCLE
  8
50
 62
10
 10
     6.1413
 20
     5.1401
 30
     0.0000
 40
     0.0214
  0
CIRCLE
  8
50
 62
10
 10
     4.6303
 20
    -0.0449
 30
     0.0000
 40
     0.0183
  0
CIRCLE
  8
50
 62
10
 10
     4.3873
 20
     0.0065
 30
     0.0000
 40
     0.0280
  0
CIRCLE
  8
50
 62
10
 10
     4.4660
 20
    -0.0414
 30
     0.0000
 40
     0.0219
  0
CIRCLE
  8
50
 62
10
 10
     4.4130
 20
    -0.0390
 30
     0.0000
 40
     0.0243
  0
CIRCLE
  8
50
 62
10
 10
     4.3403
 20
     0.0365
 30
     0.0000
 40
     0.0278
  0
CIRCLE
  8
50
 62
10
 10
     6.1704
 20
     5.1768
 30
     0.0000
 40
     0.0254
  0
CIRCLE
  8
50
 62
10
 10
     6.1010
 20
     5.1704
 30
     0.0000
 40
     0.0291
  0
CIRCLE
  8
50
 62
10
 10
     4.3417
 20
    -0.0129
 30
     0.0000
 40
     0.0216
  0
CIRCLE
  8
50
 62
10
 10
     6.1349
 20
     5.2124
 30
     0.0000
 40
     0.0249
  0
CIRCLE
  8
50
 62
10
 10
     4.2838
 20
     0.0023
 30
     0.0000
 40
     0.0382
  0
CIRCLE
  8
50
 62
10
 10
     6.0775
 20
     5.2305
 30
     0.0000
 40
     0.0354
  0
CIRCLE
  8
50
 62
10
 10
     6.0090
 20
     5.1926
 30
     0.0000
 40
     0.0310
  0
CIRCLE
  8
50
 62
10
 10
     5.8644
 20
     5.2172
 30
     0.0000
 40
     0.0350
  0
CIRCLE
  8
50
 62
10
 10
     6.0131
 20
     5.2582
 30
     0.0000
 40
     0.0347
  0
CIRCLE
  8
50
 62
10
 10
     5.9440
 20
     5.2195
 30
     0.0000
 40
     0.0392
  0
CIRCLE
  8
50
 62
10
 10
     4.3163
 20
    -0.0445
 30
     0.0000
 40
     0.0188
  0
CIRCLE
  8
50
 62
10
 10
     4.3497
 20
    -0.0485
 30
     0.0000
 40
     0.0148
  0
CIRCLE
  8
50
 62
10
 10
     4.2186
 20
     0.0157
 30
     0.0000
 40
     0.0283
  0
CIRCLE
  8
50
 62
10
 10
     6.0627
 20
     5.2865
 30
     0.0000
 40
     0.0224
  0
CIRCLE
  8
50
 62
10
 10
     5.9572
 20
     5.2844
 30
     0.0000
 40
     0.0270
  0
CIRCLE
  8
50
 62
10
 10
     5.7949
 20
     5.2195
 30
     0.0000
 40
     0.0346
  0
CIRCLE
  8
50
 62
10
 10
     4.2843
 20
    -0.0496
 30
     0.0000
 40
     0.0137
  0
CIRCLE
  8
50
 62
10
 10
     4.2327
 20
    -0.0370
 30
     0.0000
 40
     0.0263
  0
CIRCLE
  8
50
 62
10
 10
     5.8998
 20
     5.2743
 30
     0.0000
 40
     0.0312
  0
CIRCLE
  8
50
 62
10
 10
     4.1698
 20
     0.0164
 30
     0.0000
 40
     0.0204
  0
CIRCLE
  8
50
 62
10
 10
     5.8311
 20
     5.2711
 30
     0.0000
 40
     0.0284
  0
CIRCLE
  8
50
 62
10
 10
     5.7234
 20
     5.2281
 30
     0.0000
 40
     0.0375
  0
CIRCLE
  8
50
 62
10
 10
     4.1767
 20
    -0.0334
 30
     0.0000
 40
     0.0299
  0
CIRCLE
  8
50
 62
10
 10
     5.7729
 20
     5.2809
 30
     0.0000
 40
     0.0306
  0
CIRCLE
  8
50
 62
10
 10
     4.1116
 20
     0.0156
 30
     0.0000
 40
     0.0378
  0
CIRCLE
  8
50
 62
10
 10
     5.6662
 20
     5.2194
 30
     0.0000
 40
     0.0203
  0
CIRCLE
  8
50
 62
10
 10
     5.6251
 20
     5.2146
 30
     0.0000
 40
     0.0210
  0
CIRCLE
  8
50
 62
10
 10
     5.6720
 20
     5.2656
 30
     0.0000
 40
     0.0262
  0
CIRCLE
  8
50
 62
10
 10
     4.1261
 20
    -0.0418
 30
     0.0000
 40
     0.0214
  0
CIRCLE
  8
50
 62
10
 10
     4.0589
 20
     0.0520
 30
     0.0000
 40
     0.0262
  0
CIRCLE
  8
50
 62
10
 10
     4.0410
 20
    -0.0083
 30
     0.0000
 40
     0.0367
  0
CIRCLE
  8
50
 62
10
 10
     5.5536
 20
     5.2242
 30
     0.0000
 40
     0.0291
  0
CIRCLE
  8
50
 62
10
 10
     5.7148
 20
     5.2864
 30
     0.0000
 40
     0.0214
  0
CIRCLE
  8
50
 62
10
 10
     5.5003
 20
     5.2236
 30
     0.0000
 40
     0.0242
  0
CIRCLE
  8
50
 62
10
 10
     5.5980
 20
     5.2455
 30
     0.0000
 40
     0.0201
  0
CIRCLE
  8
50
 62
10
 10
     4.0099
 20
     0.0422
 30
     0.0000
 40
     0.0226
  0
CIRCLE
  8
50
 62
10
 10
     5.6249
 20
     5.2790
 30
     0.0000
 40
     0.0228
  0
CIRCLE
  8
50
 62
10
 10
     5.5644
 20
     5.2815
 30
     0.0000
 40
     0.0292
  0
CIRCLE
  8
50
 62
10
 10
     5.4481
 20
     5.2570
 30
     0.0000
 40
     0.0378
  0
CIRCLE
  8
50
 62
10
 10
     3.9854
 20
     0.0064
 30
     0.0000
 40
     0.0208
  0
CIRCLE
  8
50
 62
10
 10
     5.5077
 20
     5.2839
 30
     0.0000
 40
     0.0276
  0
CIRCLE
  8
50
 62
10
 10
     3.9879
 20
    -0.0388
 30
     0.0000
 40
     0.0245
  0
CIRCLE
  8
50
 62
10
 10
     5.3751
 20
     5.2530
 30
     0.0000
 40
     0.0353
  0
CIRCLE
  8
50
 62
10
 10
     3.9496
 20
     0.0371
 30
     0.0000
 40
     0.0264
  0
CIRCLE
  8
50
 62
10
 10
     4.0850
 20
    -0.0436
 30
     0.0000
 40
     0.0197
  0
CIRCLE
  8
50
 62
10
 10
     3.9435
 20
    -0.0149
 30
     0.0000
 40
     0.0259
  0
CIRCLE
  8
50
 62
10
 10
     5.4074
 20
     5.2970
 30
     0.0000
 40
     0.0193
  0
CIRCLE
  8
50
 62
10
 10
     5.2609
 20
     5.2294
 30
     0.0000
 40
     0.0364
  0
CIRCLE
  8
50
 62
10
 10
     3.9035
 20
     0.0469
 30
     0.0000
 40
     0.0207
  0
CIRCLE
  8
50
 62
10
 10
     5.3095
 20
     5.2857
 30
     0.0000
 40
     0.0380
  0
CIRCLE
  8
50
 62
10
 10
     5.2387
 20
     5.2957
 30
     0.0000
 40
     0.0335
  0
CIRCLE
  8
50
 62
10
 10
     5.1888
 20
     5.2359
 30
     0.0000
 40
     0.0360
  0
CIRCLE
  8
50
 62
10
 10
     5.4722
 20
     5.3000
 30
     0.0000
 40
     0.0115
  0
CIRCLE
  8
50
 62
10
 10
     3.8841
 20
    -0.0046
 30
     0.0000
 40
     0.0344
  0
CIRCLE
  8
50
 62
10
 10
     3.8107
 20
     0.0038
 30
     0.0000
 40
     0.0395
  0
CIRCLE
  8
50
 62
10
 10
     5.1736
 20
     5.3022
 30
     0.0000
 40
     0.0319
  0
CIRCLE
  8
50
 62
10
 10
     3.7614
 20
     0.0561
 30
     0.0000
 40
     0.0265
  0
CIRCLE
  8
50
 62
10
 10
     3.8464
 20
    -0.0435
 30
     0.0000
 40
     0.0198
  0
CIRCLE
  8
50
 62
10
 10
     5.1294
 20
     5.2418
 30
     0.0000
 40
     0.0237
  0
CIRCLE
  8
50
 62
10
 10
     5.1193
 20
     5.2885
 30
     0.0000
 40
     0.0240
  0
CIRCLE
  8
50
 62
10
 10
     5.0690
 20
     5.2321
 30
     0.0000
 40
     0.0297
  0
CIRCLE
  8
50
 62
10
 10
     3.7316
 20
    -0.0032
 30
     0.0000
 40
     0.0399
  0
CIRCLE
  8
50
 62
10
 10
     5.0720
 20
     5.2852
 30
     0.0000
 40
     0.0234
  0
CIRCLE
  8
50
 62
10
 10
     3.7753
 20
    -0.0436
 30
     0.0000
 40
     0.0196
  0
CIRCLE
  8
50
 62
10
 10
     3.6614
 20
    -0.0063
 30
     0.0000
 40
     0.0304
  0
CIRCLE
  8
50
 62
10
 10
     3.6910
 20
    -0.0449
 30
     0.0000
 40
     0.0183
  0
CIRCLE
  8
50
 62
10
 10
     3.5928
 20
    -0.0008
 30
     0.0000
 40
     0.0385
  0
CIRCLE
  8
50
 62
10
 10
     5.1333
 20
     5.3236
 30
     0.0000
 40
     0.0137
  0
CIRCLE
  8
50
 62
10
 10
     5.0327
 20
     5.2664
 30
     0.0000
 40
     0.0202
  0
CIRCLE
  8
50
 62
10
 10
     4.9901
 20
     5.2439
 30
     0.0000
 40
     0.0280
  0
CIRCLE
  8
50
 62
10
 10
     5.0927
 20
     5.3218
 30
     0.0000
 40
     0.0186
  0
CIRCLE
  8
50
 62
10
 10
     5.0290
 20
     5.3159
 30
     0.0000
 40
     0.0294
  0
CIRCLE
  8
50
 62
10
 10
     3.6597
 20
    -0.0499
 30
     0.0000
 40
     0.0133
  0
CIRCLE
  8
50
 62
10
 10
     3.5419
 20
     0.0390
 30
     0.0000
 40
     0.0262
  0
CIRCLE
  8
50
 62
10
 10
     4.9237
 20
     5.2540
 30
     0.0000
 40
     0.0304
  0
CIRCLE
  8
50
 62
10
 10
     4.9761
 20
     5.2969
 30
     0.0000
 40
     0.0269
  0
CIRCLE
  8
50
 62
10
 10
     3.5201
 20
    -0.0200
 30
     0.0000
 40
     0.0367
  0
CIRCLE
  8
50
 62
10
 10
     4.8591
 20
     5.2577
 30
     0.0000
 40
     0.0342
  0
CIRCLE
  8
50
 62
10
 10
     4.9185
 20
     5.3190
 30
     0.0000
 40
     0.0348
  0
CIRCLE
  8
50
 62
10
 10
     3.4689
 20
     0.0096
 30
     0.0000
 40
     0.0225
  0
CIRCLE
  8
50
 62
10
 10
     4.9904
 20
     5.3347
 30
     0.0000
 40
     0.0136
  0
CIRCLE
  8
50
 62
10
 10
     4.8523
 20
     5.3231
 30
     0.0000
 40
     0.0315
  0
CIRCLE
  8
50
 62
10
 10
     3.5650
 20
    -0.0474
 30
     0.0000
 40
     0.0158
  0
CIRCLE
  8
50
 62
10
 10
     3.4251
 20
     0.0396
 30
     0.0000
 40
     0.0306
  0
CIRCLE
  8
50
 62
10
 10
     3.4619
 20
    -0.0360
 30
     0.0000
 40
     0.0237
  0
CIRCLE
  8
50
 62
10
 10
     4.8852
 20
     5.3570
 30
     0.0000
 40
     0.0157
  0
CIRCLE
  8
50
 62
10
 10
     3.5926
 20
    -0.0513
 30
     0.0000
 40
     0.0120
  0
CIRCLE
  8
50
 62
10
 10
     3.4018
 20
    -0.0245
 30
     0.0000
 40
     0.0375
  0
CIRCLE
  8
50
 62
10
 10
     3.3652
 20
     0.0319
 30
     0.0000
 40
     0.0297
  0
CIRCLE
  8
50
 62
10
 10
     4.8024
 20
     5.3102
 30
     0.0000
 40
     0.0201
  0
CIRCLE
  8
50
 62
10
 10
     3.3381
 20
    -0.0174
 30
     0.0000
 40
     0.0265
  0
CIRCLE
  8
50
 62
10
 10
     4.8033
 20
     5.3602
 30
     0.0000
 40
     0.0299
  0
CIRCLE
  8
50
 62
10
 10
     3.3023
 20
     0.0303
 30
     0.0000
 40
     0.0332
  0
CIRCLE
  8
50
 62
10
 10
     4.7518
 20
     5.3659
 30
     0.0000
 40
     0.0218
  0
CIRCLE
  8
50
 62
10
 10
     3.2853
 20
    -0.0278
 30
     0.0000
 40
     0.0274
  0
CIRCLE
  8
50
 62
10
 10
     4.7744
 20
     5.4070
 30
     0.0000
 40
     0.0251
  0
CIRCLE
  8
50
 62
10
 10
     3.2322
 20
     0.0124
 30
     0.0000
 40
     0.0392
  0
CIRCLE
  8
50
 62
10
 10
     4.8183
 20
     5.4065
 30
     0.0000
 40
     0.0188
  0
CIRCLE
  8
50
 62
10
 10
     4.7287
 20
     5.4019
 30
     0.0000
 40
     0.0209
  0
CIRCLE
  8
50
 62
10
 10
     3.2424
 20
    -0.0446
 30
     0.0000
 40
     0.0187
  0
CIRCLE
  8
50
 62
10
 10
     3.1622
 20
     0.0158
 30
     0.0000
 40
     0.0309
  0
CIRCLE
  8
50
 62
10
 10
     4.8477
 20
     5.3820
 30
     0.0000
 40
     0.0196
  0
CIRCLE
  8
50
 62
10
 10
     4.7413
 20
     5.4523
 30
     0.0000
 40
     0.0311
  0
CIRCLE
  8
50
 62
10
 10
     3.1882
 20
    -0.0309
 30
     0.0000
 40
     0.0225
  0
CIRCLE
  8
50
 62
10
 10
     4.6769
 20
     5.4613
 30
     0.0000
 40
     0.0340
  0
CIRCLE
  8
50
 62
10
 10
     4.6075
 20
     5.4687
 30
     0.0000
 40
     0.0359
  0
CIRCLE
  8
50
 62
10
 10
     3.1426
 20
    -0.0346
 30
     0.0000
 40
     0.0232
  0
CIRCLE
  8
50
 62
10
 10
     3.0990
 20
     0.0168
 30
     0.0000
 40
     0.0324
  0
CIRCLE
  8
50
 62
10
 10
     4.7162
 20
     5.4919
 30
     0.0000
 40
     0.0158
  0
CIRCLE
  8
50
 62
10
 10
     4.6502
 20
     5.5227
 30
     0.0000
 40
     0.0330
  0
CIRCLE
  8
50
 62
10
 10
     3.0957
 20
    -0.0394
 30
     0.0000
 40
     0.0239
  0
CIRCLE
  8
50
 62
10
 10
     3.0413
 20
     0.0526
 30
     0.0000
 40
     0.0356
  0
CIRCLE
  8
50
 62
10
 10
     3.0490
 20
    -0.0168
 30
     0.0000
 40
     0.0279
  0
CIRCLE
  8
50
 62
10
 10
     4.5828
 20
     5.5359
 30
     0.0000
 40
     0.0357
  0
CIRCLE
  8
50
 62
10
 10
     4.6254
 20
     5.5646
 30
     0.0000
 40
     0.0157
  0
CIRCLE
  8
50
 62
10
 10
     2.9922
 20
     0.0049
 30
     0.0000
 40
     0.0329
  0
CIRCLE
  8
50
 62
10
 10
     4.6006
 20
     5.5842
 30
     0.0000
 40
     0.0159
  0
CIRCLE
  8
50
 62
10
 10
     4.5527
 20
     5.5990
 30
     0.0000
 40
     0.0343
  0
CIRCLE
  8
50
 62
10
 10
     3.0104
 20
    -0.0440
 30
     0.0000
 40
     0.0193
  0
CIRCLE
  8
50
 62
10
 10
     2.9330
 20
     0.0068
 30
     0.0000
 40
     0.0263
  0
CIRCLE
  8
50
 62
10
 10
     4.4876
 20
     5.5871
 30
     0.0000
 40
     0.0318
  0
CIRCLE
  8
50
 62
10
 10
     2.9714
 20
    -0.0435
 30
     0.0000
 40
     0.0197
  0
CIRCLE
  8
50
 62
10
 10
     2.8932
 20
     0.0516
 30
     0.0000
 40
     0.0264
  0
CIRCLE
  8
50
 62
10
 10
     2.9298
 20
    -0.0413
 30
     0.0000
 40
     0.0219
  0
CIRCLE
  8
50
 62
10
 10
     4.5098
 20
     5.6381
 30
     0.0000
 40
     0.0237
  0
CIRCLE
  8
50
 62
10
 10
     4.4546
 20
     5.6411
 30
     0.0000
 40
     0.0315
  0
CIRCLE
  8
50
 62
10
 10
     2.8694
 20
    -0.0099
 30
     0.0000
 40
     0.0395
  0
CIRCLE
  8
50
 62
10
 10
     4.4901
 20
     5.6725
 30
     0.0000
 40
     0.0159
  0
CIRCLE
  8
50
 62
10
 10
     4.4005
 20
     5.6297
 30
     0.0000
 40
     0.0239
  0
CIRCLE
  8
50
 62
10
 10
     2.8104
 20
     0.0139
 30
     0.0000
 40
     0.0241
  0
CIRCLE
  8
50
 62
10
 10
     4.4605
 20
     5.6917
 30
     0.0000
 40
     0.0194
  0
CIRCLE
  8
50
 62
10
 10
     2.8127
 20
    -0.0313
 30
     0.0000
 40
     0.0211
  0
CIRCLE
  8
50
 62
10
 10
     2.7621
 20
    -0.0148
 30
     0.0000
 40
     0.0321
  0
CIRCLE
  8
50
 62
10
 10
     4.4089
 20
     5.6858
 30
     0.0000
 40
     0.0325
  0
CIRCLE
  8
50
 62
10
 10
     4.3559
 20
     5.6822
 30
     0.0000
 40
     0.0207
  0
CIRCLE
  8
50
 62
10
 10
     2.7429
 20
     0.0344
 30
     0.0000
 40
     0.0207
  0
CIRCLE
  8
50
 62
10
 10
     2.7083
 20
     0.0045
 30
     0.0000
 40
     0.0250
  0
CIRCLE
  8
50
 62
10
 10
     4.4411
 20
     5.7166
 30
     0.0000
 40
     0.0121
  0
CIRCLE
  8
50
 62
10
 10
     4.3669
 20
     5.7308
 30
     0.0000
 40
     0.0291
  0
CIRCLE
  8
50
 62
10
 10
     4.3133
 20
     5.7359
 30
     0.0000
 40
     0.0247
  0
CIRCLE
  8
50
 62
10
 10
     2.7027
 20
     0.0525
 30
     0.0000
 40
     0.0234
  0
CIRCLE
  8
50
 62
10
 10
     2.7155
 20
    -0.0416
 30
     0.0000
 40
     0.0216
  0
CIRCLE
  8
50
 62
10
 10
     2.6589
 20
     0.0565
 30
     0.0000
 40
     0.0206
  0
CIRCLE
  8
50
 62
10
 10
     2.6707
 20
    -0.0286
 30
     0.0000
 40
     0.0250
  0
CIRCLE
  8
50
 62
10
 10
     4.3399
 20
     5.7727
 30
     0.0000
 40
     0.0207
  0
CIRCLE
  8
50
 62
10
 10
     4.2608
 20
     5.7399
 30
     0.0000
 40
     0.0224
  0
CIRCLE
  8
50
 62
10
 10
     4.1378
 20
     5.7763
 30
     0.0000
 40
     0.0367
  0
CIRCLE
  8
50
 62
10
 10
     2.4019
 20
     2.0947
 30
     0.0000
 40
     0.0325
  0
CIRCLE
  8
50
 62
10
 10
     4.2882
 20
     5.7837
 30
     0.0000
 40
     0.0293
  0
CIRCLE
  8
50
 62
10
 10
     4.1985
 20
     5.8196
 30
     0.0000
 40
     0.0379
  0
CIRCLE
  8
50
 62
10
 10
     2.6390
 20
     0.0130
 30
     0.0000
 40
     0.0272
  0
CIRCLE
  8
50
 62
10
 10
     2.4413
 20
     1.4261
 30
     0.0000
 40
     0.0366
  0
CIRCLE
  8
50
 62
10
 10
     2.4427
 20
     1.5379
 30
     0.0000
 40
     0.0211
  0
CIRCLE
  8
50
 62
10
 10
     2.4331
 20
     1.7662
 30
     0.0000
 40
     0.0397
  0
CIRCLE
  8
50
 62
10
 10
     2.3975
 20
     2.0050
 30
     0.0000
 40
     0.0301
  0
CIRCLE
  8
50
 62
10
 10
     2.4088
 20
     2.2060
 30
     0.0000
 40
     0.0307
  0
CIRCLE
  8
50
 62
10
 10
     2.4385
 20
     2.4184
 30
     0.0000
 40
     0.0347
  0
CIRCLE
  8
50
 62
10
 10
     2.4300
 20
     1.8592
 30
     0.0000
 40
     0.0396
  0
CIRCLE
  8
50
 62
10
 10
     2.4266
 20
     1.6541
 30
     0.0000
 40
     0.0352
  0
CIRCLE
  8
50
 62
10
 10
     2.3879
 20
     2.1474
 30
     0.0000
 40
     0.0220
  0
CIRCLE
  8
50
 62
10
 10
     2.3713
 20
     1.8108
 30
     0.0000
 40
     0.0365
  0
CIRCLE
  8
50
 62
10
 10
     2.3994
 20
     1.7094
 30
     0.0000
 40
     0.0263
  0
CIRCLE
  8
50
 62
10
 10
     2.3971
 20
     1.9176
 30
     0.0000
 40
     0.0274
  0
CIRCLE
  8
50
 62
10
 10
     2.3982
 20
     1.5985
 30
     0.0000
 40
     0.0272
  0
CIRCLE
  8
50
 62
10
 10
     2.4032
 20
     0.6588
 30
     0.0000
 40
     0.0381
  0
CIRCLE
  8
50
 62
10
 10
     2.4310
 20
     1.4900
 30
     0.0000
 40
     0.0282
  0
CIRCLE
  8
50
 62
10
 10
     2.3670
 20
     2.0500
 30
     0.0000
 40
     0.0242
  0
CIRCLE
  8
50
 62
10
 10
     2.4168
 20
     1.0275
 30
     0.0000
 40
     0.0337
  0
CIRCLE
  8
50
 62
10
 10
     2.3493
 20
     2.1195
 30
     0.0000
 40
     0.0256
  0
CIRCLE
  8
50
 62
10
 10
     2.4200
 20
     2.2594
 30
     0.0000
 40
     0.0238
  0
CIRCLE
  8
50
 62
10
 10
     2.4346
 20
     0.5631
 30
     0.0000
 40
     0.0372
  0
CIRCLE
  8
50
 62
10
 10
     2.3552
 20
     2.1841
 30
     0.0000
 40
     0.0271
  0
CIRCLE
  8
50
 62
10
 10
     2.4141
 20
     1.3553
 30
     0.0000
 40
     0.0392
  0
CIRCLE
  8
50
 62
10
 10
     2.6219
 20
    -0.0357
 30
     0.0000
 40
     0.0243
  0
CIRCLE
  8
50
 62
10
 10
     2.3884
 20
     2.3687
 30
     0.0000
 40
     0.0360
  0
CIRCLE
  8
50
 62
10
 10
     2.4435
 20
     0.7989
 30
     0.0000
 40
     0.0245
  0
CIRCLE
  8
50
 62
10
 10
     2.4184
 20
     0.9437
 30
     0.0000
 40
     0.0349
  0
CIRCLE
  8
50
 62
10
 10
     2.4161
 20
     1.1047
 30
     0.0000
 40
     0.0344
  0
CIRCLE
  8
50
 62
10
 10
     2.4151
 20
     2.4826
 30
     0.0000
 40
     0.0336
  0
CIRCLE
  8
50
 62
10
 10
     2.5901
 20
     0.0301
 30
     0.0000
 40
     0.0246
  0
CIRCLE
  8
50
 62
10
 10
     4.3726
 20
     5.7715
 30
     0.0000
 40
     0.0120
  0
CIRCLE
  8
50
 62
10
 10
     4.2635
 20
     5.8367
 30
     0.0000
 40
     0.0292
  0
CIRCLE
  8
50
 62
10
 10
     4.1324
 20
     5.8460
 30
     0.0000
 40
     0.0333
  0
CIRCLE
  8
50
 62
10
 10
     2.3457
 20
     2.0092
 30
     0.0000
 40
     0.0218
  0
CIRCLE
  8
50
 62
10
 10
     2.3596
 20
     1.9597
 30
     0.0000
 40
     0.0290
  0
CIRCLE
  8
50
 62
10
 10
     2.3709
 20
     1.7505
 30
     0.0000
 40
     0.0237
  0
CIRCLE
  8
50
 62
10
 10
     2.3574
 20
     2.2450
 30
     0.0000
 40
     0.0338
  0
CIRCLE
  8
50
 62
10
 10
     2.3669
 20
     1.0650
 30
     0.0000
 40
     0.0288
  0
CIRCLE
  8
50
 62
10
 10
     2.4080
 20
     1.2857
 30
     0.0000
 40
     0.0306
  0
CIRCLE
  8
50
 62
10
 10
     2.3690
 20
     0.9855
 30
     0.0000
 40
     0.0299
  0
CIRCLE
  8
50
 62
10
 10
     2.3627
 20
     1.6428
 30
     0.0000
 40
     0.0296
  0
CIRCLE
  8
50
 62
10
 10
     2.4112
 20
     1.1695
 30
     0.0000
 40
     0.0306
  0
CIRCLE
  8
50
 62
10
 10
     2.4288
 20
     1.2278
 30
     0.0000
 40
     0.0224
  0
CIRCLE
  8
50
 62
10
 10
     2.3961
 20
     2.3093
 30
     0.0000
 40
     0.0240
  0
CIRCLE
  8
50
 62
10
 10
     2.3870
 20
     1.4085
 30
     0.0000
 40
     0.0205
  0
CIRCLE
  8
50
 62
10
 10
     2.3892
 20
     1.4580
 30
     0.0000
 40
     0.0245
  0
CIRCLE
  8
50
 62
10
 10
     2.3959
 20
     1.5451
 30
     0.0000
 40
     0.0262
  0
CIRCLE
  8
50
 62
10
 10
     2.3988
 20
     0.7551
 30
     0.0000
 40
     0.0381
  0
CIRCLE
  8
50
 62
10
 10
     2.4253
 20
     0.8413
 30
     0.0000
 40
     0.0217
  0
CIRCLE
  8
50
 62
10
 10
     2.3889
 20
     0.8838
 30
     0.0000
 40
     0.0319
  0
CIRCLE
  8
50
 62
10
 10
     2.3777
 20
     2.4337
 30
     0.0000
 40
     0.0280
  0
CIRCLE
  8
50
 62
10
 10
     2.3658
 20
     0.5928
 30
     0.0000
 40
     0.0378
  0
CIRCLE
  8
50
 62
10
 10
     2.4181
 20
     2.5520
 30
     0.0000
 40
     0.0359
  0
CIRCLE
  8
50
 62
10
 10
     2.3886
 20
     0.4303
 30
     0.0000
 40
     0.0397
  0
CIRCLE
  8
50
 62
10
 10
     2.4168
 20
     0.3064
 30
     0.0000
 40
     0.0366
  0
CIRCLE
  8
50
 62
10
 10
     2.5736
 20
    -0.0187
 30
     0.0000
 40
     0.0269
  0
CIRCLE
  8
50
 62
10
 10
     2.5382
 20
     0.0482
 30
     0.0000
 40
     0.0303
  0
CIRCLE
  8
50
 62
10
 10
     4.0892
 20
     5.8070
 30
     0.0000
 40
     0.0209
  0
CIRCLE
  8
50
 62
10
 10
     4.0140
 20
     5.7976
 30
     0.0000
 40
     0.0356
  0
CIRCLE
  8
50
 62
10
 10
     4.1765
 20
     5.8695
 30
     0.0000
 40
     0.0166
  0
CIRCLE
  8
50
 62
10
 10
     4.0576
 20
     5.8533
 30
     0.0000
 40
     0.0351
  0
CIRCLE
  8
50
 62
10
 10
     2.3666
 20
     1.3174
 30
     0.0000
 40
     0.0216
  0
CIRCLE
  8
50
 62
10
 10
     2.3484
 20
     1.7077
 30
     0.0000
 40
     0.0247
  0
CIRCLE
  8
50
 62
10
 10
     2.3514
 20
     1.3769
 30
     0.0000
 40
     0.0271
  0
CIRCLE
  8
50
 62
10
 10
     2.3841
 20
     1.2374
 30
     0.0000
 40
     0.0233
  0
CIRCLE
  8
50
 62
10
 10
     2.3599
 20
     1.1367
 30
     0.0000
 40
     0.0303
  0
CIRCLE
  8
50
 62
10
 10
     2.3526
 20
     2.4849
 30
     0.0000
 40
     0.0290
  0
CIRCLE
  8
50
 62
10
 10
     2.3488
 20
     2.3222
 30
     0.0000
 40
     0.0251
  0
CIRCLE
  8
50
 62
10
 10
     2.3432
 20
     2.4008
 30
     0.0000
 40
     0.0195
  0
CIRCLE
  8
50
 62
10
 10
     2.3475
 20
     1.5915
 30
     0.0000
 40
     0.0239
  0
CIRCLE
  8
50
 62
10
 10
     2.3470
 20
     1.9088
 30
     0.0000
 40
     0.0234
  0
CIRCLE
  8
50
 62
10
 10
     2.5167
 20
    -0.0091
 30
     0.0000
 40
     0.0308
  0
CIRCLE
  8
50
 62
10
 10
     2.3482
 20
     1.4311
 30
     0.0000
 40
     0.0245
  0
CIRCLE
  8
50
 62
10
 10
     2.3556
 20
     1.5033
 30
     0.0000
 40
     0.0319
  0
CIRCLE
  8
50
 62
10
 10
     2.4393
 20
     2.6169
 30
     0.0000
 40
     0.0287
  0
CIRCLE
  8
50
 62
10
 10
     2.4034
 20
     0.5012
 30
     0.0000
 40
     0.0322
  0
CIRCLE
  8
50
 62
10
 10
     2.3419
 20
     1.0253
 30
     0.0000
 40
     0.0182
  0
CIRCLE
  8
50
 62
10
 10
     2.3803
 20
     0.8270
 30
     0.0000
 40
     0.0256
  0
CIRCLE
  8
50
 62
10
 10
     2.3515
 20
     0.9304
 30
     0.0000
 40
     0.0279
  0
CIRCLE
  8
50
 62
10
 10
     2.3533
 20
     0.7047
 30
     0.0000
 40
     0.0297
  0
CIRCLE
  8
50
 62
10
 10
     2.4073
 20
     0.2325
 30
     0.0000
 40
     0.0379
  0
CIRCLE
  8
50
 62
10
 10
     4.3044
 20
     5.8236
 30
     0.0000
 40
     0.0138
  0
CIRCLE
  8
50
 62
10
 10
     4.2285
 20
     5.8618
 30
     0.0000
 40
     0.0139
  0
CIRCLE
  8
50
 62
10
 10
     3.9791
 20
     5.8414
 30
     0.0000
 40
     0.0204
  0
CIRCLE
  8
50
 62
10
 10
     2.3385
 20
     1.7713
 30
     0.0000
 40
     0.0148
  0
CIRCLE
  8
50
 62
10
 10
     2.3592
 20
     1.1939
 30
     0.0000
 40
     0.0269
  0
CIRCLE
  8
50
 62
10
 10
     2.3830
 20
     0.3594
 30
     0.0000
 40
     0.0262
  0
CIRCLE
  8
50
 62
10
 10
     2.4044
 20
     2.6676
 30
     0.0000
 40
     0.0329
  0
CIRCLE
  8
50
 62
10
 10
     2.4626
 20
     0.0072
 30
     0.0000
 40
     0.0256
  0
CIRCLE
  8
50
 62
10
 10
     2.3475
 20
     0.7900
 30
     0.0000
 40
     0.0238
  0
CIRCLE
  8
50
 62
10
 10
     2.3503
 20
     0.4817
 30
     0.0000
 40
     0.0243
  0
CIRCLE
  8
50
 62
10
 10
     2.3616
 20
     0.2770
 30
     0.0000
 40
     0.0259
  0
CIRCLE
  8
50
 62
10
 10
     2.3404
 20
     0.8872
 30
     0.0000
 40
     0.0168
  0
CIRCLE
  8
50
 62
10
 10
     2.3837
 20
     2.6059
 30
     0.0000
 40
     0.0281
  0
CIRCLE
  8
50
 62
10
 10
     2.3532
 20
     2.5434
 30
     0.0000
 40
     0.0296
  0
CIRCLE
  8
50
 62
10
 10
     2.3444
 20
     0.6550
 30
     0.0000
 40
     0.0208
  0
CIRCLE
  8
50
 62
10
 10
     3.8710
 20
     5.8357
 30
     0.0000
 40
     0.0392
  0
CIRCLE
  8
50
 62
10
 10
     4.0008
 20
     5.8889
 30
     0.0000
 40
     0.0319
  0
CIRCLE
  8
50
 62
10
 10
     2.4729
 20
    -0.0403
 30
     0.0000
 40
     0.0229
  0
CIRCLE
  8
50
 62
10
 10
     2.3422
 20
     1.2361
 30
     0.0000
 40
     0.0186
  0
CIRCLE
  8
50
 62
10
 10
     2.4129
 20
     0.0356
 30
     0.0000
 40
     0.0316
  0
CIRCLE
  8
50
 62
10
 10
     2.3382
 20
     1.0974
 30
     0.0000
 40
     0.0145
  0
CIRCLE
  8
50
 62
10
 10
     2.3494
 20
     2.6474
 30
     0.0000
 40
     0.0258
  0
CIRCLE
  8
50
 62
10
 10
     2.3374
 20
     2.4449
 30
     0.0000
 40
     0.0138
  0
CIRCLE
  8
50
 62
10
 10
     2.3465
 20
     0.2307
 30
     0.0000
 40
     0.0229
  0
CIRCLE
  8
50
 62
10
 10
     2.4172
 20
     0.1733
 30
     0.0000
 40
     0.0221
  0
CIRCLE
  8
50
 62
10
 10
     2.3572
 20
     0.5322
 30
     0.0000
 40
     0.0234
  0
CIRCLE
  8
50
 62
10
 10
     2.3449
 20
     0.3879
 30
     0.0000
 40
     0.0213
  0
CIRCLE
  8
50
 62
10
 10
     2.3392
 20
     0.8285
 30
     0.0000
 40
     0.0155
  0
CIRCLE
  8
50
 62
10
 10
     2.3473
 20
     0.3245
 30
     0.0000
 40
     0.0237
  0
CIRCLE
  8
50
 62
10
 10
     2.3412
 20
     2.5891
 30
     0.0000
 40
     0.0176
  0
CIRCLE
  8
50
 62
10
 10
     2.4361
 20
     2.7991
 30
     0.0000
 40
     0.0300
  0
CIRCLE
  8
50
 62
10
 10
     2.4181
 20
     2.7210
 30
     0.0000
 40
     0.0222
  0
CIRCLE
  8
50
 62
10
 10
     2.3529
 20
     2.7023
 30
     0.0000
 40
     0.0292
  0
CIRCLE
  8
50
 62
10
 10
     2.4222
 20
    -0.0295
 30
     0.0000
 40
     0.0289
  0
CIRCLE
  8
50
 62
10
 10
     2.3848
 20
     0.1219
 30
     0.0000
 40
     0.0387
  0
CIRCLE
  8
50
 62
10
 10
     2.3367
 20
     0.4212
 30
     0.0000
 40
     0.0130
  0
CIRCLE
  8
50
 62
10
 10
     3.9343
 20
     5.8708
 30
     0.0000
 40
     0.0332
  0
CIRCLE
  8
50
 62
10
 10
     2.4281
 20
     2.8517
 30
     0.0000
 40
     0.0233
  0
CIRCLE
  8
50
 62
10
 10
     2.3770
 20
     2.7646
 30
     0.0000
 40
     0.0376
  0
CIRCLE
  8
50
 62
10
 10
     2.4370
 20
     3.2630
 30
     0.0000
 40
     0.0235
  0
CIRCLE
  8
50
 62
10
 10
     2.5424
 20
    -0.0477
 30
     0.0000
 40
     0.0156
  0
CIRCLE
  8
50
 62
10
 10
     2.3643
 20
     0.1847
 30
     0.0000
 40
     0.0264
  0
CIRCLE
  8
50
 62
10
 10
     2.3685
 20
     0.0643
 30
     0.0000
 40
     0.0212
  0
CIRCLE
  8
50
 62
10
 10
     2.3785
 20
    -0.0046
 30
     0.0000
 40
     0.0213
  0
CIRCLE
  8
50
 62
10
 10
     3.8807
 20
     5.9042
 30
     0.0000
 40
     0.0299
  0
CIRCLE
  8
50
 62
10
 10
     3.8206
 20
     5.8765
 30
     0.0000
 40
     0.0256
  0
CIRCLE
  8
50
 62
10
 10
     3.8292
 20
     5.9283
 30
     0.0000
 40
     0.0269
  0
CIRCLE
  8
50
 62
10
 10
     3.9594
 20
     5.9133
 30
     0.0000
 40
     0.0161
  0
CIRCLE
  8
50
 62
10
 10
     4.0445
 20
     5.8996
 30
     0.0000
 40
     0.0129
  0
CIRCLE
  8
50
 62
10
 10
     2.4067
 20
     3.3116
 30
     0.0000
 40
     0.0337
  0
CIRCLE
  8
50
 62
10
 10
     2.4072
 20
     2.9710
 30
     0.0000
 40
     0.0376
  0
CIRCLE
  8
50
 62
10
 10
     2.4020
 20
     3.2269
 30
     0.0000
 40
     0.0267
  0
CIRCLE
  8
50
 62
10
 10
     2.4143
 20
     3.0512
 30
     0.0000
 40
     0.0204
  0
CIRCLE
  8
50
 62
10
 10
     2.3844
 20
     2.8281
 30
     0.0000
 40
     0.0264
  0
CIRCLE
  8
50
 62
10
 10
     2.3392
 20
     0.1512
 30
     0.0000
 40
     0.0155
  0
CIRCLE
  8
50
 62
10
 10
     2.3770
 20
    -0.0446
 30
     0.0000
 40
     0.0187
  0
CIRCLE
  8
50
 62
10
 10
     2.3465
 20
     0.0260
 30
     0.0000
 40
     0.0229
  0
CIRCLE
  8
50
 62
10
 10
     2.3883
 20
     2.9021
 30
     0.0000
 40
     0.0339
  0
CIRCLE
  8
50
 62
10
 10
     2.3674
 20
     3.0280
 30
     0.0000
 40
     0.0320
  0
CIRCLE
  8
50
 62
10
 10
     2.3883
 20
     3.0992
 30
     0.0000
 40
     0.0342
  0
CIRCLE
  8
50
 62
10
 10
     2.3428
 20
     2.8098
 30
     0.0000
 40
     0.0191
  0
CIRCLE
  8
50
 62
10
 10
     2.3570
 20
     3.2666
 30
     0.0000
 40
     0.0334
  0
CIRCLE
  8
50
 62
10
 10
     2.4330
 20
     3.3653
 30
     0.0000
 40
     0.0260
  0
CIRCLE
  8
50
 62
10
 10
     2.4346
 20
     3.4604
 30
     0.0000
 40
     0.0370
  0
CIRCLE
  8
50
 62
10
 10
     3.7668
 20
     5.8932
 30
     0.0000
 40
     0.0308
  0
CIRCLE
  8
50
 62
10
 10
     2.4063
 20
     3.5269
 30
     0.0000
 40
     0.0353
  0
CIRCLE
  8
50
 62
10
 10
     2.4175
 20
     3.1826
 30
     0.0000
 40
     0.0202
  0
CIRCLE
  8
50
 62
10
 10
     3.6484
 20
     5.8716
 30
     0.0000
 40
     0.0218
  0
CIRCLE
  8
50
 62
10
 10
     2.3473
 20
     2.8617
 30
     0.0000
 40
     0.0237
  0
CIRCLE
  8
50
 62
10
 10
     2.4060
 20
     3.4069
 30
     0.0000
 40
     0.0236
  0
CIRCLE
  8
50
 62
10
 10
     2.3831
 20
     3.3641
 30
     0.0000
 40
     0.0239
  0
CIRCLE
  8
50
 62
10
 10
     2.3516
 20
     3.2055
 30
     0.0000
 40
     0.0280
  0
CIRCLE
  8
50
 62
10
 10
     3.7830
 20
     5.9430
 30
     0.0000
 40
     0.0216
  0
CIRCLE
  8
50
 62
10
 10
     3.7042
 20
     5.9171
 30
     0.0000
 40
     0.0362
  0
CIRCLE
  8
50
 62
10
 10
     2.3557
 20
     2.9451
 30
     0.0000
 40
     0.0201
  0
CIRCLE
  8
50
 62
10
 10
     2.3402
 20
     0.0893
 30
     0.0000
 40
     0.0166
  0
CIRCLE
  8
50
 62
10
 10
     2.3410
 20
    -0.0138
 30
     0.0000
 40
     0.0173
  0
CIRCLE
  8
50
 62
10
 10
     2.4134
 20
     3.5894
 30
     0.0000
 40
     0.0276
  0
CIRCLE
  8
50
 62
10
 10
     2.3749
 20
     3.4758
 30
     0.0000
 40
     0.0247
  0
CIRCLE
  8
50
 62
10
 10
     2.3530
 20
     3.4081
 30
     0.0000
 40
     0.0294
  0
CIRCLE
  8
50
 62
10
 10
     2.3800
 20
     3.1654
 30
     0.0000
 40
     0.0211
  0
CIRCLE
  8
50
 62
10
 10
     2.3396
 20
     2.9128
 30
     0.0000
 40
     0.0160
  0
CIRCLE
  8
50
 62
10
 10
     2.3491
 20
     3.3249
 30
     0.0000
 40
     0.0254
  0
CIRCLE
  8
50
 62
10
 10
     2.3431
 20
     2.9826
 30
     0.0000
 40
     0.0195
  0
CIRCLE
  8
50
 62
10
 10
     3.6442
 20
     5.9170
 30
     0.0000
 40
     0.0237
  0
CIRCLE
  8
50
 62
10
 10
     3.5847
 20
     5.9099
 30
     0.0000
 40
     0.0362
  0
CIRCLE
  8
50
 62
10
 10
     3.6626
 20
     5.9629
 30
     0.0000
 40
     0.0257
  0
CIRCLE
  8
50
 62
10
 10
     2.3463
 20
     3.1374
 30
     0.0000
 40
     0.0226
  0
CIRCLE
  8
50
 62
10
 10
     2.3584
 20
     3.5716
 30
     0.0000
 40
     0.0302
  0
CIRCLE
  8
50
 62
10
 10
     2.3511
 20
     3.5149
 30
     0.0000
 40
     0.0211
  0
CIRCLE
  8
50
 62
10
 10
     3.6086
 20
     5.9705
 30
     0.0000
 40
     0.0288
  0
CIRCLE
  8
50
 62
10
 10
     2.3425
 20
     3.0723
 30
     0.0000
 40
     0.0189
  0
CIRCLE
  8
50
 62
10
 10
     2.4147
 20
     3.7444
 30
     0.0000
 40
     0.0328
  0
CIRCLE
  8
50
 62
10
 10
     2.3712
 20
     3.6358
 30
     0.0000
 40
     0.0352
  0
CIRCLE
  8
50
 62
10
 10
     2.3405
 20
     3.4525
 30
     0.0000
 40
     0.0169
  0
CIRCLE
  8
50
 62
10
 10
     3.5245
 20
     5.9242
 30
     0.0000
 40
     0.0257
  0
CIRCLE
  8
50
 62
10
 10
     2.4211
 20
     3.6629
 30
     0.0000
 40
     0.0216
  0
CIRCLE
  8
50
 62
10
 10
     2.4121
 20
     3.7977
 30
     0.0000
 40
     0.0207
  0
CIRCLE
  8
50
 62
10
 10
     2.4396
 20
     3.8926
 30
     0.0000
 40
     0.0209
  0
CIRCLE
  8
50
 62
10
 10
     2.3590
 20
     3.7052
 30
     0.0000
 40
     0.0353
  0
CIRCLE
  8
50
 62
10
 10
     2.3752
 20
     3.7798
 30
     0.0000
 40
     0.0203
  0
CIRCLE
  8
50
 62
10
 10
     2.3986
 20
     3.8403
 30
     0.0000
 40
     0.0241
  0
CIRCLE
  8
50
 62
10
 10
     2.4074
 20
     3.9242
 30
     0.0000
 40
     0.0242
  0
CIRCLE
  8
50
 62
10
 10
     3.7445
 20
     5.9539
 30
     0.0000
 40
     0.0184
  0
CIRCLE
  8
50
 62
10
 10
     2.4427
 20
     4.0759
 30
     0.0000
 40
     0.0318
  0
CIRCLE
  8
50
 62
10
 10
     2.4117
 20
     3.9747
 30
     0.0000
 40
     0.0265
  0
CIRCLE
  8
50
 62
10
 10
     2.3671
 20
     3.8859
 30
     0.0000
 40
     0.0314
  0
CIRCLE
  8
50
 62
10
 10
     2.3510
 20
     3.8208
 30
     0.0000
 40
     0.0274
  0
CIRCLE
  8
50
 62
10
 10
     3.5472
 20
     5.9784
 30
     0.0000
 40
     0.0331
  0
CIRCLE
  8
50
 62
10
 10
     3.2878
 20
     5.8210
 30
     0.0000
 40
     0.0385
  0
CIRCLE
  8
50
 62
10
 10
     3.3585
 20
     5.8918
 30
     0.0000
 40
     0.0382
  0
CIRCLE
  8
50
 62
10
 10
     3.4227
 20
     5.9327
 30
     0.0000
 40
     0.0293
  0
CIRCLE
  8
50
 62
10
 10
     3.4832
 20
     5.9649
 30
     0.0000
 40
     0.0323
  0
CIRCLE
  8
50
 62
10
 10
     2.4205
 20
     4.1504
 30
     0.0000
 40
     0.0254
  0
CIRCLE
  8
50
 62
10
 10
     2.3393
 20
     3.7795
 30
     0.0000
 40
     0.0156
  0
CIRCLE
  8
50
 62
10
 10
     2.4221
 20
     4.2552
 30
     0.0000
 40
     0.0253
  0
CIRCLE
  8
50
 62
10
 10
     2.4027
 20
     4.0298
 30
     0.0000
 40
     0.0292
  0
CIRCLE
  8
50
 62
10
 10
     2.3681
 20
     3.9508
 30
     0.0000
 40
     0.0232
  0
CIRCLE
  8
50
 62
10
 10
     2.4369
 20
     4.2994
 30
     0.0000
 40
     0.0214
  0
CIRCLE
  8
50
 62
10
 10
     2.3846
 20
     4.2110
 30
     0.0000
 40
     0.0326
  0
CIRCLE
  8
50
 62
10
 10
     2.3673
 20
     3.9946
 30
     0.0000
 40
     0.0206
  0
CIRCLE
  8
50
 62
10
 10
     2.3853
 20
     4.0820
 30
     0.0000
 40
     0.0259
  0
CIRCLE
  8
50
 62
10
 10
     3.4316
 20
     5.9839
 30
     0.0000
 40
     0.0226
  0
CIRCLE
  8
50
 62
10
 10
     3.3753
 20
     5.9481
 30
     0.0000
 40
     0.0205
  0
CIRCLE
  8
50
 62
10
 10
     3.2851
 20
     5.8947
 30
     0.0000
 40
     0.0353
  0
CIRCLE
  8
50
 62
10
 10
     3.2363
 20
     5.7849
 30
     0.0000
 40
     0.0243
  0
CIRCLE
  8
50
 62
10
 10
     3.1428
 20
     5.7345
 30
     0.0000
 40
     0.0334
  0
CIRCLE
  8
50
 62
10
 10
     3.2183
 20
     5.8398
 30
     0.0000
 40
     0.0334
  0
CIRCLE
  8
50
 62
10
 10
     3.3323
 20
     5.9466
 30
     0.0000
 40
     0.0225
  0
CIRCLE
  8
50
 62
10
 10
     3.3872
 20
     5.9889
 30
     0.0000
 40
     0.0220
  0
CIRCLE
  8
50
 62
10
 10
     2.4263
 20
     4.6681
 30
     0.0000
 40
     0.0201
  0
CIRCLE
  8
50
 62
10
 10
     2.4315
 20
     4.5891
 30
     0.0000
 40
     0.0204
  0
CIRCLE
  8
50
 62
10
 10
     2.3488
 20
     4.0365
 30
     0.0000
 40
     0.0251
  0
CIRCLE
  8
50
 62
10
 10
     2.3604
 20
     4.1480
 30
     0.0000
 40
     0.0348
  0
CIRCLE
  8
50
 62
10
 10
     2.4071
 20
     4.4088
 30
     0.0000
 40
     0.0384
  0
CIRCLE
  8
50
 62
10
 10
     2.4297
 20
     4.5037
 30
     0.0000
 40
     0.0252
  0
CIRCLE
  8
50
 62
10
 10
     2.3636
 20
     4.2778
 30
     0.0000
 40
     0.0374
  0
CIRCLE
  8
50
 62
10
 10
     2.4034
 20
     4.3320
 30
     0.0000
 40
     0.0253
  0
CIRCLE
  8
50
 62
10
 10
     2.3830
 20
     4.4733
 30
     0.0000
 40
     0.0304
  0
CIRCLE
  8
50
 62
10
 10
     2.4046
 20
     4.5489
 30
     0.0000
 40
     0.0265
  0
CIRCLE
  8
50
 62
10
 10
     2.3564
 20
     4.3622
 30
     0.0000
 40
     0.0306
  0
CIRCLE
  8
50
 62
10
 10
     2.3911
 20
     4.6264
 30
     0.0000
 40
     0.0345
  0
CIRCLE
  8
50
 62
10
 10
     2.4098
 20
     4.7061
 30
     0.0000
 40
     0.0213
  0
CIRCLE
  8
50
 62
10
 10
     2.3397
 20
     4.2300
 30
     0.0000
 40
     0.0161
  0
CIRCLE
  8
50
 62
10
 10
     2.3416
 20
     4.0789
 30
     0.0000
 40
     0.0179
  0
CIRCLE
  8
50
 62
10
 10
     3.4622
 20
     6.0107
 30
     0.0000
 40
     0.0180
  0
CIRCLE
  8
50
 62
10
 10
     3.4122
 20
     6.0164
 30
     0.0000
 40
     0.0152
  0
CIRCLE
  8
50
 62
10
 10
     3.0825
 20
     5.6946
 30
     0.0000
 40
     0.0390
  0
CIRCLE
  8
50
 62
10
 10
     3.1810
 20
     5.7864
 30
     0.0000
 40
     0.0311
  0
CIRCLE
  8
50
 62
10
 10
     2.3537
 20
     4.5736
 30
     0.0000
 40
     0.0301
  0
CIRCLE
  8
50
 62
10
 10
     2.3482
 20
     4.4308
 30
     0.0000
 40
     0.0245
  0
CIRCLE
  8
50
 62
10
 10
     2.3579
 20
     4.6866
 30
     0.0000
 40
     0.0342
  0
CIRCLE
  8
50
 62
10
 10
     2.4120
 20
     4.8286
 30
     0.0000
 40
     0.0276
  0
CIRCLE
  8
50
 62
10
 10
     2.4345
 20
     4.9471
 30
     0.0000
 40
     0.0389
  0
CIRCLE
  8
50
 62
10
 10
     2.3384
 20
     3.9743
 30
     0.0000
 40
     0.0147
  0
CIRCLE
  8
50
 62
10
 10
     2.3395
 20
     3.9243
 30
     0.0000
 40
     0.0158
  0
CIRCLE
  8
50
 62
10
 10
     3.0892
 20
     5.7586
 30
     0.0000
 40
     0.0253
  0
CIRCLE
  8
50
 62
10
 10
     3.1296
 20
     5.7865
 30
     0.0000
 40
     0.0203
  0
CIRCLE
  8
50
 62
10
 10
     3.1699
 20
     5.8318
 30
     0.0000
 40
     0.0157
  0
CIRCLE
  8
50
 62
10
 10
     2.9450
 20
     5.5557
 30
     0.0000
 40
     0.0350
  0
CIRCLE
  8
50
 62
10
 10
     3.0625
 20
     5.6275
 30
     0.0000
 40
     0.0226
  0
CIRCLE
  8
50
 62
10
 10
     2.3382
 20
     4.4686
 30
     0.0000
 40
     0.0146
  0
CIRCLE
  8
50
 62
10
 10
     2.3980
 20
     4.7473
 30
     0.0000
 40
     0.0217
  0
CIRCLE
  8
50
 62
10
 10
     2.3404
 20
     4.6185
 30
     0.0000
 40
     0.0167
  0
CIRCLE
  8
50
 62
10
 10
     2.3936
 20
     4.8793
 30
     0.0000
 40
     0.0263
  0
CIRCLE
  8
50
 62
10
 10
     3.0513
 20
     5.7407
 30
     0.0000
 40
     0.0166
  0
CIRCLE
  8
50
 62
10
 10
     3.0190
 20
     5.6615
 30
     0.0000
 40
     0.0326
  0
CIRCLE
  8
50
 62
10
 10
     2.9614
 20
     5.6215
 30
     0.0000
 40
     0.0328
  0
CIRCLE
  8
50
 62
10
 10
     2.8177
 20
     5.4757
 30
     0.0000
 40
     0.0377
  0
CIRCLE
  8
50
 62
10
 10
     2.3914
 20
     4.9986
 30
     0.0000
 40
     0.0283
  0
CIRCLE
  8
50
 62
10
 10
     2.3603
 20
     4.9327
 30
     0.0000
 40
     0.0367
  0
CIRCLE
  8
50
 62
10
 10
     2.3650
 20
     4.8415
 30
     0.0000
 40
     0.0211
  0
CIRCLE
  8
50
 62
10
 10
     2.3691
 20
     4.7902
 30
     0.0000
 40
     0.0299
  0
CIRCLE
  8
50
 62
10
 10
     2.4025
 20
     5.0557
 30
     0.0000
 40
     0.0299
  0
CIRCLE
  8
50
 62
10
 10
     2.7642
 20
     5.4243
 30
     0.0000
 40
     0.0365
  0
CIRCLE
  8
50
 62
10
 10
     2.8912
 20
     5.5169
 30
     0.0000
 40
     0.0260
  0
CIRCLE
  8
50
 62
10
 10
     2.6135
 20
     5.2908
 30
     0.0000
 40
     0.0201
  0
CIRCLE
  8
50
 62
10
 10
     2.6916
 20
     5.3491
 30
     0.0000
 40
     0.0229
  0
CIRCLE
  8
50
 62
10
 10
     2.8982
 20
     5.6045
 30
     0.0000
 40
     0.0326
  0
CIRCLE
  8
50
 62
10
 10
     2.4629
 20
     5.2031
 30
     0.0000
 40
     0.0314
  0
CIRCLE
  8
50
 62
10
 10
     2.9681
 20
     5.6737
 30
     0.0000
 40
     0.0197
  0
CIRCLE
  8
50
 62
10
 10
     2.3427
 20
     4.5020
 30
     0.0000
 40
     0.0191
  0
CIRCLE
  8
50
 62
10
 10
     2.5470
 20
     5.2586
 30
     0.0000
 40
     0.0270
  0
CIRCLE
  8
50
 62
10
 10
     2.7144
 20
     5.3946
 30
     0.0000
 40
     0.0215
  0
CIRCLE
  8
50
 62
10
 10
     2.7574
 20
     5.4836
 30
     0.0000
 40
     0.0231
  0
CIRCLE
  8
50
 62
10
 10
     2.8357
 20
     5.5497
 30
     0.0000
 40
     0.0384
  0
CIRCLE
  8
50
 62
10
 10
     2.9209
 20
     5.6451
 30
     0.0000
 40
     0.0139
  0
CIRCLE
  8
50
 62
10
 10
     2.6334
 20
     5.3560
 30
     0.0000
 40
     0.0356
  0
CIRCLE
  8
50
 62
10
 10
     3.0242
 20
     5.7148
 30
     0.0000
 40
     0.0209
  0
CIRCLE
  8
50
 62
10
 10
     2.3502
 20
     5.0346
 30
     0.0000
 40
     0.0265
  0
CIRCLE
  8
50
 62
10
 10
     2.3954
 20
     5.1850
 30
     0.0000
 40
     0.0384
  0
CIRCLE
  8
50
 62
10
 10
     2.7819
 20
     5.5230
 30
     0.0000
 40
     0.0216
  0
CIRCLE
  8
50
 62
10
 10
     2.7077
 20
     5.4616
 30
     0.0000
 40
     0.0312
  0
CIRCLE
  8
50
 62
10
 10
     2.5821
 20
     5.3234
 30
     0.0000
 40
     0.0252
  0
CIRCLE
  8
50
 62
10
 10
     2.4926
 20
     5.2540
 30
     0.0000
 40
     0.0276
  0
CIRCLE
  8
50
 62
10
 10
     2.4222
 20
     5.2436
 30
     0.0000
 40
     0.0260
  0
CIRCLE
  8
50
 62
10
 10
     2.3539
 20
     5.0913
 30
     0.0000
 40
     0.0303
  0
CIRCLE
  8
50
 62
10
 10
     2.3443
 20
     4.8777
 30
     0.0000
 40
     0.0206
  0
CIRCLE
  8
50
 62
10
 10
     2.5159
 20
     5.3104
 30
     0.0000
 40
     0.0334
  0
CIRCLE
  8
50
 62
10
 10
     2.4517
 20
     5.2802
 30
     0.0000
 40
     0.0209
  0
CIRCLE
  8
50
 62
10
 10
     2.3826
 20
     5.2361
 30
     0.0000
 40
     0.0143
  0
CIRCLE
  8
50
 62
10
 10
     2.5772
 20
     5.3708
 30
     0.0000
 40
     0.0225
  0
CIRCLE
  8
50
 62
10
 10
     2.6664
 20
     5.4124
 30
     0.0000
 40
     0.0297
  0
CIRCLE
  8
50
 62
10
 10
     2.7267
 20
     5.5002
 30
     0.0000
 40
     0.0119
  0
CIRCLE
  8
50
 62
10
 10
     2.6177
 20
     5.4085
 30
     0.0000
 40
     0.0191
  0
CIRCLE
  8
50
 62
10
 10
     2.5418
 20
     5.3536
 30
     0.0000
 40
     0.0169
  0
CIRCLE
  8
50
 62
10
 10
     2.3475
 20
     5.1451
 30
     0.0000
 40
     0.0239
  0
CIRCLE
  8
50
 62
10
 10
     2.3404
 20
     5.1851
 30
     0.0000
 40
     0.0167
  0
CIRCLE
  8
80
 62
4
 10
     5.5401
 20
    -0.0532
 30
     0.0000
 40
     0.0100
  0
CIRCLE
  8
80
 62
4
 10
     5.7366
 20
    -0.0498
 30
     0.0000
 40
     0.0135
  0
CIRCLE
  8
80
 62
4
 10
     5.4227
 20
    -0.0479
 30
     0.0000
 40
     0.0154
  0
CIRCLE
  8
80
 62
4
 10
     5.7716
 20
    -0.0504
 30
     0.0000
 40
     0.0129
  0
CIRCLE
  8
80
 62
4
 10
     5.3890
 20
    -0.0520
 30
     0.0000
 40
     0.0113
  0
CIRCLE
  8
80
 62
4
 10
     7.1728
 20
     3.2594
 30
     0.0000
 40
     0.0117
  0
CIRCLE
  8
80
 62
4
 10
     7.1481
 20
     3.3402
 30
     0.0000
 40
     0.0127
  0
CIRCLE
  8
80
 62
4
 10
     7.2376
 20
     3.2165
 30
     0.0000
 40
     0.0151
  0
CIRCLE
  8
80
 62
4
 10
     5.2609
 20
    -0.0490
 30
     0.0000
 40
     0.0142
  0
CIRCLE
  8
80
 62
4
 10
     5.0640
 20
    -0.0521
 30
     0.0000
 40
     0.0111
  0
CIRCLE
  8
80
 62
4
 10
     4.9412
 20
    -0.0495
 30
     0.0000
 40
     0.0138
  0
CIRCLE
  8
80
 62
4
 10
     7.2727
 20
     3.2000
 30
     0.0000
 40
     0.0111
  0
CIRCLE
  8
80
 62
4
 10
     5.1505
 20
    -0.0520
 30
     0.0000
 40
     0.0112
  0
CIRCLE
  8
80
 62
4
 10
     5.0911
 20
    -0.0531
 30
     0.0000
 40
     0.0101
  0
CIRCLE
  8
80
 62
4
 10
     4.8945
 20
    -0.0484
 30
     0.0000
 40
     0.0148
  0
CIRCLE
  8
80
 62
4
 10
     6.0390
 20
    -0.0465
 30
     0.0000
 40
     0.0167
  0
CIRCLE
  8
80
 62
4
 10
     6.2457
 20
    -0.0492
 30
     0.0000
 40
     0.0141
  0
CIRCLE
  8
80
 62
4
 10
     4.7703
 20
    -0.0521
 30
     0.0000
 40
     0.0112
  0
CIRCLE
  8
80
 62
4
 10
     6.4471
 20
    -0.0492
 30
     0.0000
 40
     0.0141
  0
CIRCLE
  8
80
 62
4
 10
     6.7775
 20
    -0.0526
 30
     0.0000
 40
     0.0107
  0
CIRCLE
  8
80
 62
4
 10
     6.6914
 20
    -0.0495
 30
     0.0000
 40
     0.0137
  0
CIRCLE
  8
80
 62
4
 10
     6.2833
 20
    -0.0499
 30
     0.0000
 40
     0.0133
  0
CIRCLE
  8
80
 62
4
 10
     2.3351
 20
     2.7389
 30
     0.0000
 40
     0.0115
  0
CIRCLE
  8
80
 62
4
 10
     2.3457
 20
     1.8634
 30
     0.0000
 40
     0.0220
  0
CIRCLE
  8
80
 62
4
 10
     5.3613
 20
     5.3031
 30
     0.0000
 40
     0.0167
  0
CIRCLE
  8
80
 62
4
 10
     2.3380
 20
     2.3673
 30
     0.0000
 40
     0.0144
  0
CIRCLE
  8
80
 62
4
 10
     4.5442
 20
    -0.0517
 30
     0.0000
 40
     0.0115
  0
CIRCLE
  8
80
 62
4
 10
     4.3775
 20
    -0.0502
 30
     0.0000
 40
     0.0130
  0
CIRCLE
  8
80
 62
4
 10
     2.3364
 20
     2.2865
 30
     0.0000
 40
     0.0127
  0
CIRCLE
  8
80
 62
4
 10
     2.3357
 20
     1.7445
 30
     0.0000
 40
     0.0121
  0
CIRCLE
  8
80
 62
4
 10
     4.6008
 20
    -0.0514
 30
     0.0000
 40
     0.0118
  0
CIRCLE
  8
80
 62
4
 10
     3.6200
 20
    -0.0476
 30
     0.0000
 40
     0.0157
  0
CIRCLE
  8
80
 62
4
 10
     5.0655
 20
     5.3321
 30
     0.0000
 40
     0.0105
  0
CIRCLE
  8
80
 62
4
 10
     6.4803
 20
     4.8934
 30
     0.0000
 40
     0.0111
  0
CIRCLE
  8
80
 62
4
 10
     2.3395
 20
     2.0792
 30
     0.0000
 40
     0.0159
  0
CIRCLE
  8
80
 62
4
 10
     2.3341
 20
     2.0392
 30
     0.0000
 40
     0.0104
  0
CIRCLE
  8
80
 62
4
 10
     3.7192
 20
    -0.0524
 30
     0.0000
 40
     0.0109
  0
CIRCLE
  8
80
 62
4
 10
     4.9634
 20
     5.3366
 30
     0.0000
 40
     0.0135
  0
CIRCLE
  8
80
 62
4
 10
     6.6555
 20
     4.7219
 30
     0.0000
 40
     0.0109
  0
CIRCLE
  8
80
 62
4
 10
     5.4364
 20
     5.3037
 30
     0.0000
 40
     0.0104
  0
CIRCLE
  8
80
 62
4
 10
     6.4406
 20
     4.9318
 30
     0.0000
 40
     0.0114
  0
CIRCLE
  8
80
 62
4
 10
     7.1451
 20
     3.6313
 30
     0.0000
 40
     0.0155
  0
CIRCLE
  8
80
 62
4
 10
     2.3343
 20
     2.1526
 30
     0.0000
 40
     0.0107
  0
CIRCLE
  8
80
 62
4
 10
     2.3353
 20
     1.6738
 30
     0.0000
 40
     0.0117
  0
CIRCLE
  8
80
 62
4
 10
     4.0564
 20
    -0.0529
 30
     0.0000
 40
     0.0104
  0
CIRCLE
  8
80
 62
4
 10
     3.8134
 20
    -0.0495
 30
     0.0000
 40
     0.0138
  0
CIRCLE
  8
80
 62
4
 10
     4.0211
 20
    -0.0520
 30
     0.0000
 40
     0.0113
  0
CIRCLE
  8
80
 62
4
 10
     3.9538
 20
    -0.0514
 30
     0.0000
 40
     0.0119
  0
CIRCLE
  8
80
 62
4
 10
     3.7458
 20
    -0.0522
 30
     0.0000
 40
     0.0111
  0
CIRCLE
  8
80
 62
4
 10
     7.4678
 20
     3.0823
 30
     0.0000
 40
     0.0113
  0
CIRCLE
  8
80
 62
4
 10
     3.8776
 20
    -0.0509
 30
     0.0000
 40
     0.0124
  0
CIRCLE
  8
80
 62
4
 10
     3.9142
 20
    -0.0463
 30
     0.0000
 40
     0.0170
  0
CIRCLE
  8
80
 62
4
 10
     6.8643
 20
     4.5170
 30
     0.0000
 40
     0.0113
  0
CIRCLE
  8
80
 62
4
 10
     6.8408
 20
     4.5415
 30
     0.0000
 40
     0.0102
  0
CIRCLE
  8
80
 62
4
 10
     5.6535
 20
     5.2992
 30
     0.0000
 40
     0.0122
  0
CIRCLE
  8
80
 62
4
 10
     5.5994
 20
     5.3007
 30
     0.0000
 40
     0.0108
  0
CIRCLE
  8
80
 62
4
 10
     2.3339
 20
     3.9497
 30
     0.0000
 40
     0.0102
  0
CIRCLE
  8
80
 62
4
 10
     2.3411
 20
     1.5506
 30
     0.0000
 40
     0.0175
  0
CIRCLE
  8
80
 62
4
 10
     2.3352
 20
     1.4649
 30
     0.0000
 40
     0.0116
  0
CIRCLE
  8
80
 62
4
 10
     2.3350
 20
     3.6651
 30
     0.0000
 40
     0.0114
  0
CIRCLE
  8
80
 62
4
 10
     2.3351
 20
     3.6062
 30
     0.0000
 40
     0.0115
  0
CIRCLE
  8
80
 62
4
 10
     2.3394
 20
     3.3650
 30
     0.0000
 40
     0.0158
  0
CIRCLE
  8
80
 62
4
 10
     2.3373
 20
     3.4831
 30
     0.0000
 40
     0.0136
  0
CIRCLE
  8
80
 62
4
 10
     6.2491
 20
     5.1111
 30
     0.0000
 40
     0.0175
  0
CIRCLE
  8
80
 62
4
 10
     5.6854
 20
     5.3004
 30
     0.0000
 40
     0.0111
  0
CIRCLE
  8
80
 62
4
 10
     4.6953
 20
     5.5121
 30
     0.0000
 40
     0.0132
  0
CIRCLE
  8
80
 62
4
 10
     3.0637
 20
    -0.0526
 30
     0.0000
 40
     0.0107
  0
CIRCLE
  8
80
 62
4
 10
     3.0383
 20
    -0.0532
 30
     0.0000
 40
     0.0100
  0
CIRCLE
  8
80
 62
4
 10
     2.3351
 20
     3.1697
 30
     0.0000
 40
     0.0115
  0
CIRCLE
  8
80
 62
4
 10
     2.3365
 20
     3.1034
 30
     0.0000
 40
     0.0128
  0
CIRCLE
  8
80
 62
4
 10
     2.3355
 20
     4.0019
 30
     0.0000
 40
     0.0119
  0
CIRCLE
  8
80
 62
4
 10
     2.3377
 20
     3.7498
 30
     0.0000
 40
     0.0141
  0
CIRCLE
  8
80
 62
4
 10
     4.8013
 20
     5.4305
 30
     0.0000
 40
     0.0107
  0
CIRCLE
  8
80
 62
4
 10
     7.1494
 20
     4.0336
 30
     0.0000
 40
     0.0113
  0
CIRCLE
  8
80
 62
4
 10
     7.0261
 20
     4.3574
 30
     0.0000
 40
     0.0120
  0
CIRCLE
  8
80
 62
4
 10
     2.3354
 20
     3.8567
 30
     0.0000
 40
     0.0117
  0
CIRCLE
  8
80
 62
4
 10
     2.3467
 20
     1.2775
 30
     0.0000
 40
     0.0230
  0
CIRCLE
  8
80
 62
4
 10
     2.3376
 20
     1.3382
 30
     0.0000
 40
     0.0140
  0
CIRCLE
  8
80
 62
4
 10
     3.2138
 20
    -0.0523
 30
     0.0000
 40
     0.0109
  0
CIRCLE
  8
80
 62
4
 10
     3.3589
 20
    -0.0506
 30
     0.0000
 40
     0.0127
  0
CIRCLE
  8
80
 62
4
 10
     3.3179
 20
    -0.0508
 30
     0.0000
 40
     0.0125
  0
CIRCLE
  8
80
 62
4
 10
     2.3393
 20
     4.1940
 30
     0.0000
 40
     0.0157
  0
CIRCLE
  8
80
 62
4
 10
     2.3356
 20
     4.1083
 30
     0.0000
 40
     0.0120
  0
CIRCLE
  8
80
 62
4
 10
     5.8625
 20
     5.2983
 30
     0.0000
 40
     0.0132
  0
CIRCLE
  8
80
 62
4
 10
     2.3365
 20
     0.4471
 30
     0.0000
 40
     0.0129
  0
CIRCLE
  8
80
 62
4
 10
     7.3306
 20
    -0.0530
 30
     0.0000
 40
     0.0103
  0
CIRCLE
  8
80
 62
4
 10
     8.0028
 20
     2.7602
 30
     0.0000
 40
     0.0112
  0
CIRCLE
  8
80
 62
4
 10
     2.3375
 20
     4.3219
 30
     0.0000
 40
     0.0139
  0
CIRCLE
  8
80
 62
4
 10
     7.1359
 20
     4.1690
 30
     0.0000
 40
     0.0247
  0
CIRCLE
  8
80
 62
4
 10
     4.4194
 20
     5.7313
 30
     0.0000
 40
     0.0142
  0
CIRCLE
  8
80
 62
4
 10
     2.3407
 20
     0.7497
 30
     0.0000
 40
     0.0170
  0
CIRCLE
  8
80
 62
4
 10
     2.5908
 20
    -0.0524
 30
     0.0000
 40
     0.0109
  0
CIRCLE
  8
80
 62
4
 10
     8.0399
 20
     2.7376
 30
     0.0000
 40
     0.0114
  0
CIRCLE
  8
80
 62
4
 10
     8.1552
 20
     2.6669
 30
     0.0000
 40
     0.0125
  0
CIRCLE
  8
80
 62
4
 10
     8.0986
 20
     2.7006
 30
     0.0000
 40
     0.0128
  0
CIRCLE
  8
80
 62
4
 10
     2.3347
 20
     4.3978
 30
     0.0000
 40
     0.0111
  0
CIRCLE
  8
80
 62
4
 10
     7.1259
 20
     4.2621
 30
     0.0000
 40
     0.0103
  0
CIRCLE
  8
80
 62
4
 10
     6.1213
 20
     5.2454
 30
     0.0000
 40
     0.0109
  0
CIRCLE
  8
80
 62
4
 10
     5.9927
 20
     5.2998
 30
     0.0000
 40
     0.0116
  0
CIRCLE
  8
80
 62
4
 10
     2.3340
 20
     0.5567
 30
     0.0000
 40
     0.0103
  0
CIRCLE
  8
80
 62
4
 10
     2.3342
 20
     0.9648
 30
     0.0000
 40
     0.0106
  0
CIRCLE
  8
80
 62
4
 10
     2.8981
 20
    -0.0519
 30
     0.0000
 40
     0.0114
  0
CIRCLE
  8
80
 62
4
 10
     2.5154
 20
    -0.0516
 30
     0.0000
 40
     0.0117
  0
CIRCLE
  8
80
 62
4
 10
     2.7865
 20
    -0.0514
 30
     0.0000
 40
     0.0119
  0
CIRCLE
  8
80
 62
4
 10
     2.7449
 20
    -0.0533
 30
     0.0000
 40
     0.0100
  0
CIRCLE
  8
80
 62
4
 10
     2.8389
 20
    -0.0513
 30
     0.0000
 40
     0.0119
  0
CIRCLE
  8
80
 62
4
 10
     2.3369
 20
     4.5338
 30
     0.0000
 40
     0.0132
  0
CIRCLE
  8
80
 62
4
 10
     6.0930
 20
     5.2737
 30
     0.0000
 40
     0.0104
  0
CIRCLE
  8
80
 62
4
 10
     6.0319
 20
     5.3001
 30
     0.0000
 40
     0.0113
  0
CIRCLE
  8
80
 62
4
 10
     2.3348
 20
     0.3570
 30
     0.0000
 40
     0.0112
  0
CIRCLE
  8
80
 62
4
 10
     8.7394
 20
    -0.0507
 30
     0.0000
 40
     0.0126
  0
CIRCLE
  8
80
 62
4
 10
     2.9908
 20
     5.6983
 30
     0.0000
 40
     0.0138
  0
CIRCLE
  8
80
 62
4
 10
     2.8543
 20
     5.5967
 30
     0.0000
 40
     0.0121
  0
CIRCLE
  8
80
 62
4
 10
     4.3261
 20
     5.8056
 30
     0.0000
 40
     0.0144
  0
CIRCLE
  8
80
 62
4
 10
     8.6319
 20
    -0.0524
 30
     0.0000
 40
     0.0108
  0
CIRCLE
  8
80
 62
4
 10
     8.4964
 20
    -0.0445
 30
     0.0000
 40
     0.0188
  0
CIRCLE
  8
80
 62
4
 10
     8.4517
 20
    -0.0522
 30
     0.0000
 40
     0.0110
  0
CIRCLE
  8
80
 62
4
 10
     3.9246
 20
     5.9197
 30
     0.0000
 40
     0.0167
  0
CIRCLE
  8
80
 62
4
 10
     4.0996
 20
     5.8843
 30
     0.0000
 40
     0.0171
  0
CIRCLE
  8
80
 62
4
 10
     2.3354
 20
     4.6465
 30
     0.0000
 40
     0.0117
  0
CIRCLE
  8
80
 62
4
 10
     2.9393
 20
     5.6624
 30
     0.0000
 40
     0.0112
  0
CIRCLE
  8
80
 62
4
 10
     8.1877
 20
    -0.0458
 30
     0.0000
 40
     0.0174
  0
CIRCLE
  8
80
 62
4
 10
     7.9811
 20
    -0.0511
 30
     0.0000
 40
     0.0122
  0
CIRCLE
  8
80
 62
4
 10
     7.9552
 20
    -0.0496
 30
     0.0000
 40
     0.0136
  0
CIRCLE
  8
80
 62
4
 10
     7.7952
 20
    -0.0498
 30
     0.0000
 40
     0.0134
  0
CIRCLE
  8
80
 62
4
 10
     7.7337
 20
    -0.0514
 30
     0.0000
 40
     0.0118
  0
CIRCLE
  8
80
 62
4
 10
     8.8635
 20
    -0.0481
 30
     0.0000
 40
     0.0152
  0
CIRCLE
  8
80
 62
4
 10
     8.8108
 20
    -0.0515
 30
     0.0000
 40
     0.0118
  0
CIRCLE
  8
80
 62
4
 10
     3.7150
 20
     5.9652
 30
     0.0000
 40
     0.0131
  0
CIRCLE
  8
80
 62
4
 10
     4.0677
 20
     5.8976
 30
     0.0000
 40
     0.0103
  0
CIRCLE
  8
80
 62
4
 10
     8.1186
 20
    -0.0532
 30
     0.0000
 40
     0.0101
  0
CIRCLE
  8
80
 62
4
 10
     8.0883
 20
    -0.0529
 30
     0.0000
 40
     0.0104
  0
CIRCLE
  8
80
 62
4
 10
     3.2365
 20
     5.8840
 30
     0.0000
 40
     0.0144
  0
CIRCLE
  8
80
 62
4
 10
     2.3465
 20
     4.7425
 30
     0.0000
 40
     0.0229
  0
CIRCLE
  8
80
 62
4
 10
     2.7490
 20
     5.5174
 30
     0.0000
 40
     0.0117
  0
CIRCLE
  8
80
 62
4
 10
     2.6654
 20
     5.4539
 30
     0.0000
 40
     0.0118
  0
CIRCLE
  8
80
 62
4
 10
     9.4182
 20
     1.5633
 30
     0.0000
 40
     0.0103
  0
CIRCLE
  8
80
 62
4
 10
     9.1264
 20
     1.8763
 30
     0.0000
 40
     0.0146
  0
CIRCLE
  8
80
 62
4
 10
     8.7144
 20
     2.3265
 30
     0.0000
 40
     0.0151
  0
CIRCLE
  8
80
 62
4
 10
     2.3349
 20
     0.1248
 30
     0.0000
 40
     0.0113
  0
CIRCLE
  8
80
 62
4
 10
     2.3423
 20
    -0.0472
 30
     0.0000
 40
     0.0161
  0
CIRCLE
  8
80
 62
4
 10
     3.1453
 20
     5.8163
 30
     0.0000
 40
     0.0133
  0
CIRCLE
  8
80
 62
4
 10
     2.3374
 20
     4.8202
 30
     0.0000
 40
     0.0138
  0
CIRCLE
  8
80
 62
4
 10
     2.3341
 20
     4.8483
 30
     0.0000
 40
     0.0105
  0
CIRCLE
  8
80
 62
4
 10
     2.3357
 20
     0.0592
 30
     0.0000
 40
     0.0120
  0
CIRCLE
  8
80
 62
4
 10
     2.3517
 20
     5.2133
 30
     0.0000
 40
     0.0137
  0
CIRCLE
  8
80
 62
4
 10
     2.3440
 20
     4.9874
 30
     0.0000
 40
     0.0204
  0
CIRCLE
  8
80
 62
4
 10
     3.5076
 20
     6.0051
 30
     0.0000
 40
     0.0147
  0
CIRCLE
  8
80
 62
4
 10
     3.3006
 20
     5.9377
 30
     0.0000
 40
     0.0104
  0
CIRCLE
  8
80
 62
4
 10
     9.5223
 20
     1.4486
 30
     0.0000
 40
     0.0118
  0
CIRCLE
  8
80
 62
4
 10
     9.5901
 20
     1.3725
 30
     0.0000
 40
     0.0121
  0
CIRCLE
  8
80
 62
4
 10
     9.3411
 20
     1.6451
 30
     0.0000
 40
     0.0121
  0
CIRCLE
  8
80
 62
4
 10
     8.8667
 20
     2.1589
 30
     0.0000
 40
     0.0154
  0
CIRCLE
  8
80
 62
4
 10
     9.0498
 20
     1.9660
 30
     0.0000
 40
     0.0106
  0
CIRCLE
  8
80
 62
4
 10
     9.2316
 20
     1.7665
 30
     0.0000
 40
     0.0109
  0
CIRCLE
  8
80
 62
4
 10
     9.2652
 20
     1.7291
 30
     0.0000
 40
     0.0114
  0
CIRCLE
  8
80
 62
4
 10
     3.3545
 20
     5.9749
 30
     0.0000
 40
     0.0134
  0
CIRCLE
  8
80
 62
4
 10
     9.7007
 20
     1.2537
 30
     0.0000
 40
     0.0107
  0
CIRCLE
  8
80
 62
4
 10
     2.4710
 20
     5.3064
 30
     0.0000
 40
     0.0117
  0
CIRCLE
  8
80
 62
4
 10
     3.4368
 20
     6.0234
 30
     0.0000
 40
     0.0105
  0
CIRCLE
  8
80
 62
4
 10
     9.6039
 20
    -0.0500
 30
     0.0000
 40
     0.0132
  0
CIRCLE
  8
80
 62
4
 10
     9.5157
 20
    -0.0489
 30
     0.0000
 40
     0.0143
  0
CIRCLE
  8
80
 62
4
 10
     9.4592
 20
    -0.0459
 30
     0.0000
 40
     0.0174
  0
CIRCLE
  8
80
 62
4
 10
     9.7188
 20
     0.8786
 30
     0.0000
 40
     0.0103
  0
CIRCLE
  8
80
 62
4
 10
     9.7118
 20
     0.5760
 30
     0.0000
 40
     0.0172
  0
CIRCLE
  8
80
 62
4
 10
     9.7176
 20
     0.9106
 30
     0.0000
 40
     0.0113
  0
CIRCLE
  8
80
 62
4
 10
     9.7184
 20
     0.7600
 30
     0.0000
 40
     0.0107
  0
CIRCLE
  8
80
 62
4
 10
     9.7136
 20
     0.5025
 30
     0.0000
 40
     0.0153
  0
CIRCLE
  8
80
 62
4
 10
     9.7177
 20
     0.9828
 30
     0.0000
 40
     0.0108
  0
CIRCLE
  8
80
 62
4
 10
     9.7174
 20
     0.6911
 30
     0.0000
 40
     0.0115
  0
CIRCLE
  8
80
 62
4
 10
     9.7189
 20
     0.6230
 30
     0.0000
 40
     0.0103
  0
CIRCLE
  8
80
 62
4
 10
     9.7177
 20
     0.2835
 30
     0.0000
 40
     0.0114
  0
ENDSEC
  0
EOF
