  0
SECTION
  2
ENTITIES
  0
3DFACE
  8
1
 62
1
 10
     3.7075
 20
     0.9625
 30
     0.0000
 11
     3.7227
 21
     0.9374
 31
     0.0000
 12
     3.7499
 22
     0.9403
 32
     0.0000
 13
     3.7499
 23
     0.9403
 33
     0.0000
  0
3DFACE
  8
2
 62
2
 10
     3.7075
 20
     0.9625
 30
     0.0000
 11
     3.6617
 21
     0.9353
 31
     0.0000
 12
     3.7227
 22
     0.9374
 32
     0.0000
 13
     3.7227
 23
     0.9374
 33
     0.0000
  0
3DFACE
  8
3
 62
3
 10
     3.7227
 20
     0.9374
 30
     0.0000
 11
     3.7530
 21
     0.9029
 31
     0.0000
 12
     3.7499
 22
     0.9403
 32
     0.0000
 13
     3.7499
 23
     0.9403
 33
     0.0000
  0
3DFACE
  8
4
 62
4
 10
     3.7499
 20
     0.9403
 30
     0.0000
 11
     3.7516
 21
     0.9882
 31
     0.0000
 12
     3.7075
 22
     0.9625
 32
     0.0000
 13
     3.7075
 23
     0.9625
 33
     0.0000
  0
3DFACE
  8
5
 62
5
 10
     3.7075
 20
     0.9625
 30
     0.0000
 11
     3.6204
 21
     0.9671
 31
     0.0000
 12
     3.6617
 22
     0.9353
 32
     0.0000
 13
     3.6617
 23
     0.9353
 33
     0.0000
  0
3DFACE
  8
6
 62
6
 10
     3.7227
 20
     0.9374
 30
     0.0000
 11
     3.6617
 21
     0.9353
 31
     0.0000
 12
     3.7106
 22
     0.9094
 32
     0.0000
 13
     3.7106
 23
     0.9094
 33
     0.0000
  0
3DFACE
  8
7
 62
7
 10
     3.7227
 20
     0.9374
 30
     0.0000
 11
     3.7106
 21
     0.9094
 31
     0.0000
 12
     3.7530
 22
     0.9029
 32
     0.0000
 13
     3.7530
 23
     0.9029
 33
     0.0000
  0
3DFACE
  8
8
 62
8
 10
     3.7499
 20
     0.9403
 30
     0.0000
 11
     3.7530
 21
     0.9029
 31
     0.0000
 12
     3.7745
 22
     0.9177
 32
     0.0000
 13
     3.7745
 23
     0.9177
 33
     0.0000
  0
3DFACE
  8
9
 62
9
 10
     3.7499
 20
     0.9403
 30
     0.0000
 11
     3.7883
 21
     0.9600
 31
     0.0000
 12
     3.7516
 22
     0.9882
 32
     0.0000
 13
     3.7516
 23
     0.9882
 33
     0.0000
  0
3DFACE
  8
10
 62
10
 10
     3.7075
 20
     0.9625
 30
     0.0000
 11
     3.7516
 21
     0.9882
 31
     0.0000
 12
     3.7039
 22
     1.0670
 32
     0.0000
 13
     3.7039
 23
     1.0670
 33
     0.0000
  0
3DFACE
  8
11
 62
11
 10
     3.7075
 20
     0.9625
 30
     0.0000
 11
     3.6124
 21
     1.0198
 31
     0.0000
 12
     3.6204
 22
     0.9671
 32
     0.0000
 13
     3.6204
 23
     0.9671
 33
     0.0000
  0
3DFACE
  8
12
 62
12
 10
     3.6617
 20
     0.9353
 30
     0.0000
 11
     3.6204
 21
     0.9671
 31
     0.0000
 12
     3.6116
 22
     0.9250
 32
     0.0000
 13
     3.6116
 23
     0.9250
 33
     0.0000
  0
3DFACE
  8
13
 62
13
 10
     3.6617
 20
     0.9353
 30
     0.0000
 11
     3.6691
 21
     0.8902
 31
     0.0000
 12
     3.7106
 22
     0.9094
 32
     0.0000
 13
     3.7106
 23
     0.9094
 33
     0.0000
  0
3DFACE
  8
14
 62
14
 10
     3.7530
 20
     0.9029
 30
     0.0000
 11
     3.7106
 21
     0.9094
 31
     0.0000
 12
     3.7377
 22
     0.8802
 32
     0.0000
 13
     3.7377
 23
     0.8802
 33
     0.0000
  0
3DFACE
  8
15
 62
15
 10
     3.7499
 20
     0.9403
 30
     0.0000
 11
     3.7745
 21
     0.9177
 31
     0.0000
 12
     3.7883
 22
     0.9600
 32
     0.0000
 13
     3.7883
 23
     0.9600
 33
     0.0000
  0
3DFACE
  8
16
 62
16
 10
     3.7530
 20
     0.9029
 30
     0.0000
 11
     3.7377
 21
     0.8802
 31
     0.0000
 12
     3.7745
 22
     0.9177
 32
     0.0000
 13
     3.7745
 23
     0.9177
 33
     0.0000
  0
3DFACE
  8
17
 62
17
 10
     3.7516
 20
     0.9882
 30
     0.0000
 11
     3.7883
 21
     0.9600
 31
     0.0000
 12
     3.7911
 22
     0.9954
 32
     0.0000
 13
     3.7911
 23
     0.9954
 33
     0.0000
  0
3DFACE
  8
18
 62
18
 10
     3.7075
 20
     0.9625
 30
     0.0000
 11
     3.7039
 21
     1.0670
 31
     0.0000
 12
     3.6124
 22
     1.0198
 32
     0.0000
 13
     3.6124
 23
     1.0198
 33
     0.0000
  0
3DFACE
  8
19
 62
19
 10
     3.7516
 20
     0.9882
 30
     0.0000
 11
     3.7514
 21
     1.0436
 31
     0.0000
 12
     3.7039
 22
     1.0670
 32
     0.0000
 13
     3.7039
 23
     1.0670
 33
     0.0000
  0
3DFACE
  8
20
 62
20
 10
     3.6204
 20
     0.9671
 30
     0.0000
 11
     3.6124
 21
     1.0198
 31
     0.0000
 12
     3.5808
 22
     0.9844
 32
     0.0000
 13
     3.5808
 23
     0.9844
 33
     0.0000
  0
3DFACE
  8
21
 62
21
 10
     3.6617
 20
     0.9353
 30
     0.0000
 11
     3.6116
 21
     0.9250
 31
     0.0000
 12
     3.6357
 22
     0.8994
 32
     0.0000
 13
     3.6357
 23
     0.8994
 33
     0.0000
  0
3DFACE
  8
22
 62
22
 10
     3.6204
 20
     0.9671
 30
     0.0000
 11
     3.5808
 21
     0.9844
 31
     0.0000
 12
     3.6116
 22
     0.9250
 32
     0.0000
 13
     3.6116
 23
     0.9250
 33
     0.0000
  0
3DFACE
  8
23
 62
23
 10
     3.6617
 20
     0.9353
 30
     0.0000
 11
     3.6357
 21
     0.8994
 31
     0.0000
 12
     3.6691
 22
     0.8902
 32
     0.0000
 13
     3.6691
 23
     0.8902
 33
     0.0000
  0
3DFACE
  8
24
 62
24
 10
     3.7106
 20
     0.9094
 30
     0.0000
 11
     3.6691
 21
     0.8902
 31
     0.0000
 12
     3.6937
 22
     0.8745
 32
     0.0000
 13
     3.6937
 23
     0.8745
 33
     0.0000
  0
3DFACE
  8
25
 62
25
 10
     3.7106
 20
     0.9094
 30
     0.0000
 11
     3.6937
 21
     0.8745
 31
     0.0000
 12
     3.7377
 22
     0.8802
 32
     0.0000
 13
     3.7377
 23
     0.8802
 33
     0.0000
  0
3DFACE
  8
26
 62
26
 10
     3.7516
 20
     0.9882
 30
     0.0000
 11
     3.7911
 21
     0.9954
 31
     0.0000
 12
     3.7514
 22
     1.0436
 32
     0.0000
 13
     3.7514
 23
     1.0436
 33
     0.0000
  0
3DFACE
  8
27
 62
27
 10
     3.7039
 20
     1.0670
 30
     0.0000
 11
     3.5851
 21
     1.1120
 31
     0.0000
 12
     3.6124
 22
     1.0198
 32
     0.0000
 13
     3.6124
 23
     1.0198
 33
     0.0000
  0
3DFACE
  8
28
 62
28
 10
     3.7039
 20
     1.0670
 30
     0.0000
 11
     3.7514
 21
     1.0436
 31
     0.0000
 12
     3.7416
 22
     1.0992
 32
     0.0000
 13
     3.7416
 23
     1.0992
 33
     0.0000
  0
3DFACE
  8
29
 62
29
 10
     3.6124
 20
     1.0198
 30
     0.0000
 11
     3.5698
 21
     1.0595
 31
     0.0000
 12
     3.5808
 22
     0.9844
 32
     0.0000
 13
     3.5808
 23
     0.9844
 33
     0.0000
  0
3DFACE
  8
30
 62
30
 10
     3.6691
 20
     0.8902
 30
     0.0000
 11
     3.6357
 21
     0.8994
 31
     0.0000
 12
     3.6937
 22
     0.8745
 32
     0.0000
 13
     3.6937
 23
     0.8745
 33
     0.0000
  0
3DFACE
  8
31
 62
31
 10
     3.7911
 20
     0.9954
 30
     0.0000
 11
     3.7768
 21
     1.0792
 31
     0.0000
 12
     3.7514
 22
     1.0436
 32
     0.0000
 13
     3.7514
 23
     1.0436
 33
     0.0000
  0
3DFACE
  8
32
 62
32
 10
     3.7039
 20
     1.0670
 30
     0.0000
 11
     3.7019
 21
     1.1390
 31
     0.0000
 12
     3.5851
 22
     1.1120
 32
     0.0000
 13
     3.5851
 23
     1.1120
 33
     0.0000
  0
3DFACE
  8
33
 62
33
 10
     3.6124
 20
     1.0198
 30
     0.0000
 11
     3.5851
 21
     1.1120
 31
     0.0000
 12
     3.5698
 22
     1.0595
 32
     0.0000
 13
     3.5698
 23
     1.0595
 33
     0.0000
  0
3DFACE
  8
34
 62
34
 10
     3.7039
 20
     1.0670
 30
     0.0000
 11
     3.7416
 21
     1.0992
 31
     0.0000
 12
     3.7019
 22
     1.1390
 32
     0.0000
 13
     3.7019
 23
     1.1390
 33
     0.0000
  0
3DFACE
  8
35
 62
35
 10
     3.7514
 20
     1.0436
 30
     0.0000
 11
     3.7768
 21
     1.0792
 31
     0.0000
 12
     3.7416
 22
     1.0992
 32
     0.0000
 13
     3.7416
 23
     1.0992
 33
     0.0000
  0
3DFACE
  8
36
 62
36
 10
     3.5808
 20
     0.9844
 30
     0.0000
 11
     3.5698
 21
     1.0595
 31
     0.0000
 12
     3.5368
 22
     1.1016
 32
     0.0000
 13
     3.5368
 23
     1.1016
 33
     0.0000
  0
3DFACE
  8
37
 62
37
 10
     3.5851
 20
     1.1120
 30
     0.0000
 11
     3.7019
 21
     1.1390
 31
     0.0000
 12
     3.6649
 22
     1.1789
 32
     0.0000
 13
     3.6649
 23
     1.1789
 33
     0.0000
  0
3DFACE
  8
38
 62
38
 10
     3.5851
 20
     1.1120
 30
     0.0000
 11
     3.5368
 21
     1.1016
 31
     0.0000
 12
     3.5698
 22
     1.0595
 32
     0.0000
 13
     3.5698
 23
     1.0595
 33
     0.0000
  0
3DFACE
  8
39
 62
39
 10
     3.7416
 20
     1.0992
 30
     0.0000
 11
     3.7509
 21
     1.1444
 31
     0.0000
 12
     3.7019
 22
     1.1390
 32
     0.0000
 13
     3.7019
 23
     1.1390
 33
     0.0000
  0
3DFACE
  8
40
 62
40
 10
     3.7416
 20
     1.0992
 30
     0.0000
 11
     3.7768
 21
     1.0792
 31
     0.0000
 12
     3.7509
 22
     1.1444
 32
     0.0000
 13
     3.7509
 23
     1.1444
 33
     0.0000
  0
3DFACE
  8
41
 62
41
 10
     3.5808
 20
     0.9844
 30
     0.0000
 11
     3.5368
 21
     1.1016
 31
     0.0000
 12
     3.4704
 22
     1.2206
 32
     0.0000
 13
     3.4704
 23
     1.2206
 33
     0.0000
  0
3DFACE
  8
42
 62
42
 10
     3.5851
 20
     1.1120
 30
     0.0000
 11
     3.6649
 21
     1.1789
 31
     0.0000
 12
     3.6216
 22
     1.1974
 32
     0.0000
 13
     3.6216
 23
     1.1974
 33
     0.0000
  0
3DFACE
  8
43
 62
43
 10
     3.7019
 20
     1.1390
 30
     0.0000
 11
     3.7125
 21
     1.1923
 31
     0.0000
 12
     3.6649
 22
     1.1789
 32
     0.0000
 13
     3.6649
 23
     1.1789
 33
     0.0000
  0
3DFACE
  8
44
 62
44
 10
     3.5851
 20
     1.1120
 30
     0.0000
 11
     3.5376
 21
     1.1536
 31
     0.0000
 12
     3.5368
 22
     1.1016
 32
     0.0000
 13
     3.5368
 23
     1.1016
 33
     0.0000
  0
3DFACE
  8
45
 62
45
 10
     3.7019
 20
     1.1390
 30
     0.0000
 11
     3.7509
 21
     1.1444
 31
     0.0000
 12
     3.7476
 22
     1.1774
 32
     0.0000
 13
     3.7476
 23
     1.1774
 33
     0.0000
  0
3DFACE
  8
46
 62
46
 10
     3.7768
 20
     1.0792
 30
     0.0000
 11
     3.7476
 21
     1.1774
 31
     0.0000
 12
     3.7509
 22
     1.1444
 32
     0.0000
 13
     3.7509
 23
     1.1444
 33
     0.0000
  0
3DFACE
  8
47
 62
47
 10
     3.5368
 20
     1.1016
 30
     0.0000
 11
     3.4851
 21
     1.1978
 31
     0.0000
 12
     3.4704
 22
     1.2206
 32
     0.0000
 13
     3.4704
 23
     1.2206
 33
     0.0000
  0
3DFACE
  8
48
 62
48
 10
     3.5851
 20
     1.1120
 30
     0.0000
 11
     3.6216
 21
     1.1974
 31
     0.0000
 12
     3.5376
 22
     1.1536
 32
     0.0000
 13
     3.5376
 23
     1.1536
 33
     0.0000
  0
3DFACE
  8
49
 62
49
 10
     3.6649
 20
     1.1789
 30
     0.0000
 11
     3.6576
 21
     1.2277
 31
     0.0000
 12
     3.6216
 22
     1.1974
 32
     0.0000
 13
     3.6216
 23
     1.1974
 33
     0.0000
  0
3DFACE
  8
50
 62
50
 10
     3.7019
 20
     1.1390
 30
     0.0000
 11
     3.7476
 21
     1.1774
 31
     0.0000
 12
     3.7125
 22
     1.1923
 32
     0.0000
 13
     3.7125
 23
     1.1923
 33
     0.0000
  0
3DFACE
  8
51
 62
51
 10
     3.6649
 20
     1.1789
 30
     0.0000
 11
     3.7125
 21
     1.1923
 31
     0.0000
 12
     3.6576
 22
     1.2277
 32
     0.0000
 13
     3.6576
 23
     1.2277
 33
     0.0000
  0
3DFACE
  8
52
 62
52
 10
     3.5368
 20
     1.1016
 30
     0.0000
 11
     3.5376
 21
     1.1536
 31
     0.0000
 12
     3.5001
 22
     1.1733
 32
     0.0000
 13
     3.5001
 23
     1.1733
 33
     0.0000
  0
3DFACE
  8
53
 62
53
 10
     3.5368
 20
     1.1016
 30
     0.0000
 11
     3.5001
 21
     1.1733
 31
     0.0000
 12
     3.4851
 22
     1.1978
 32
     0.0000
 13
     3.4851
 23
     1.1978
 33
     0.0000
  0
3DFACE
  8
54
 62
54
 10
     3.4704
 20
     1.2206
 30
     0.0000
 11
     3.4851
 21
     1.1978
 31
     0.0000
 12
     3.4962
 22
     1.2455
 32
     0.0000
 13
     3.4962
 23
     1.2455
 33
     0.0000
  0
3DFACE
  8
55
 62
55
 10
     3.6216
 20
     1.1974
 30
     0.0000
 11
     3.5244
 21
     1.2057
 31
     0.0000
 12
     3.5376
 22
     1.1536
 32
     0.0000
 13
     3.5376
 23
     1.1536
 33
     0.0000
  0
3DFACE
  8
56
 62
56
 10
     3.6216
 20
     1.1974
 30
     0.0000
 11
     3.6576
 21
     1.2277
 31
     0.0000
 12
     3.6100
 22
     1.2528
 32
     0.0000
 13
     3.6100
 23
     1.2528
 33
     0.0000
  0
3DFACE
  8
57
 62
57
 10
     3.7125
 20
     1.1923
 30
     0.0000
 11
     3.7476
 21
     1.1774
 31
     0.0000
 12
     3.6560
 22
     1.2736
 32
     0.0000
 13
     3.6560
 23
     1.2736
 33
     0.0000
  0
3DFACE
  8
58
 62
58
 10
     3.7125
 20
     1.1923
 30
     0.0000
 11
     3.6560
 21
     1.2736
 31
     0.0000
 12
     3.6576
 22
     1.2277
 32
     0.0000
 13
     3.6576
 23
     1.2277
 33
     0.0000
  0
3DFACE
  8
59
 62
59
 10
     3.5376
 20
     1.1536
 30
     0.0000
 11
     3.5244
 21
     1.2057
 31
     0.0000
 12
     3.5001
 22
     1.1733
 32
     0.0000
 13
     3.5001
 23
     1.1733
 33
     0.0000
  0
3DFACE
  8
60
 62
60
 10
     3.4851
 20
     1.1978
 30
     0.0000
 11
     3.5001
 21
     1.1733
 31
     0.0000
 12
     3.5244
 22
     1.2057
 32
     0.0000
 13
     3.5244
 23
     1.2057
 33
     0.0000
  0
3DFACE
  8
61
 62
61
 10
     3.4704
 20
     1.2206
 30
     0.0000
 11
     3.4962
 21
     1.2455
 31
     0.0000
 12
     3.5081
 22
     1.2812
 32
     0.0000
 13
     3.5081
 23
     1.2812
 33
     0.0000
  0
3DFACE
  8
62
 62
62
 10
     3.4851
 20
     1.1978
 30
     0.0000
 11
     3.5244
 21
     1.2057
 31
     0.0000
 12
     3.4962
 22
     1.2455
 32
     0.0000
 13
     3.4962
 23
     1.2455
 33
     0.0000
  0
3DFACE
  8
63
 62
63
 10
     3.6216
 20
     1.1974
 30
     0.0000
 11
     3.5463
 21
     1.2554
 31
     0.0000
 12
     3.5244
 22
     1.2057
 32
     0.0000
 13
     3.5244
 23
     1.2057
 33
     0.0000
  0
3DFACE
  8
64
 62
64
 10
     3.6216
 20
     1.1974
 30
     0.0000
 11
     3.6100
 21
     1.2528
 31
     0.0000
 12
     3.5463
 22
     1.2554
 32
     0.0000
 13
     3.5463
 23
     1.2554
 33
     0.0000
  0
3DFACE
  8
65
 62
65
 10
     3.6576
 20
     1.2277
 30
     0.0000
 11
     3.6560
 21
     1.2736
 31
     0.0000
 12
     3.6100
 22
     1.2528
 32
     0.0000
 13
     3.6100
 23
     1.2528
 33
     0.0000
  0
3DFACE
  8
66
 62
66
 10
     3.4704
 20
     1.2206
 30
     0.0000
 11
     3.5081
 21
     1.2812
 31
     0.0000
 12
     3.5449
 22
     1.3463
 32
     0.0000
 13
     3.5449
 23
     1.3463
 33
     0.0000
  0
3DFACE
  8
67
 62
67
 10
     3.4962
 20
     1.2455
 30
     0.0000
 11
     3.5463
 21
     1.2554
 31
     0.0000
 12
     3.5081
 22
     1.2812
 32
     0.0000
 13
     3.5081
 23
     1.2812
 33
     0.0000
  0
3DFACE
  8
68
 62
68
 10
     3.4962
 20
     1.2455
 30
     0.0000
 11
     3.5244
 21
     1.2057
 31
     0.0000
 12
     3.5463
 22
     1.2554
 32
     0.0000
 13
     3.5463
 23
     1.2554
 33
     0.0000
  0
3DFACE
  8
69
 62
69
 10
     3.6100
 20
     1.2528
 30
     0.0000
 11
     3.5789
 21
     1.2918
 31
     0.0000
 12
     3.5463
 22
     1.2554
 32
     0.0000
 13
     3.5463
 23
     1.2554
 33
     0.0000
  0
3DFACE
  8
70
 62
70
 10
     3.6100
 20
     1.2528
 30
     0.0000
 11
     3.6560
 21
     1.2736
 31
     0.0000
 12
     3.6240
 22
     1.3007
 32
     0.0000
 13
     3.6240
 23
     1.3007
 33
     0.0000
  0
3DFACE
  8
71
 62
71
 10
     3.5081
 20
     1.2812
 30
     0.0000
 11
     3.5372
 21
     1.3062
 31
     0.0000
 12
     3.5449
 22
     1.3463
 32
     0.0000
 13
     3.5449
 23
     1.3463
 33
     0.0000
  0
3DFACE
  8
72
 62
72
 10
     3.5081
 20
     1.2812
 30
     0.0000
 11
     3.5463
 21
     1.2554
 31
     0.0000
 12
     3.5372
 22
     1.3062
 32
     0.0000
 13
     3.5372
 23
     1.3062
 33
     0.0000
  0
3DFACE
  8
73
 62
73
 10
     3.6100
 20
     1.2528
 30
     0.0000
 11
     3.6240
 21
     1.3007
 31
     0.0000
 12
     3.5789
 22
     1.2918
 32
     0.0000
 13
     3.5789
 23
     1.2918
 33
     0.0000
  0
3DFACE
  8
74
 62
74
 10
     3.5463
 20
     1.2554
 30
     0.0000
 11
     3.5789
 21
     1.2918
 31
     0.0000
 12
     3.5372
 22
     1.3062
 32
     0.0000
 13
     3.5372
 23
     1.3062
 33
     0.0000
  0
3DFACE
  8
75
 62
75
 10
     3.5449
 20
     1.3463
 30
     0.0000
 11
     3.5372
 21
     1.3062
 31
     0.0000
 12
     3.5698
 22
     1.3260
 32
     0.0000
 13
     3.5698
 23
     1.3260
 33
     0.0000
  0
3DFACE
  8
76
 62
76
 10
     3.5789
 20
     1.2918
 30
     0.0000
 11
     3.6240
 21
     1.3007
 31
     0.0000
 12
     3.5698
 22
     1.3260
 32
     0.0000
 13
     3.5698
 23
     1.3260
 33
     0.0000
  0
3DFACE
  8
77
 62
77
 10
     3.5789
 20
     1.2918
 30
     0.0000
 11
     3.5698
 21
     1.3260
 31
     0.0000
 12
     3.5372
 22
     1.3062
 32
     0.0000
 13
     3.5372
 23
     1.3062
 33
     0.0000
  0
3DFACE
  8
78
 62
78
 10
     3.5449
 20
     1.3463
 30
     0.0000
 11
     3.5698
 21
     1.3260
 31
     0.0000
 12
     3.6240
 22
     1.3007
 32
     0.0000
 13
     3.6240
 23
     1.3007
 33
     0.0000
  0
ENDSEC
  0
EOF
