  0
SECTION
  2
HEADER
  9
$ACADVER
  1
AC1009
  9
$INSBASE
 10
0.0
 20
0.0
 30
0.0
  9
$EXTMIN
 10
-0.9999999999999998
 20
-0.9999999999999998
 30
-1.0
  9
$EXTMAX
 10
0.9999999999999998
 20
0.9999999999999998
 30
1.0
  9
$LIMMIN
 10
0.0
 20
0.0
  9
$LIMMAX
 10
12.0
 20
9.0
  9
$ORTHOMODE
 70
     0
  9
$REGENMODE
 70
     1
  9
$FILLMODE
 70
     1
  9
$QTEXTMODE
 70
     0
  9
$MIRRTEXT
 70
     0
  9
$DRAGMODE
 70
     2
  9
$LTSCALE
 40
1.0
  9
$OSMODE
 70
    37
  9
$ATTMODE
 70
     1
  9
$TEXTSIZE
 40
0.2
  9
$TRACEWID
 40
0.05
  9
$TEXTSTYLE
  7
STANDARD
  9
$CLAYER
  8
0
  9
$CELTYPE
  6
BYLAYER
  9
$CECOLOR
 62
   256
  9
$DIMSCALE
 40
1.0
  9
$DIMASZ
 40
0.18
  9
$DIMEXO
 40
0.0625
  9
$DIMDLI
 40
0.38
  9
$DIMRND
 40
0.0
  9
$DIMDLE
 40
0.0
  9
$DIMEXE
 40
0.18
  9
$DIMTP
 40
0.0
  9
$DIMTM
 40
0.0
  9
$DIMTXT
 40
0.18
  9
$DIMCEN
 40
0.09
  9
$DIMTSZ
 40
0.0
  9
$DIMTOL
 70
     0
  9
$DIMLIM
 70
     0
  9
$DIMTIH
 70
     1
  9
$DIMTOH
 70
     1
  9
$DIMSE1
 70
     0
  9
$DIMSE2
 70
     0
  9
$DIMTAD
 70
     0
  9
$DIMZIN
 70
     0
  9
$DIMBLK
  1

  9
$DIMASO
 70
     1
  9
$DIMSHO
 70
     1
  9
$DIMPOST
  1

  9
$DIMAPOST
  1

  9
$DIMALT
 70
     0
  9
$DIMALTD
 70
     2
  9
$DIMALTF
 40
25.399999999999999
  9
$DIMLFAC
 40
1.0
  9
$DIMTOFL
 70
     0
  9
$DIMTVP
 40
0.0
  9
$DIMTIX
 70
     0
  9
$DIMSOXD
 70
     0
  9
$DIMSAH
 70
     0
  9
$DIMBLK1
  1

  9
$DIMBLK2
  1

  9
$DIMSTYLE
  2
STANDARD
  9
$DIMCLRD
 70
     0
  9
$DIMCLRE
 70
     0
  9
$DIMCLRT
 70
     0
  9
$DIMTFAC
 40
1.0
  9
$DIMGAP
 40
0.09
  9
$LUNITS
 70
     2
  9
$LUPREC
 70
     4
  9
$SKETCHINC
 40
0.1
  9
$FILLETRAD
 40
0.0
  9
$AUNITS
 70
     0
  9
$AUPREC
 70
     0
  9
$MENU
  1
.
  9
$ELEVATION
 40
0.0
  9
$PELEVATION
 40
0.0
  9
$THICKNESS
 40
0.0
  9
$LIMCHECK
 70
     0
  9
$BLIPMODE
 70
     0
  9
$CHAMFERA
 40
0.0
  9
$CHAMFERB
 40
0.0
  9
$SKPOLY
 70
     0
  9
$TDCREATE
 40
2456571.7109987969
  9
$TDUPDATE
 40
2456615.7000927669
  9
$TDINDWG
 40
0.0015760648
  9
$TDUSRTIMER
 40
0.0015758912
  9
$USRTIMER
 70
     1
  9
$ANGBASE
 50
0.0
  9
$ANGDIR
 70
     0
  9
$PDMODE
 70
     0
  9
$PDSIZE
 40
0.0
  9
$PLINEWID
 40
0.0
  9
$COORDS
 70
     1
  9
$SPLFRAME
 70
     0
  9
$SPLINETYPE
 70
     6
  9
$SPLINESEGS
 70
     8
  9
$ATTDIA
 70
     0
  9
$ATTREQ
 70
     1
  9
$HANDLING
 70
     1
  9
$HANDSEED
  5
233
  9
$SURFTAB1
 70
     6
  9
$SURFTAB2
 70
     6
  9
$SURFTYPE
 70
     6
  9
$SURFU
 70
     6
  9
$SURFV
 70
     6
  9
$UCSNAME
  2

  9
$UCSORG
 10
0.0
 20
0.0
 30
0.0
  9
$UCSXDIR
 10
1.0
 20
0.0
 30
0.0
  9
$UCSYDIR
 10
0.0
 20
1.0
 30
0.0
  9
$PUCSNAME
  2

  9
$PUCSORG
 10
0.0
 20
0.0
 30
0.0
  9
$PUCSXDIR
 10
1.0
 20
0.0
 30
0.0
  9
$PUCSYDIR
 10
0.0
 20
1.0
 30
0.0
  9
$USERI1
 70
     0
  9
$USERI2
 70
     0
  9
$USERI3
 70
     0
  9
$USERI4
 70
     0
  9
$USERI5
 70
     0
  9
$USERR1
 40
0.0
  9
$USERR2
 40
0.0
  9
$USERR3
 40
0.0
  9
$USERR4
 40
0.0
  9
$USERR5
 40
0.0
  9
$WORLDVIEW
 70
     1
  9
$SHADEDGE
 70
     3
  9
$SHADEDIF
 70
    70
  9
$TILEMODE
 70
     1
  9
$MAXACTVP
 70
    64
  9
$PLIMCHECK
 70
     0
  9
$PEXTMIN
 10
1.0000000000000000E+020
 20
1.0000000000000000E+020
 30
1.0000000000000000E+020
  9
$PEXTMAX
 10
-1.0000000000000000E+020
 20
-1.0000000000000000E+020
 30
-1.0000000000000000E+020
  9
$PLIMMIN
 10
0.0
 20
0.0
  9
$PLIMMAX
 10
12.0
 20
9.0
  9
$UNITMODE
 70
     0
  9
$VISRETAIN
 70
     1
  9
$PLINEGEN
 70
     0
  9
$PSLTSCALE
 70
     1
  0
ENDSEC
  0
SECTION
  2
TABLES
  0
TABLE
  2
VPORT
 70
     2
  0
VPORT
  2
*ACTIVE
 70
     0
 10
0.0
 20
0.0
 11
1.0
 21
1.0
 12
1.0107796984397599
 22
0.0669332706210363
 13
0.0
 23
0.0
 14
1.0
 24
1.0
 15
0.0
 25
0.0
 16
0.0
 26
0.0
 36
1.0
 17
-1.010779698439759
 27
-0.028440918617549
 37
0.0845285923124297
 40
2.1040727401243551
 41
2.5436681222707418
 42
50.0
 43
0.0
 44
0.0
 50
0.0
 51
0.0
 71
     0
 72
  1000
 73
     1
 74
     3
 75
     0
 76
     0
 77
     0
 78
     0
  0
ENDTAB
  0
TABLE
  2
LTYPE
 70
     1
  0
LTYPE
  2
CONTINUOUS
 70
     0
  3
Solid line
 72
    65
 73
     0
 40
0.0
  0
ENDTAB
  0
TABLE
  2
LAYER
 70
     1
  0
LAYER
  2
0
 70
     0
 62
     7
  6
CONTINUOUS
  0
ENDTAB
  0
TABLE
  2
STYLE
 70
     1
  0
STYLE
  2
STANDARD
 70
     0
 40
0.0
 41
1.0
 50
0.0
 71
     0
 42
0.2
  3
txt
  4

  0
ENDTAB
  0
TABLE
  2
VIEW
 70
     0
  0
ENDTAB
  0
TABLE
  2
UCS
 70
     0
  0
ENDTAB
  0
TABLE
  2
APPID
 70
     1
  0
APPID
  2
ACAD
 70
     0
  0
ENDTAB
  0
TABLE
  2
DIMSTYLE
 70
     1
  0
DIMSTYLE
  2
STANDARD
 70
     0
  3

  4

  5

  6

  7

 40
1.0
 41
0.18
 42
0.0625
 43
0.38
 44
0.18
 45
0.0
 46
0.0
 47
0.0
 48
0.0
140
0.18
141
0.09
142
0.0
143
25.399999999999999
144
1.0
145
0.0
146
1.0
147
0.09
 71
     0
 72
     0
 73
     1
 74
     1
 75
     0
 76
     0
 77
     0
 78
     0
170
     0
171
     2
172
     0
173
     0
174
     0
175
     0
176
     0
177
     0
178
     0
  0
ENDTAB
  0
ENDSEC
  0
SECTION
  2
BLOCKS
  0
BLOCK
  8
0
  2
$MODEL_SPACE
 70
     0
 10
0.0
 20
0.0
 30
0.0
  3
$MODEL_SPACE
  1

  0
ENDBLK
  5
1EE
  8
0
  0
BLOCK
 67
     1
  8
0
  2
$PAPER_SPACE
 70
     0
 10
0.0
 20
0.0
 30
0.0
  3
$PAPER_SPACE
  1

  0
ENDBLK
  5
1EA
 67
     1
  8
0
  0
ENDSEC
  0
SECTION
  2
ENTITIES
  0
POLYLINE
  5
1FA
  8
0
 66
     1
 10
0.0
 20
0.0
 30
0.0
 70
    17
 71
     6
 72
     7
  0
VERTEX
  5
1FB
  8
0
 10
0.0000000000000002
 20
0.0000000000000002
 30
1.0
 70
    64
  0
VERTEX
  5
1FC
  8
0
 10
-0.4999999999999997
 20
0.0000000000000002
 30
0.8660254037844389
 70
    64
  0
VERTEX
  5
1FD
  8
0
 10
-0.8660254037844383
 20
0.0000000000000001
 30
0.5000000000000006
 70
    64
  0
VERTEX
  5
1FE
  8
0
 10
-0.9999999999999998
 20
0.0
 30
0.0000000000000007
 70
    64
  0
VERTEX
  5
1FF
  8
0
 10
-0.8660254037844389
 20
-0.0000000000000001
 30
-0.4999999999999993
 70
    64
  0
VERTEX
  5
200
  8
0
 10
-0.5000000000000002
 20
-0.0000000000000002
 30
-0.8660254037844383
 70
    64
  0
VERTEX
  5
201
  8
0
 10
0.0
 20
-0.0000000000000002
 30
-1.0
 70
    64
  0
VERTEX
  5
202
  8
0
 10
0.0000000000000001
 20
0.0000000000000004
 30
1.0
 70
    64
  0
VERTEX
  5
203
  8
0
 10
-0.2499999999999999
 20
-0.4330127018922188
 30
0.8660254037844389
 70
    64
  0
VERTEX
  5
204
  8
0
 10
-0.4330127018922193
 20
-0.7499999999999994
 30
0.5000000000000006
 70
    64
  0
VERTEX
  5
205
  8
0
 10
-0.5
 20
-0.8660254037844383
 30
0.0000000000000007
 70
    64
  0
VERTEX
  5
206
  8
0
 10
-0.4330127018922196
 20
-0.7500000000000001
 30
-0.4999999999999992
 70
    64
  0
VERTEX
  5
207
  8
0
 10
-0.2500000000000002
 20
-0.4330127018922198
 30
-0.8660254037844382
 70
    64
  0
VERTEX
  5
208
  8
0
 10
0.0
 20
-0.0000000000000002
 30
-1.0
 70
    64
  0
VERTEX
  5
209
  8
0
 10
-0.0000000000000001
 20
0.0000000000000004
 30
1.0
 70
    64
  0
VERTEX
  5
20A
  8
0
 10
0.2499999999999997
 20
-0.4330127018922189
 30
0.8660254037844389
 70
    64
  0
VERTEX
  5
20B
  8
0
 10
0.433012701892219
 20
-0.7499999999999997
 30
0.5000000000000006
 70
    64
  0
VERTEX
  5
20C
  8
0
 10
0.4999999999999997
 20
-0.8660254037844385
 30
0.0000000000000007
 70
    64
  0
VERTEX
  5
20D
  8
0
 10
0.4330127018922193
 20
-0.7500000000000004
 30
-0.4999999999999992
 70
    64
  0
VERTEX
  5
20E
  8
0
 10
0.25
 20
-0.4330127018922198
 30
-0.8660254037844382
 70
    64
  0
VERTEX
  5
20F
  8
0
 10
0.0
 20
-0.0000000000000002
 30
-1.0
 70
    64
  0
VERTEX
  5
210
  8
0
 10
-0.0000000000000002
 20
0.0000000000000002
 30
1.0
 70
    64
  0
VERTEX
  5
211
  8
0
 10
0.4999999999999997
 20
0.0000000000000001
 30
0.8660254037844389
 70
    64
  0
VERTEX
  5
212
  8
0
 10
0.8660254037844383
 20
0.0
 30
0.5000000000000006
 70
    64
  0
VERTEX
  5
213
  8
0
 10
0.9999999999999998
 20
-0.0000000000000001
 30
0.0000000000000007
 70
    64
  0
VERTEX
  5
214
  8
0
 10
0.8660254037844389
 20
-0.0000000000000002
 30
-0.4999999999999993
 70
    64
  0
VERTEX
  5
215
  8
0
 10
0.5000000000000002
 20
-0.0000000000000003
 30
-0.8660254037844383
 70
    64
  0
VERTEX
  5
216
  8
0
 10
0.0
 20
-0.0000000000000002
 30
-1.0
 70
    64
  0
VERTEX
  5
217
  8
0
 10
-0.0000000000000001
 20
0.0
 30
1.0
 70
    64
  0
VERTEX
  5
218
  8
0
 10
0.25
 20
0.433012701892219
 30
0.8660254037844385
 70
    64
  0
VERTEX
  5
219
  8
0
 10
0.4330127018922196
 20
0.7499999999999997
 30
0.5000000000000002
 70
    64
  0
VERTEX
  5
21A
  8
0
 10
0.5000000000000004
 20
0.8660254037844382
 30
0.0000000000000004
 70
    64
  0
VERTEX
  5
21B
  8
0
 10
0.4330127018922198
 20
0.7499999999999999
 30
-0.4999999999999996
 70
    64
  0
VERTEX
  5
21C
  8
0
 10
0.2500000000000003
 20
0.4330127018922192
 30
-0.8660254037844385
 70
    64
  0
VERTEX
  5
21D
  8
0
 10
0.0
 20
-0.0000000000000002
 30
-1.0
 70
    64
  0
VERTEX
  5
21E
  8
0
 10
0.0000000000000001
 20
0.0
 30
1.0
 70
    64
  0
VERTEX
  5
21F
  8
0
 10
-0.2499999999999995
 20
0.4330127018922195
 30
0.8660254037844385
 70
    64
  0
VERTEX
  5
220
  8
0
 10
-0.4330127018922187
 20
0.7500000000000002
 30
0.5000000000000002
 70
    64
  0
VERTEX
  5
221
  8
0
 10
-0.4999999999999992
 20
0.8660254037844389
 30
0.0000000000000004
 70
    64
  0
VERTEX
  5
222
  8
0
 10
-0.4330127018922189
 20
0.7500000000000006
 30
-0.4999999999999996
 70
    64
  0
VERTEX
  5
223
  8
0
 10
-0.2499999999999998
 20
0.4330127018922195
 30
-0.8660254037844385
 70
    64
  0
VERTEX
  5
224
  8
0
 10
0.0
 20
-0.0000000000000002
 30
-1.0
 70
    64
  0
SEQEND
  5
225
  8
0
  0
ENDSEC
  0
EOF
