  0
SECTION
  2
ENTITIES
  0
3DFACE
  8
150
 62
150
 10
     0.0000
 20
     0.0000
 30
     0.0000
 11
     2.0000
 21
     0.0000
 31
     0.0000
 12
     2.0000
 22
     1.6667
 32
     0.0000
 13
     0.0000
 23
     1.6667
 33
     0.0000
  0
3DFACE
  8
153
 62
153
 10
     0.0000
 20
     0.0000
 30
     0.0000
 11
     0.0000
 21
     0.0000
 31
     1.0000
 12
     2.0000
 22
     0.0000
 32
     1.0000
 13
     2.0000
 23
     0.0000
 33
     0.0000
  0
3DFACE
  8
151
 62
151
 10
     0.0000
 20
     0.0000
 30
     0.0000
 11
     0.0000
 21
     1.6667
 31
     0.0000
 12
     0.0000
 22
     1.6667
 32
     1.0000
 13
     0.0000
 23
     0.0000
 33
     1.0000
  0
3DFACE
  8
2
 62
2
 10
     0.0000
 20
     0.0000
 30
     1.0000
 11
     0.0000
 21
     1.6667
 31
     1.0000
 12
     2.0000
 22
     1.6667
 32
     1.0000
 13
     2.0000
 23
     0.0000
 33
     1.0000
  0
3DFACE
  8
150
 62
150
 10
     2.0000
 20
     0.0000
 30
     0.0000
 11
     4.0000
 21
     0.0000
 31
     0.0000
 12
     4.0000
 22
     1.6667
 32
     0.0000
 13
     2.0000
 23
     1.6667
 33
     0.0000
  0
3DFACE
  8
153
 62
153
 10
     2.0000
 20
     0.0000
 30
     0.0000
 11
     2.0000
 21
     0.0000
 31
     1.0000
 12
     4.0000
 22
     0.0000
 32
     1.0000
 13
     4.0000
 23
     0.0000
 33
     0.0000
  0
3DFACE
  8
2
 62
2
 10
     2.0000
 20
     0.0000
 30
     1.0000
 11
     2.0000
 21
     1.6667
 31
     1.0000
 12
     4.0000
 22
     1.6667
 32
     1.0000
 13
     4.0000
 23
     0.0000
 33
     1.0000
  0
3DFACE
  8
150
 62
150
 10
     4.0000
 20
     0.0000
 30
     0.0000
 11
     6.0000
 21
     0.0000
 31
     0.0000
 12
     6.0000
 22
     1.6667
 32
     0.0000
 13
     4.0000
 23
     1.6667
 33
     0.0000
  0
3DFACE
  8
153
 62
153
 10
     4.0000
 20
     0.0000
 30
     0.0000
 11
     4.0000
 21
     0.0000
 31
     1.0000
 12
     6.0000
 22
     0.0000
 32
     1.0000
 13
     6.0000
 23
     0.0000
 33
     0.0000
  0
3DFACE
  8
2
 62
2
 10
     4.0000
 20
     0.0000
 30
     1.0000
 11
     4.0000
 21
     1.6667
 31
     1.0000
 12
     6.0000
 22
     1.6667
 32
     1.0000
 13
     6.0000
 23
     0.0000
 33
     1.0000
  0
3DFACE
  8
150
 62
150
 10
     6.0000
 20
     0.0000
 30
     0.0000
 11
     8.0000
 21
     0.0000
 31
     0.0000
 12
     8.0000
 22
     1.6667
 32
     0.0000
 13
     6.0000
 23
     1.6667
 33
     0.0000
  0
3DFACE
  8
153
 62
153
 10
     6.0000
 20
     0.0000
 30
     0.0000
 11
     6.0000
 21
     0.0000
 31
     1.0000
 12
     8.0000
 22
     0.0000
 32
     1.0000
 13
     8.0000
 23
     0.0000
 33
     0.0000
  0
3DFACE
  8
2
 62
2
 10
     6.0000
 20
     0.0000
 30
     1.0000
 11
     6.0000
 21
     1.6667
 31
     1.0000
 12
     8.0000
 22
     1.6667
 32
     1.0000
 13
     8.0000
 23
     0.0000
 33
     1.0000
  0
3DFACE
  8
150
 62
150
 10
     8.0000
 20
     0.0000
 30
     0.0000
 11
    10.0000
 21
     0.0000
 31
     0.0000
 12
    10.0000
 22
     1.6667
 32
     0.0000
 13
     8.0000
 23
     1.6667
 33
     0.0000
  0
3DFACE
  8
153
 62
153
 10
     8.0000
 20
     0.0000
 30
     0.0000
 11
     8.0000
 21
     0.0000
 31
     1.0000
 12
    10.0000
 22
     0.0000
 32
     1.0000
 13
    10.0000
 23
     0.0000
 33
     0.0000
  0
3DFACE
  8
2
 62
2
 10
     8.0000
 20
     0.0000
 30
     1.0000
 11
     8.0000
 21
     1.6667
 31
     1.0000
 12
    10.0000
 22
     1.6667
 32
     1.0000
 13
    10.0000
 23
     0.0000
 33
     1.0000
  0
3DFACE
  8
150
 62
150
 10
     0.0000
 20
     1.6667
 30
     0.0000
 11
     2.0000
 21
     1.6667
 31
     0.0000
 12
     2.0000
 22
     3.3333
 32
     0.0000
 13
     0.0000
 23
     3.3333
 33
     0.0000
  0
3DFACE
  8
151
 62
151
 10
     0.0000
 20
     1.6667
 30
     0.0000
 11
     0.0000
 21
     3.3333
 31
     0.0000
 12
     0.0000
 22
     3.3333
 32
     1.0000
 13
     0.0000
 23
     1.6667
 33
     1.0000
  0
3DFACE
  8
2
 62
2
 10
     0.0000
 20
     1.6667
 30
     1.0000
 11
     0.0000
 21
     3.3333
 31
     1.0000
 12
     2.0000
 22
     3.3333
 32
     1.0000
 13
     2.0000
 23
     1.6667
 33
     1.0000
  0
3DFACE
  8
150
 62
150
 10
     2.0000
 20
     1.6667
 30
     0.0000
 11
     4.0000
 21
     1.6667
 31
     0.0000
 12
     4.0000
 22
     3.3333
 32
     0.0000
 13
     2.0000
 23
     3.3333
 33
     0.0000
  0
3DFACE
  8
2
 62
2
 10
     2.0000
 20
     1.6667
 30
     1.0000
 11
     2.0000
 21
     3.3333
 31
     1.0000
 12
     4.0000
 22
     3.3333
 32
     1.0000
 13
     4.0000
 23
     1.6667
 33
     1.0000
  0
3DFACE
  8
150
 62
150
 10
     4.0000
 20
     1.6667
 30
     0.0000
 11
     6.0000
 21
     1.6667
 31
     0.0000
 12
     6.0000
 22
     3.3333
 32
     0.0000
 13
     4.0000
 23
     3.3333
 33
     0.0000
  0
3DFACE
  8
2
 62
2
 10
     4.0000
 20
     1.6667
 30
     1.0000
 11
     4.0000
 21
     3.3333
 31
     1.0000
 12
     6.0000
 22
     3.3333
 32
     1.0000
 13
     6.0000
 23
     1.6667
 33
     1.0000
  0
3DFACE
  8
150
 62
150
 10
     6.0000
 20
     1.6667
 30
     0.0000
 11
     8.0000
 21
     1.6667
 31
     0.0000
 12
     8.0000
 22
     3.3333
 32
     0.0000
 13
     6.0000
 23
     3.3333
 33
     0.0000
  0
3DFACE
  8
2
 62
2
 10
     6.0000
 20
     1.6667
 30
     1.0000
 11
     6.0000
 21
     3.3333
 31
     1.0000
 12
     8.0000
 22
     3.3333
 32
     1.0000
 13
     8.0000
 23
     1.6667
 33
     1.0000
  0
3DFACE
  8
150
 62
150
 10
     8.0000
 20
     1.6667
 30
     0.0000
 11
    10.0000
 21
     1.6667
 31
     0.0000
 12
    10.0000
 22
     3.3333
 32
     0.0000
 13
     8.0000
 23
     3.3333
 33
     0.0000
  0
3DFACE
  8
2
 62
2
 10
     8.0000
 20
     1.6667
 30
     1.0000
 11
     8.0000
 21
     3.3333
 31
     1.0000
 12
    10.0000
 22
     3.3333
 32
     1.0000
 13
    10.0000
 23
     1.6667
 33
     1.0000
  0
3DFACE
  8
150
 62
150
 10
     0.0000
 20
     3.3333
 30
     0.0000
 11
     2.0000
 21
     3.3333
 31
     0.0000
 12
     2.0000
 22
     5.0000
 32
     0.0000
 13
     0.0000
 23
     5.0000
 33
     0.0000
  0
3DFACE
  8
151
 62
151
 10
     0.0000
 20
     3.3333
 30
     0.0000
 11
     0.0000
 21
     5.0000
 31
     0.0000
 12
     0.0000
 22
     5.0000
 32
     1.0000
 13
     0.0000
 23
     3.3333
 33
     1.0000
  0
3DFACE
  8
2
 62
2
 10
     2.0000
 20
     5.0000
 30
     0.0000
 11
     2.0000
 21
     5.0000
 31
     1.0000
 12
     0.0000
 22
     5.0000
 32
     1.0000
 13
     0.0000
 23
     5.0000
 33
     0.0000
  0
3DFACE
  8
2
 62
2
 10
     0.0000
 20
     3.3333
 30
     1.0000
 11
     0.0000
 21
     5.0000
 31
     1.0000
 12
     2.0000
 22
     5.0000
 32
     1.0000
 13
     2.0000
 23
     3.3333
 33
     1.0000
  0
3DFACE
  8
150
 62
150
 10
     2.0000
 20
     3.3333
 30
     0.0000
 11
     4.0000
 21
     3.3333
 31
     0.0000
 12
     4.0000
 22
     5.0000
 32
     0.0000
 13
     2.0000
 23
     5.0000
 33
     0.0000
  0
3DFACE
  8
2
 62
2
 10
     4.0000
 20
     5.0000
 30
     0.0000
 11
     4.0000
 21
     5.0000
 31
     1.0000
 12
     2.0000
 22
     5.0000
 32
     1.0000
 13
     2.0000
 23
     5.0000
 33
     0.0000
  0
3DFACE
  8
2
 62
2
 10
     2.0000
 20
     3.3333
 30
     1.0000
 11
     2.0000
 21
     5.0000
 31
     1.0000
 12
     4.0000
 22
     5.0000
 32
     1.0000
 13
     4.0000
 23
     3.3333
 33
     1.0000
  0
3DFACE
  8
150
 62
150
 10
     4.0000
 20
     3.3333
 30
     0.0000
 11
     6.0000
 21
     3.3333
 31
     0.0000
 12
     6.0000
 22
     5.0000
 32
     0.0000
 13
     4.0000
 23
     5.0000
 33
     0.0000
  0
3DFACE
  8
2
 62
2
 10
     6.0000
 20
     5.0000
 30
     0.0000
 11
     6.0000
 21
     5.0000
 31
     1.0000
 12
     4.0000
 22
     5.0000
 32
     1.0000
 13
     4.0000
 23
     5.0000
 33
     0.0000
  0
3DFACE
  8
2
 62
2
 10
     4.0000
 20
     3.3333
 30
     1.0000
 11
     4.0000
 21
     5.0000
 31
     1.0000
 12
     6.0000
 22
     5.0000
 32
     1.0000
 13
     6.0000
 23
     3.3333
 33
     1.0000
  0
3DFACE
  8
150
 62
150
 10
     6.0000
 20
     3.3333
 30
     0.0000
 11
     8.0000
 21
     3.3333
 31
     0.0000
 12
     8.0000
 22
     5.0000
 32
     0.0000
 13
     6.0000
 23
     5.0000
 33
     0.0000
  0
3DFACE
  8
2
 62
2
 10
     8.0000
 20
     5.0000
 30
     0.0000
 11
     8.0000
 21
     5.0000
 31
     1.0000
 12
     6.0000
 22
     5.0000
 32
     1.0000
 13
     6.0000
 23
     5.0000
 33
     0.0000
  0
3DFACE
  8
2
 62
2
 10
     6.0000
 20
     3.3333
 30
     1.0000
 11
     6.0000
 21
     5.0000
 31
     1.0000
 12
     8.0000
 22
     5.0000
 32
     1.0000
 13
     8.0000
 23
     3.3333
 33
     1.0000
  0
3DFACE
  8
150
 62
150
 10
     8.0000
 20
     3.3333
 30
     0.0000
 11
    10.0000
 21
     3.3333
 31
     0.0000
 12
    10.0000
 22
     5.0000
 32
     0.0000
 13
     8.0000
 23
     5.0000
 33
     0.0000
  0
3DFACE
  8
2
 62
2
 10
    10.0000
 20
     5.0000
 30
     0.0000
 11
    10.0000
 21
     5.0000
 31
     1.0000
 12
     8.0000
 22
     5.0000
 32
     1.0000
 13
     8.0000
 23
     5.0000
 33
     0.0000
  0
3DFACE
  8
2
 62
2
 10
     8.0000
 20
     3.3333
 30
     1.0000
 11
     8.0000
 21
     5.0000
 31
     1.0000
 12
    10.0000
 22
     5.0000
 32
     1.0000
 13
    10.0000
 23
     3.3333
 33
     1.0000
  0
3DFACE
  8
150
 62
150
 10
    10.0000
 20
     5.0000
 30
     0.0000
 11
    10.0000
 21
     3.3333
 31
     0.0000
 12
    12.0000
 22
     3.3333
 32
     0.0000
 13
    12.0000
 23
     5.0000
 33
     0.0000
  0
3DFACE
  8
2
 62
2
 10
    10.0000
 20
     5.0000
 30
     1.0000
 11
    12.0000
 21
     5.0000
 31
     1.0000
 12
    12.0000
 22
     3.3333
 32
     1.0000
 13
    10.0000
 23
     3.3333
 33
     1.0000
  0
3DFACE
  8
150
 62
150
 10
    10.0000
 20
     3.3333
 30
     0.0000
 11
    10.0000
 21
     1.6667
 31
     0.0000
 12
    12.0000
 22
     1.6667
 32
     0.0000
 13
    12.0000
 23
     3.3333
 33
     0.0000
  0
3DFACE
  8
2
 62
2
 10
    10.0000
 20
     3.3333
 30
     1.0000
 11
    12.0000
 21
     3.3333
 31
     1.0000
 12
    12.0000
 22
     1.6667
 32
     1.0000
 13
    10.0000
 23
     1.6667
 33
     1.0000
  0
3DFACE
  8
150
 62
150
 10
    10.0000
 20
     1.6667
 30
     0.0000
 11
    10.0000
 21
     0.0000
 31
     0.0000
 12
    12.0000
 22
     0.0000
 32
     0.0000
 13
    12.0000
 23
     1.6667
 33
     0.0000
  0
3DFACE
  8
153
 62
153
 10
    10.0000
 20
     0.0000
 30
     0.0000
 11
    10.0000
 21
     0.0000
 31
     1.0000
 12
    12.0000
 22
     0.0000
 32
     1.0000
 13
    12.0000
 23
     0.0000
 33
     0.0000
  0
3DFACE
  8
2
 62
2
 10
    10.0000
 20
     1.6667
 30
     1.0000
 11
    12.0000
 21
     1.6667
 31
     1.0000
 12
    12.0000
 22
     0.0000
 32
     1.0000
 13
    10.0000
 23
     0.0000
 33
     1.0000
  0
3DFACE
  8
150
 62
150
 10
    12.0000
 20
     5.0000
 30
     0.0000
 11
    12.0000
 21
     3.3333
 31
     0.0000
 12
    14.0000
 22
     3.3333
 32
     0.0000
 13
    14.0000
 23
     5.0000
 33
     0.0000
  0
3DFACE
  8
2
 62
2
 10
    12.0000
 20
     5.0000
 30
     1.0000
 11
    14.0000
 21
     5.0000
 31
     1.0000
 12
    14.0000
 22
     3.3333
 32
     1.0000
 13
    12.0000
 23
     3.3333
 33
     1.0000
  0
3DFACE
  8
150
 62
150
 10
    12.0000
 20
     3.3333
 30
     0.0000
 11
    12.0000
 21
     1.6667
 31
     0.0000
 12
    14.0000
 22
     1.6667
 32
     0.0000
 13
    14.0000
 23
     3.3333
 33
     0.0000
  0
3DFACE
  8
2
 62
2
 10
    12.0000
 20
     3.3333
 30
     1.0000
 11
    14.0000
 21
     3.3333
 31
     1.0000
 12
    14.0000
 22
     1.6667
 32
     1.0000
 13
    12.0000
 23
     1.6667
 33
     1.0000
  0
3DFACE
  8
150
 62
150
 10
    12.0000
 20
     1.6667
 30
     0.0000
 11
    12.0000
 21
     0.0000
 31
     0.0000
 12
    14.0000
 22
     0.0000
 32
     0.0000
 13
    14.0000
 23
     1.6667
 33
     0.0000
  0
3DFACE
  8
153
 62
153
 10
    12.0000
 20
     0.0000
 30
     0.0000
 11
    12.0000
 21
     0.0000
 31
     1.0000
 12
    14.0000
 22
     0.0000
 32
     1.0000
 13
    14.0000
 23
     0.0000
 33
     0.0000
  0
3DFACE
  8
2
 62
2
 10
    12.0000
 20
     1.6667
 30
     1.0000
 11
    14.0000
 21
     1.6667
 31
     1.0000
 12
    14.0000
 22
     0.0000
 32
     1.0000
 13
    12.0000
 23
     0.0000
 33
     1.0000
  0
3DFACE
  8
150
 62
150
 10
    14.0000
 20
     5.0000
 30
     0.0000
 11
    14.0000
 21
     3.3333
 31
     0.0000
 12
    16.0000
 22
     3.3333
 32
     0.0000
 13
    16.0000
 23
     5.0000
 33
     0.0000
  0
3DFACE
  8
2
 62
2
 10
    14.0000
 20
     5.0000
 30
     1.0000
 11
    16.0000
 21
     5.0000
 31
     1.0000
 12
    16.0000
 22
     3.3333
 32
     1.0000
 13
    14.0000
 23
     3.3333
 33
     1.0000
  0
3DFACE
  8
150
 62
150
 10
    14.0000
 20
     3.3333
 30
     0.0000
 11
    14.0000
 21
     1.6667
 31
     0.0000
 12
    16.0000
 22
     1.6667
 32
     0.0000
 13
    16.0000
 23
     3.3333
 33
     0.0000
  0
3DFACE
  8
2
 62
2
 10
    14.0000
 20
     3.3333
 30
     1.0000
 11
    16.0000
 21
     3.3333
 31
     1.0000
 12
    16.0000
 22
     1.6667
 32
     1.0000
 13
    14.0000
 23
     1.6667
 33
     1.0000
  0
3DFACE
  8
150
 62
150
 10
    14.0000
 20
     1.6667
 30
     0.0000
 11
    14.0000
 21
     0.0000
 31
     0.0000
 12
    16.0000
 22
     0.0000
 32
     0.0000
 13
    16.0000
 23
     1.6667
 33
     0.0000
  0
3DFACE
  8
153
 62
153
 10
    14.0000
 20
     0.0000
 30
     0.0000
 11
    14.0000
 21
     0.0000
 31
     1.0000
 12
    16.0000
 22
     0.0000
 32
     1.0000
 13
    16.0000
 23
     0.0000
 33
     0.0000
  0
3DFACE
  8
2
 62
2
 10
    14.0000
 20
     1.6667
 30
     1.0000
 11
    16.0000
 21
     1.6667
 31
     1.0000
 12
    16.0000
 22
     0.0000
 32
     1.0000
 13
    14.0000
 23
     0.0000
 33
     1.0000
  0
3DFACE
  8
150
 62
150
 10
    16.0000
 20
     5.0000
 30
     0.0000
 11
    16.0000
 21
     3.3333
 31
     0.0000
 12
    18.0000
 22
     3.3333
 32
     0.0000
 13
    18.0000
 23
     5.0000
 33
     0.0000
  0
3DFACE
  8
2
 62
2
 10
    16.0000
 20
     5.0000
 30
     1.0000
 11
    18.0000
 21
     5.0000
 31
     1.0000
 12
    18.0000
 22
     3.3333
 32
     1.0000
 13
    16.0000
 23
     3.3333
 33
     1.0000
  0
3DFACE
  8
150
 62
150
 10
    16.0000
 20
     3.3333
 30
     0.0000
 11
    16.0000
 21
     1.6667
 31
     0.0000
 12
    18.0000
 22
     1.6667
 32
     0.0000
 13
    18.0000
 23
     3.3333
 33
     0.0000
  0
3DFACE
  8
2
 62
2
 10
    16.0000
 20
     3.3333
 30
     1.0000
 11
    18.0000
 21
     3.3333
 31
     1.0000
 12
    18.0000
 22
     1.6667
 32
     1.0000
 13
    16.0000
 23
     1.6667
 33
     1.0000
  0
3DFACE
  8
150
 62
150
 10
    16.0000
 20
     1.6667
 30
     0.0000
 11
    16.0000
 21
     0.0000
 31
     0.0000
 12
    18.0000
 22
     0.0000
 32
     0.0000
 13
    18.0000
 23
     1.6667
 33
     0.0000
  0
3DFACE
  8
153
 62
153
 10
    16.0000
 20
     0.0000
 30
     0.0000
 11
    16.0000
 21
     0.0000
 31
     1.0000
 12
    18.0000
 22
     0.0000
 32
     1.0000
 13
    18.0000
 23
     0.0000
 33
     0.0000
  0
3DFACE
  8
2
 62
2
 10
    16.0000
 20
     1.6667
 30
     1.0000
 11
    18.0000
 21
     1.6667
 31
     1.0000
 12
    18.0000
 22
     0.0000
 32
     1.0000
 13
    16.0000
 23
     0.0000
 33
     1.0000
  0
3DFACE
  8
150
 62
150
 10
    18.0000
 20
     5.0000
 30
     0.0000
 11
    18.0000
 21
     3.3333
 31
     0.0000
 12
    20.0000
 22
     3.3333
 32
     0.0000
 13
    20.0000
 23
     5.0000
 33
     0.0000
  0
3DFACE
  8
2
 62
2
 10
    18.0000
 20
     5.0000
 30
     1.0000
 11
    20.0000
 21
     5.0000
 31
     1.0000
 12
    20.0000
 22
     3.3333
 32
     1.0000
 13
    18.0000
 23
     3.3333
 33
     1.0000
  0
3DFACE
  8
150
 62
150
 10
    18.0000
 20
     3.3333
 30
     0.0000
 11
    18.0000
 21
     1.6667
 31
     0.0000
 12
    20.0000
 22
     1.6667
 32
     0.0000
 13
    20.0000
 23
     3.3333
 33
     0.0000
  0
3DFACE
  8
2
 62
2
 10
    18.0000
 20
     3.3333
 30
     1.0000
 11
    20.0000
 21
     3.3333
 31
     1.0000
 12
    20.0000
 22
     1.6667
 32
     1.0000
 13
    18.0000
 23
     1.6667
 33
     1.0000
  0
3DFACE
  8
150
 62
150
 10
    18.0000
 20
     1.6667
 30
     0.0000
 11
    18.0000
 21
     0.0000
 31
     0.0000
 12
    20.0000
 22
     0.0000
 32
     0.0000
 13
    20.0000
 23
     1.6667
 33
     0.0000
  0
3DFACE
  8
153
 62
153
 10
    18.0000
 20
     0.0000
 30
     0.0000
 11
    18.0000
 21
     0.0000
 31
     1.0000
 12
    20.0000
 22
     0.0000
 32
     1.0000
 13
    20.0000
 23
     0.0000
 33
     0.0000
  0
3DFACE
  8
2
 62
2
 10
    18.0000
 20
     1.6667
 30
     1.0000
 11
    20.0000
 21
     1.6667
 31
     1.0000
 12
    20.0000
 22
     0.0000
 32
     1.0000
 13
    18.0000
 23
     0.0000
 33
     1.0000
  0
3DFACE
  8
150
 62
150
 10
    20.0000
 20
     5.0000
 30
     0.0000
 11
    20.0000
 21
     3.3333
 31
     0.0000
 12
    22.0000
 22
     3.3333
 32
     0.0000
 13
    22.0000
 23
     5.0000
 33
     0.0000
  0
3DFACE
  8
2
 62
2
 10
    20.0000
 20
     5.0000
 30
     1.0000
 11
    22.0000
 21
     5.0000
 31
     1.0000
 12
    22.0000
 22
     3.3333
 32
     1.0000
 13
    20.0000
 23
     3.3333
 33
     1.0000
  0
3DFACE
  8
150
 62
150
 10
    20.0000
 20
     3.3333
 30
     0.0000
 11
    20.0000
 21
     1.6667
 31
     0.0000
 12
    22.0000
 22
     1.6667
 32
     0.0000
 13
    22.0000
 23
     3.3333
 33
     0.0000
  0
3DFACE
  8
2
 62
2
 10
    20.0000
 20
     3.3333
 30
     1.0000
 11
    22.0000
 21
     3.3333
 31
     1.0000
 12
    22.0000
 22
     1.6667
 32
     1.0000
 13
    20.0000
 23
     1.6667
 33
     1.0000
  0
3DFACE
  8
150
 62
150
 10
    20.0000
 20
     1.6667
 30
     0.0000
 11
    20.0000
 21
     0.0000
 31
     0.0000
 12
    22.0000
 22
     0.0000
 32
     0.0000
 13
    22.0000
 23
     1.6667
 33
     0.0000
  0
3DFACE
  8
153
 62
153
 10
    20.0000
 20
     0.0000
 30
     0.0000
 11
    20.0000
 21
     0.0000
 31
     1.0000
 12
    22.0000
 22
     0.0000
 32
     1.0000
 13
    22.0000
 23
     0.0000
 33
     0.0000
  0
3DFACE
  8
2
 62
2
 10
    20.0000
 20
     1.6667
 30
     1.0000
 11
    22.0000
 21
     1.6667
 31
     1.0000
 12
    22.0000
 22
     0.0000
 32
     1.0000
 13
    20.0000
 23
     0.0000
 33
     1.0000
  0
3DFACE
  8
150
 62
150
 10
    22.0000
 20
     5.0000
 30
     0.0000
 11
    22.0000
 21
     3.3333
 31
     0.0000
 12
    24.0000
 22
     3.3333
 32
     0.0000
 13
    24.0000
 23
     5.0000
 33
     0.0000
  0
3DFACE
  8
2
 62
2
 10
    22.0000
 20
     5.0000
 30
     1.0000
 11
    24.0000
 21
     5.0000
 31
     1.0000
 12
    24.0000
 22
     3.3333
 32
     1.0000
 13
    22.0000
 23
     3.3333
 33
     1.0000
  0
3DFACE
  8
150
 62
150
 10
    22.0000
 20
     3.3333
 30
     0.0000
 11
    22.0000
 21
     1.6667
 31
     0.0000
 12
    24.0000
 22
     1.6667
 32
     0.0000
 13
    24.0000
 23
     3.3333
 33
     0.0000
  0
3DFACE
  8
2
 62
2
 10
    22.0000
 20
     3.3333
 30
     1.0000
 11
    24.0000
 21
     3.3333
 31
     1.0000
 12
    24.0000
 22
     1.6667
 32
     1.0000
 13
    22.0000
 23
     1.6667
 33
     1.0000
  0
3DFACE
  8
150
 62
150
 10
    22.0000
 20
     1.6667
 30
     0.0000
 11
    22.0000
 21
     0.0000
 31
     0.0000
 12
    24.0000
 22
     0.0000
 32
     0.0000
 13
    24.0000
 23
     1.6667
 33
     0.0000
  0
3DFACE
  8
153
 62
153
 10
    22.0000
 20
     0.0000
 30
     0.0000
 11
    22.0000
 21
     0.0000
 31
     1.0000
 12
    24.0000
 22
     0.0000
 32
     1.0000
 13
    24.0000
 23
     0.0000
 33
     0.0000
  0
3DFACE
  8
2
 62
2
 10
    22.0000
 20
     1.6667
 30
     1.0000
 11
    24.0000
 21
     1.6667
 31
     1.0000
 12
    24.0000
 22
     0.0000
 32
     1.0000
 13
    22.0000
 23
     0.0000
 33
     1.0000
  0
3DFACE
  8
150
 62
150
 10
    24.0000
 20
     5.0000
 30
     0.0000
 11
    24.0000
 21
     3.3333
 31
     0.0000
 12
    26.0000
 22
     3.3333
 32
     0.0000
 13
    26.0000
 23
     5.0000
 33
     0.0000
  0
3DFACE
  8
2
 62
2
 10
    24.0000
 20
     5.0000
 30
     1.0000
 11
    26.0000
 21
     5.0000
 31
     1.0000
 12
    26.0000
 22
     3.3333
 32
     1.0000
 13
    24.0000
 23
     3.3333
 33
     1.0000
  0
3DFACE
  8
150
 62
150
 10
    24.0000
 20
     3.3333
 30
     0.0000
 11
    24.0000
 21
     1.6667
 31
     0.0000
 12
    26.0000
 22
     1.6667
 32
     0.0000
 13
    26.0000
 23
     3.3333
 33
     0.0000
  0
3DFACE
  8
2
 62
2
 10
    24.0000
 20
     3.3333
 30
     1.0000
 11
    26.0000
 21
     3.3333
 31
     1.0000
 12
    26.0000
 22
     1.6667
 32
     1.0000
 13
    24.0000
 23
     1.6667
 33
     1.0000
  0
3DFACE
  8
150
 62
150
 10
    24.0000
 20
     1.6667
 30
     0.0000
 11
    24.0000
 21
     0.0000
 31
     0.0000
 12
    26.0000
 22
     0.0000
 32
     0.0000
 13
    26.0000
 23
     1.6667
 33
     0.0000
  0
3DFACE
  8
153
 62
153
 10
    24.0000
 20
     0.0000
 30
     0.0000
 11
    24.0000
 21
     0.0000
 31
     1.0000
 12
    26.0000
 22
     0.0000
 32
     1.0000
 13
    26.0000
 23
     0.0000
 33
     0.0000
  0
3DFACE
  8
2
 62
2
 10
    24.0000
 20
     1.6667
 30
     1.0000
 11
    26.0000
 21
     1.6667
 31
     1.0000
 12
    26.0000
 22
     0.0000
 32
     1.0000
 13
    24.0000
 23
     0.0000
 33
     1.0000
  0
3DFACE
  8
150
 62
150
 10
    26.0000
 20
     5.0000
 30
     0.0000
 11
    26.0000
 21
     3.3333
 31
     0.0000
 12
    28.0000
 22
     3.3333
 32
     0.0000
 13
    28.0000
 23
     5.0000
 33
     0.0000
  0
3DFACE
  8
2
 62
2
 10
    26.0000
 20
     5.0000
 30
     1.0000
 11
    28.0000
 21
     5.0000
 31
     1.0000
 12
    28.0000
 22
     3.3333
 32
     1.0000
 13
    26.0000
 23
     3.3333
 33
     1.0000
  0
3DFACE
  8
150
 62
150
 10
    26.0000
 20
     3.3333
 30
     0.0000
 11
    26.0000
 21
     1.6667
 31
     0.0000
 12
    28.0000
 22
     1.6667
 32
     0.0000
 13
    28.0000
 23
     3.3333
 33
     0.0000
  0
3DFACE
  8
2
 62
2
 10
    26.0000
 20
     3.3333
 30
     1.0000
 11
    28.0000
 21
     3.3333
 31
     1.0000
 12
    28.0000
 22
     1.6667
 32
     1.0000
 13
    26.0000
 23
     1.6667
 33
     1.0000
  0
3DFACE
  8
150
 62
150
 10
    26.0000
 20
     1.6667
 30
     0.0000
 11
    26.0000
 21
     0.0000
 31
     0.0000
 12
    28.0000
 22
     0.0000
 32
     0.0000
 13
    28.0000
 23
     1.6667
 33
     0.0000
  0
3DFACE
  8
153
 62
153
 10
    26.0000
 20
     0.0000
 30
     0.0000
 11
    26.0000
 21
     0.0000
 31
     1.0000
 12
    28.0000
 22
     0.0000
 32
     1.0000
 13
    28.0000
 23
     0.0000
 33
     0.0000
  0
3DFACE
  8
2
 62
2
 10
    26.0000
 20
     1.6667
 30
     1.0000
 11
    28.0000
 21
     1.6667
 31
     1.0000
 12
    28.0000
 22
     0.0000
 32
     1.0000
 13
    26.0000
 23
     0.0000
 33
     1.0000
  0
3DFACE
  8
150
 62
150
 10
    28.0000
 20
     5.0000
 30
     0.0000
 11
    28.0000
 21
     3.3333
 31
     0.0000
 12
    30.0000
 22
     3.3333
 32
     0.0000
 13
    30.0000
 23
     5.0000
 33
     0.0000
  0
3DFACE
  8
2
 62
2
 10
    28.0000
 20
     5.0000
 30
     1.0000
 11
    30.0000
 21
     5.0000
 31
     1.0000
 12
    30.0000
 22
     3.3333
 32
     1.0000
 13
    28.0000
 23
     3.3333
 33
     1.0000
  0
3DFACE
  8
150
 62
150
 10
    28.0000
 20
     3.3333
 30
     0.0000
 11
    28.0000
 21
     1.6667
 31
     0.0000
 12
    30.0000
 22
     1.6667
 32
     0.0000
 13
    30.0000
 23
     3.3333
 33
     0.0000
  0
3DFACE
  8
2
 62
2
 10
    28.0000
 20
     3.3333
 30
     1.0000
 11
    30.0000
 21
     3.3333
 31
     1.0000
 12
    30.0000
 22
     1.6667
 32
     1.0000
 13
    28.0000
 23
     1.6667
 33
     1.0000
  0
3DFACE
  8
150
 62
150
 10
    28.0000
 20
     1.6667
 30
     0.0000
 11
    28.0000
 21
     0.0000
 31
     0.0000
 12
    30.0000
 22
     0.0000
 32
     0.0000
 13
    30.0000
 23
     1.6667
 33
     0.0000
  0
3DFACE
  8
153
 62
153
 10
    28.0000
 20
     0.0000
 30
     0.0000
 11
    28.0000
 21
     0.0000
 31
     1.0000
 12
    30.0000
 22
     0.0000
 32
     1.0000
 13
    30.0000
 23
     0.0000
 33
     0.0000
  0
3DFACE
  8
2
 62
2
 10
    28.0000
 20
     1.6667
 30
     1.0000
 11
    30.0000
 21
     1.6667
 31
     1.0000
 12
    30.0000
 22
     0.0000
 32
     1.0000
 13
    28.0000
 23
     0.0000
 33
     1.0000
  0
3DFACE
  8
150
 62
150
 10
    30.0000
 20
     5.0000
 30
     0.0000
 11
    30.0000
 21
     3.3333
 31
     0.0000
 12
    32.0000
 22
     3.3333
 32
     0.0000
 13
    32.0000
 23
     5.0000
 33
     0.0000
  0
3DFACE
  8
2
 62
2
 10
    30.0000
 20
     5.0000
 30
     1.0000
 11
    32.0000
 21
     5.0000
 31
     1.0000
 12
    32.0000
 22
     3.3333
 32
     1.0000
 13
    30.0000
 23
     3.3333
 33
     1.0000
  0
3DFACE
  8
150
 62
150
 10
    30.0000
 20
     3.3333
 30
     0.0000
 11
    30.0000
 21
     1.6667
 31
     0.0000
 12
    32.0000
 22
     1.6667
 32
     0.0000
 13
    32.0000
 23
     3.3333
 33
     0.0000
  0
3DFACE
  8
2
 62
2
 10
    30.0000
 20
     3.3333
 30
     1.0000
 11
    32.0000
 21
     3.3333
 31
     1.0000
 12
    32.0000
 22
     1.6667
 32
     1.0000
 13
    30.0000
 23
     1.6667
 33
     1.0000
  0
3DFACE
  8
150
 62
150
 10
    30.0000
 20
     1.6667
 30
     0.0000
 11
    30.0000
 21
     0.0000
 31
     0.0000
 12
    32.0000
 22
     0.0000
 32
     0.0000
 13
    32.0000
 23
     1.6667
 33
     0.0000
  0
3DFACE
  8
153
 62
153
 10
    30.0000
 20
     0.0000
 30
     0.0000
 11
    30.0000
 21
     0.0000
 31
     1.0000
 12
    32.0000
 22
     0.0000
 32
     1.0000
 13
    32.0000
 23
     0.0000
 33
     0.0000
  0
3DFACE
  8
2
 62
2
 10
    30.0000
 20
     1.6667
 30
     1.0000
 11
    32.0000
 21
     1.6667
 31
     1.0000
 12
    32.0000
 22
     0.0000
 32
     1.0000
 13
    30.0000
 23
     0.0000
 33
     1.0000
  0
3DFACE
  8
150
 62
150
 10
    32.0000
 20
     5.0000
 30
     0.0000
 11
    32.0000
 21
     3.3333
 31
     0.0000
 12
    34.0000
 22
     3.3333
 32
     0.0000
 13
    34.0000
 23
     5.0000
 33
     0.0000
  0
3DFACE
  8
2
 62
2
 10
    32.0000
 20
     5.0000
 30
     1.0000
 11
    34.0000
 21
     5.0000
 31
     1.0000
 12
    34.0000
 22
     3.3333
 32
     1.0000
 13
    32.0000
 23
     3.3333
 33
     1.0000
  0
3DFACE
  8
150
 62
150
 10
    32.0000
 20
     3.3333
 30
     0.0000
 11
    32.0000
 21
     1.6667
 31
     0.0000
 12
    34.0000
 22
     1.6667
 32
     0.0000
 13
    34.0000
 23
     3.3333
 33
     0.0000
  0
3DFACE
  8
2
 62
2
 10
    32.0000
 20
     3.3333
 30
     1.0000
 11
    34.0000
 21
     3.3333
 31
     1.0000
 12
    34.0000
 22
     1.6667
 32
     1.0000
 13
    32.0000
 23
     1.6667
 33
     1.0000
  0
3DFACE
  8
150
 62
150
 10
    32.0000
 20
     1.6667
 30
     0.0000
 11
    32.0000
 21
     0.0000
 31
     0.0000
 12
    34.0000
 22
     0.0000
 32
     0.0000
 13
    34.0000
 23
     1.6667
 33
     0.0000
  0
3DFACE
  8
153
 62
153
 10
    32.0000
 20
     0.0000
 30
     0.0000
 11
    32.0000
 21
     0.0000
 31
     1.0000
 12
    34.0000
 22
     0.0000
 32
     1.0000
 13
    34.0000
 23
     0.0000
 33
     0.0000
  0
3DFACE
  8
2
 62
2
 10
    32.0000
 20
     1.6667
 30
     1.0000
 11
    34.0000
 21
     1.6667
 31
     1.0000
 12
    34.0000
 22
     0.0000
 32
     1.0000
 13
    32.0000
 23
     0.0000
 33
     1.0000
  0
3DFACE
  8
150
 62
150
 10
    34.0000
 20
     5.0000
 30
     0.0000
 11
    34.0000
 21
     3.3333
 31
     0.0000
 12
    36.0000
 22
     3.3333
 32
     0.0000
 13
    36.0000
 23
     5.0000
 33
     0.0000
  0
3DFACE
  8
2
 62
2
 10
    34.0000
 20
     5.0000
 30
     1.0000
 11
    36.0000
 21
     5.0000
 31
     1.0000
 12
    36.0000
 22
     3.3333
 32
     1.0000
 13
    34.0000
 23
     3.3333
 33
     1.0000
  0
3DFACE
  8
150
 62
150
 10
    34.0000
 20
     3.3333
 30
     0.0000
 11
    34.0000
 21
     1.6667
 31
     0.0000
 12
    36.0000
 22
     1.6667
 32
     0.0000
 13
    36.0000
 23
     3.3333
 33
     0.0000
  0
3DFACE
  8
2
 62
2
 10
    34.0000
 20
     3.3333
 30
     1.0000
 11
    36.0000
 21
     3.3333
 31
     1.0000
 12
    36.0000
 22
     1.6667
 32
     1.0000
 13
    34.0000
 23
     1.6667
 33
     1.0000
  0
3DFACE
  8
150
 62
150
 10
    34.0000
 20
     1.6667
 30
     0.0000
 11
    34.0000
 21
     0.0000
 31
     0.0000
 12
    36.0000
 22
     0.0000
 32
     0.0000
 13
    36.0000
 23
     1.6667
 33
     0.0000
  0
3DFACE
  8
153
 62
153
 10
    34.0000
 20
     0.0000
 30
     0.0000
 11
    34.0000
 21
     0.0000
 31
     1.0000
 12
    36.0000
 22
     0.0000
 32
     1.0000
 13
    36.0000
 23
     0.0000
 33
     0.0000
  0
3DFACE
  8
2
 62
2
 10
    34.0000
 20
     1.6667
 30
     1.0000
 11
    36.0000
 21
     1.6667
 31
     1.0000
 12
    36.0000
 22
     0.0000
 32
     1.0000
 13
    34.0000
 23
     0.0000
 33
     1.0000
  0
3DFACE
  8
150
 62
150
 10
    36.0000
 20
     5.0000
 30
     0.0000
 11
    36.0000
 21
     3.3333
 31
     0.0000
 12
    38.0000
 22
     3.3333
 32
     0.0000
 13
    38.0000
 23
     5.0000
 33
     0.0000
  0
3DFACE
  8
2
 62
2
 10
    36.0000
 20
     5.0000
 30
     1.0000
 11
    38.0000
 21
     5.0000
 31
     1.0000
 12
    38.0000
 22
     3.3333
 32
     1.0000
 13
    36.0000
 23
     3.3333
 33
     1.0000
  0
3DFACE
  8
150
 62
150
 10
    36.0000
 20
     3.3333
 30
     0.0000
 11
    36.0000
 21
     1.6667
 31
     0.0000
 12
    38.0000
 22
     1.6667
 32
     0.0000
 13
    38.0000
 23
     3.3333
 33
     0.0000
  0
3DFACE
  8
2
 62
2
 10
    36.0000
 20
     3.3333
 30
     1.0000
 11
    38.0000
 21
     3.3333
 31
     1.0000
 12
    38.0000
 22
     1.6667
 32
     1.0000
 13
    36.0000
 23
     1.6667
 33
     1.0000
  0
3DFACE
  8
150
 62
150
 10
    36.0000
 20
     1.6667
 30
     0.0000
 11
    36.0000
 21
     0.0000
 31
     0.0000
 12
    38.0000
 22
     0.0000
 32
     0.0000
 13
    38.0000
 23
     1.6667
 33
     0.0000
  0
3DFACE
  8
153
 62
153
 10
    36.0000
 20
     0.0000
 30
     0.0000
 11
    36.0000
 21
     0.0000
 31
     1.0000
 12
    38.0000
 22
     0.0000
 32
     1.0000
 13
    38.0000
 23
     0.0000
 33
     0.0000
  0
3DFACE
  8
2
 62
2
 10
    36.0000
 20
     1.6667
 30
     1.0000
 11
    38.0000
 21
     1.6667
 31
     1.0000
 12
    38.0000
 22
     0.0000
 32
     1.0000
 13
    36.0000
 23
     0.0000
 33
     1.0000
  0
3DFACE
  8
150
 62
150
 10
    38.0000
 20
     5.0000
 30
     0.0000
 11
    38.0000
 21
     3.3333
 31
     0.0000
 12
    40.0000
 22
     3.3333
 32
     0.0000
 13
    40.0000
 23
     5.0000
 33
     0.0000
  0
3DFACE
  8
2
 62
2
 10
    38.0000
 20
     5.0000
 30
     1.0000
 11
    40.0000
 21
     5.0000
 31
     1.0000
 12
    40.0000
 22
     3.3333
 32
     1.0000
 13
    38.0000
 23
     3.3333
 33
     1.0000
  0
3DFACE
  8
150
 62
150
 10
    38.0000
 20
     3.3333
 30
     0.0000
 11
    38.0000
 21
     1.6667
 31
     0.0000
 12
    40.0000
 22
     1.6667
 32
     0.0000
 13
    40.0000
 23
     3.3333
 33
     0.0000
  0
3DFACE
  8
2
 62
2
 10
    38.0000
 20
     3.3333
 30
     1.0000
 11
    40.0000
 21
     3.3333
 31
     1.0000
 12
    40.0000
 22
     1.6667
 32
     1.0000
 13
    38.0000
 23
     1.6667
 33
     1.0000
  0
3DFACE
  8
150
 62
150
 10
    38.0000
 20
     1.6667
 30
     0.0000
 11
    38.0000
 21
     0.0000
 31
     0.0000
 12
    40.0000
 22
     0.0000
 32
     0.0000
 13
    40.0000
 23
     1.6667
 33
     0.0000
  0
3DFACE
  8
153
 62
153
 10
    38.0000
 20
     0.0000
 30
     0.0000
 11
    38.0000
 21
     0.0000
 31
     1.0000
 12
    40.0000
 22
     0.0000
 32
     1.0000
 13
    40.0000
 23
     0.0000
 33
     0.0000
  0
3DFACE
  8
2
 62
2
 10
    38.0000
 20
     1.6667
 30
     1.0000
 11
    40.0000
 21
     1.6667
 31
     1.0000
 12
    40.0000
 22
     0.0000
 32
     1.0000
 13
    38.0000
 23
     0.0000
 33
     1.0000
  0
3DFACE
  8
150
 62
150
 10
    40.0000
 20
     5.0000
 30
     0.0000
 11
    40.0000
 21
     3.3333
 31
     0.0000
 12
    42.0000
 22
     3.3333
 32
     0.0000
 13
    42.0000
 23
     5.0000
 33
     0.0000
  0
3DFACE
  8
2
 62
2
 10
    40.0000
 20
     5.0000
 30
     1.0000
 11
    42.0000
 21
     5.0000
 31
     1.0000
 12
    42.0000
 22
     3.3333
 32
     1.0000
 13
    40.0000
 23
     3.3333
 33
     1.0000
  0
3DFACE
  8
150
 62
150
 10
    40.0000
 20
     3.3333
 30
     0.0000
 11
    40.0000
 21
     1.6667
 31
     0.0000
 12
    42.0000
 22
     1.6667
 32
     0.0000
 13
    42.0000
 23
     3.3333
 33
     0.0000
  0
3DFACE
  8
2
 62
2
 10
    40.0000
 20
     3.3333
 30
     1.0000
 11
    42.0000
 21
     3.3333
 31
     1.0000
 12
    42.0000
 22
     1.6667
 32
     1.0000
 13
    40.0000
 23
     1.6667
 33
     1.0000
  0
3DFACE
  8
150
 62
150
 10
    40.0000
 20
     1.6667
 30
     0.0000
 11
    40.0000
 21
     0.0000
 31
     0.0000
 12
    42.0000
 22
     0.0000
 32
     0.0000
 13
    42.0000
 23
     1.6667
 33
     0.0000
  0
3DFACE
  8
153
 62
153
 10
    40.0000
 20
     0.0000
 30
     0.0000
 11
    40.0000
 21
     0.0000
 31
     1.0000
 12
    42.0000
 22
     0.0000
 32
     1.0000
 13
    42.0000
 23
     0.0000
 33
     0.0000
  0
3DFACE
  8
2
 62
2
 10
    40.0000
 20
     1.6667
 30
     1.0000
 11
    42.0000
 21
     1.6667
 31
     1.0000
 12
    42.0000
 22
     0.0000
 32
     1.0000
 13
    40.0000
 23
     0.0000
 33
     1.0000
  0
3DFACE
  8
150
 62
150
 10
    42.0000
 20
     5.0000
 30
     0.0000
 11
    42.0000
 21
     3.3333
 31
     0.0000
 12
    44.0000
 22
     3.3333
 32
     0.0000
 13
    44.0000
 23
     5.0000
 33
     0.0000
  0
3DFACE
  8
2
 62
2
 10
    42.0000
 20
     5.0000
 30
     1.0000
 11
    44.0000
 21
     5.0000
 31
     1.0000
 12
    44.0000
 22
     3.3333
 32
     1.0000
 13
    42.0000
 23
     3.3333
 33
     1.0000
  0
3DFACE
  8
150
 62
150
 10
    42.0000
 20
     3.3333
 30
     0.0000
 11
    42.0000
 21
     1.6667
 31
     0.0000
 12
    44.0000
 22
     1.6667
 32
     0.0000
 13
    44.0000
 23
     3.3333
 33
     0.0000
  0
3DFACE
  8
2
 62
2
 10
    42.0000
 20
     3.3333
 30
     1.0000
 11
    44.0000
 21
     3.3333
 31
     1.0000
 12
    44.0000
 22
     1.6667
 32
     1.0000
 13
    42.0000
 23
     1.6667
 33
     1.0000
  0
3DFACE
  8
150
 62
150
 10
    42.0000
 20
     1.6667
 30
     0.0000
 11
    42.0000
 21
     0.0000
 31
     0.0000
 12
    44.0000
 22
     0.0000
 32
     0.0000
 13
    44.0000
 23
     1.6667
 33
     0.0000
  0
3DFACE
  8
153
 62
153
 10
    42.0000
 20
     0.0000
 30
     0.0000
 11
    42.0000
 21
     0.0000
 31
     1.0000
 12
    44.0000
 22
     0.0000
 32
     1.0000
 13
    44.0000
 23
     0.0000
 33
     0.0000
  0
3DFACE
  8
2
 62
2
 10
    42.0000
 20
     1.6667
 30
     1.0000
 11
    44.0000
 21
     1.6667
 31
     1.0000
 12
    44.0000
 22
     0.0000
 32
     1.0000
 13
    42.0000
 23
     0.0000
 33
     1.0000
  0
3DFACE
  8
150
 62
150
 10
    44.0000
 20
     5.0000
 30
     0.0000
 11
    44.0000
 21
     3.3333
 31
     0.0000
 12
    46.0000
 22
     3.3333
 32
     0.0000
 13
    46.0000
 23
     5.0000
 33
     0.0000
  0
3DFACE
  8
2
 62
2
 10
    44.0000
 20
     5.0000
 30
     1.0000
 11
    46.0000
 21
     5.0000
 31
     1.0000
 12
    46.0000
 22
     3.3333
 32
     1.0000
 13
    44.0000
 23
     3.3333
 33
     1.0000
  0
3DFACE
  8
150
 62
150
 10
    44.0000
 20
     3.3333
 30
     0.0000
 11
    44.0000
 21
     1.6667
 31
     0.0000
 12
    46.0000
 22
     1.6667
 32
     0.0000
 13
    46.0000
 23
     3.3333
 33
     0.0000
  0
3DFACE
  8
2
 62
2
 10
    44.0000
 20
     3.3333
 30
     1.0000
 11
    46.0000
 21
     3.3333
 31
     1.0000
 12
    46.0000
 22
     1.6667
 32
     1.0000
 13
    44.0000
 23
     1.6667
 33
     1.0000
  0
3DFACE
  8
150
 62
150
 10
    44.0000
 20
     1.6667
 30
     0.0000
 11
    44.0000
 21
     0.0000
 31
     0.0000
 12
    46.0000
 22
     0.0000
 32
     0.0000
 13
    46.0000
 23
     1.6667
 33
     0.0000
  0
3DFACE
  8
153
 62
153
 10
    44.0000
 20
     0.0000
 30
     0.0000
 11
    44.0000
 21
     0.0000
 31
     1.0000
 12
    46.0000
 22
     0.0000
 32
     1.0000
 13
    46.0000
 23
     0.0000
 33
     0.0000
  0
3DFACE
  8
2
 62
2
 10
    44.0000
 20
     1.6667
 30
     1.0000
 11
    46.0000
 21
     1.6667
 31
     1.0000
 12
    46.0000
 22
     0.0000
 32
     1.0000
 13
    44.0000
 23
     0.0000
 33
     1.0000
  0
3DFACE
  8
150
 62
150
 10
    46.0000
 20
     5.0000
 30
     0.0000
 11
    46.0000
 21
     3.3333
 31
     0.0000
 12
    48.0000
 22
     3.3333
 32
     0.0000
 13
    48.0000
 23
     5.0000
 33
     0.0000
  0
3DFACE
  8
2
 62
2
 10
    46.0000
 20
     5.0000
 30
     1.0000
 11
    48.0000
 21
     5.0000
 31
     1.0000
 12
    48.0000
 22
     3.3333
 32
     1.0000
 13
    46.0000
 23
     3.3333
 33
     1.0000
  0
3DFACE
  8
150
 62
150
 10
    46.0000
 20
     3.3333
 30
     0.0000
 11
    46.0000
 21
     1.6667
 31
     0.0000
 12
    48.0000
 22
     1.6667
 32
     0.0000
 13
    48.0000
 23
     3.3333
 33
     0.0000
  0
3DFACE
  8
2
 62
2
 10
    46.0000
 20
     3.3333
 30
     1.0000
 11
    48.0000
 21
     3.3333
 31
     1.0000
 12
    48.0000
 22
     1.6667
 32
     1.0000
 13
    46.0000
 23
     1.6667
 33
     1.0000
  0
3DFACE
  8
150
 62
150
 10
    46.0000
 20
     1.6667
 30
     0.0000
 11
    46.0000
 21
     0.0000
 31
     0.0000
 12
    48.0000
 22
     0.0000
 32
     0.0000
 13
    48.0000
 23
     1.6667
 33
     0.0000
  0
3DFACE
  8
153
 62
153
 10
    46.0000
 20
     0.0000
 30
     0.0000
 11
    46.0000
 21
     0.0000
 31
     1.0000
 12
    48.0000
 22
     0.0000
 32
     1.0000
 13
    48.0000
 23
     0.0000
 33
     0.0000
  0
3DFACE
  8
2
 62
2
 10
    46.0000
 20
     1.6667
 30
     1.0000
 11
    48.0000
 21
     1.6667
 31
     1.0000
 12
    48.0000
 22
     0.0000
 32
     1.0000
 13
    46.0000
 23
     0.0000
 33
     1.0000
  0
3DFACE
  8
150
 62
150
 10
    48.0000
 20
     5.0000
 30
     0.0000
 11
    48.0000
 21
     3.3333
 31
     0.0000
 12
    50.0000
 22
     3.3333
 32
     0.0000
 13
    50.0000
 23
     5.0000
 33
     0.0000
  0
3DFACE
  8
152
 62
152
 10
    50.0000
 20
     3.3333
 30
     0.0000
 11
    50.0000
 21
     3.3333
 31
     1.0000
 12
    50.0000
 22
     5.0000
 32
     1.0000
 13
    50.0000
 23
     5.0000
 33
     0.0000
  0
3DFACE
  8
2
 62
2
 10
    48.0000
 20
     5.0000
 30
     1.0000
 11
    50.0000
 21
     5.0000
 31
     1.0000
 12
    50.0000
 22
     3.3333
 32
     1.0000
 13
    48.0000
 23
     3.3333
 33
     1.0000
  0
3DFACE
  8
150
 62
150
 10
    48.0000
 20
     3.3333
 30
     0.0000
 11
    48.0000
 21
     1.6667
 31
     0.0000
 12
    50.0000
 22
     1.6667
 32
     0.0000
 13
    50.0000
 23
     3.3333
 33
     0.0000
  0
3DFACE
  8
152
 62
152
 10
    50.0000
 20
     1.6667
 30
     0.0000
 11
    50.0000
 21
     1.6667
 31
     1.0000
 12
    50.0000
 22
     3.3333
 32
     1.0000
 13
    50.0000
 23
     3.3333
 33
     0.0000
  0
3DFACE
  8
2
 62
2
 10
    48.0000
 20
     3.3333
 30
     1.0000
 11
    50.0000
 21
     3.3333
 31
     1.0000
 12
    50.0000
 22
     1.6667
 32
     1.0000
 13
    48.0000
 23
     1.6667
 33
     1.0000
  0
3DFACE
  8
150
 62
150
 10
    48.0000
 20
     1.6667
 30
     0.0000
 11
    48.0000
 21
     0.0000
 31
     0.0000
 12
    50.0000
 22
     0.0000
 32
     0.0000
 13
    50.0000
 23
     1.6667
 33
     0.0000
  0
3DFACE
  8
153
 62
153
 10
    48.0000
 20
     0.0000
 30
     0.0000
 11
    48.0000
 21
     0.0000
 31
     1.0000
 12
    50.0000
 22
     0.0000
 32
     1.0000
 13
    50.0000
 23
     0.0000
 33
     0.0000
  0
3DFACE
  8
152
 62
152
 10
    50.0000
 20
     0.0000
 30
     0.0000
 11
    50.0000
 21
     0.0000
 31
     1.0000
 12
    50.0000
 22
     1.6667
 32
     1.0000
 13
    50.0000
 23
     1.6667
 33
     0.0000
  0
3DFACE
  8
2
 62
2
 10
    48.0000
 20
     1.6667
 30
     1.0000
 11
    50.0000
 21
     1.6667
 31
     1.0000
 12
    50.0000
 22
     0.0000
 32
     1.0000
 13
    48.0000
 23
     0.0000
 33
     1.0000
  0
3DFACE
  8
150
 62
150
 10
    30.0000
 20
    15.0000
 30
     0.0000
 11
    28.3330
 21
    14.1670
 31
     0.0000
 12
    29.4170
 22
    14.1670
 32
     0.0000
 13
    31.0000
 23
    15.0000
 33
     0.0000
  0
3DFACE
  8
2
 62
2
 10
    30.0000
 20
    15.0000
 30
     0.0000
 11
    30.0000
 21
    15.0000
 31
     1.0000
 12
    28.3330
 22
    14.1670
 32
     1.0000
 13
    28.3330
 23
    14.1670
 33
     0.0000
  0
3DFACE
  8
154
 62
154
 10
    30.0000
 20
    15.0000
 30
     0.0000
 11
    31.0000
 21
    15.0000
 31
     0.0000
 12
    31.0000
 22
    15.0000
 32
     1.0000
 13
    30.0000
 23
    15.0000
 33
     1.0000
  0
3DFACE
  8
2
 62
2
 10
    30.0000
 20
    15.0000
 30
     1.0000
 11
    31.0000
 21
    15.0000
 31
     1.0000
 12
    29.4170
 22
    14.1670
 32
     1.0000
 13
    28.3330
 23
    14.1670
 33
     1.0000
  0
3DFACE
  8
150
 62
150
 10
    28.3330
 20
    14.1670
 30
     0.0000
 11
    26.6670
 21
    13.3330
 31
     0.0000
 12
    27.8330
 22
    13.3330
 32
     0.0000
 13
    29.4170
 23
    14.1670
 33
     0.0000
  0
3DFACE
  8
2
 62
2
 10
    28.3330
 20
    14.1670
 30
     0.0000
 11
    28.3330
 21
    14.1670
 31
     1.0000
 12
    26.6670
 22
    13.3330
 32
     1.0000
 13
    26.6670
 23
    13.3330
 33
     0.0000
  0
3DFACE
  8
2
 62
2
 10
    28.3330
 20
    14.1670
 30
     1.0000
 11
    29.4170
 21
    14.1670
 31
     1.0000
 12
    27.8330
 22
    13.3330
 32
     1.0000
 13
    26.6670
 23
    13.3330
 33
     1.0000
  0
3DFACE
  8
150
 62
150
 10
    26.6670
 20
    13.3330
 30
     0.0000
 11
    25.0000
 21
    12.5000
 31
     0.0000
 12
    26.2500
 22
    12.5000
 32
     0.0000
 13
    27.8330
 23
    13.3330
 33
     0.0000
  0
3DFACE
  8
2
 62
2
 10
    26.6670
 20
    13.3330
 30
     0.0000
 11
    26.6670
 21
    13.3330
 31
     1.0000
 12
    25.0000
 22
    12.5000
 32
     1.0000
 13
    25.0000
 23
    12.5000
 33
     0.0000
  0
3DFACE
  8
2
 62
2
 10
    26.6670
 20
    13.3330
 30
     1.0000
 11
    27.8330
 21
    13.3330
 31
     1.0000
 12
    26.2500
 22
    12.5000
 32
     1.0000
 13
    25.0000
 23
    12.5000
 33
     1.0000
  0
3DFACE
  8
150
 62
150
 10
    25.0000
 20
    12.5000
 30
     0.0000
 11
    23.3330
 21
    11.6670
 31
     0.0000
 12
    24.6670
 22
    11.6670
 32
     0.0000
 13
    26.2500
 23
    12.5000
 33
     0.0000
  0
3DFACE
  8
2
 62
2
 10
    25.0000
 20
    12.5000
 30
     0.0000
 11
    25.0000
 21
    12.5000
 31
     1.0000
 12
    23.3330
 22
    11.6670
 32
     1.0000
 13
    23.3330
 23
    11.6670
 33
     0.0000
  0
3DFACE
  8
2
 62
2
 10
    25.0000
 20
    12.5000
 30
     1.0000
 11
    26.2500
 21
    12.5000
 31
     1.0000
 12
    24.6670
 22
    11.6670
 32
     1.0000
 13
    23.3330
 23
    11.6670
 33
     1.0000
  0
3DFACE
  8
150
 62
150
 10
    23.3330
 20
    11.6670
 30
     0.0000
 11
    21.6670
 21
    10.8330
 31
     0.0000
 12
    23.0830
 22
    10.8330
 32
     0.0000
 13
    24.6670
 23
    11.6670
 33
     0.0000
  0
3DFACE
  8
2
 62
2
 10
    23.3330
 20
    11.6670
 30
     0.0000
 11
    23.3330
 21
    11.6670
 31
     1.0000
 12
    21.6670
 22
    10.8330
 32
     1.0000
 13
    21.6670
 23
    10.8330
 33
     0.0000
  0
3DFACE
  8
2
 62
2
 10
    23.3330
 20
    11.6670
 30
     1.0000
 11
    24.6670
 21
    11.6670
 31
     1.0000
 12
    23.0830
 22
    10.8330
 32
     1.0000
 13
    21.6670
 23
    10.8330
 33
     1.0000
  0
3DFACE
  8
150
 62
150
 10
    21.6670
 20
    10.8330
 30
     0.0000
 11
    20.0000
 21
    10.0000
 31
     0.0000
 12
    21.5000
 22
    10.0000
 32
     0.0000
 13
    23.0830
 23
    10.8330
 33
     0.0000
  0
3DFACE
  8
2
 62
2
 10
    21.6670
 20
    10.8330
 30
     0.0000
 11
    21.6670
 21
    10.8330
 31
     1.0000
 12
    20.0000
 22
    10.0000
 32
     1.0000
 13
    20.0000
 23
    10.0000
 33
     0.0000
  0
3DFACE
  8
2
 62
2
 10
    21.6670
 20
    10.8330
 30
     1.0000
 11
    23.0830
 21
    10.8330
 31
     1.0000
 12
    21.5000
 22
    10.0000
 32
     1.0000
 13
    20.0000
 23
    10.0000
 33
     1.0000
  0
3DFACE
  8
150
 62
150
 10
    20.0000
 20
    10.0000
 30
     0.0000
 11
    18.3330
 21
     9.1667
 31
     0.0000
 12
    19.9170
 22
     9.1667
 32
     0.0000
 13
    21.5000
 23
    10.0000
 33
     0.0000
  0
3DFACE
  8
2
 62
2
 10
    20.0000
 20
    10.0000
 30
     0.0000
 11
    20.0000
 21
    10.0000
 31
     1.0000
 12
    18.3330
 22
     9.1667
 32
     1.0000
 13
    18.3330
 23
     9.1667
 33
     0.0000
  0
3DFACE
  8
2
 62
2
 10
    20.0000
 20
    10.0000
 30
     1.0000
 11
    21.5000
 21
    10.0000
 31
     1.0000
 12
    19.9170
 22
     9.1667
 32
     1.0000
 13
    18.3330
 23
     9.1667
 33
     1.0000
  0
3DFACE
  8
150
 62
150
 10
    18.3330
 20
     9.1667
 30
     0.0000
 11
    16.6670
 21
     8.3333
 31
     0.0000
 12
    18.3330
 22
     8.3333
 32
     0.0000
 13
    19.9170
 23
     9.1667
 33
     0.0000
  0
3DFACE
  8
2
 62
2
 10
    18.3330
 20
     9.1667
 30
     0.0000
 11
    18.3330
 21
     9.1667
 31
     1.0000
 12
    16.6670
 22
     8.3333
 32
     1.0000
 13
    16.6670
 23
     8.3333
 33
     0.0000
  0
3DFACE
  8
2
 62
2
 10
    18.3330
 20
     9.1667
 30
     1.0000
 11
    19.9170
 21
     9.1667
 31
     1.0000
 12
    18.3330
 22
     8.3333
 32
     1.0000
 13
    16.6670
 23
     8.3333
 33
     1.0000
  0
3DFACE
  8
150
 62
150
 10
    16.6670
 20
     8.3333
 30
     0.0000
 11
    15.0000
 21
     7.5000
 31
     0.0000
 12
    16.7500
 22
     7.5000
 32
     0.0000
 13
    18.3330
 23
     8.3333
 33
     0.0000
  0
3DFACE
  8
2
 62
2
 10
    16.6670
 20
     8.3333
 30
     0.0000
 11
    16.6670
 21
     8.3333
 31
     1.0000
 12
    15.0000
 22
     7.5000
 32
     1.0000
 13
    15.0000
 23
     7.5000
 33
     0.0000
  0
3DFACE
  8
2
 62
2
 10
    16.6670
 20
     8.3333
 30
     1.0000
 11
    18.3330
 21
     8.3333
 31
     1.0000
 12
    16.7500
 22
     7.5000
 32
     1.0000
 13
    15.0000
 23
     7.5000
 33
     1.0000
  0
3DFACE
  8
150
 62
150
 10
    15.0000
 20
     7.5000
 30
     0.0000
 11
    13.3330
 21
     6.6667
 31
     0.0000
 12
    15.1670
 22
     6.6667
 32
     0.0000
 13
    16.7500
 23
     7.5000
 33
     0.0000
  0
3DFACE
  8
2
 62
2
 10
    15.0000
 20
     7.5000
 30
     0.0000
 11
    15.0000
 21
     7.5000
 31
     1.0000
 12
    13.3330
 22
     6.6667
 32
     1.0000
 13
    13.3330
 23
     6.6667
 33
     0.0000
  0
3DFACE
  8
2
 62
2
 10
    15.0000
 20
     7.5000
 30
     1.0000
 11
    16.7500
 21
     7.5000
 31
     1.0000
 12
    15.1670
 22
     6.6667
 32
     1.0000
 13
    13.3330
 23
     6.6667
 33
     1.0000
  0
3DFACE
  8
150
 62
150
 10
    13.3330
 20
     6.6667
 30
     0.0000
 11
    11.6670
 21
     5.8333
 31
     0.0000
 12
    13.5830
 22
     5.8333
 32
     0.0000
 13
    15.1670
 23
     6.6667
 33
     0.0000
  0
3DFACE
  8
2
 62
2
 10
    13.3330
 20
     6.6667
 30
     0.0000
 11
    13.3330
 21
     6.6667
 31
     1.0000
 12
    11.6670
 22
     5.8333
 32
     1.0000
 13
    11.6670
 23
     5.8333
 33
     0.0000
  0
3DFACE
  8
2
 62
2
 10
    13.3330
 20
     6.6667
 30
     1.0000
 11
    15.1670
 21
     6.6667
 31
     1.0000
 12
    13.5830
 22
     5.8333
 32
     1.0000
 13
    11.6670
 23
     5.8333
 33
     1.0000
  0
3DFACE
  8
150
 62
150
 10
    11.6670
 20
     5.8333
 30
     0.0000
 11
    10.0000
 21
     5.0000
 31
     0.0000
 12
    12.0000
 22
     5.0000
 32
     0.0000
 13
    13.5830
 23
     5.8333
 33
     0.0000
  0
3DFACE
  8
2
 62
2
 10
    11.6670
 20
     5.8333
 30
     0.0000
 11
    11.6670
 21
     5.8333
 31
     1.0000
 12
    10.0000
 22
     5.0000
 32
     1.0000
 13
    10.0000
 23
     5.0000
 33
     0.0000
  0
3DFACE
  8
2
 62
2
 10
    11.6670
 20
     5.8333
 30
     1.0000
 11
    13.5830
 21
     5.8333
 31
     1.0000
 12
    12.0000
 22
     5.0000
 32
     1.0000
 13
    10.0000
 23
     5.0000
 33
     1.0000
  0
3DFACE
  8
150
 62
150
 10
    31.0000
 20
    15.0000
 30
     0.0000
 11
    29.4170
 21
    14.1670
 31
     0.0000
 12
    30.5000
 22
    14.1670
 32
     0.0000
 13
    32.0000
 23
    15.0000
 33
     0.0000
  0
3DFACE
  8
154
 62
154
 10
    31.0000
 20
    15.0000
 30
     0.0000
 11
    32.0000
 21
    15.0000
 31
     0.0000
 12
    32.0000
 22
    15.0000
 32
     1.0000
 13
    31.0000
 23
    15.0000
 33
     1.0000
  0
3DFACE
  8
2
 62
2
 10
    31.0000
 20
    15.0000
 30
     1.0000
 11
    32.0000
 21
    15.0000
 31
     1.0000
 12
    30.5000
 22
    14.1670
 32
     1.0000
 13
    29.4170
 23
    14.1670
 33
     1.0000
  0
3DFACE
  8
150
 62
150
 10
    29.4170
 20
    14.1670
 30
     0.0000
 11
    27.8330
 21
    13.3330
 31
     0.0000
 12
    29.0000
 22
    13.3330
 32
     0.0000
 13
    30.5000
 23
    14.1670
 33
     0.0000
  0
3DFACE
  8
2
 62
2
 10
    29.4170
 20
    14.1670
 30
     1.0000
 11
    30.5000
 21
    14.1670
 31
     1.0000
 12
    29.0000
 22
    13.3330
 32
     1.0000
 13
    27.8330
 23
    13.3330
 33
     1.0000
  0
3DFACE
  8
150
 62
150
 10
    27.8330
 20
    13.3330
 30
     0.0000
 11
    26.2500
 21
    12.5000
 31
     0.0000
 12
    27.5000
 22
    12.5000
 32
     0.0000
 13
    29.0000
 23
    13.3330
 33
     0.0000
  0
3DFACE
  8
2
 62
2
 10
    27.8330
 20
    13.3330
 30
     1.0000
 11
    29.0000
 21
    13.3330
 31
     1.0000
 12
    27.5000
 22
    12.5000
 32
     1.0000
 13
    26.2500
 23
    12.5000
 33
     1.0000
  0
3DFACE
  8
150
 62
150
 10
    26.2500
 20
    12.5000
 30
     0.0000
 11
    24.6670
 21
    11.6670
 31
     0.0000
 12
    26.0000
 22
    11.6670
 32
     0.0000
 13
    27.5000
 23
    12.5000
 33
     0.0000
  0
3DFACE
  8
2
 62
2
 10
    26.2500
 20
    12.5000
 30
     1.0000
 11
    27.5000
 21
    12.5000
 31
     1.0000
 12
    26.0000
 22
    11.6670
 32
     1.0000
 13
    24.6670
 23
    11.6670
 33
     1.0000
  0
3DFACE
  8
150
 62
150
 10
    24.6670
 20
    11.6670
 30
     0.0000
 11
    23.0830
 21
    10.8330
 31
     0.0000
 12
    24.5000
 22
    10.8330
 32
     0.0000
 13
    26.0000
 23
    11.6670
 33
     0.0000
  0
3DFACE
  8
2
 62
2
 10
    24.6670
 20
    11.6670
 30
     1.0000
 11
    26.0000
 21
    11.6670
 31
     1.0000
 12
    24.5000
 22
    10.8330
 32
     1.0000
 13
    23.0830
 23
    10.8330
 33
     1.0000
  0
3DFACE
  8
150
 62
150
 10
    23.0830
 20
    10.8330
 30
     0.0000
 11
    21.5000
 21
    10.0000
 31
     0.0000
 12
    23.0000
 22
    10.0000
 32
     0.0000
 13
    24.5000
 23
    10.8330
 33
     0.0000
  0
3DFACE
  8
2
 62
2
 10
    23.0830
 20
    10.8330
 30
     1.0000
 11
    24.5000
 21
    10.8330
 31
     1.0000
 12
    23.0000
 22
    10.0000
 32
     1.0000
 13
    21.5000
 23
    10.0000
 33
     1.0000
  0
3DFACE
  8
150
 62
150
 10
    21.5000
 20
    10.0000
 30
     0.0000
 11
    19.9170
 21
     9.1667
 31
     0.0000
 12
    21.5000
 22
     9.1667
 32
     0.0000
 13
    23.0000
 23
    10.0000
 33
     0.0000
  0
3DFACE
  8
2
 62
2
 10
    21.5000
 20
    10.0000
 30
     1.0000
 11
    23.0000
 21
    10.0000
 31
     1.0000
 12
    21.5000
 22
     9.1667
 32
     1.0000
 13
    19.9170
 23
     9.1667
 33
     1.0000
  0
3DFACE
  8
150
 62
150
 10
    19.9170
 20
     9.1667
 30
     0.0000
 11
    18.3330
 21
     8.3333
 31
     0.0000
 12
    20.0000
 22
     8.3333
 32
     0.0000
 13
    21.5000
 23
     9.1667
 33
     0.0000
  0
3DFACE
  8
2
 62
2
 10
    19.9170
 20
     9.1667
 30
     1.0000
 11
    21.5000
 21
     9.1667
 31
     1.0000
 12
    20.0000
 22
     8.3333
 32
     1.0000
 13
    18.3330
 23
     8.3333
 33
     1.0000
  0
3DFACE
  8
150
 62
150
 10
    18.3330
 20
     8.3333
 30
     0.0000
 11
    16.7500
 21
     7.5000
 31
     0.0000
 12
    18.5000
 22
     7.5000
 32
     0.0000
 13
    20.0000
 23
     8.3333
 33
     0.0000
  0
3DFACE
  8
2
 62
2
 10
    18.3330
 20
     8.3333
 30
     1.0000
 11
    20.0000
 21
     8.3333
 31
     1.0000
 12
    18.5000
 22
     7.5000
 32
     1.0000
 13
    16.7500
 23
     7.5000
 33
     1.0000
  0
3DFACE
  8
150
 62
150
 10
    16.7500
 20
     7.5000
 30
     0.0000
 11
    15.1670
 21
     6.6667
 31
     0.0000
 12
    17.0000
 22
     6.6667
 32
     0.0000
 13
    18.5000
 23
     7.5000
 33
     0.0000
  0
3DFACE
  8
2
 62
2
 10
    16.7500
 20
     7.5000
 30
     1.0000
 11
    18.5000
 21
     7.5000
 31
     1.0000
 12
    17.0000
 22
     6.6667
 32
     1.0000
 13
    15.1670
 23
     6.6667
 33
     1.0000
  0
3DFACE
  8
150
 62
150
 10
    15.1670
 20
     6.6667
 30
     0.0000
 11
    13.5830
 21
     5.8333
 31
     0.0000
 12
    15.5000
 22
     5.8333
 32
     0.0000
 13
    17.0000
 23
     6.6667
 33
     0.0000
  0
3DFACE
  8
2
 62
2
 10
    15.1670
 20
     6.6667
 30
     1.0000
 11
    17.0000
 21
     6.6667
 31
     1.0000
 12
    15.5000
 22
     5.8333
 32
     1.0000
 13
    13.5830
 23
     5.8333
 33
     1.0000
  0
3DFACE
  8
150
 62
150
 10
    13.5830
 20
     5.8333
 30
     0.0000
 11
    12.0000
 21
     5.0000
 31
     0.0000
 12
    14.0000
 22
     5.0000
 32
     0.0000
 13
    15.5000
 23
     5.8333
 33
     0.0000
  0
3DFACE
  8
2
 62
2
 10
    13.5830
 20
     5.8333
 30
     1.0000
 11
    15.5000
 21
     5.8333
 31
     1.0000
 12
    14.0000
 22
     5.0000
 32
     1.0000
 13
    12.0000
 23
     5.0000
 33
     1.0000
  0
3DFACE
  8
150
 62
150
 10
    32.0000
 20
    15.0000
 30
     0.0000
 11
    30.5000
 21
    14.1670
 31
     0.0000
 12
    31.5830
 22
    14.1670
 32
     0.0000
 13
    33.0000
 23
    15.0000
 33
     0.0000
  0
3DFACE
  8
154
 62
154
 10
    32.0000
 20
    15.0000
 30
     0.0000
 11
    33.0000
 21
    15.0000
 31
     0.0000
 12
    33.0000
 22
    15.0000
 32
     1.0000
 13
    32.0000
 23
    15.0000
 33
     1.0000
  0
3DFACE
  8
2
 62
2
 10
    32.0000
 20
    15.0000
 30
     1.0000
 11
    33.0000
 21
    15.0000
 31
     1.0000
 12
    31.5830
 22
    14.1670
 32
     1.0000
 13
    30.5000
 23
    14.1670
 33
     1.0000
  0
3DFACE
  8
150
 62
150
 10
    30.5000
 20
    14.1670
 30
     0.0000
 11
    29.0000
 21
    13.3330
 31
     0.0000
 12
    30.1670
 22
    13.3330
 32
     0.0000
 13
    31.5830
 23
    14.1670
 33
     0.0000
  0
3DFACE
  8
2
 62
2
 10
    30.5000
 20
    14.1670
 30
     1.0000
 11
    31.5830
 21
    14.1670
 31
     1.0000
 12
    30.1670
 22
    13.3330
 32
     1.0000
 13
    29.0000
 23
    13.3330
 33
     1.0000
  0
3DFACE
  8
150
 62
150
 10
    29.0000
 20
    13.3330
 30
     0.0000
 11
    27.5000
 21
    12.5000
 31
     0.0000
 12
    28.7500
 22
    12.5000
 32
     0.0000
 13
    30.1670
 23
    13.3330
 33
     0.0000
  0
3DFACE
  8
2
 62
2
 10
    29.0000
 20
    13.3330
 30
     1.0000
 11
    30.1670
 21
    13.3330
 31
     1.0000
 12
    28.7500
 22
    12.5000
 32
     1.0000
 13
    27.5000
 23
    12.5000
 33
     1.0000
  0
3DFACE
  8
150
 62
150
 10
    27.5000
 20
    12.5000
 30
     0.0000
 11
    26.0000
 21
    11.6670
 31
     0.0000
 12
    27.3330
 22
    11.6670
 32
     0.0000
 13
    28.7500
 23
    12.5000
 33
     0.0000
  0
3DFACE
  8
2
 62
2
 10
    27.5000
 20
    12.5000
 30
     1.0000
 11
    28.7500
 21
    12.5000
 31
     1.0000
 12
    27.3330
 22
    11.6670
 32
     1.0000
 13
    26.0000
 23
    11.6670
 33
     1.0000
  0
3DFACE
  8
150
 62
150
 10
    26.0000
 20
    11.6670
 30
     0.0000
 11
    24.5000
 21
    10.8330
 31
     0.0000
 12
    25.9170
 22
    10.8330
 32
     0.0000
 13
    27.3330
 23
    11.6670
 33
     0.0000
  0
3DFACE
  8
2
 62
2
 10
    26.0000
 20
    11.6670
 30
     1.0000
 11
    27.3330
 21
    11.6670
 31
     1.0000
 12
    25.9170
 22
    10.8330
 32
     1.0000
 13
    24.5000
 23
    10.8330
 33
     1.0000
  0
3DFACE
  8
150
 62
150
 10
    24.5000
 20
    10.8330
 30
     0.0000
 11
    23.0000
 21
    10.0000
 31
     0.0000
 12
    24.5000
 22
    10.0000
 32
     0.0000
 13
    25.9170
 23
    10.8330
 33
     0.0000
  0
3DFACE
  8
2
 62
2
 10
    24.5000
 20
    10.8330
 30
     1.0000
 11
    25.9170
 21
    10.8330
 31
     1.0000
 12
    24.5000
 22
    10.0000
 32
     1.0000
 13
    23.0000
 23
    10.0000
 33
     1.0000
  0
3DFACE
  8
150
 62
150
 10
    23.0000
 20
    10.0000
 30
     0.0000
 11
    21.5000
 21
     9.1667
 31
     0.0000
 12
    23.0830
 22
     9.1667
 32
     0.0000
 13
    24.5000
 23
    10.0000
 33
     0.0000
  0
3DFACE
  8
2
 62
2
 10
    23.0000
 20
    10.0000
 30
     1.0000
 11
    24.5000
 21
    10.0000
 31
     1.0000
 12
    23.0830
 22
     9.1667
 32
     1.0000
 13
    21.5000
 23
     9.1667
 33
     1.0000
  0
3DFACE
  8
150
 62
150
 10
    21.5000
 20
     9.1667
 30
     0.0000
 11
    20.0000
 21
     8.3333
 31
     0.0000
 12
    21.6670
 22
     8.3333
 32
     0.0000
 13
    23.0830
 23
     9.1667
 33
     0.0000
  0
3DFACE
  8
2
 62
2
 10
    21.5000
 20
     9.1667
 30
     1.0000
 11
    23.0830
 21
     9.1667
 31
     1.0000
 12
    21.6670
 22
     8.3333
 32
     1.0000
 13
    20.0000
 23
     8.3333
 33
     1.0000
  0
3DFACE
  8
150
 62
150
 10
    20.0000
 20
     8.3333
 30
     0.0000
 11
    18.5000
 21
     7.5000
 31
     0.0000
 12
    20.2500
 22
     7.5000
 32
     0.0000
 13
    21.6670
 23
     8.3333
 33
     0.0000
  0
3DFACE
  8
2
 62
2
 10
    20.0000
 20
     8.3333
 30
     1.0000
 11
    21.6670
 21
     8.3333
 31
     1.0000
 12
    20.2500
 22
     7.5000
 32
     1.0000
 13
    18.5000
 23
     7.5000
 33
     1.0000
  0
3DFACE
  8
150
 62
150
 10
    18.5000
 20
     7.5000
 30
     0.0000
 11
    17.0000
 21
     6.6667
 31
     0.0000
 12
    18.8330
 22
     6.6667
 32
     0.0000
 13
    20.2500
 23
     7.5000
 33
     0.0000
  0
3DFACE
  8
2
 62
2
 10
    18.5000
 20
     7.5000
 30
     1.0000
 11
    20.2500
 21
     7.5000
 31
     1.0000
 12
    18.8330
 22
     6.6667
 32
     1.0000
 13
    17.0000
 23
     6.6667
 33
     1.0000
  0
3DFACE
  8
150
 62
150
 10
    17.0000
 20
     6.6667
 30
     0.0000
 11
    15.5000
 21
     5.8333
 31
     0.0000
 12
    17.4170
 22
     5.8333
 32
     0.0000
 13
    18.8330
 23
     6.6667
 33
     0.0000
  0
3DFACE
  8
2
 62
2
 10
    17.0000
 20
     6.6667
 30
     1.0000
 11
    18.8330
 21
     6.6667
 31
     1.0000
 12
    17.4170
 22
     5.8333
 32
     1.0000
 13
    15.5000
 23
     5.8333
 33
     1.0000
  0
3DFACE
  8
150
 62
150
 10
    15.5000
 20
     5.8333
 30
     0.0000
 11
    14.0000
 21
     5.0000
 31
     0.0000
 12
    16.0000
 22
     5.0000
 32
     0.0000
 13
    17.4170
 23
     5.8333
 33
     0.0000
  0
3DFACE
  8
2
 62
2
 10
    15.5000
 20
     5.8333
 30
     1.0000
 11
    17.4170
 21
     5.8333
 31
     1.0000
 12
    16.0000
 22
     5.0000
 32
     1.0000
 13
    14.0000
 23
     5.0000
 33
     1.0000
  0
3DFACE
  8
150
 62
150
 10
    33.0000
 20
    15.0000
 30
     0.0000
 11
    31.5830
 21
    14.1670
 31
     0.0000
 12
    32.6670
 22
    14.1670
 32
     0.0000
 13
    34.0000
 23
    15.0000
 33
     0.0000
  0
3DFACE
  8
154
 62
154
 10
    33.0000
 20
    15.0000
 30
     0.0000
 11
    34.0000
 21
    15.0000
 31
     0.0000
 12
    34.0000
 22
    15.0000
 32
     1.0000
 13
    33.0000
 23
    15.0000
 33
     1.0000
  0
3DFACE
  8
2
 62
2
 10
    33.0000
 20
    15.0000
 30
     1.0000
 11
    34.0000
 21
    15.0000
 31
     1.0000
 12
    32.6670
 22
    14.1670
 32
     1.0000
 13
    31.5830
 23
    14.1670
 33
     1.0000
  0
3DFACE
  8
150
 62
150
 10
    31.5830
 20
    14.1670
 30
     0.0000
 11
    30.1670
 21
    13.3330
 31
     0.0000
 12
    31.3330
 22
    13.3330
 32
     0.0000
 13
    32.6670
 23
    14.1670
 33
     0.0000
  0
3DFACE
  8
2
 62
2
 10
    31.5830
 20
    14.1670
 30
     1.0000
 11
    32.6670
 21
    14.1670
 31
     1.0000
 12
    31.3330
 22
    13.3330
 32
     1.0000
 13
    30.1670
 23
    13.3330
 33
     1.0000
  0
3DFACE
  8
150
 62
150
 10
    30.1670
 20
    13.3330
 30
     0.0000
 11
    28.7500
 21
    12.5000
 31
     0.0000
 12
    30.0000
 22
    12.5000
 32
     0.0000
 13
    31.3330
 23
    13.3330
 33
     0.0000
  0
3DFACE
  8
2
 62
2
 10
    30.1670
 20
    13.3330
 30
     1.0000
 11
    31.3330
 21
    13.3330
 31
     1.0000
 12
    30.0000
 22
    12.5000
 32
     1.0000
 13
    28.7500
 23
    12.5000
 33
     1.0000
  0
3DFACE
  8
150
 62
150
 10
    28.7500
 20
    12.5000
 30
     0.0000
 11
    27.3330
 21
    11.6670
 31
     0.0000
 12
    28.6670
 22
    11.6670
 32
     0.0000
 13
    30.0000
 23
    12.5000
 33
     0.0000
  0
3DFACE
  8
2
 62
2
 10
    28.7500
 20
    12.5000
 30
     1.0000
 11
    30.0000
 21
    12.5000
 31
     1.0000
 12
    28.6670
 22
    11.6670
 32
     1.0000
 13
    27.3330
 23
    11.6670
 33
     1.0000
  0
3DFACE
  8
150
 62
150
 10
    27.3330
 20
    11.6670
 30
     0.0000
 11
    25.9170
 21
    10.8330
 31
     0.0000
 12
    27.3330
 22
    10.8330
 32
     0.0000
 13
    28.6670
 23
    11.6670
 33
     0.0000
  0
3DFACE
  8
2
 62
2
 10
    27.3330
 20
    11.6670
 30
     1.0000
 11
    28.6670
 21
    11.6670
 31
     1.0000
 12
    27.3330
 22
    10.8330
 32
     1.0000
 13
    25.9170
 23
    10.8330
 33
     1.0000
  0
3DFACE
  8
150
 62
150
 10
    25.9170
 20
    10.8330
 30
     0.0000
 11
    24.5000
 21
    10.0000
 31
     0.0000
 12
    26.0000
 22
    10.0000
 32
     0.0000
 13
    27.3330
 23
    10.8330
 33
     0.0000
  0
3DFACE
  8
2
 62
2
 10
    25.9170
 20
    10.8330
 30
     1.0000
 11
    27.3330
 21
    10.8330
 31
     1.0000
 12
    26.0000
 22
    10.0000
 32
     1.0000
 13
    24.5000
 23
    10.0000
 33
     1.0000
  0
3DFACE
  8
150
 62
150
 10
    24.5000
 20
    10.0000
 30
     0.0000
 11
    23.0830
 21
     9.1667
 31
     0.0000
 12
    24.6670
 22
     9.1667
 32
     0.0000
 13
    26.0000
 23
    10.0000
 33
     0.0000
  0
3DFACE
  8
2
 62
2
 10
    24.5000
 20
    10.0000
 30
     1.0000
 11
    26.0000
 21
    10.0000
 31
     1.0000
 12
    24.6670
 22
     9.1667
 32
     1.0000
 13
    23.0830
 23
     9.1667
 33
     1.0000
  0
3DFACE
  8
150
 62
150
 10
    23.0830
 20
     9.1667
 30
     0.0000
 11
    21.6670
 21
     8.3333
 31
     0.0000
 12
    23.3330
 22
     8.3333
 32
     0.0000
 13
    24.6670
 23
     9.1667
 33
     0.0000
  0
3DFACE
  8
2
 62
2
 10
    23.0830
 20
     9.1667
 30
     1.0000
 11
    24.6670
 21
     9.1667
 31
     1.0000
 12
    23.3330
 22
     8.3333
 32
     1.0000
 13
    21.6670
 23
     8.3333
 33
     1.0000
  0
3DFACE
  8
150
 62
150
 10
    21.6670
 20
     8.3333
 30
     0.0000
 11
    20.2500
 21
     7.5000
 31
     0.0000
 12
    22.0000
 22
     7.5000
 32
     0.0000
 13
    23.3330
 23
     8.3333
 33
     0.0000
  0
3DFACE
  8
2
 62
2
 10
    21.6670
 20
     8.3333
 30
     1.0000
 11
    23.3330
 21
     8.3333
 31
     1.0000
 12
    22.0000
 22
     7.5000
 32
     1.0000
 13
    20.2500
 23
     7.5000
 33
     1.0000
  0
3DFACE
  8
150
 62
150
 10
    20.2500
 20
     7.5000
 30
     0.0000
 11
    18.8330
 21
     6.6667
 31
     0.0000
 12
    20.6670
 22
     6.6667
 32
     0.0000
 13
    22.0000
 23
     7.5000
 33
     0.0000
  0
3DFACE
  8
2
 62
2
 10
    20.2500
 20
     7.5000
 30
     1.0000
 11
    22.0000
 21
     7.5000
 31
     1.0000
 12
    20.6670
 22
     6.6667
 32
     1.0000
 13
    18.8330
 23
     6.6667
 33
     1.0000
  0
3DFACE
  8
150
 62
150
 10
    18.8330
 20
     6.6667
 30
     0.0000
 11
    17.4170
 21
     5.8333
 31
     0.0000
 12
    19.3330
 22
     5.8333
 32
     0.0000
 13
    20.6670
 23
     6.6667
 33
     0.0000
  0
3DFACE
  8
2
 62
2
 10
    18.8330
 20
     6.6667
 30
     1.0000
 11
    20.6670
 21
     6.6667
 31
     1.0000
 12
    19.3330
 22
     5.8333
 32
     1.0000
 13
    17.4170
 23
     5.8333
 33
     1.0000
  0
3DFACE
  8
150
 62
150
 10
    17.4170
 20
     5.8333
 30
     0.0000
 11
    16.0000
 21
     5.0000
 31
     0.0000
 12
    18.0000
 22
     5.0000
 32
     0.0000
 13
    19.3330
 23
     5.8333
 33
     0.0000
  0
3DFACE
  8
2
 62
2
 10
    17.4170
 20
     5.8333
 30
     1.0000
 11
    19.3330
 21
     5.8333
 31
     1.0000
 12
    18.0000
 22
     5.0000
 32
     1.0000
 13
    16.0000
 23
     5.0000
 33
     1.0000
  0
3DFACE
  8
150
 62
150
 10
    34.0000
 20
    15.0000
 30
     0.0000
 11
    32.6670
 21
    14.1670
 31
     0.0000
 12
    33.7500
 22
    14.1670
 32
     0.0000
 13
    35.0000
 23
    15.0000
 33
     0.0000
  0
3DFACE
  8
154
 62
154
 10
    34.0000
 20
    15.0000
 30
     0.0000
 11
    35.0000
 21
    15.0000
 31
     0.0000
 12
    35.0000
 22
    15.0000
 32
     1.0000
 13
    34.0000
 23
    15.0000
 33
     1.0000
  0
3DFACE
  8
2
 62
2
 10
    34.0000
 20
    15.0000
 30
     1.0000
 11
    35.0000
 21
    15.0000
 31
     1.0000
 12
    33.7500
 22
    14.1670
 32
     1.0000
 13
    32.6670
 23
    14.1670
 33
     1.0000
  0
3DFACE
  8
150
 62
150
 10
    32.6670
 20
    14.1670
 30
     0.0000
 11
    31.3330
 21
    13.3330
 31
     0.0000
 12
    32.5000
 22
    13.3330
 32
     0.0000
 13
    33.7500
 23
    14.1670
 33
     0.0000
  0
3DFACE
  8
2
 62
2
 10
    32.6670
 20
    14.1670
 30
     1.0000
 11
    33.7500
 21
    14.1670
 31
     1.0000
 12
    32.5000
 22
    13.3330
 32
     1.0000
 13
    31.3330
 23
    13.3330
 33
     1.0000
  0
3DFACE
  8
150
 62
150
 10
    31.3330
 20
    13.3330
 30
     0.0000
 11
    30.0000
 21
    12.5000
 31
     0.0000
 12
    31.2500
 22
    12.5000
 32
     0.0000
 13
    32.5000
 23
    13.3330
 33
     0.0000
  0
3DFACE
  8
2
 62
2
 10
    31.3330
 20
    13.3330
 30
     1.0000
 11
    32.5000
 21
    13.3330
 31
     1.0000
 12
    31.2500
 22
    12.5000
 32
     1.0000
 13
    30.0000
 23
    12.5000
 33
     1.0000
  0
3DFACE
  8
150
 62
150
 10
    30.0000
 20
    12.5000
 30
     0.0000
 11
    28.6670
 21
    11.6670
 31
     0.0000
 12
    30.0000
 22
    11.6670
 32
     0.0000
 13
    31.2500
 23
    12.5000
 33
     0.0000
  0
3DFACE
  8
2
 62
2
 10
    30.0000
 20
    12.5000
 30
     1.0000
 11
    31.2500
 21
    12.5000
 31
     1.0000
 12
    30.0000
 22
    11.6670
 32
     1.0000
 13
    28.6670
 23
    11.6670
 33
     1.0000
  0
3DFACE
  8
150
 62
150
 10
    28.6670
 20
    11.6670
 30
     0.0000
 11
    27.3330
 21
    10.8330
 31
     0.0000
 12
    28.7500
 22
    10.8330
 32
     0.0000
 13
    30.0000
 23
    11.6670
 33
     0.0000
  0
3DFACE
  8
2
 62
2
 10
    28.6670
 20
    11.6670
 30
     1.0000
 11
    30.0000
 21
    11.6670
 31
     1.0000
 12
    28.7500
 22
    10.8330
 32
     1.0000
 13
    27.3330
 23
    10.8330
 33
     1.0000
  0
3DFACE
  8
150
 62
150
 10
    27.3330
 20
    10.8330
 30
     0.0000
 11
    26.0000
 21
    10.0000
 31
     0.0000
 12
    27.5000
 22
    10.0000
 32
     0.0000
 13
    28.7500
 23
    10.8330
 33
     0.0000
  0
3DFACE
  8
2
 62
2
 10
    27.3330
 20
    10.8330
 30
     1.0000
 11
    28.7500
 21
    10.8330
 31
     1.0000
 12
    27.5000
 22
    10.0000
 32
     1.0000
 13
    26.0000
 23
    10.0000
 33
     1.0000
  0
3DFACE
  8
150
 62
150
 10
    26.0000
 20
    10.0000
 30
     0.0000
 11
    24.6670
 21
     9.1667
 31
     0.0000
 12
    26.2500
 22
     9.1667
 32
     0.0000
 13
    27.5000
 23
    10.0000
 33
     0.0000
  0
3DFACE
  8
2
 62
2
 10
    26.0000
 20
    10.0000
 30
     1.0000
 11
    27.5000
 21
    10.0000
 31
     1.0000
 12
    26.2500
 22
     9.1667
 32
     1.0000
 13
    24.6670
 23
     9.1667
 33
     1.0000
  0
3DFACE
  8
150
 62
150
 10
    24.6670
 20
     9.1667
 30
     0.0000
 11
    23.3330
 21
     8.3333
 31
     0.0000
 12
    25.0000
 22
     8.3333
 32
     0.0000
 13
    26.2500
 23
     9.1667
 33
     0.0000
  0
3DFACE
  8
2
 62
2
 10
    24.6670
 20
     9.1667
 30
     1.0000
 11
    26.2500
 21
     9.1667
 31
     1.0000
 12
    25.0000
 22
     8.3333
 32
     1.0000
 13
    23.3330
 23
     8.3333
 33
     1.0000
  0
3DFACE
  8
150
 62
150
 10
    23.3330
 20
     8.3333
 30
     0.0000
 11
    22.0000
 21
     7.5000
 31
     0.0000
 12
    23.7500
 22
     7.5000
 32
     0.0000
 13
    25.0000
 23
     8.3333
 33
     0.0000
  0
3DFACE
  8
2
 62
2
 10
    23.3330
 20
     8.3333
 30
     1.0000
 11
    25.0000
 21
     8.3333
 31
     1.0000
 12
    23.7500
 22
     7.5000
 32
     1.0000
 13
    22.0000
 23
     7.5000
 33
     1.0000
  0
3DFACE
  8
150
 62
150
 10
    22.0000
 20
     7.5000
 30
     0.0000
 11
    20.6670
 21
     6.6667
 31
     0.0000
 12
    22.5000
 22
     6.6667
 32
     0.0000
 13
    23.7500
 23
     7.5000
 33
     0.0000
  0
3DFACE
  8
2
 62
2
 10
    22.0000
 20
     7.5000
 30
     1.0000
 11
    23.7500
 21
     7.5000
 31
     1.0000
 12
    22.5000
 22
     6.6667
 32
     1.0000
 13
    20.6670
 23
     6.6667
 33
     1.0000
  0
3DFACE
  8
150
 62
150
 10
    20.6670
 20
     6.6667
 30
     0.0000
 11
    19.3330
 21
     5.8333
 31
     0.0000
 12
    21.2500
 22
     5.8333
 32
     0.0000
 13
    22.5000
 23
     6.6667
 33
     0.0000
  0
3DFACE
  8
2
 62
2
 10
    20.6670
 20
     6.6667
 30
     1.0000
 11
    22.5000
 21
     6.6667
 31
     1.0000
 12
    21.2500
 22
     5.8333
 32
     1.0000
 13
    19.3330
 23
     5.8333
 33
     1.0000
  0
3DFACE
  8
150
 62
150
 10
    19.3330
 20
     5.8333
 30
     0.0000
 11
    18.0000
 21
     5.0000
 31
     0.0000
 12
    20.0000
 22
     5.0000
 32
     0.0000
 13
    21.2500
 23
     5.8333
 33
     0.0000
  0
3DFACE
  8
2
 62
2
 10
    19.3330
 20
     5.8333
 30
     1.0000
 11
    21.2500
 21
     5.8333
 31
     1.0000
 12
    20.0000
 22
     5.0000
 32
     1.0000
 13
    18.0000
 23
     5.0000
 33
     1.0000
  0
3DFACE
  8
150
 62
150
 10
    35.0000
 20
    15.0000
 30
     0.0000
 11
    33.7500
 21
    14.1670
 31
     0.0000
 12
    34.8330
 22
    14.1670
 32
     0.0000
 13
    36.0000
 23
    15.0000
 33
     0.0000
  0
3DFACE
  8
154
 62
154
 10
    35.0000
 20
    15.0000
 30
     0.0000
 11
    36.0000
 21
    15.0000
 31
     0.0000
 12
    36.0000
 22
    15.0000
 32
     1.0000
 13
    35.0000
 23
    15.0000
 33
     1.0000
  0
3DFACE
  8
2
 62
2
 10
    35.0000
 20
    15.0000
 30
     1.0000
 11
    36.0000
 21
    15.0000
 31
     1.0000
 12
    34.8330
 22
    14.1670
 32
     1.0000
 13
    33.7500
 23
    14.1670
 33
     1.0000
  0
3DFACE
  8
150
 62
150
 10
    33.7500
 20
    14.1670
 30
     0.0000
 11
    32.5000
 21
    13.3330
 31
     0.0000
 12
    33.6670
 22
    13.3330
 32
     0.0000
 13
    34.8330
 23
    14.1670
 33
     0.0000
  0
3DFACE
  8
2
 62
2
 10
    33.7500
 20
    14.1670
 30
     1.0000
 11
    34.8330
 21
    14.1670
 31
     1.0000
 12
    33.6670
 22
    13.3330
 32
     1.0000
 13
    32.5000
 23
    13.3330
 33
     1.0000
  0
3DFACE
  8
150
 62
150
 10
    32.5000
 20
    13.3330
 30
     0.0000
 11
    31.2500
 21
    12.5000
 31
     0.0000
 12
    32.5000
 22
    12.5000
 32
     0.0000
 13
    33.6670
 23
    13.3330
 33
     0.0000
  0
3DFACE
  8
2
 62
2
 10
    32.5000
 20
    13.3330
 30
     1.0000
 11
    33.6670
 21
    13.3330
 31
     1.0000
 12
    32.5000
 22
    12.5000
 32
     1.0000
 13
    31.2500
 23
    12.5000
 33
     1.0000
  0
3DFACE
  8
150
 62
150
 10
    31.2500
 20
    12.5000
 30
     0.0000
 11
    30.0000
 21
    11.6670
 31
     0.0000
 12
    31.3330
 22
    11.6670
 32
     0.0000
 13
    32.5000
 23
    12.5000
 33
     0.0000
  0
3DFACE
  8
2
 62
2
 10
    31.2500
 20
    12.5000
 30
     1.0000
 11
    32.5000
 21
    12.5000
 31
     1.0000
 12
    31.3330
 22
    11.6670
 32
     1.0000
 13
    30.0000
 23
    11.6670
 33
     1.0000
  0
3DFACE
  8
150
 62
150
 10
    30.0000
 20
    11.6670
 30
     0.0000
 11
    28.7500
 21
    10.8330
 31
     0.0000
 12
    30.1670
 22
    10.8330
 32
     0.0000
 13
    31.3330
 23
    11.6670
 33
     0.0000
  0
3DFACE
  8
2
 62
2
 10
    30.0000
 20
    11.6670
 30
     1.0000
 11
    31.3330
 21
    11.6670
 31
     1.0000
 12
    30.1670
 22
    10.8330
 32
     1.0000
 13
    28.7500
 23
    10.8330
 33
     1.0000
  0
3DFACE
  8
150
 62
150
 10
    28.7500
 20
    10.8330
 30
     0.0000
 11
    27.5000
 21
    10.0000
 31
     0.0000
 12
    29.0000
 22
    10.0000
 32
     0.0000
 13
    30.1670
 23
    10.8330
 33
     0.0000
  0
3DFACE
  8
2
 62
2
 10
    28.7500
 20
    10.8330
 30
     1.0000
 11
    30.1670
 21
    10.8330
 31
     1.0000
 12
    29.0000
 22
    10.0000
 32
     1.0000
 13
    27.5000
 23
    10.0000
 33
     1.0000
  0
3DFACE
  8
150
 62
150
 10
    27.5000
 20
    10.0000
 30
     0.0000
 11
    26.2500
 21
     9.1667
 31
     0.0000
 12
    27.8330
 22
     9.1667
 32
     0.0000
 13
    29.0000
 23
    10.0000
 33
     0.0000
  0
3DFACE
  8
2
 62
2
 10
    27.5000
 20
    10.0000
 30
     1.0000
 11
    29.0000
 21
    10.0000
 31
     1.0000
 12
    27.8330
 22
     9.1667
 32
     1.0000
 13
    26.2500
 23
     9.1667
 33
     1.0000
  0
3DFACE
  8
150
 62
150
 10
    26.2500
 20
     9.1667
 30
     0.0000
 11
    25.0000
 21
     8.3333
 31
     0.0000
 12
    26.6670
 22
     8.3333
 32
     0.0000
 13
    27.8330
 23
     9.1667
 33
     0.0000
  0
3DFACE
  8
2
 62
2
 10
    26.2500
 20
     9.1667
 30
     1.0000
 11
    27.8330
 21
     9.1667
 31
     1.0000
 12
    26.6670
 22
     8.3333
 32
     1.0000
 13
    25.0000
 23
     8.3333
 33
     1.0000
  0
3DFACE
  8
150
 62
150
 10
    25.0000
 20
     8.3333
 30
     0.0000
 11
    23.7500
 21
     7.5000
 31
     0.0000
 12
    25.5000
 22
     7.5000
 32
     0.0000
 13
    26.6670
 23
     8.3333
 33
     0.0000
  0
3DFACE
  8
2
 62
2
 10
    25.0000
 20
     8.3333
 30
     1.0000
 11
    26.6670
 21
     8.3333
 31
     1.0000
 12
    25.5000
 22
     7.5000
 32
     1.0000
 13
    23.7500
 23
     7.5000
 33
     1.0000
  0
3DFACE
  8
150
 62
150
 10
    23.7500
 20
     7.5000
 30
     0.0000
 11
    22.5000
 21
     6.6667
 31
     0.0000
 12
    24.3330
 22
     6.6667
 32
     0.0000
 13
    25.5000
 23
     7.5000
 33
     0.0000
  0
3DFACE
  8
2
 62
2
 10
    23.7500
 20
     7.5000
 30
     1.0000
 11
    25.5000
 21
     7.5000
 31
     1.0000
 12
    24.3330
 22
     6.6667
 32
     1.0000
 13
    22.5000
 23
     6.6667
 33
     1.0000
  0
3DFACE
  8
150
 62
150
 10
    22.5000
 20
     6.6667
 30
     0.0000
 11
    21.2500
 21
     5.8333
 31
     0.0000
 12
    23.1670
 22
     5.8333
 32
     0.0000
 13
    24.3330
 23
     6.6667
 33
     0.0000
  0
3DFACE
  8
2
 62
2
 10
    22.5000
 20
     6.6667
 30
     1.0000
 11
    24.3330
 21
     6.6667
 31
     1.0000
 12
    23.1670
 22
     5.8333
 32
     1.0000
 13
    21.2500
 23
     5.8333
 33
     1.0000
  0
3DFACE
  8
150
 62
150
 10
    21.2500
 20
     5.8333
 30
     0.0000
 11
    20.0000
 21
     5.0000
 31
     0.0000
 12
    22.0000
 22
     5.0000
 32
     0.0000
 13
    23.1670
 23
     5.8333
 33
     0.0000
  0
3DFACE
  8
2
 62
2
 10
    21.2500
 20
     5.8333
 30
     1.0000
 11
    23.1670
 21
     5.8333
 31
     1.0000
 12
    22.0000
 22
     5.0000
 32
     1.0000
 13
    20.0000
 23
     5.0000
 33
     1.0000
  0
3DFACE
  8
150
 62
150
 10
    36.0000
 20
    15.0000
 30
     0.0000
 11
    34.8330
 21
    14.1670
 31
     0.0000
 12
    35.9170
 22
    14.1670
 32
     0.0000
 13
    37.0000
 23
    15.0000
 33
     0.0000
  0
3DFACE
  8
154
 62
154
 10
    36.0000
 20
    15.0000
 30
     0.0000
 11
    37.0000
 21
    15.0000
 31
     0.0000
 12
    37.0000
 22
    15.0000
 32
     1.0000
 13
    36.0000
 23
    15.0000
 33
     1.0000
  0
3DFACE
  8
2
 62
2
 10
    36.0000
 20
    15.0000
 30
     1.0000
 11
    37.0000
 21
    15.0000
 31
     1.0000
 12
    35.9170
 22
    14.1670
 32
     1.0000
 13
    34.8330
 23
    14.1670
 33
     1.0000
  0
3DFACE
  8
150
 62
150
 10
    34.8330
 20
    14.1670
 30
     0.0000
 11
    33.6670
 21
    13.3330
 31
     0.0000
 12
    34.8330
 22
    13.3330
 32
     0.0000
 13
    35.9170
 23
    14.1670
 33
     0.0000
  0
3DFACE
  8
2
 62
2
 10
    34.8330
 20
    14.1670
 30
     1.0000
 11
    35.9170
 21
    14.1670
 31
     1.0000
 12
    34.8330
 22
    13.3330
 32
     1.0000
 13
    33.6670
 23
    13.3330
 33
     1.0000
  0
3DFACE
  8
150
 62
150
 10
    33.6670
 20
    13.3330
 30
     0.0000
 11
    32.5000
 21
    12.5000
 31
     0.0000
 12
    33.7500
 22
    12.5000
 32
     0.0000
 13
    34.8330
 23
    13.3330
 33
     0.0000
  0
3DFACE
  8
2
 62
2
 10
    33.6670
 20
    13.3330
 30
     1.0000
 11
    34.8330
 21
    13.3330
 31
     1.0000
 12
    33.7500
 22
    12.5000
 32
     1.0000
 13
    32.5000
 23
    12.5000
 33
     1.0000
  0
3DFACE
  8
150
 62
150
 10
    32.5000
 20
    12.5000
 30
     0.0000
 11
    31.3330
 21
    11.6670
 31
     0.0000
 12
    32.6670
 22
    11.6670
 32
     0.0000
 13
    33.7500
 23
    12.5000
 33
     0.0000
  0
3DFACE
  8
2
 62
2
 10
    32.5000
 20
    12.5000
 30
     1.0000
 11
    33.7500
 21
    12.5000
 31
     1.0000
 12
    32.6670
 22
    11.6670
 32
     1.0000
 13
    31.3330
 23
    11.6670
 33
     1.0000
  0
3DFACE
  8
150
 62
150
 10
    31.3330
 20
    11.6670
 30
     0.0000
 11
    30.1670
 21
    10.8330
 31
     0.0000
 12
    31.5830
 22
    10.8330
 32
     0.0000
 13
    32.6670
 23
    11.6670
 33
     0.0000
  0
3DFACE
  8
2
 62
2
 10
    31.3330
 20
    11.6670
 30
     1.0000
 11
    32.6670
 21
    11.6670
 31
     1.0000
 12
    31.5830
 22
    10.8330
 32
     1.0000
 13
    30.1670
 23
    10.8330
 33
     1.0000
  0
3DFACE
  8
150
 62
150
 10
    30.1670
 20
    10.8330
 30
     0.0000
 11
    29.0000
 21
    10.0000
 31
     0.0000
 12
    30.5000
 22
    10.0000
 32
     0.0000
 13
    31.5830
 23
    10.8330
 33
     0.0000
  0
3DFACE
  8
2
 62
2
 10
    30.1670
 20
    10.8330
 30
     1.0000
 11
    31.5830
 21
    10.8330
 31
     1.0000
 12
    30.5000
 22
    10.0000
 32
     1.0000
 13
    29.0000
 23
    10.0000
 33
     1.0000
  0
3DFACE
  8
150
 62
150
 10
    29.0000
 20
    10.0000
 30
     0.0000
 11
    27.8330
 21
     9.1667
 31
     0.0000
 12
    29.4170
 22
     9.1667
 32
     0.0000
 13
    30.5000
 23
    10.0000
 33
     0.0000
  0
3DFACE
  8
2
 62
2
 10
    29.0000
 20
    10.0000
 30
     1.0000
 11
    30.5000
 21
    10.0000
 31
     1.0000
 12
    29.4170
 22
     9.1667
 32
     1.0000
 13
    27.8330
 23
     9.1667
 33
     1.0000
  0
3DFACE
  8
150
 62
150
 10
    27.8330
 20
     9.1667
 30
     0.0000
 11
    26.6670
 21
     8.3333
 31
     0.0000
 12
    28.3330
 22
     8.3333
 32
     0.0000
 13
    29.4170
 23
     9.1667
 33
     0.0000
  0
3DFACE
  8
2
 62
2
 10
    27.8330
 20
     9.1667
 30
     1.0000
 11
    29.4170
 21
     9.1667
 31
     1.0000
 12
    28.3330
 22
     8.3333
 32
     1.0000
 13
    26.6670
 23
     8.3333
 33
     1.0000
  0
3DFACE
  8
150
 62
150
 10
    26.6670
 20
     8.3333
 30
     0.0000
 11
    25.5000
 21
     7.5000
 31
     0.0000
 12
    27.2500
 22
     7.5000
 32
     0.0000
 13
    28.3330
 23
     8.3333
 33
     0.0000
  0
3DFACE
  8
2
 62
2
 10
    26.6670
 20
     8.3333
 30
     1.0000
 11
    28.3330
 21
     8.3333
 31
     1.0000
 12
    27.2500
 22
     7.5000
 32
     1.0000
 13
    25.5000
 23
     7.5000
 33
     1.0000
  0
3DFACE
  8
150
 62
150
 10
    25.5000
 20
     7.5000
 30
     0.0000
 11
    24.3330
 21
     6.6667
 31
     0.0000
 12
    26.1670
 22
     6.6667
 32
     0.0000
 13
    27.2500
 23
     7.5000
 33
     0.0000
  0
3DFACE
  8
2
 62
2
 10
    25.5000
 20
     7.5000
 30
     1.0000
 11
    27.2500
 21
     7.5000
 31
     1.0000
 12
    26.1670
 22
     6.6667
 32
     1.0000
 13
    24.3330
 23
     6.6667
 33
     1.0000
  0
3DFACE
  8
150
 62
150
 10
    24.3330
 20
     6.6667
 30
     0.0000
 11
    23.1670
 21
     5.8333
 31
     0.0000
 12
    25.0830
 22
     5.8333
 32
     0.0000
 13
    26.1670
 23
     6.6667
 33
     0.0000
  0
3DFACE
  8
2
 62
2
 10
    24.3330
 20
     6.6667
 30
     1.0000
 11
    26.1670
 21
     6.6667
 31
     1.0000
 12
    25.0830
 22
     5.8333
 32
     1.0000
 13
    23.1670
 23
     5.8333
 33
     1.0000
  0
3DFACE
  8
150
 62
150
 10
    23.1670
 20
     5.8333
 30
     0.0000
 11
    22.0000
 21
     5.0000
 31
     0.0000
 12
    24.0000
 22
     5.0000
 32
     0.0000
 13
    25.0830
 23
     5.8333
 33
     0.0000
  0
3DFACE
  8
2
 62
2
 10
    23.1670
 20
     5.8333
 30
     1.0000
 11
    25.0830
 21
     5.8333
 31
     1.0000
 12
    24.0000
 22
     5.0000
 32
     1.0000
 13
    22.0000
 23
     5.0000
 33
     1.0000
  0
3DFACE
  8
150
 62
150
 10
    37.0000
 20
    15.0000
 30
     0.0000
 11
    35.9170
 21
    14.1670
 31
     0.0000
 12
    37.0000
 22
    14.1670
 32
     0.0000
 13
    38.0000
 23
    15.0000
 33
     0.0000
  0
3DFACE
  8
154
 62
154
 10
    37.0000
 20
    15.0000
 30
     0.0000
 11
    38.0000
 21
    15.0000
 31
     0.0000
 12
    38.0000
 22
    15.0000
 32
     1.0000
 13
    37.0000
 23
    15.0000
 33
     1.0000
  0
3DFACE
  8
2
 62
2
 10
    37.0000
 20
    15.0000
 30
     1.0000
 11
    38.0000
 21
    15.0000
 31
     1.0000
 12
    37.0000
 22
    14.1670
 32
     1.0000
 13
    35.9170
 23
    14.1670
 33
     1.0000
  0
3DFACE
  8
150
 62
150
 10
    35.9170
 20
    14.1670
 30
     0.0000
 11
    34.8330
 21
    13.3330
 31
     0.0000
 12
    36.0000
 22
    13.3330
 32
     0.0000
 13
    37.0000
 23
    14.1670
 33
     0.0000
  0
3DFACE
  8
2
 62
2
 10
    35.9170
 20
    14.1670
 30
     1.0000
 11
    37.0000
 21
    14.1670
 31
     1.0000
 12
    36.0000
 22
    13.3330
 32
     1.0000
 13
    34.8330
 23
    13.3330
 33
     1.0000
  0
3DFACE
  8
150
 62
150
 10
    34.8330
 20
    13.3330
 30
     0.0000
 11
    33.7500
 21
    12.5000
 31
     0.0000
 12
    35.0000
 22
    12.5000
 32
     0.0000
 13
    36.0000
 23
    13.3330
 33
     0.0000
  0
3DFACE
  8
2
 62
2
 10
    34.8330
 20
    13.3330
 30
     1.0000
 11
    36.0000
 21
    13.3330
 31
     1.0000
 12
    35.0000
 22
    12.5000
 32
     1.0000
 13
    33.7500
 23
    12.5000
 33
     1.0000
  0
3DFACE
  8
150
 62
150
 10
    33.7500
 20
    12.5000
 30
     0.0000
 11
    32.6670
 21
    11.6670
 31
     0.0000
 12
    34.0000
 22
    11.6670
 32
     0.0000
 13
    35.0000
 23
    12.5000
 33
     0.0000
  0
3DFACE
  8
2
 62
2
 10
    33.7500
 20
    12.5000
 30
     1.0000
 11
    35.0000
 21
    12.5000
 31
     1.0000
 12
    34.0000
 22
    11.6670
 32
     1.0000
 13
    32.6670
 23
    11.6670
 33
     1.0000
  0
3DFACE
  8
150
 62
150
 10
    32.6670
 20
    11.6670
 30
     0.0000
 11
    31.5830
 21
    10.8330
 31
     0.0000
 12
    33.0000
 22
    10.8330
 32
     0.0000
 13
    34.0000
 23
    11.6670
 33
     0.0000
  0
3DFACE
  8
2
 62
2
 10
    32.6670
 20
    11.6670
 30
     1.0000
 11
    34.0000
 21
    11.6670
 31
     1.0000
 12
    33.0000
 22
    10.8330
 32
     1.0000
 13
    31.5830
 23
    10.8330
 33
     1.0000
  0
3DFACE
  8
150
 62
150
 10
    31.5830
 20
    10.8330
 30
     0.0000
 11
    30.5000
 21
    10.0000
 31
     0.0000
 12
    32.0000
 22
    10.0000
 32
     0.0000
 13
    33.0000
 23
    10.8330
 33
     0.0000
  0
3DFACE
  8
2
 62
2
 10
    31.5830
 20
    10.8330
 30
     1.0000
 11
    33.0000
 21
    10.8330
 31
     1.0000
 12
    32.0000
 22
    10.0000
 32
     1.0000
 13
    30.5000
 23
    10.0000
 33
     1.0000
  0
3DFACE
  8
150
 62
150
 10
    30.5000
 20
    10.0000
 30
     0.0000
 11
    29.4170
 21
     9.1667
 31
     0.0000
 12
    31.0000
 22
     9.1667
 32
     0.0000
 13
    32.0000
 23
    10.0000
 33
     0.0000
  0
3DFACE
  8
2
 62
2
 10
    30.5000
 20
    10.0000
 30
     1.0000
 11
    32.0000
 21
    10.0000
 31
     1.0000
 12
    31.0000
 22
     9.1667
 32
     1.0000
 13
    29.4170
 23
     9.1667
 33
     1.0000
  0
3DFACE
  8
150
 62
150
 10
    29.4170
 20
     9.1667
 30
     0.0000
 11
    28.3330
 21
     8.3333
 31
     0.0000
 12
    30.0000
 22
     8.3333
 32
     0.0000
 13
    31.0000
 23
     9.1667
 33
     0.0000
  0
3DFACE
  8
2
 62
2
 10
    29.4170
 20
     9.1667
 30
     1.0000
 11
    31.0000
 21
     9.1667
 31
     1.0000
 12
    30.0000
 22
     8.3333
 32
     1.0000
 13
    28.3330
 23
     8.3333
 33
     1.0000
  0
3DFACE
  8
150
 62
150
 10
    28.3330
 20
     8.3333
 30
     0.0000
 11
    27.2500
 21
     7.5000
 31
     0.0000
 12
    29.0000
 22
     7.5000
 32
     0.0000
 13
    30.0000
 23
     8.3333
 33
     0.0000
  0
3DFACE
  8
2
 62
2
 10
    28.3330
 20
     8.3333
 30
     1.0000
 11
    30.0000
 21
     8.3333
 31
     1.0000
 12
    29.0000
 22
     7.5000
 32
     1.0000
 13
    27.2500
 23
     7.5000
 33
     1.0000
  0
3DFACE
  8
150
 62
150
 10
    27.2500
 20
     7.5000
 30
     0.0000
 11
    26.1670
 21
     6.6667
 31
     0.0000
 12
    28.0000
 22
     6.6667
 32
     0.0000
 13
    29.0000
 23
     7.5000
 33
     0.0000
  0
3DFACE
  8
2
 62
2
 10
    27.2500
 20
     7.5000
 30
     1.0000
 11
    29.0000
 21
     7.5000
 31
     1.0000
 12
    28.0000
 22
     6.6667
 32
     1.0000
 13
    26.1670
 23
     6.6667
 33
     1.0000
  0
3DFACE
  8
150
 62
150
 10
    26.1670
 20
     6.6667
 30
     0.0000
 11
    25.0830
 21
     5.8333
 31
     0.0000
 12
    27.0000
 22
     5.8333
 32
     0.0000
 13
    28.0000
 23
     6.6667
 33
     0.0000
  0
3DFACE
  8
2
 62
2
 10
    26.1670
 20
     6.6667
 30
     1.0000
 11
    28.0000
 21
     6.6667
 31
     1.0000
 12
    27.0000
 22
     5.8333
 32
     1.0000
 13
    25.0830
 23
     5.8333
 33
     1.0000
  0
3DFACE
  8
150
 62
150
 10
    25.0830
 20
     5.8333
 30
     0.0000
 11
    24.0000
 21
     5.0000
 31
     0.0000
 12
    26.0000
 22
     5.0000
 32
     0.0000
 13
    27.0000
 23
     5.8333
 33
     0.0000
  0
3DFACE
  8
2
 62
2
 10
    25.0830
 20
     5.8333
 30
     1.0000
 11
    27.0000
 21
     5.8333
 31
     1.0000
 12
    26.0000
 22
     5.0000
 32
     1.0000
 13
    24.0000
 23
     5.0000
 33
     1.0000
  0
3DFACE
  8
150
 62
150
 10
    38.0000
 20
    15.0000
 30
     0.0000
 11
    37.0000
 21
    14.1670
 31
     0.0000
 12
    38.0830
 22
    14.1670
 32
     0.0000
 13
    39.0000
 23
    15.0000
 33
     0.0000
  0
3DFACE
  8
154
 62
154
 10
    38.0000
 20
    15.0000
 30
     0.0000
 11
    39.0000
 21
    15.0000
 31
     0.0000
 12
    39.0000
 22
    15.0000
 32
     1.0000
 13
    38.0000
 23
    15.0000
 33
     1.0000
  0
3DFACE
  8
2
 62
2
 10
    38.0000
 20
    15.0000
 30
     1.0000
 11
    39.0000
 21
    15.0000
 31
     1.0000
 12
    38.0830
 22
    14.1670
 32
     1.0000
 13
    37.0000
 23
    14.1670
 33
     1.0000
  0
3DFACE
  8
150
 62
150
 10
    37.0000
 20
    14.1670
 30
     0.0000
 11
    36.0000
 21
    13.3330
 31
     0.0000
 12
    37.1670
 22
    13.3330
 32
     0.0000
 13
    38.0830
 23
    14.1670
 33
     0.0000
  0
3DFACE
  8
2
 62
2
 10
    37.0000
 20
    14.1670
 30
     1.0000
 11
    38.0830
 21
    14.1670
 31
     1.0000
 12
    37.1670
 22
    13.3330
 32
     1.0000
 13
    36.0000
 23
    13.3330
 33
     1.0000
  0
3DFACE
  8
150
 62
150
 10
    36.0000
 20
    13.3330
 30
     0.0000
 11
    35.0000
 21
    12.5000
 31
     0.0000
 12
    36.2500
 22
    12.5000
 32
     0.0000
 13
    37.1670
 23
    13.3330
 33
     0.0000
  0
3DFACE
  8
2
 62
2
 10
    36.0000
 20
    13.3330
 30
     1.0000
 11
    37.1670
 21
    13.3330
 31
     1.0000
 12
    36.2500
 22
    12.5000
 32
     1.0000
 13
    35.0000
 23
    12.5000
 33
     1.0000
  0
3DFACE
  8
150
 62
150
 10
    35.0000
 20
    12.5000
 30
     0.0000
 11
    34.0000
 21
    11.6670
 31
     0.0000
 12
    35.3330
 22
    11.6670
 32
     0.0000
 13
    36.2500
 23
    12.5000
 33
     0.0000
  0
3DFACE
  8
2
 62
2
 10
    35.0000
 20
    12.5000
 30
     1.0000
 11
    36.2500
 21
    12.5000
 31
     1.0000
 12
    35.3330
 22
    11.6670
 32
     1.0000
 13
    34.0000
 23
    11.6670
 33
     1.0000
  0
3DFACE
  8
150
 62
150
 10
    34.0000
 20
    11.6670
 30
     0.0000
 11
    33.0000
 21
    10.8330
 31
     0.0000
 12
    34.4170
 22
    10.8330
 32
     0.0000
 13
    35.3330
 23
    11.6670
 33
     0.0000
  0
3DFACE
  8
2
 62
2
 10
    34.0000
 20
    11.6670
 30
     1.0000
 11
    35.3330
 21
    11.6670
 31
     1.0000
 12
    34.4170
 22
    10.8330
 32
     1.0000
 13
    33.0000
 23
    10.8330
 33
     1.0000
  0
3DFACE
  8
150
 62
150
 10
    33.0000
 20
    10.8330
 30
     0.0000
 11
    32.0000
 21
    10.0000
 31
     0.0000
 12
    33.5000
 22
    10.0000
 32
     0.0000
 13
    34.4170
 23
    10.8330
 33
     0.0000
  0
3DFACE
  8
2
 62
2
 10
    33.0000
 20
    10.8330
 30
     1.0000
 11
    34.4170
 21
    10.8330
 31
     1.0000
 12
    33.5000
 22
    10.0000
 32
     1.0000
 13
    32.0000
 23
    10.0000
 33
     1.0000
  0
3DFACE
  8
150
 62
150
 10
    32.0000
 20
    10.0000
 30
     0.0000
 11
    31.0000
 21
     9.1667
 31
     0.0000
 12
    32.5830
 22
     9.1667
 32
     0.0000
 13
    33.5000
 23
    10.0000
 33
     0.0000
  0
3DFACE
  8
2
 62
2
 10
    32.0000
 20
    10.0000
 30
     1.0000
 11
    33.5000
 21
    10.0000
 31
     1.0000
 12
    32.5830
 22
     9.1667
 32
     1.0000
 13
    31.0000
 23
     9.1667
 33
     1.0000
  0
3DFACE
  8
150
 62
150
 10
    31.0000
 20
     9.1667
 30
     0.0000
 11
    30.0000
 21
     8.3333
 31
     0.0000
 12
    31.6670
 22
     8.3333
 32
     0.0000
 13
    32.5830
 23
     9.1667
 33
     0.0000
  0
3DFACE
  8
2
 62
2
 10
    31.0000
 20
     9.1667
 30
     1.0000
 11
    32.5830
 21
     9.1667
 31
     1.0000
 12
    31.6670
 22
     8.3333
 32
     1.0000
 13
    30.0000
 23
     8.3333
 33
     1.0000
  0
3DFACE
  8
150
 62
150
 10
    30.0000
 20
     8.3333
 30
     0.0000
 11
    29.0000
 21
     7.5000
 31
     0.0000
 12
    30.7500
 22
     7.5000
 32
     0.0000
 13
    31.6670
 23
     8.3333
 33
     0.0000
  0
3DFACE
  8
2
 62
2
 10
    30.0000
 20
     8.3333
 30
     1.0000
 11
    31.6670
 21
     8.3333
 31
     1.0000
 12
    30.7500
 22
     7.5000
 32
     1.0000
 13
    29.0000
 23
     7.5000
 33
     1.0000
  0
3DFACE
  8
150
 62
150
 10
    29.0000
 20
     7.5000
 30
     0.0000
 11
    28.0000
 21
     6.6667
 31
     0.0000
 12
    29.8330
 22
     6.6667
 32
     0.0000
 13
    30.7500
 23
     7.5000
 33
     0.0000
  0
3DFACE
  8
2
 62
2
 10
    29.0000
 20
     7.5000
 30
     1.0000
 11
    30.7500
 21
     7.5000
 31
     1.0000
 12
    29.8330
 22
     6.6667
 32
     1.0000
 13
    28.0000
 23
     6.6667
 33
     1.0000
  0
3DFACE
  8
150
 62
150
 10
    28.0000
 20
     6.6667
 30
     0.0000
 11
    27.0000
 21
     5.8333
 31
     0.0000
 12
    28.9170
 22
     5.8333
 32
     0.0000
 13
    29.8330
 23
     6.6667
 33
     0.0000
  0
3DFACE
  8
2
 62
2
 10
    28.0000
 20
     6.6667
 30
     1.0000
 11
    29.8330
 21
     6.6667
 31
     1.0000
 12
    28.9170
 22
     5.8333
 32
     1.0000
 13
    27.0000
 23
     5.8333
 33
     1.0000
  0
3DFACE
  8
150
 62
150
 10
    27.0000
 20
     5.8333
 30
     0.0000
 11
    26.0000
 21
     5.0000
 31
     0.0000
 12
    28.0000
 22
     5.0000
 32
     0.0000
 13
    28.9170
 23
     5.8333
 33
     0.0000
  0
3DFACE
  8
2
 62
2
 10
    27.0000
 20
     5.8333
 30
     1.0000
 11
    28.9170
 21
     5.8333
 31
     1.0000
 12
    28.0000
 22
     5.0000
 32
     1.0000
 13
    26.0000
 23
     5.0000
 33
     1.0000
  0
3DFACE
  8
150
 62
150
 10
    39.0000
 20
    15.0000
 30
     0.0000
 11
    38.0830
 21
    14.1670
 31
     0.0000
 12
    39.1670
 22
    14.1670
 32
     0.0000
 13
    40.0000
 23
    15.0000
 33
     0.0000
  0
3DFACE
  8
154
 62
154
 10
    39.0000
 20
    15.0000
 30
     0.0000
 11
    40.0000
 21
    15.0000
 31
     0.0000
 12
    40.0000
 22
    15.0000
 32
     1.0000
 13
    39.0000
 23
    15.0000
 33
     1.0000
  0
3DFACE
  8
2
 62
2
 10
    39.0000
 20
    15.0000
 30
     1.0000
 11
    40.0000
 21
    15.0000
 31
     1.0000
 12
    39.1670
 22
    14.1670
 32
     1.0000
 13
    38.0830
 23
    14.1670
 33
     1.0000
  0
3DFACE
  8
150
 62
150
 10
    38.0830
 20
    14.1670
 30
     0.0000
 11
    37.1670
 21
    13.3330
 31
     0.0000
 12
    38.3330
 22
    13.3330
 32
     0.0000
 13
    39.1670
 23
    14.1670
 33
     0.0000
  0
3DFACE
  8
2
 62
2
 10
    38.0830
 20
    14.1670
 30
     1.0000
 11
    39.1670
 21
    14.1670
 31
     1.0000
 12
    38.3330
 22
    13.3330
 32
     1.0000
 13
    37.1670
 23
    13.3330
 33
     1.0000
  0
3DFACE
  8
150
 62
150
 10
    37.1670
 20
    13.3330
 30
     0.0000
 11
    36.2500
 21
    12.5000
 31
     0.0000
 12
    37.5000
 22
    12.5000
 32
     0.0000
 13
    38.3330
 23
    13.3330
 33
     0.0000
  0
3DFACE
  8
2
 62
2
 10
    37.1670
 20
    13.3330
 30
     1.0000
 11
    38.3330
 21
    13.3330
 31
     1.0000
 12
    37.5000
 22
    12.5000
 32
     1.0000
 13
    36.2500
 23
    12.5000
 33
     1.0000
  0
3DFACE
  8
150
 62
150
 10
    36.2500
 20
    12.5000
 30
     0.0000
 11
    35.3330
 21
    11.6670
 31
     0.0000
 12
    36.6670
 22
    11.6670
 32
     0.0000
 13
    37.5000
 23
    12.5000
 33
     0.0000
  0
3DFACE
  8
2
 62
2
 10
    36.2500
 20
    12.5000
 30
     1.0000
 11
    37.5000
 21
    12.5000
 31
     1.0000
 12
    36.6670
 22
    11.6670
 32
     1.0000
 13
    35.3330
 23
    11.6670
 33
     1.0000
  0
3DFACE
  8
150
 62
150
 10
    35.3330
 20
    11.6670
 30
     0.0000
 11
    34.4170
 21
    10.8330
 31
     0.0000
 12
    35.8330
 22
    10.8330
 32
     0.0000
 13
    36.6670
 23
    11.6670
 33
     0.0000
  0
3DFACE
  8
2
 62
2
 10
    35.3330
 20
    11.6670
 30
     1.0000
 11
    36.6670
 21
    11.6670
 31
     1.0000
 12
    35.8330
 22
    10.8330
 32
     1.0000
 13
    34.4170
 23
    10.8330
 33
     1.0000
  0
3DFACE
  8
150
 62
150
 10
    34.4170
 20
    10.8330
 30
     0.0000
 11
    33.5000
 21
    10.0000
 31
     0.0000
 12
    35.0000
 22
    10.0000
 32
     0.0000
 13
    35.8330
 23
    10.8330
 33
     0.0000
  0
3DFACE
  8
2
 62
2
 10
    34.4170
 20
    10.8330
 30
     1.0000
 11
    35.8330
 21
    10.8330
 31
     1.0000
 12
    35.0000
 22
    10.0000
 32
     1.0000
 13
    33.5000
 23
    10.0000
 33
     1.0000
  0
3DFACE
  8
150
 62
150
 10
    33.5000
 20
    10.0000
 30
     0.0000
 11
    32.5830
 21
     9.1667
 31
     0.0000
 12
    34.1670
 22
     9.1667
 32
     0.0000
 13
    35.0000
 23
    10.0000
 33
     0.0000
  0
3DFACE
  8
2
 62
2
 10
    33.5000
 20
    10.0000
 30
     1.0000
 11
    35.0000
 21
    10.0000
 31
     1.0000
 12
    34.1670
 22
     9.1667
 32
     1.0000
 13
    32.5830
 23
     9.1667
 33
     1.0000
  0
3DFACE
  8
150
 62
150
 10
    32.5830
 20
     9.1667
 30
     0.0000
 11
    31.6670
 21
     8.3333
 31
     0.0000
 12
    33.3330
 22
     8.3333
 32
     0.0000
 13
    34.1670
 23
     9.1667
 33
     0.0000
  0
3DFACE
  8
2
 62
2
 10
    32.5830
 20
     9.1667
 30
     1.0000
 11
    34.1670
 21
     9.1667
 31
     1.0000
 12
    33.3330
 22
     8.3333
 32
     1.0000
 13
    31.6670
 23
     8.3333
 33
     1.0000
  0
3DFACE
  8
150
 62
150
 10
    31.6670
 20
     8.3333
 30
     0.0000
 11
    30.7500
 21
     7.5000
 31
     0.0000
 12
    32.5000
 22
     7.5000
 32
     0.0000
 13
    33.3330
 23
     8.3333
 33
     0.0000
  0
3DFACE
  8
2
 62
2
 10
    31.6670
 20
     8.3333
 30
     1.0000
 11
    33.3330
 21
     8.3333
 31
     1.0000
 12
    32.5000
 22
     7.5000
 32
     1.0000
 13
    30.7500
 23
     7.5000
 33
     1.0000
  0
3DFACE
  8
150
 62
150
 10
    30.7500
 20
     7.5000
 30
     0.0000
 11
    29.8330
 21
     6.6667
 31
     0.0000
 12
    31.6670
 22
     6.6667
 32
     0.0000
 13
    32.5000
 23
     7.5000
 33
     0.0000
  0
3DFACE
  8
2
 62
2
 10
    30.7500
 20
     7.5000
 30
     1.0000
 11
    32.5000
 21
     7.5000
 31
     1.0000
 12
    31.6670
 22
     6.6667
 32
     1.0000
 13
    29.8330
 23
     6.6667
 33
     1.0000
  0
3DFACE
  8
150
 62
150
 10
    29.8330
 20
     6.6667
 30
     0.0000
 11
    28.9170
 21
     5.8333
 31
     0.0000
 12
    30.8330
 22
     5.8333
 32
     0.0000
 13
    31.6670
 23
     6.6667
 33
     0.0000
  0
3DFACE
  8
2
 62
2
 10
    29.8330
 20
     6.6667
 30
     1.0000
 11
    31.6670
 21
     6.6667
 31
     1.0000
 12
    30.8330
 22
     5.8333
 32
     1.0000
 13
    28.9170
 23
     5.8333
 33
     1.0000
  0
3DFACE
  8
150
 62
150
 10
    28.9170
 20
     5.8333
 30
     0.0000
 11
    28.0000
 21
     5.0000
 31
     0.0000
 12
    30.0000
 22
     5.0000
 32
     0.0000
 13
    30.8330
 23
     5.8333
 33
     0.0000
  0
3DFACE
  8
2
 62
2
 10
    28.9170
 20
     5.8333
 30
     1.0000
 11
    30.8330
 21
     5.8333
 31
     1.0000
 12
    30.0000
 22
     5.0000
 32
     1.0000
 13
    28.0000
 23
     5.0000
 33
     1.0000
  0
3DFACE
  8
150
 62
150
 10
    40.0000
 20
    15.0000
 30
     0.0000
 11
    39.1670
 21
    14.1670
 31
     0.0000
 12
    40.2500
 22
    14.1670
 32
     0.0000
 13
    41.0000
 23
    15.0000
 33
     0.0000
  0
3DFACE
  8
154
 62
154
 10
    40.0000
 20
    15.0000
 30
     0.0000
 11
    41.0000
 21
    15.0000
 31
     0.0000
 12
    41.0000
 22
    15.0000
 32
     1.0000
 13
    40.0000
 23
    15.0000
 33
     1.0000
  0
3DFACE
  8
2
 62
2
 10
    40.0000
 20
    15.0000
 30
     1.0000
 11
    41.0000
 21
    15.0000
 31
     1.0000
 12
    40.2500
 22
    14.1670
 32
     1.0000
 13
    39.1670
 23
    14.1670
 33
     1.0000
  0
3DFACE
  8
150
 62
150
 10
    39.1670
 20
    14.1670
 30
     0.0000
 11
    38.3330
 21
    13.3330
 31
     0.0000
 12
    39.5000
 22
    13.3330
 32
     0.0000
 13
    40.2500
 23
    14.1670
 33
     0.0000
  0
3DFACE
  8
2
 62
2
 10
    39.1670
 20
    14.1670
 30
     1.0000
 11
    40.2500
 21
    14.1670
 31
     1.0000
 12
    39.5000
 22
    13.3330
 32
     1.0000
 13
    38.3330
 23
    13.3330
 33
     1.0000
  0
3DFACE
  8
150
 62
150
 10
    38.3330
 20
    13.3330
 30
     0.0000
 11
    37.5000
 21
    12.5000
 31
     0.0000
 12
    38.7500
 22
    12.5000
 32
     0.0000
 13
    39.5000
 23
    13.3330
 33
     0.0000
  0
3DFACE
  8
2
 62
2
 10
    38.3330
 20
    13.3330
 30
     1.0000
 11
    39.5000
 21
    13.3330
 31
     1.0000
 12
    38.7500
 22
    12.5000
 32
     1.0000
 13
    37.5000
 23
    12.5000
 33
     1.0000
  0
3DFACE
  8
150
 62
150
 10
    37.5000
 20
    12.5000
 30
     0.0000
 11
    36.6670
 21
    11.6670
 31
     0.0000
 12
    38.0000
 22
    11.6670
 32
     0.0000
 13
    38.7500
 23
    12.5000
 33
     0.0000
  0
3DFACE
  8
2
 62
2
 10
    37.5000
 20
    12.5000
 30
     1.0000
 11
    38.7500
 21
    12.5000
 31
     1.0000
 12
    38.0000
 22
    11.6670
 32
     1.0000
 13
    36.6670
 23
    11.6670
 33
     1.0000
  0
3DFACE
  8
150
 62
150
 10
    36.6670
 20
    11.6670
 30
     0.0000
 11
    35.8330
 21
    10.8330
 31
     0.0000
 12
    37.2500
 22
    10.8330
 32
     0.0000
 13
    38.0000
 23
    11.6670
 33
     0.0000
  0
3DFACE
  8
2
 62
2
 10
    36.6670
 20
    11.6670
 30
     1.0000
 11
    38.0000
 21
    11.6670
 31
     1.0000
 12
    37.2500
 22
    10.8330
 32
     1.0000
 13
    35.8330
 23
    10.8330
 33
     1.0000
  0
3DFACE
  8
150
 62
150
 10
    35.8330
 20
    10.8330
 30
     0.0000
 11
    35.0000
 21
    10.0000
 31
     0.0000
 12
    36.5000
 22
    10.0000
 32
     0.0000
 13
    37.2500
 23
    10.8330
 33
     0.0000
  0
3DFACE
  8
2
 62
2
 10
    35.8330
 20
    10.8330
 30
     1.0000
 11
    37.2500
 21
    10.8330
 31
     1.0000
 12
    36.5000
 22
    10.0000
 32
     1.0000
 13
    35.0000
 23
    10.0000
 33
     1.0000
  0
3DFACE
  8
150
 62
150
 10
    35.0000
 20
    10.0000
 30
     0.0000
 11
    34.1670
 21
     9.1667
 31
     0.0000
 12
    35.7500
 22
     9.1667
 32
     0.0000
 13
    36.5000
 23
    10.0000
 33
     0.0000
  0
3DFACE
  8
2
 62
2
 10
    35.0000
 20
    10.0000
 30
     1.0000
 11
    36.5000
 21
    10.0000
 31
     1.0000
 12
    35.7500
 22
     9.1667
 32
     1.0000
 13
    34.1670
 23
     9.1667
 33
     1.0000
  0
3DFACE
  8
150
 62
150
 10
    34.1670
 20
     9.1667
 30
     0.0000
 11
    33.3330
 21
     8.3333
 31
     0.0000
 12
    35.0000
 22
     8.3333
 32
     0.0000
 13
    35.7500
 23
     9.1667
 33
     0.0000
  0
3DFACE
  8
2
 62
2
 10
    34.1670
 20
     9.1667
 30
     1.0000
 11
    35.7500
 21
     9.1667
 31
     1.0000
 12
    35.0000
 22
     8.3333
 32
     1.0000
 13
    33.3330
 23
     8.3333
 33
     1.0000
  0
3DFACE
  8
150
 62
150
 10
    33.3330
 20
     8.3333
 30
     0.0000
 11
    32.5000
 21
     7.5000
 31
     0.0000
 12
    34.2500
 22
     7.5000
 32
     0.0000
 13
    35.0000
 23
     8.3333
 33
     0.0000
  0
3DFACE
  8
2
 62
2
 10
    33.3330
 20
     8.3333
 30
     1.0000
 11
    35.0000
 21
     8.3333
 31
     1.0000
 12
    34.2500
 22
     7.5000
 32
     1.0000
 13
    32.5000
 23
     7.5000
 33
     1.0000
  0
3DFACE
  8
150
 62
150
 10
    32.5000
 20
     7.5000
 30
     0.0000
 11
    31.6670
 21
     6.6667
 31
     0.0000
 12
    33.5000
 22
     6.6667
 32
     0.0000
 13
    34.2500
 23
     7.5000
 33
     0.0000
  0
3DFACE
  8
2
 62
2
 10
    32.5000
 20
     7.5000
 30
     1.0000
 11
    34.2500
 21
     7.5000
 31
     1.0000
 12
    33.5000
 22
     6.6667
 32
     1.0000
 13
    31.6670
 23
     6.6667
 33
     1.0000
  0
3DFACE
  8
150
 62
150
 10
    31.6670
 20
     6.6667
 30
     0.0000
 11
    30.8330
 21
     5.8333
 31
     0.0000
 12
    32.7500
 22
     5.8333
 32
     0.0000
 13
    33.5000
 23
     6.6667
 33
     0.0000
  0
3DFACE
  8
2
 62
2
 10
    31.6670
 20
     6.6667
 30
     1.0000
 11
    33.5000
 21
     6.6667
 31
     1.0000
 12
    32.7500
 22
     5.8333
 32
     1.0000
 13
    30.8330
 23
     5.8333
 33
     1.0000
  0
3DFACE
  8
150
 62
150
 10
    30.8330
 20
     5.8333
 30
     0.0000
 11
    30.0000
 21
     5.0000
 31
     0.0000
 12
    32.0000
 22
     5.0000
 32
     0.0000
 13
    32.7500
 23
     5.8333
 33
     0.0000
  0
3DFACE
  8
2
 62
2
 10
    30.8330
 20
     5.8333
 30
     1.0000
 11
    32.7500
 21
     5.8333
 31
     1.0000
 12
    32.0000
 22
     5.0000
 32
     1.0000
 13
    30.0000
 23
     5.0000
 33
     1.0000
  0
3DFACE
  8
150
 62
150
 10
    41.0000
 20
    15.0000
 30
     0.0000
 11
    40.2500
 21
    14.1670
 31
     0.0000
 12
    41.3330
 22
    14.1670
 32
     0.0000
 13
    42.0000
 23
    15.0000
 33
     0.0000
  0
3DFACE
  8
154
 62
154
 10
    41.0000
 20
    15.0000
 30
     0.0000
 11
    42.0000
 21
    15.0000
 31
     0.0000
 12
    42.0000
 22
    15.0000
 32
     1.0000
 13
    41.0000
 23
    15.0000
 33
     1.0000
  0
3DFACE
  8
2
 62
2
 10
    41.0000
 20
    15.0000
 30
     1.0000
 11
    42.0000
 21
    15.0000
 31
     1.0000
 12
    41.3330
 22
    14.1670
 32
     1.0000
 13
    40.2500
 23
    14.1670
 33
     1.0000
  0
3DFACE
  8
150
 62
150
 10
    40.2500
 20
    14.1670
 30
     0.0000
 11
    39.5000
 21
    13.3330
 31
     0.0000
 12
    40.6670
 22
    13.3330
 32
     0.0000
 13
    41.3330
 23
    14.1670
 33
     0.0000
  0
3DFACE
  8
2
 62
2
 10
    40.2500
 20
    14.1670
 30
     1.0000
 11
    41.3330
 21
    14.1670
 31
     1.0000
 12
    40.6670
 22
    13.3330
 32
     1.0000
 13
    39.5000
 23
    13.3330
 33
     1.0000
  0
3DFACE
  8
150
 62
150
 10
    39.5000
 20
    13.3330
 30
     0.0000
 11
    38.7500
 21
    12.5000
 31
     0.0000
 12
    40.0000
 22
    12.5000
 32
     0.0000
 13
    40.6670
 23
    13.3330
 33
     0.0000
  0
3DFACE
  8
2
 62
2
 10
    39.5000
 20
    13.3330
 30
     1.0000
 11
    40.6670
 21
    13.3330
 31
     1.0000
 12
    40.0000
 22
    12.5000
 32
     1.0000
 13
    38.7500
 23
    12.5000
 33
     1.0000
  0
3DFACE
  8
150
 62
150
 10
    38.7500
 20
    12.5000
 30
     0.0000
 11
    38.0000
 21
    11.6670
 31
     0.0000
 12
    39.3330
 22
    11.6670
 32
     0.0000
 13
    40.0000
 23
    12.5000
 33
     0.0000
  0
3DFACE
  8
2
 62
2
 10
    38.7500
 20
    12.5000
 30
     1.0000
 11
    40.0000
 21
    12.5000
 31
     1.0000
 12
    39.3330
 22
    11.6670
 32
     1.0000
 13
    38.0000
 23
    11.6670
 33
     1.0000
  0
3DFACE
  8
150
 62
150
 10
    38.0000
 20
    11.6670
 30
     0.0000
 11
    37.2500
 21
    10.8330
 31
     0.0000
 12
    38.6670
 22
    10.8330
 32
     0.0000
 13
    39.3330
 23
    11.6670
 33
     0.0000
  0
3DFACE
  8
2
 62
2
 10
    38.0000
 20
    11.6670
 30
     1.0000
 11
    39.3330
 21
    11.6670
 31
     1.0000
 12
    38.6670
 22
    10.8330
 32
     1.0000
 13
    37.2500
 23
    10.8330
 33
     1.0000
  0
3DFACE
  8
150
 62
150
 10
    37.2500
 20
    10.8330
 30
     0.0000
 11
    36.5000
 21
    10.0000
 31
     0.0000
 12
    38.0000
 22
    10.0000
 32
     0.0000
 13
    38.6670
 23
    10.8330
 33
     0.0000
  0
3DFACE
  8
2
 62
2
 10
    37.2500
 20
    10.8330
 30
     1.0000
 11
    38.6670
 21
    10.8330
 31
     1.0000
 12
    38.0000
 22
    10.0000
 32
     1.0000
 13
    36.5000
 23
    10.0000
 33
     1.0000
  0
3DFACE
  8
150
 62
150
 10
    36.5000
 20
    10.0000
 30
     0.0000
 11
    35.7500
 21
     9.1667
 31
     0.0000
 12
    37.3330
 22
     9.1667
 32
     0.0000
 13
    38.0000
 23
    10.0000
 33
     0.0000
  0
3DFACE
  8
2
 62
2
 10
    36.5000
 20
    10.0000
 30
     1.0000
 11
    38.0000
 21
    10.0000
 31
     1.0000
 12
    37.3330
 22
     9.1667
 32
     1.0000
 13
    35.7500
 23
     9.1667
 33
     1.0000
  0
3DFACE
  8
150
 62
150
 10
    35.7500
 20
     9.1667
 30
     0.0000
 11
    35.0000
 21
     8.3333
 31
     0.0000
 12
    36.6670
 22
     8.3333
 32
     0.0000
 13
    37.3330
 23
     9.1667
 33
     0.0000
  0
3DFACE
  8
2
 62
2
 10
    35.7500
 20
     9.1667
 30
     1.0000
 11
    37.3330
 21
     9.1667
 31
     1.0000
 12
    36.6670
 22
     8.3333
 32
     1.0000
 13
    35.0000
 23
     8.3333
 33
     1.0000
  0
3DFACE
  8
150
 62
150
 10
    35.0000
 20
     8.3333
 30
     0.0000
 11
    34.2500
 21
     7.5000
 31
     0.0000
 12
    36.0000
 22
     7.5000
 32
     0.0000
 13
    36.6670
 23
     8.3333
 33
     0.0000
  0
3DFACE
  8
2
 62
2
 10
    35.0000
 20
     8.3333
 30
     1.0000
 11
    36.6670
 21
     8.3333
 31
     1.0000
 12
    36.0000
 22
     7.5000
 32
     1.0000
 13
    34.2500
 23
     7.5000
 33
     1.0000
  0
3DFACE
  8
150
 62
150
 10
    34.2500
 20
     7.5000
 30
     0.0000
 11
    33.5000
 21
     6.6667
 31
     0.0000
 12
    35.3330
 22
     6.6667
 32
     0.0000
 13
    36.0000
 23
     7.5000
 33
     0.0000
  0
3DFACE
  8
2
 62
2
 10
    34.2500
 20
     7.5000
 30
     1.0000
 11
    36.0000
 21
     7.5000
 31
     1.0000
 12
    35.3330
 22
     6.6667
 32
     1.0000
 13
    33.5000
 23
     6.6667
 33
     1.0000
  0
3DFACE
  8
150
 62
150
 10
    33.5000
 20
     6.6667
 30
     0.0000
 11
    32.7500
 21
     5.8333
 31
     0.0000
 12
    34.6670
 22
     5.8333
 32
     0.0000
 13
    35.3330
 23
     6.6667
 33
     0.0000
  0
3DFACE
  8
2
 62
2
 10
    33.5000
 20
     6.6667
 30
     1.0000
 11
    35.3330
 21
     6.6667
 31
     1.0000
 12
    34.6670
 22
     5.8333
 32
     1.0000
 13
    32.7500
 23
     5.8333
 33
     1.0000
  0
3DFACE
  8
150
 62
150
 10
    32.7500
 20
     5.8333
 30
     0.0000
 11
    32.0000
 21
     5.0000
 31
     0.0000
 12
    34.0000
 22
     5.0000
 32
     0.0000
 13
    34.6670
 23
     5.8333
 33
     0.0000
  0
3DFACE
  8
2
 62
2
 10
    32.7500
 20
     5.8333
 30
     1.0000
 11
    34.6670
 21
     5.8333
 31
     1.0000
 12
    34.0000
 22
     5.0000
 32
     1.0000
 13
    32.0000
 23
     5.0000
 33
     1.0000
  0
3DFACE
  8
150
 62
150
 10
    42.0000
 20
    15.0000
 30
     0.0000
 11
    41.3330
 21
    14.1670
 31
     0.0000
 12
    42.4170
 22
    14.1670
 32
     0.0000
 13
    43.0000
 23
    15.0000
 33
     0.0000
  0
3DFACE
  8
154
 62
154
 10
    42.0000
 20
    15.0000
 30
     0.0000
 11
    43.0000
 21
    15.0000
 31
     0.0000
 12
    43.0000
 22
    15.0000
 32
     1.0000
 13
    42.0000
 23
    15.0000
 33
     1.0000
  0
3DFACE
  8
2
 62
2
 10
    42.0000
 20
    15.0000
 30
     1.0000
 11
    43.0000
 21
    15.0000
 31
     1.0000
 12
    42.4170
 22
    14.1670
 32
     1.0000
 13
    41.3330
 23
    14.1670
 33
     1.0000
  0
3DFACE
  8
150
 62
150
 10
    41.3330
 20
    14.1670
 30
     0.0000
 11
    40.6670
 21
    13.3330
 31
     0.0000
 12
    41.8330
 22
    13.3330
 32
     0.0000
 13
    42.4170
 23
    14.1670
 33
     0.0000
  0
3DFACE
  8
2
 62
2
 10
    41.3330
 20
    14.1670
 30
     1.0000
 11
    42.4170
 21
    14.1670
 31
     1.0000
 12
    41.8330
 22
    13.3330
 32
     1.0000
 13
    40.6670
 23
    13.3330
 33
     1.0000
  0
3DFACE
  8
150
 62
150
 10
    40.6670
 20
    13.3330
 30
     0.0000
 11
    40.0000
 21
    12.5000
 31
     0.0000
 12
    41.2500
 22
    12.5000
 32
     0.0000
 13
    41.8330
 23
    13.3330
 33
     0.0000
  0
3DFACE
  8
2
 62
2
 10
    40.6670
 20
    13.3330
 30
     1.0000
 11
    41.8330
 21
    13.3330
 31
     1.0000
 12
    41.2500
 22
    12.5000
 32
     1.0000
 13
    40.0000
 23
    12.5000
 33
     1.0000
  0
3DFACE
  8
150
 62
150
 10
    40.0000
 20
    12.5000
 30
     0.0000
 11
    39.3330
 21
    11.6670
 31
     0.0000
 12
    40.6670
 22
    11.6670
 32
     0.0000
 13
    41.2500
 23
    12.5000
 33
     0.0000
  0
3DFACE
  8
2
 62
2
 10
    40.0000
 20
    12.5000
 30
     1.0000
 11
    41.2500
 21
    12.5000
 31
     1.0000
 12
    40.6670
 22
    11.6670
 32
     1.0000
 13
    39.3330
 23
    11.6670
 33
     1.0000
  0
3DFACE
  8
150
 62
150
 10
    39.3330
 20
    11.6670
 30
     0.0000
 11
    38.6670
 21
    10.8330
 31
     0.0000
 12
    40.0830
 22
    10.8330
 32
     0.0000
 13
    40.6670
 23
    11.6670
 33
     0.0000
  0
3DFACE
  8
2
 62
2
 10
    39.3330
 20
    11.6670
 30
     1.0000
 11
    40.6670
 21
    11.6670
 31
     1.0000
 12
    40.0830
 22
    10.8330
 32
     1.0000
 13
    38.6670
 23
    10.8330
 33
     1.0000
  0
3DFACE
  8
150
 62
150
 10
    38.6670
 20
    10.8330
 30
     0.0000
 11
    38.0000
 21
    10.0000
 31
     0.0000
 12
    39.5000
 22
    10.0000
 32
     0.0000
 13
    40.0830
 23
    10.8330
 33
     0.0000
  0
3DFACE
  8
2
 62
2
 10
    38.6670
 20
    10.8330
 30
     1.0000
 11
    40.0830
 21
    10.8330
 31
     1.0000
 12
    39.5000
 22
    10.0000
 32
     1.0000
 13
    38.0000
 23
    10.0000
 33
     1.0000
  0
3DFACE
  8
150
 62
150
 10
    38.0000
 20
    10.0000
 30
     0.0000
 11
    37.3330
 21
     9.1667
 31
     0.0000
 12
    38.9170
 22
     9.1667
 32
     0.0000
 13
    39.5000
 23
    10.0000
 33
     0.0000
  0
3DFACE
  8
2
 62
2
 10
    38.0000
 20
    10.0000
 30
     1.0000
 11
    39.5000
 21
    10.0000
 31
     1.0000
 12
    38.9170
 22
     9.1667
 32
     1.0000
 13
    37.3330
 23
     9.1667
 33
     1.0000
  0
3DFACE
  8
150
 62
150
 10
    37.3330
 20
     9.1667
 30
     0.0000
 11
    36.6670
 21
     8.3333
 31
     0.0000
 12
    38.3330
 22
     8.3333
 32
     0.0000
 13
    38.9170
 23
     9.1667
 33
     0.0000
  0
3DFACE
  8
2
 62
2
 10
    37.3330
 20
     9.1667
 30
     1.0000
 11
    38.9170
 21
     9.1667
 31
     1.0000
 12
    38.3330
 22
     8.3333
 32
     1.0000
 13
    36.6670
 23
     8.3333
 33
     1.0000
  0
3DFACE
  8
150
 62
150
 10
    36.6670
 20
     8.3333
 30
     0.0000
 11
    36.0000
 21
     7.5000
 31
     0.0000
 12
    37.7500
 22
     7.5000
 32
     0.0000
 13
    38.3330
 23
     8.3333
 33
     0.0000
  0
3DFACE
  8
2
 62
2
 10
    36.6670
 20
     8.3333
 30
     1.0000
 11
    38.3330
 21
     8.3333
 31
     1.0000
 12
    37.7500
 22
     7.5000
 32
     1.0000
 13
    36.0000
 23
     7.5000
 33
     1.0000
  0
3DFACE
  8
150
 62
150
 10
    36.0000
 20
     7.5000
 30
     0.0000
 11
    35.3330
 21
     6.6667
 31
     0.0000
 12
    37.1670
 22
     6.6667
 32
     0.0000
 13
    37.7500
 23
     7.5000
 33
     0.0000
  0
3DFACE
  8
2
 62
2
 10
    36.0000
 20
     7.5000
 30
     1.0000
 11
    37.7500
 21
     7.5000
 31
     1.0000
 12
    37.1670
 22
     6.6667
 32
     1.0000
 13
    35.3330
 23
     6.6667
 33
     1.0000
  0
3DFACE
  8
150
 62
150
 10
    35.3330
 20
     6.6667
 30
     0.0000
 11
    34.6670
 21
     5.8333
 31
     0.0000
 12
    36.5830
 22
     5.8333
 32
     0.0000
 13
    37.1670
 23
     6.6667
 33
     0.0000
  0
3DFACE
  8
2
 62
2
 10
    35.3330
 20
     6.6667
 30
     1.0000
 11
    37.1670
 21
     6.6667
 31
     1.0000
 12
    36.5830
 22
     5.8333
 32
     1.0000
 13
    34.6670
 23
     5.8333
 33
     1.0000
  0
3DFACE
  8
150
 62
150
 10
    34.6670
 20
     5.8333
 30
     0.0000
 11
    34.0000
 21
     5.0000
 31
     0.0000
 12
    36.0000
 22
     5.0000
 32
     0.0000
 13
    36.5830
 23
     5.8333
 33
     0.0000
  0
3DFACE
  8
2
 62
2
 10
    34.6670
 20
     5.8333
 30
     1.0000
 11
    36.5830
 21
     5.8333
 31
     1.0000
 12
    36.0000
 22
     5.0000
 32
     1.0000
 13
    34.0000
 23
     5.0000
 33
     1.0000
  0
3DFACE
  8
150
 62
150
 10
    43.0000
 20
    15.0000
 30
     0.0000
 11
    42.4170
 21
    14.1670
 31
     0.0000
 12
    43.5000
 22
    14.1670
 32
     0.0000
 13
    44.0000
 23
    15.0000
 33
     0.0000
  0
3DFACE
  8
154
 62
154
 10
    43.0000
 20
    15.0000
 30
     0.0000
 11
    44.0000
 21
    15.0000
 31
     0.0000
 12
    44.0000
 22
    15.0000
 32
     1.0000
 13
    43.0000
 23
    15.0000
 33
     1.0000
  0
3DFACE
  8
2
 62
2
 10
    43.0000
 20
    15.0000
 30
     1.0000
 11
    44.0000
 21
    15.0000
 31
     1.0000
 12
    43.5000
 22
    14.1670
 32
     1.0000
 13
    42.4170
 23
    14.1670
 33
     1.0000
  0
3DFACE
  8
150
 62
150
 10
    42.4170
 20
    14.1670
 30
     0.0000
 11
    41.8330
 21
    13.3330
 31
     0.0000
 12
    43.0000
 22
    13.3330
 32
     0.0000
 13
    43.5000
 23
    14.1670
 33
     0.0000
  0
3DFACE
  8
2
 62
2
 10
    42.4170
 20
    14.1670
 30
     1.0000
 11
    43.5000
 21
    14.1670
 31
     1.0000
 12
    43.0000
 22
    13.3330
 32
     1.0000
 13
    41.8330
 23
    13.3330
 33
     1.0000
  0
3DFACE
  8
150
 62
150
 10
    41.8330
 20
    13.3330
 30
     0.0000
 11
    41.2500
 21
    12.5000
 31
     0.0000
 12
    42.5000
 22
    12.5000
 32
     0.0000
 13
    43.0000
 23
    13.3330
 33
     0.0000
  0
3DFACE
  8
2
 62
2
 10
    41.8330
 20
    13.3330
 30
     1.0000
 11
    43.0000
 21
    13.3330
 31
     1.0000
 12
    42.5000
 22
    12.5000
 32
     1.0000
 13
    41.2500
 23
    12.5000
 33
     1.0000
  0
3DFACE
  8
150
 62
150
 10
    41.2500
 20
    12.5000
 30
     0.0000
 11
    40.6670
 21
    11.6670
 31
     0.0000
 12
    42.0000
 22
    11.6670
 32
     0.0000
 13
    42.5000
 23
    12.5000
 33
     0.0000
  0
3DFACE
  8
2
 62
2
 10
    41.2500
 20
    12.5000
 30
     1.0000
 11
    42.5000
 21
    12.5000
 31
     1.0000
 12
    42.0000
 22
    11.6670
 32
     1.0000
 13
    40.6670
 23
    11.6670
 33
     1.0000
  0
3DFACE
  8
150
 62
150
 10
    40.6670
 20
    11.6670
 30
     0.0000
 11
    40.0830
 21
    10.8330
 31
     0.0000
 12
    41.5000
 22
    10.8330
 32
     0.0000
 13
    42.0000
 23
    11.6670
 33
     0.0000
  0
3DFACE
  8
2
 62
2
 10
    40.6670
 20
    11.6670
 30
     1.0000
 11
    42.0000
 21
    11.6670
 31
     1.0000
 12
    41.5000
 22
    10.8330
 32
     1.0000
 13
    40.0830
 23
    10.8330
 33
     1.0000
  0
3DFACE
  8
150
 62
150
 10
    40.0830
 20
    10.8330
 30
     0.0000
 11
    39.5000
 21
    10.0000
 31
     0.0000
 12
    41.0000
 22
    10.0000
 32
     0.0000
 13
    41.5000
 23
    10.8330
 33
     0.0000
  0
3DFACE
  8
2
 62
2
 10
    40.0830
 20
    10.8330
 30
     1.0000
 11
    41.5000
 21
    10.8330
 31
     1.0000
 12
    41.0000
 22
    10.0000
 32
     1.0000
 13
    39.5000
 23
    10.0000
 33
     1.0000
  0
3DFACE
  8
150
 62
150
 10
    39.5000
 20
    10.0000
 30
     0.0000
 11
    38.9170
 21
     9.1667
 31
     0.0000
 12
    40.5000
 22
     9.1667
 32
     0.0000
 13
    41.0000
 23
    10.0000
 33
     0.0000
  0
3DFACE
  8
2
 62
2
 10
    39.5000
 20
    10.0000
 30
     1.0000
 11
    41.0000
 21
    10.0000
 31
     1.0000
 12
    40.5000
 22
     9.1667
 32
     1.0000
 13
    38.9170
 23
     9.1667
 33
     1.0000
  0
3DFACE
  8
150
 62
150
 10
    38.9170
 20
     9.1667
 30
     0.0000
 11
    38.3330
 21
     8.3333
 31
     0.0000
 12
    40.0000
 22
     8.3333
 32
     0.0000
 13
    40.5000
 23
     9.1667
 33
     0.0000
  0
3DFACE
  8
2
 62
2
 10
    38.9170
 20
     9.1667
 30
     1.0000
 11
    40.5000
 21
     9.1667
 31
     1.0000
 12
    40.0000
 22
     8.3333
 32
     1.0000
 13
    38.3330
 23
     8.3333
 33
     1.0000
  0
3DFACE
  8
150
 62
150
 10
    38.3330
 20
     8.3333
 30
     0.0000
 11
    37.7500
 21
     7.5000
 31
     0.0000
 12
    39.5000
 22
     7.5000
 32
     0.0000
 13
    40.0000
 23
     8.3333
 33
     0.0000
  0
3DFACE
  8
2
 62
2
 10
    38.3330
 20
     8.3333
 30
     1.0000
 11
    40.0000
 21
     8.3333
 31
     1.0000
 12
    39.5000
 22
     7.5000
 32
     1.0000
 13
    37.7500
 23
     7.5000
 33
     1.0000
  0
3DFACE
  8
150
 62
150
 10
    37.7500
 20
     7.5000
 30
     0.0000
 11
    37.1670
 21
     6.6667
 31
     0.0000
 12
    39.0000
 22
     6.6667
 32
     0.0000
 13
    39.5000
 23
     7.5000
 33
     0.0000
  0
3DFACE
  8
2
 62
2
 10
    37.7500
 20
     7.5000
 30
     1.0000
 11
    39.5000
 21
     7.5000
 31
     1.0000
 12
    39.0000
 22
     6.6667
 32
     1.0000
 13
    37.1670
 23
     6.6667
 33
     1.0000
  0
3DFACE
  8
150
 62
150
 10
    37.1670
 20
     6.6667
 30
     0.0000
 11
    36.5830
 21
     5.8333
 31
     0.0000
 12
    38.5000
 22
     5.8333
 32
     0.0000
 13
    39.0000
 23
     6.6667
 33
     0.0000
  0
3DFACE
  8
2
 62
2
 10
    37.1670
 20
     6.6667
 30
     1.0000
 11
    39.0000
 21
     6.6667
 31
     1.0000
 12
    38.5000
 22
     5.8333
 32
     1.0000
 13
    36.5830
 23
     5.8333
 33
     1.0000
  0
3DFACE
  8
150
 62
150
 10
    36.5830
 20
     5.8333
 30
     0.0000
 11
    36.0000
 21
     5.0000
 31
     0.0000
 12
    38.0000
 22
     5.0000
 32
     0.0000
 13
    38.5000
 23
     5.8333
 33
     0.0000
  0
3DFACE
  8
2
 62
2
 10
    36.5830
 20
     5.8333
 30
     1.0000
 11
    38.5000
 21
     5.8333
 31
     1.0000
 12
    38.0000
 22
     5.0000
 32
     1.0000
 13
    36.0000
 23
     5.0000
 33
     1.0000
  0
3DFACE
  8
150
 62
150
 10
    44.0000
 20
    15.0000
 30
     0.0000
 11
    43.5000
 21
    14.1670
 31
     0.0000
 12
    44.5830
 22
    14.1670
 32
     0.0000
 13
    45.0000
 23
    15.0000
 33
     0.0000
  0
3DFACE
  8
154
 62
154
 10
    44.0000
 20
    15.0000
 30
     0.0000
 11
    45.0000
 21
    15.0000
 31
     0.0000
 12
    45.0000
 22
    15.0000
 32
     1.0000
 13
    44.0000
 23
    15.0000
 33
     1.0000
  0
3DFACE
  8
2
 62
2
 10
    44.0000
 20
    15.0000
 30
     1.0000
 11
    45.0000
 21
    15.0000
 31
     1.0000
 12
    44.5830
 22
    14.1670
 32
     1.0000
 13
    43.5000
 23
    14.1670
 33
     1.0000
  0
3DFACE
  8
150
 62
150
 10
    43.5000
 20
    14.1670
 30
     0.0000
 11
    43.0000
 21
    13.3330
 31
     0.0000
 12
    44.1670
 22
    13.3330
 32
     0.0000
 13
    44.5830
 23
    14.1670
 33
     0.0000
  0
3DFACE
  8
2
 62
2
 10
    43.5000
 20
    14.1670
 30
     1.0000
 11
    44.5830
 21
    14.1670
 31
     1.0000
 12
    44.1670
 22
    13.3330
 32
     1.0000
 13
    43.0000
 23
    13.3330
 33
     1.0000
  0
3DFACE
  8
150
 62
150
 10
    43.0000
 20
    13.3330
 30
     0.0000
 11
    42.5000
 21
    12.5000
 31
     0.0000
 12
    43.7500
 22
    12.5000
 32
     0.0000
 13
    44.1670
 23
    13.3330
 33
     0.0000
  0
3DFACE
  8
2
 62
2
 10
    43.0000
 20
    13.3330
 30
     1.0000
 11
    44.1670
 21
    13.3330
 31
     1.0000
 12
    43.7500
 22
    12.5000
 32
     1.0000
 13
    42.5000
 23
    12.5000
 33
     1.0000
  0
3DFACE
  8
150
 62
150
 10
    42.5000
 20
    12.5000
 30
     0.0000
 11
    42.0000
 21
    11.6670
 31
     0.0000
 12
    43.3330
 22
    11.6670
 32
     0.0000
 13
    43.7500
 23
    12.5000
 33
     0.0000
  0
3DFACE
  8
2
 62
2
 10
    42.5000
 20
    12.5000
 30
     1.0000
 11
    43.7500
 21
    12.5000
 31
     1.0000
 12
    43.3330
 22
    11.6670
 32
     1.0000
 13
    42.0000
 23
    11.6670
 33
     1.0000
  0
3DFACE
  8
150
 62
150
 10
    42.0000
 20
    11.6670
 30
     0.0000
 11
    41.5000
 21
    10.8330
 31
     0.0000
 12
    42.9170
 22
    10.8330
 32
     0.0000
 13
    43.3330
 23
    11.6670
 33
     0.0000
  0
3DFACE
  8
2
 62
2
 10
    42.0000
 20
    11.6670
 30
     1.0000
 11
    43.3330
 21
    11.6670
 31
     1.0000
 12
    42.9170
 22
    10.8330
 32
     1.0000
 13
    41.5000
 23
    10.8330
 33
     1.0000
  0
3DFACE
  8
150
 62
150
 10
    41.5000
 20
    10.8330
 30
     0.0000
 11
    41.0000
 21
    10.0000
 31
     0.0000
 12
    42.5000
 22
    10.0000
 32
     0.0000
 13
    42.9170
 23
    10.8330
 33
     0.0000
  0
3DFACE
  8
2
 62
2
 10
    41.5000
 20
    10.8330
 30
     1.0000
 11
    42.9170
 21
    10.8330
 31
     1.0000
 12
    42.5000
 22
    10.0000
 32
     1.0000
 13
    41.0000
 23
    10.0000
 33
     1.0000
  0
3DFACE
  8
150
 62
150
 10
    41.0000
 20
    10.0000
 30
     0.0000
 11
    40.5000
 21
     9.1667
 31
     0.0000
 12
    42.0830
 22
     9.1667
 32
     0.0000
 13
    42.5000
 23
    10.0000
 33
     0.0000
  0
3DFACE
  8
2
 62
2
 10
    41.0000
 20
    10.0000
 30
     1.0000
 11
    42.5000
 21
    10.0000
 31
     1.0000
 12
    42.0830
 22
     9.1667
 32
     1.0000
 13
    40.5000
 23
     9.1667
 33
     1.0000
  0
3DFACE
  8
150
 62
150
 10
    40.5000
 20
     9.1667
 30
     0.0000
 11
    40.0000
 21
     8.3333
 31
     0.0000
 12
    41.6670
 22
     8.3333
 32
     0.0000
 13
    42.0830
 23
     9.1667
 33
     0.0000
  0
3DFACE
  8
2
 62
2
 10
    40.5000
 20
     9.1667
 30
     1.0000
 11
    42.0830
 21
     9.1667
 31
     1.0000
 12
    41.6670
 22
     8.3333
 32
     1.0000
 13
    40.0000
 23
     8.3333
 33
     1.0000
  0
3DFACE
  8
150
 62
150
 10
    40.0000
 20
     8.3333
 30
     0.0000
 11
    39.5000
 21
     7.5000
 31
     0.0000
 12
    41.2500
 22
     7.5000
 32
     0.0000
 13
    41.6670
 23
     8.3333
 33
     0.0000
  0
3DFACE
  8
2
 62
2
 10
    40.0000
 20
     8.3333
 30
     1.0000
 11
    41.6670
 21
     8.3333
 31
     1.0000
 12
    41.2500
 22
     7.5000
 32
     1.0000
 13
    39.5000
 23
     7.5000
 33
     1.0000
  0
3DFACE
  8
150
 62
150
 10
    39.5000
 20
     7.5000
 30
     0.0000
 11
    39.0000
 21
     6.6667
 31
     0.0000
 12
    40.8330
 22
     6.6667
 32
     0.0000
 13
    41.2500
 23
     7.5000
 33
     0.0000
  0
3DFACE
  8
2
 62
2
 10
    39.5000
 20
     7.5000
 30
     1.0000
 11
    41.2500
 21
     7.5000
 31
     1.0000
 12
    40.8330
 22
     6.6667
 32
     1.0000
 13
    39.0000
 23
     6.6667
 33
     1.0000
  0
3DFACE
  8
150
 62
150
 10
    39.0000
 20
     6.6667
 30
     0.0000
 11
    38.5000
 21
     5.8333
 31
     0.0000
 12
    40.4170
 22
     5.8333
 32
     0.0000
 13
    40.8330
 23
     6.6667
 33
     0.0000
  0
3DFACE
  8
2
 62
2
 10
    39.0000
 20
     6.6667
 30
     1.0000
 11
    40.8330
 21
     6.6667
 31
     1.0000
 12
    40.4170
 22
     5.8333
 32
     1.0000
 13
    38.5000
 23
     5.8333
 33
     1.0000
  0
3DFACE
  8
150
 62
150
 10
    38.5000
 20
     5.8333
 30
     0.0000
 11
    38.0000
 21
     5.0000
 31
     0.0000
 12
    40.0000
 22
     5.0000
 32
     0.0000
 13
    40.4170
 23
     5.8333
 33
     0.0000
  0
3DFACE
  8
2
 62
2
 10
    38.5000
 20
     5.8333
 30
     1.0000
 11
    40.4170
 21
     5.8333
 31
     1.0000
 12
    40.0000
 22
     5.0000
 32
     1.0000
 13
    38.0000
 23
     5.0000
 33
     1.0000
  0
3DFACE
  8
150
 62
150
 10
    45.0000
 20
    15.0000
 30
     0.0000
 11
    44.5830
 21
    14.1670
 31
     0.0000
 12
    45.6670
 22
    14.1670
 32
     0.0000
 13
    46.0000
 23
    15.0000
 33
     0.0000
  0
3DFACE
  8
154
 62
154
 10
    45.0000
 20
    15.0000
 30
     0.0000
 11
    46.0000
 21
    15.0000
 31
     0.0000
 12
    46.0000
 22
    15.0000
 32
     1.0000
 13
    45.0000
 23
    15.0000
 33
     1.0000
  0
3DFACE
  8
2
 62
2
 10
    45.0000
 20
    15.0000
 30
     1.0000
 11
    46.0000
 21
    15.0000
 31
     1.0000
 12
    45.6670
 22
    14.1670
 32
     1.0000
 13
    44.5830
 23
    14.1670
 33
     1.0000
  0
3DFACE
  8
150
 62
150
 10
    44.5830
 20
    14.1670
 30
     0.0000
 11
    44.1670
 21
    13.3330
 31
     0.0000
 12
    45.3330
 22
    13.3330
 32
     0.0000
 13
    45.6670
 23
    14.1670
 33
     0.0000
  0
3DFACE
  8
2
 62
2
 10
    44.5830
 20
    14.1670
 30
     1.0000
 11
    45.6670
 21
    14.1670
 31
     1.0000
 12
    45.3330
 22
    13.3330
 32
     1.0000
 13
    44.1670
 23
    13.3330
 33
     1.0000
  0
3DFACE
  8
150
 62
150
 10
    44.1670
 20
    13.3330
 30
     0.0000
 11
    43.7500
 21
    12.5000
 31
     0.0000
 12
    45.0000
 22
    12.5000
 32
     0.0000
 13
    45.3330
 23
    13.3330
 33
     0.0000
  0
3DFACE
  8
2
 62
2
 10
    44.1670
 20
    13.3330
 30
     1.0000
 11
    45.3330
 21
    13.3330
 31
     1.0000
 12
    45.0000
 22
    12.5000
 32
     1.0000
 13
    43.7500
 23
    12.5000
 33
     1.0000
  0
3DFACE
  8
150
 62
150
 10
    43.7500
 20
    12.5000
 30
     0.0000
 11
    43.3330
 21
    11.6670
 31
     0.0000
 12
    44.6670
 22
    11.6670
 32
     0.0000
 13
    45.0000
 23
    12.5000
 33
     0.0000
  0
3DFACE
  8
2
 62
2
 10
    43.7500
 20
    12.5000
 30
     1.0000
 11
    45.0000
 21
    12.5000
 31
     1.0000
 12
    44.6670
 22
    11.6670
 32
     1.0000
 13
    43.3330
 23
    11.6670
 33
     1.0000
  0
3DFACE
  8
150
 62
150
 10
    43.3330
 20
    11.6670
 30
     0.0000
 11
    42.9170
 21
    10.8330
 31
     0.0000
 12
    44.3330
 22
    10.8330
 32
     0.0000
 13
    44.6670
 23
    11.6670
 33
     0.0000
  0
3DFACE
  8
2
 62
2
 10
    43.3330
 20
    11.6670
 30
     1.0000
 11
    44.6670
 21
    11.6670
 31
     1.0000
 12
    44.3330
 22
    10.8330
 32
     1.0000
 13
    42.9170
 23
    10.8330
 33
     1.0000
  0
3DFACE
  8
150
 62
150
 10
    42.9170
 20
    10.8330
 30
     0.0000
 11
    42.5000
 21
    10.0000
 31
     0.0000
 12
    44.0000
 22
    10.0000
 32
     0.0000
 13
    44.3330
 23
    10.8330
 33
     0.0000
  0
3DFACE
  8
2
 62
2
 10
    42.9170
 20
    10.8330
 30
     1.0000
 11
    44.3330
 21
    10.8330
 31
     1.0000
 12
    44.0000
 22
    10.0000
 32
     1.0000
 13
    42.5000
 23
    10.0000
 33
     1.0000
  0
3DFACE
  8
150
 62
150
 10
    42.5000
 20
    10.0000
 30
     0.0000
 11
    42.0830
 21
     9.1667
 31
     0.0000
 12
    43.6670
 22
     9.1667
 32
     0.0000
 13
    44.0000
 23
    10.0000
 33
     0.0000
  0
3DFACE
  8
2
 62
2
 10
    42.5000
 20
    10.0000
 30
     1.0000
 11
    44.0000
 21
    10.0000
 31
     1.0000
 12
    43.6670
 22
     9.1667
 32
     1.0000
 13
    42.0830
 23
     9.1667
 33
     1.0000
  0
3DFACE
  8
150
 62
150
 10
    42.0830
 20
     9.1667
 30
     0.0000
 11
    41.6670
 21
     8.3333
 31
     0.0000
 12
    43.3330
 22
     8.3333
 32
     0.0000
 13
    43.6670
 23
     9.1667
 33
     0.0000
  0
3DFACE
  8
2
 62
2
 10
    42.0830
 20
     9.1667
 30
     1.0000
 11
    43.6670
 21
     9.1667
 31
     1.0000
 12
    43.3330
 22
     8.3333
 32
     1.0000
 13
    41.6670
 23
     8.3333
 33
     1.0000
  0
3DFACE
  8
150
 62
150
 10
    41.6670
 20
     8.3333
 30
     0.0000
 11
    41.2500
 21
     7.5000
 31
     0.0000
 12
    43.0000
 22
     7.5000
 32
     0.0000
 13
    43.3330
 23
     8.3333
 33
     0.0000
  0
3DFACE
  8
2
 62
2
 10
    41.6670
 20
     8.3333
 30
     1.0000
 11
    43.3330
 21
     8.3333
 31
     1.0000
 12
    43.0000
 22
     7.5000
 32
     1.0000
 13
    41.2500
 23
     7.5000
 33
     1.0000
  0
3DFACE
  8
150
 62
150
 10
    41.2500
 20
     7.5000
 30
     0.0000
 11
    40.8330
 21
     6.6667
 31
     0.0000
 12
    42.6670
 22
     6.6667
 32
     0.0000
 13
    43.0000
 23
     7.5000
 33
     0.0000
  0
3DFACE
  8
2
 62
2
 10
    41.2500
 20
     7.5000
 30
     1.0000
 11
    43.0000
 21
     7.5000
 31
     1.0000
 12
    42.6670
 22
     6.6667
 32
     1.0000
 13
    40.8330
 23
     6.6667
 33
     1.0000
  0
3DFACE
  8
150
 62
150
 10
    40.8330
 20
     6.6667
 30
     0.0000
 11
    40.4170
 21
     5.8333
 31
     0.0000
 12
    42.3330
 22
     5.8333
 32
     0.0000
 13
    42.6670
 23
     6.6667
 33
     0.0000
  0
3DFACE
  8
2
 62
2
 10
    40.8330
 20
     6.6667
 30
     1.0000
 11
    42.6670
 21
     6.6667
 31
     1.0000
 12
    42.3330
 22
     5.8333
 32
     1.0000
 13
    40.4170
 23
     5.8333
 33
     1.0000
  0
3DFACE
  8
150
 62
150
 10
    40.4170
 20
     5.8333
 30
     0.0000
 11
    40.0000
 21
     5.0000
 31
     0.0000
 12
    42.0000
 22
     5.0000
 32
     0.0000
 13
    42.3330
 23
     5.8333
 33
     0.0000
  0
3DFACE
  8
2
 62
2
 10
    40.4170
 20
     5.8333
 30
     1.0000
 11
    42.3330
 21
     5.8333
 31
     1.0000
 12
    42.0000
 22
     5.0000
 32
     1.0000
 13
    40.0000
 23
     5.0000
 33
     1.0000
  0
3DFACE
  8
150
 62
150
 10
    46.0000
 20
    15.0000
 30
     0.0000
 11
    45.6670
 21
    14.1670
 31
     0.0000
 12
    46.7500
 22
    14.1670
 32
     0.0000
 13
    47.0000
 23
    15.0000
 33
     0.0000
  0
3DFACE
  8
154
 62
154
 10
    46.0000
 20
    15.0000
 30
     0.0000
 11
    47.0000
 21
    15.0000
 31
     0.0000
 12
    47.0000
 22
    15.0000
 32
     1.0000
 13
    46.0000
 23
    15.0000
 33
     1.0000
  0
3DFACE
  8
2
 62
2
 10
    46.0000
 20
    15.0000
 30
     1.0000
 11
    47.0000
 21
    15.0000
 31
     1.0000
 12
    46.7500
 22
    14.1670
 32
     1.0000
 13
    45.6670
 23
    14.1670
 33
     1.0000
  0
3DFACE
  8
150
 62
150
 10
    45.6670
 20
    14.1670
 30
     0.0000
 11
    45.3330
 21
    13.3330
 31
     0.0000
 12
    46.5000
 22
    13.3330
 32
     0.0000
 13
    46.7500
 23
    14.1670
 33
     0.0000
  0
3DFACE
  8
2
 62
2
 10
    45.6670
 20
    14.1670
 30
     1.0000
 11
    46.7500
 21
    14.1670
 31
     1.0000
 12
    46.5000
 22
    13.3330
 32
     1.0000
 13
    45.3330
 23
    13.3330
 33
     1.0000
  0
3DFACE
  8
150
 62
150
 10
    45.3330
 20
    13.3330
 30
     0.0000
 11
    45.0000
 21
    12.5000
 31
     0.0000
 12
    46.2500
 22
    12.5000
 32
     0.0000
 13
    46.5000
 23
    13.3330
 33
     0.0000
  0
3DFACE
  8
2
 62
2
 10
    45.3330
 20
    13.3330
 30
     1.0000
 11
    46.5000
 21
    13.3330
 31
     1.0000
 12
    46.2500
 22
    12.5000
 32
     1.0000
 13
    45.0000
 23
    12.5000
 33
     1.0000
  0
3DFACE
  8
150
 62
150
 10
    45.0000
 20
    12.5000
 30
     0.0000
 11
    44.6670
 21
    11.6670
 31
     0.0000
 12
    46.0000
 22
    11.6670
 32
     0.0000
 13
    46.2500
 23
    12.5000
 33
     0.0000
  0
3DFACE
  8
2
 62
2
 10
    45.0000
 20
    12.5000
 30
     1.0000
 11
    46.2500
 21
    12.5000
 31
     1.0000
 12
    46.0000
 22
    11.6670
 32
     1.0000
 13
    44.6670
 23
    11.6670
 33
     1.0000
  0
3DFACE
  8
150
 62
150
 10
    44.6670
 20
    11.6670
 30
     0.0000
 11
    44.3330
 21
    10.8330
 31
     0.0000
 12
    45.7500
 22
    10.8330
 32
     0.0000
 13
    46.0000
 23
    11.6670
 33
     0.0000
  0
3DFACE
  8
2
 62
2
 10
    44.6670
 20
    11.6670
 30
     1.0000
 11
    46.0000
 21
    11.6670
 31
     1.0000
 12
    45.7500
 22
    10.8330
 32
     1.0000
 13
    44.3330
 23
    10.8330
 33
     1.0000
  0
3DFACE
  8
150
 62
150
 10
    44.3330
 20
    10.8330
 30
     0.0000
 11
    44.0000
 21
    10.0000
 31
     0.0000
 12
    45.5000
 22
    10.0000
 32
     0.0000
 13
    45.7500
 23
    10.8330
 33
     0.0000
  0
3DFACE
  8
2
 62
2
 10
    44.3330
 20
    10.8330
 30
     1.0000
 11
    45.7500
 21
    10.8330
 31
     1.0000
 12
    45.5000
 22
    10.0000
 32
     1.0000
 13
    44.0000
 23
    10.0000
 33
     1.0000
  0
3DFACE
  8
150
 62
150
 10
    44.0000
 20
    10.0000
 30
     0.0000
 11
    43.6670
 21
     9.1667
 31
     0.0000
 12
    45.2500
 22
     9.1667
 32
     0.0000
 13
    45.5000
 23
    10.0000
 33
     0.0000
  0
3DFACE
  8
2
 62
2
 10
    44.0000
 20
    10.0000
 30
     1.0000
 11
    45.5000
 21
    10.0000
 31
     1.0000
 12
    45.2500
 22
     9.1667
 32
     1.0000
 13
    43.6670
 23
     9.1667
 33
     1.0000
  0
3DFACE
  8
150
 62
150
 10
    43.6670
 20
     9.1667
 30
     0.0000
 11
    43.3330
 21
     8.3333
 31
     0.0000
 12
    45.0000
 22
     8.3333
 32
     0.0000
 13
    45.2500
 23
     9.1667
 33
     0.0000
  0
3DFACE
  8
2
 62
2
 10
    43.6670
 20
     9.1667
 30
     1.0000
 11
    45.2500
 21
     9.1667
 31
     1.0000
 12
    45.0000
 22
     8.3333
 32
     1.0000
 13
    43.3330
 23
     8.3333
 33
     1.0000
  0
3DFACE
  8
150
 62
150
 10
    43.3330
 20
     8.3333
 30
     0.0000
 11
    43.0000
 21
     7.5000
 31
     0.0000
 12
    44.7500
 22
     7.5000
 32
     0.0000
 13
    45.0000
 23
     8.3333
 33
     0.0000
  0
3DFACE
  8
2
 62
2
 10
    43.3330
 20
     8.3333
 30
     1.0000
 11
    45.0000
 21
     8.3333
 31
     1.0000
 12
    44.7500
 22
     7.5000
 32
     1.0000
 13
    43.0000
 23
     7.5000
 33
     1.0000
  0
3DFACE
  8
150
 62
150
 10
    43.0000
 20
     7.5000
 30
     0.0000
 11
    42.6670
 21
     6.6667
 31
     0.0000
 12
    44.5000
 22
     6.6667
 32
     0.0000
 13
    44.7500
 23
     7.5000
 33
     0.0000
  0
3DFACE
  8
2
 62
2
 10
    43.0000
 20
     7.5000
 30
     1.0000
 11
    44.7500
 21
     7.5000
 31
     1.0000
 12
    44.5000
 22
     6.6667
 32
     1.0000
 13
    42.6670
 23
     6.6667
 33
     1.0000
  0
3DFACE
  8
150
 62
150
 10
    42.6670
 20
     6.6667
 30
     0.0000
 11
    42.3330
 21
     5.8333
 31
     0.0000
 12
    44.2500
 22
     5.8333
 32
     0.0000
 13
    44.5000
 23
     6.6667
 33
     0.0000
  0
3DFACE
  8
2
 62
2
 10
    42.6670
 20
     6.6667
 30
     1.0000
 11
    44.5000
 21
     6.6667
 31
     1.0000
 12
    44.2500
 22
     5.8333
 32
     1.0000
 13
    42.3330
 23
     5.8333
 33
     1.0000
  0
3DFACE
  8
150
 62
150
 10
    42.3330
 20
     5.8333
 30
     0.0000
 11
    42.0000
 21
     5.0000
 31
     0.0000
 12
    44.0000
 22
     5.0000
 32
     0.0000
 13
    44.2500
 23
     5.8333
 33
     0.0000
  0
3DFACE
  8
2
 62
2
 10
    42.3330
 20
     5.8333
 30
     1.0000
 11
    44.2500
 21
     5.8333
 31
     1.0000
 12
    44.0000
 22
     5.0000
 32
     1.0000
 13
    42.0000
 23
     5.0000
 33
     1.0000
  0
3DFACE
  8
150
 62
150
 10
    47.0000
 20
    15.0000
 30
     0.0000
 11
    46.7500
 21
    14.1670
 31
     0.0000
 12
    47.8330
 22
    14.1670
 32
     0.0000
 13
    48.0000
 23
    15.0000
 33
     0.0000
  0
3DFACE
  8
154
 62
154
 10
    47.0000
 20
    15.0000
 30
     0.0000
 11
    48.0000
 21
    15.0000
 31
     0.0000
 12
    48.0000
 22
    15.0000
 32
     1.0000
 13
    47.0000
 23
    15.0000
 33
     1.0000
  0
3DFACE
  8
2
 62
2
 10
    47.0000
 20
    15.0000
 30
     1.0000
 11
    48.0000
 21
    15.0000
 31
     1.0000
 12
    47.8330
 22
    14.1670
 32
     1.0000
 13
    46.7500
 23
    14.1670
 33
     1.0000
  0
3DFACE
  8
150
 62
150
 10
    46.7500
 20
    14.1670
 30
     0.0000
 11
    46.5000
 21
    13.3330
 31
     0.0000
 12
    47.6670
 22
    13.3330
 32
     0.0000
 13
    47.8330
 23
    14.1670
 33
     0.0000
  0
3DFACE
  8
2
 62
2
 10
    46.7500
 20
    14.1670
 30
     1.0000
 11
    47.8330
 21
    14.1670
 31
     1.0000
 12
    47.6670
 22
    13.3330
 32
     1.0000
 13
    46.5000
 23
    13.3330
 33
     1.0000
  0
3DFACE
  8
150
 62
150
 10
    46.5000
 20
    13.3330
 30
     0.0000
 11
    46.2500
 21
    12.5000
 31
     0.0000
 12
    47.5000
 22
    12.5000
 32
     0.0000
 13
    47.6670
 23
    13.3330
 33
     0.0000
  0
3DFACE
  8
2
 62
2
 10
    46.5000
 20
    13.3330
 30
     1.0000
 11
    47.6670
 21
    13.3330
 31
     1.0000
 12
    47.5000
 22
    12.5000
 32
     1.0000
 13
    46.2500
 23
    12.5000
 33
     1.0000
  0
3DFACE
  8
150
 62
150
 10
    46.2500
 20
    12.5000
 30
     0.0000
 11
    46.0000
 21
    11.6670
 31
     0.0000
 12
    47.3330
 22
    11.6670
 32
     0.0000
 13
    47.5000
 23
    12.5000
 33
     0.0000
  0
3DFACE
  8
2
 62
2
 10
    46.2500
 20
    12.5000
 30
     1.0000
 11
    47.5000
 21
    12.5000
 31
     1.0000
 12
    47.3330
 22
    11.6670
 32
     1.0000
 13
    46.0000
 23
    11.6670
 33
     1.0000
  0
3DFACE
  8
150
 62
150
 10
    46.0000
 20
    11.6670
 30
     0.0000
 11
    45.7500
 21
    10.8330
 31
     0.0000
 12
    47.1670
 22
    10.8330
 32
     0.0000
 13
    47.3330
 23
    11.6670
 33
     0.0000
  0
3DFACE
  8
2
 62
2
 10
    46.0000
 20
    11.6670
 30
     1.0000
 11
    47.3330
 21
    11.6670
 31
     1.0000
 12
    47.1670
 22
    10.8330
 32
     1.0000
 13
    45.7500
 23
    10.8330
 33
     1.0000
  0
3DFACE
  8
150
 62
150
 10
    45.7500
 20
    10.8330
 30
     0.0000
 11
    45.5000
 21
    10.0000
 31
     0.0000
 12
    47.0000
 22
    10.0000
 32
     0.0000
 13
    47.1670
 23
    10.8330
 33
     0.0000
  0
3DFACE
  8
2
 62
2
 10
    45.7500
 20
    10.8330
 30
     1.0000
 11
    47.1670
 21
    10.8330
 31
     1.0000
 12
    47.0000
 22
    10.0000
 32
     1.0000
 13
    45.5000
 23
    10.0000
 33
     1.0000
  0
3DFACE
  8
150
 62
150
 10
    45.5000
 20
    10.0000
 30
     0.0000
 11
    45.2500
 21
     9.1667
 31
     0.0000
 12
    46.8330
 22
     9.1667
 32
     0.0000
 13
    47.0000
 23
    10.0000
 33
     0.0000
  0
3DFACE
  8
2
 62
2
 10
    45.5000
 20
    10.0000
 30
     1.0000
 11
    47.0000
 21
    10.0000
 31
     1.0000
 12
    46.8330
 22
     9.1667
 32
     1.0000
 13
    45.2500
 23
     9.1667
 33
     1.0000
  0
3DFACE
  8
150
 62
150
 10
    45.2500
 20
     9.1667
 30
     0.0000
 11
    45.0000
 21
     8.3333
 31
     0.0000
 12
    46.6670
 22
     8.3333
 32
     0.0000
 13
    46.8330
 23
     9.1667
 33
     0.0000
  0
3DFACE
  8
2
 62
2
 10
    45.2500
 20
     9.1667
 30
     1.0000
 11
    46.8330
 21
     9.1667
 31
     1.0000
 12
    46.6670
 22
     8.3333
 32
     1.0000
 13
    45.0000
 23
     8.3333
 33
     1.0000
  0
3DFACE
  8
150
 62
150
 10
    45.0000
 20
     8.3333
 30
     0.0000
 11
    44.7500
 21
     7.5000
 31
     0.0000
 12
    46.5000
 22
     7.5000
 32
     0.0000
 13
    46.6670
 23
     8.3333
 33
     0.0000
  0
3DFACE
  8
2
 62
2
 10
    45.0000
 20
     8.3333
 30
     1.0000
 11
    46.6670
 21
     8.3333
 31
     1.0000
 12
    46.5000
 22
     7.5000
 32
     1.0000
 13
    44.7500
 23
     7.5000
 33
     1.0000
  0
3DFACE
  8
150
 62
150
 10
    44.7500
 20
     7.5000
 30
     0.0000
 11
    44.5000
 21
     6.6667
 31
     0.0000
 12
    46.3330
 22
     6.6667
 32
     0.0000
 13
    46.5000
 23
     7.5000
 33
     0.0000
  0
3DFACE
  8
2
 62
2
 10
    44.7500
 20
     7.5000
 30
     1.0000
 11
    46.5000
 21
     7.5000
 31
     1.0000
 12
    46.3330
 22
     6.6667
 32
     1.0000
 13
    44.5000
 23
     6.6667
 33
     1.0000
  0
3DFACE
  8
150
 62
150
 10
    44.5000
 20
     6.6667
 30
     0.0000
 11
    44.2500
 21
     5.8333
 31
     0.0000
 12
    46.1670
 22
     5.8333
 32
     0.0000
 13
    46.3330
 23
     6.6667
 33
     0.0000
  0
3DFACE
  8
2
 62
2
 10
    44.5000
 20
     6.6667
 30
     1.0000
 11
    46.3330
 21
     6.6667
 31
     1.0000
 12
    46.1670
 22
     5.8333
 32
     1.0000
 13
    44.2500
 23
     5.8333
 33
     1.0000
  0
3DFACE
  8
150
 62
150
 10
    44.2500
 20
     5.8333
 30
     0.0000
 11
    44.0000
 21
     5.0000
 31
     0.0000
 12
    46.0000
 22
     5.0000
 32
     0.0000
 13
    46.1670
 23
     5.8333
 33
     0.0000
  0
3DFACE
  8
2
 62
2
 10
    44.2500
 20
     5.8333
 30
     1.0000
 11
    46.1670
 21
     5.8333
 31
     1.0000
 12
    46.0000
 22
     5.0000
 32
     1.0000
 13
    44.0000
 23
     5.0000
 33
     1.0000
  0
3DFACE
  8
150
 62
150
 10
    48.0000
 20
    15.0000
 30
     0.0000
 11
    47.8330
 21
    14.1670
 31
     0.0000
 12
    48.9170
 22
    14.1670
 32
     0.0000
 13
    49.0000
 23
    15.0000
 33
     0.0000
  0
3DFACE
  8
154
 62
154
 10
    48.0000
 20
    15.0000
 30
     0.0000
 11
    49.0000
 21
    15.0000
 31
     0.0000
 12
    49.0000
 22
    15.0000
 32
     1.0000
 13
    48.0000
 23
    15.0000
 33
     1.0000
  0
3DFACE
  8
2
 62
2
 10
    48.0000
 20
    15.0000
 30
     1.0000
 11
    49.0000
 21
    15.0000
 31
     1.0000
 12
    48.9170
 22
    14.1670
 32
     1.0000
 13
    47.8330
 23
    14.1670
 33
     1.0000
  0
3DFACE
  8
150
 62
150
 10
    47.8330
 20
    14.1670
 30
     0.0000
 11
    47.6670
 21
    13.3330
 31
     0.0000
 12
    48.8330
 22
    13.3330
 32
     0.0000
 13
    48.9170
 23
    14.1670
 33
     0.0000
  0
3DFACE
  8
2
 62
2
 10
    47.8330
 20
    14.1670
 30
     1.0000
 11
    48.9170
 21
    14.1670
 31
     1.0000
 12
    48.8330
 22
    13.3330
 32
     1.0000
 13
    47.6670
 23
    13.3330
 33
     1.0000
  0
3DFACE
  8
150
 62
150
 10
    47.6670
 20
    13.3330
 30
     0.0000
 11
    47.5000
 21
    12.5000
 31
     0.0000
 12
    48.7500
 22
    12.5000
 32
     0.0000
 13
    48.8330
 23
    13.3330
 33
     0.0000
  0
3DFACE
  8
2
 62
2
 10
    47.6670
 20
    13.3330
 30
     1.0000
 11
    48.8330
 21
    13.3330
 31
     1.0000
 12
    48.7500
 22
    12.5000
 32
     1.0000
 13
    47.5000
 23
    12.5000
 33
     1.0000
  0
3DFACE
  8
150
 62
150
 10
    47.5000
 20
    12.5000
 30
     0.0000
 11
    47.3330
 21
    11.6670
 31
     0.0000
 12
    48.6670
 22
    11.6670
 32
     0.0000
 13
    48.7500
 23
    12.5000
 33
     0.0000
  0
3DFACE
  8
2
 62
2
 10
    47.5000
 20
    12.5000
 30
     1.0000
 11
    48.7500
 21
    12.5000
 31
     1.0000
 12
    48.6670
 22
    11.6670
 32
     1.0000
 13
    47.3330
 23
    11.6670
 33
     1.0000
  0
3DFACE
  8
150
 62
150
 10
    47.3330
 20
    11.6670
 30
     0.0000
 11
    47.1670
 21
    10.8330
 31
     0.0000
 12
    48.5830
 22
    10.8330
 32
     0.0000
 13
    48.6670
 23
    11.6670
 33
     0.0000
  0
3DFACE
  8
2
 62
2
 10
    47.3330
 20
    11.6670
 30
     1.0000
 11
    48.6670
 21
    11.6670
 31
     1.0000
 12
    48.5830
 22
    10.8330
 32
     1.0000
 13
    47.1670
 23
    10.8330
 33
     1.0000
  0
3DFACE
  8
150
 62
150
 10
    47.1670
 20
    10.8330
 30
     0.0000
 11
    47.0000
 21
    10.0000
 31
     0.0000
 12
    48.5000
 22
    10.0000
 32
     0.0000
 13
    48.5830
 23
    10.8330
 33
     0.0000
  0
3DFACE
  8
2
 62
2
 10
    47.1670
 20
    10.8330
 30
     1.0000
 11
    48.5830
 21
    10.8330
 31
     1.0000
 12
    48.5000
 22
    10.0000
 32
     1.0000
 13
    47.0000
 23
    10.0000
 33
     1.0000
  0
3DFACE
  8
150
 62
150
 10
    47.0000
 20
    10.0000
 30
     0.0000
 11
    46.8330
 21
     9.1667
 31
     0.0000
 12
    48.4170
 22
     9.1667
 32
     0.0000
 13
    48.5000
 23
    10.0000
 33
     0.0000
  0
3DFACE
  8
2
 62
2
 10
    47.0000
 20
    10.0000
 30
     1.0000
 11
    48.5000
 21
    10.0000
 31
     1.0000
 12
    48.4170
 22
     9.1667
 32
     1.0000
 13
    46.8330
 23
     9.1667
 33
     1.0000
  0
3DFACE
  8
150
 62
150
 10
    46.8330
 20
     9.1667
 30
     0.0000
 11
    46.6670
 21
     8.3333
 31
     0.0000
 12
    48.3330
 22
     8.3333
 32
     0.0000
 13
    48.4170
 23
     9.1667
 33
     0.0000
  0
3DFACE
  8
2
 62
2
 10
    46.8330
 20
     9.1667
 30
     1.0000
 11
    48.4170
 21
     9.1667
 31
     1.0000
 12
    48.3330
 22
     8.3333
 32
     1.0000
 13
    46.6670
 23
     8.3333
 33
     1.0000
  0
3DFACE
  8
150
 62
150
 10
    46.6670
 20
     8.3333
 30
     0.0000
 11
    46.5000
 21
     7.5000
 31
     0.0000
 12
    48.2500
 22
     7.5000
 32
     0.0000
 13
    48.3330
 23
     8.3333
 33
     0.0000
  0
3DFACE
  8
2
 62
2
 10
    46.6670
 20
     8.3333
 30
     1.0000
 11
    48.3330
 21
     8.3333
 31
     1.0000
 12
    48.2500
 22
     7.5000
 32
     1.0000
 13
    46.5000
 23
     7.5000
 33
     1.0000
  0
3DFACE
  8
150
 62
150
 10
    46.5000
 20
     7.5000
 30
     0.0000
 11
    46.3330
 21
     6.6667
 31
     0.0000
 12
    48.1670
 22
     6.6667
 32
     0.0000
 13
    48.2500
 23
     7.5000
 33
     0.0000
  0
3DFACE
  8
2
 62
2
 10
    46.5000
 20
     7.5000
 30
     1.0000
 11
    48.2500
 21
     7.5000
 31
     1.0000
 12
    48.1670
 22
     6.6667
 32
     1.0000
 13
    46.3330
 23
     6.6667
 33
     1.0000
  0
3DFACE
  8
150
 62
150
 10
    46.3330
 20
     6.6667
 30
     0.0000
 11
    46.1670
 21
     5.8333
 31
     0.0000
 12
    48.0830
 22
     5.8333
 32
     0.0000
 13
    48.1670
 23
     6.6667
 33
     0.0000
  0
3DFACE
  8
2
 62
2
 10
    46.3330
 20
     6.6667
 30
     1.0000
 11
    48.1670
 21
     6.6667
 31
     1.0000
 12
    48.0830
 22
     5.8333
 32
     1.0000
 13
    46.1670
 23
     5.8333
 33
     1.0000
  0
3DFACE
  8
150
 62
150
 10
    46.1670
 20
     5.8333
 30
     0.0000
 11
    46.0000
 21
     5.0000
 31
     0.0000
 12
    48.0000
 22
     5.0000
 32
     0.0000
 13
    48.0830
 23
     5.8333
 33
     0.0000
  0
3DFACE
  8
2
 62
2
 10
    46.1670
 20
     5.8333
 30
     1.0000
 11
    48.0830
 21
     5.8333
 31
     1.0000
 12
    48.0000
 22
     5.0000
 32
     1.0000
 13
    46.0000
 23
     5.0000
 33
     1.0000
  0
3DFACE
  8
150
 62
150
 10
    49.0000
 20
    15.0000
 30
     0.0000
 11
    48.9170
 21
    14.1670
 31
     0.0000
 12
    50.0000
 22
    14.1670
 32
     0.0000
 13
    50.0000
 23
    15.0000
 33
     0.0000
  0
3DFACE
  8
154
 62
154
 10
    49.0000
 20
    15.0000
 30
     0.0000
 11
    50.0000
 21
    15.0000
 31
     0.0000
 12
    50.0000
 22
    15.0000
 32
     1.0000
 13
    49.0000
 23
    15.0000
 33
     1.0000
  0
3DFACE
  8
152
 62
152
 10
    50.0000
 20
    14.1670
 30
     0.0000
 11
    50.0000
 21
    14.1670
 31
     1.0000
 12
    50.0000
 22
    15.0000
 32
     1.0000
 13
    50.0000
 23
    15.0000
 33
     0.0000
  0
3DFACE
  8
2
 62
2
 10
    49.0000
 20
    15.0000
 30
     1.0000
 11
    50.0000
 21
    15.0000
 31
     1.0000
 12
    50.0000
 22
    14.1670
 32
     1.0000
 13
    48.9170
 23
    14.1670
 33
     1.0000
  0
3DFACE
  8
150
 62
150
 10
    48.9170
 20
    14.1670
 30
     0.0000
 11
    48.8330
 21
    13.3330
 31
     0.0000
 12
    50.0000
 22
    13.3330
 32
     0.0000
 13
    50.0000
 23
    14.1670
 33
     0.0000
  0
3DFACE
  8
152
 62
152
 10
    50.0000
 20
    13.3330
 30
     0.0000
 11
    50.0000
 21
    13.3330
 31
     1.0000
 12
    50.0000
 22
    14.1670
 32
     1.0000
 13
    50.0000
 23
    14.1670
 33
     0.0000
  0
3DFACE
  8
2
 62
2
 10
    48.9170
 20
    14.1670
 30
     1.0000
 11
    50.0000
 21
    14.1670
 31
     1.0000
 12
    50.0000
 22
    13.3330
 32
     1.0000
 13
    48.8330
 23
    13.3330
 33
     1.0000
  0
3DFACE
  8
150
 62
150
 10
    48.8330
 20
    13.3330
 30
     0.0000
 11
    48.7500
 21
    12.5000
 31
     0.0000
 12
    50.0000
 22
    12.5000
 32
     0.0000
 13
    50.0000
 23
    13.3330
 33
     0.0000
  0
3DFACE
  8
152
 62
152
 10
    50.0000
 20
    12.5000
 30
     0.0000
 11
    50.0000
 21
    12.5000
 31
     1.0000
 12
    50.0000
 22
    13.3330
 32
     1.0000
 13
    50.0000
 23
    13.3330
 33
     0.0000
  0
3DFACE
  8
2
 62
2
 10
    48.8330
 20
    13.3330
 30
     1.0000
 11
    50.0000
 21
    13.3330
 31
     1.0000
 12
    50.0000
 22
    12.5000
 32
     1.0000
 13
    48.7500
 23
    12.5000
 33
     1.0000
  0
3DFACE
  8
150
 62
150
 10
    48.7500
 20
    12.5000
 30
     0.0000
 11
    48.6670
 21
    11.6670
 31
     0.0000
 12
    50.0000
 22
    11.6670
 32
     0.0000
 13
    50.0000
 23
    12.5000
 33
     0.0000
  0
3DFACE
  8
152
 62
152
 10
    50.0000
 20
    11.6670
 30
     0.0000
 11
    50.0000
 21
    11.6670
 31
     1.0000
 12
    50.0000
 22
    12.5000
 32
     1.0000
 13
    50.0000
 23
    12.5000
 33
     0.0000
  0
3DFACE
  8
2
 62
2
 10
    48.7500
 20
    12.5000
 30
     1.0000
 11
    50.0000
 21
    12.5000
 31
     1.0000
 12
    50.0000
 22
    11.6670
 32
     1.0000
 13
    48.6670
 23
    11.6670
 33
     1.0000
  0
3DFACE
  8
150
 62
150
 10
    48.6670
 20
    11.6670
 30
     0.0000
 11
    48.5830
 21
    10.8330
 31
     0.0000
 12
    50.0000
 22
    10.8330
 32
     0.0000
 13
    50.0000
 23
    11.6670
 33
     0.0000
  0
3DFACE
  8
152
 62
152
 10
    50.0000
 20
    10.8330
 30
     0.0000
 11
    50.0000
 21
    10.8330
 31
     1.0000
 12
    50.0000
 22
    11.6670
 32
     1.0000
 13
    50.0000
 23
    11.6670
 33
     0.0000
  0
3DFACE
  8
2
 62
2
 10
    48.6670
 20
    11.6670
 30
     1.0000
 11
    50.0000
 21
    11.6670
 31
     1.0000
 12
    50.0000
 22
    10.8330
 32
     1.0000
 13
    48.5830
 23
    10.8330
 33
     1.0000
  0
3DFACE
  8
150
 62
150
 10
    48.5830
 20
    10.8330
 30
     0.0000
 11
    48.5000
 21
    10.0000
 31
     0.0000
 12
    50.0000
 22
    10.0000
 32
     0.0000
 13
    50.0000
 23
    10.8330
 33
     0.0000
  0
3DFACE
  8
152
 62
152
 10
    50.0000
 20
    10.0000
 30
     0.0000
 11
    50.0000
 21
    10.0000
 31
     1.0000
 12
    50.0000
 22
    10.8330
 32
     1.0000
 13
    50.0000
 23
    10.8330
 33
     0.0000
  0
3DFACE
  8
2
 62
2
 10
    48.5830
 20
    10.8330
 30
     1.0000
 11
    50.0000
 21
    10.8330
 31
     1.0000
 12
    50.0000
 22
    10.0000
 32
     1.0000
 13
    48.5000
 23
    10.0000
 33
     1.0000
  0
3DFACE
  8
150
 62
150
 10
    48.5000
 20
    10.0000
 30
     0.0000
 11
    48.4170
 21
     9.1667
 31
     0.0000
 12
    50.0000
 22
     9.1667
 32
     0.0000
 13
    50.0000
 23
    10.0000
 33
     0.0000
  0
3DFACE
  8
152
 62
152
 10
    50.0000
 20
     9.1667
 30
     0.0000
 11
    50.0000
 21
     9.1667
 31
     1.0000
 12
    50.0000
 22
    10.0000
 32
     1.0000
 13
    50.0000
 23
    10.0000
 33
     0.0000
  0
3DFACE
  8
2
 62
2
 10
    48.5000
 20
    10.0000
 30
     1.0000
 11
    50.0000
 21
    10.0000
 31
     1.0000
 12
    50.0000
 22
     9.1667
 32
     1.0000
 13
    48.4170
 23
     9.1667
 33
     1.0000
  0
3DFACE
  8
150
 62
150
 10
    48.4170
 20
     9.1667
 30
     0.0000
 11
    48.3330
 21
     8.3333
 31
     0.0000
 12
    50.0000
 22
     8.3333
 32
     0.0000
 13
    50.0000
 23
     9.1667
 33
     0.0000
  0
3DFACE
  8
152
 62
152
 10
    50.0000
 20
     8.3333
 30
     0.0000
 11
    50.0000
 21
     8.3333
 31
     1.0000
 12
    50.0000
 22
     9.1667
 32
     1.0000
 13
    50.0000
 23
     9.1667
 33
     0.0000
  0
3DFACE
  8
2
 62
2
 10
    48.4170
 20
     9.1667
 30
     1.0000
 11
    50.0000
 21
     9.1667
 31
     1.0000
 12
    50.0000
 22
     8.3333
 32
     1.0000
 13
    48.3330
 23
     8.3333
 33
     1.0000
  0
3DFACE
  8
150
 62
150
 10
    48.3330
 20
     8.3333
 30
     0.0000
 11
    48.2500
 21
     7.5000
 31
     0.0000
 12
    50.0000
 22
     7.5000
 32
     0.0000
 13
    50.0000
 23
     8.3333
 33
     0.0000
  0
3DFACE
  8
152
 62
152
 10
    50.0000
 20
     7.5000
 30
     0.0000
 11
    50.0000
 21
     7.5000
 31
     1.0000
 12
    50.0000
 22
     8.3333
 32
     1.0000
 13
    50.0000
 23
     8.3333
 33
     0.0000
  0
3DFACE
  8
2
 62
2
 10
    48.3330
 20
     8.3333
 30
     1.0000
 11
    50.0000
 21
     8.3333
 31
     1.0000
 12
    50.0000
 22
     7.5000
 32
     1.0000
 13
    48.2500
 23
     7.5000
 33
     1.0000
  0
3DFACE
  8
150
 62
150
 10
    48.2500
 20
     7.5000
 30
     0.0000
 11
    48.1670
 21
     6.6667
 31
     0.0000
 12
    50.0000
 22
     6.6667
 32
     0.0000
 13
    50.0000
 23
     7.5000
 33
     0.0000
  0
3DFACE
  8
152
 62
152
 10
    50.0000
 20
     6.6667
 30
     0.0000
 11
    50.0000
 21
     6.6667
 31
     1.0000
 12
    50.0000
 22
     7.5000
 32
     1.0000
 13
    50.0000
 23
     7.5000
 33
     0.0000
  0
3DFACE
  8
2
 62
2
 10
    48.2500
 20
     7.5000
 30
     1.0000
 11
    50.0000
 21
     7.5000
 31
     1.0000
 12
    50.0000
 22
     6.6667
 32
     1.0000
 13
    48.1670
 23
     6.6667
 33
     1.0000
  0
3DFACE
  8
150
 62
150
 10
    48.1670
 20
     6.6667
 30
     0.0000
 11
    48.0830
 21
     5.8333
 31
     0.0000
 12
    50.0000
 22
     5.8333
 32
     0.0000
 13
    50.0000
 23
     6.6667
 33
     0.0000
  0
3DFACE
  8
152
 62
152
 10
    50.0000
 20
     5.8333
 30
     0.0000
 11
    50.0000
 21
     5.8333
 31
     1.0000
 12
    50.0000
 22
     6.6667
 32
     1.0000
 13
    50.0000
 23
     6.6667
 33
     0.0000
  0
3DFACE
  8
2
 62
2
 10
    48.1670
 20
     6.6667
 30
     1.0000
 11
    50.0000
 21
     6.6667
 31
     1.0000
 12
    50.0000
 22
     5.8333
 32
     1.0000
 13
    48.0830
 23
     5.8333
 33
     1.0000
  0
3DFACE
  8
150
 62
150
 10
    48.0830
 20
     5.8333
 30
     0.0000
 11
    48.0000
 21
     5.0000
 31
     0.0000
 12
    50.0000
 22
     5.0000
 32
     0.0000
 13
    50.0000
 23
     5.8333
 33
     0.0000
  0
3DFACE
  8
152
 62
152
 10
    50.0000
 20
     5.0000
 30
     0.0000
 11
    50.0000
 21
     5.0000
 31
     1.0000
 12
    50.0000
 22
     5.8333
 32
     1.0000
 13
    50.0000
 23
     5.8333
 33
     0.0000
  0
3DFACE
  8
2
 62
2
 10
    48.0830
 20
     5.8333
 30
     1.0000
 11
    50.0000
 21
     5.8333
 31
     1.0000
 12
    50.0000
 22
     5.0000
 32
     1.0000
 13
    48.0000
 23
     5.0000
 33
     1.0000
  0
ENDSEC
  0
EOF
