  0
SECTION
  2
HEADER
  9
$ACADVER
  1
AC1009
  9
$INSBASE
 10
0.0
 20
0.0
 30
0.0
  9
$EXTMIN
 10
43.405821867854677
 20
364.0
 30
0.0
  9
$EXTMAX
 10
97.071981903214066
 20
404.59026894261478
 30
0.0
  9
$LIMMIN
 10
0.0
 20
0.0
  9
$LIMMAX
 10
420.0
 20
297.0
  9
$ORTHOMODE
 70
     0
  9
$REGENMODE
 70
     1
  9
$FILLMODE
 70
     0
  9
$QTEXTMODE
 70
     0
  9
$MIRRTEXT
 70
     0
  9
$DRAGMODE
 70
     2
  9
$LTSCALE
 40
1.0
  9
$OSMODE
 70
   815
  9
$ATTMODE
 70
     1
  9
$TEXTSIZE
 40
2.5
  9
$TRACEWID
 40
1.0
  9
$TEXTSTYLE
  7
STANDARD
  9
$CLAYER
  8
0
  9
$CELTYPE
  6
BYLAYER
  9
$CECOLOR
 62
   256
  9
$DIMSCALE
 40
1.0
  9
$DIMASZ
 40
2.5
  9
$DIMEXO
 40
0.625
  9
$DIMDLI
 40
3.75
  9
$DIMRND
 40
0.0
  9
$DIMDLE
 40
0.0
  9
$DIMEXE
 40
1.25
  9
$DIMTP
 40
0.0
  9
$DIMTM
 40
0.0
  9
$DIMTXT
 40
2.5
  9
$DIMCEN
 40
2.5
  9
$DIMTSZ
 40
0.0
  9
$DIMTOL
 70
     0
  9
$DIMLIM
 70
     0
  9
$DIMTIH
 70
     0
  9
$DIMTOH
 70
     0
  9
$DIMSE1
 70
     0
  9
$DIMSE2
 70
     0
  9
$DIMTAD
 70
     1
  9
$DIMZIN
 70
     8
  9
$DIMBLK
  1

  9
$DIMASO
 70
     1
  9
$DIMSHO
 70
     1
  9
$DIMPOST
  1

  9
$DIMAPOST
  1

  9
$DIMALT
 70
     0
  9
$DIMALTD
 70
     3
  9
$DIMALTF
 40
0.03937007874016
  9
$DIMLFAC
 40
1.0
  9
$DIMTOFL
 70
     1
  9
$DIMTVP
 40
0.0
  9
$DIMTIX
 70
     0
  9
$DIMSOXD
 70
     0
  9
$DIMSAH
 70
     0
  9
$DIMBLK1
  1

  9
$DIMBLK2
  1

  9
$DIMSTYLE
  2
ISO-25
  9
$DIMCLRD
 70
     0
  9
$DIMCLRE
 70
     0
  9
$DIMCLRT
 70
     0
  9
$DIMTFAC
 40
1.0
  9
$DIMGAP
 40
0.625
  9
$LUNITS
 70
     2
  9
$LUPREC
 70
     4
  9
$SKETCHINC
 40
1.0
  9
$FILLETRAD
 40
0.0
  9
$AUNITS
 70
     0
  9
$AUPREC
 70
     0
  9
$MENU
  1
.
  9
$ELEVATION
 40
0.0
  9
$PELEVATION
 40
0.0
  9
$THICKNESS
 40
0.0
  9
$LIMCHECK
 70
     0
  9
$BLIPMODE
 70
     0
  9
$CHAMFERA
 40
0.0
  9
$CHAMFERB
 40
0.0
  9
$SKPOLY
 70
     0
  9
$TDCREATE
 40
2455565.4746748381
  9
$TDUPDATE
 40
2456023.0141319451
  9
$TDINDWG
 40
0.1719623843
  9
$TDUSRTIMER
 40
0.1719261921
  9
$USRTIMER
 70
     1
  9
$ANGBASE
 50
0.0
  9
$ANGDIR
 70
     0
  9
$PDMODE
 70
     0
  9
$PDSIZE
 40
0.0
  9
$PLINEWID
 40
0.0
  9
$COORDS
 70
     0
  9
$SPLFRAME
 70
     0
  9
$SPLINETYPE
 70
     6
  9
$SPLINESEGS
 70
     8
  9
$ATTDIA
 70
     0
  9
$ATTREQ
 70
     1
  9
$HANDLING
 70
     1
  9
$HANDSEED
  5
47D0
  9
$SURFTAB1
 70
     6
  9
$SURFTAB2
 70
     6
  9
$SURFTYPE
 70
     6
  9
$SURFU
 70
     6
  9
$SURFV
 70
     6
  9
$UCSNAME
  2

  9
$UCSORG
 10
0.0
 20
0.0
 30
0.0
  9
$UCSXDIR
 10
1.0
 20
0.0
 30
0.0
  9
$UCSYDIR
 10
0.0
 20
1.0
 30
0.0
  9
$PUCSNAME
  2

  9
$PUCSORG
 10
0.0
 20
0.0
 30
0.0
  9
$PUCSXDIR
 10
1.0
 20
0.0
 30
0.0
  9
$PUCSYDIR
 10
0.0
 20
1.0
 30
0.0
  9
$USERI1
 70
     0
  9
$USERI2
 70
     0
  9
$USERI3
 70
     0
  9
$USERI4
 70
     0
  9
$USERI5
 70
     0
  9
$USERR1
 40
0.0
  9
$USERR2
 40
0.0
  9
$USERR3
 40
0.0
  9
$USERR4
 40
0.0
  9
$USERR5
 40
0.0
  9
$WORLDVIEW
 70
     1
  9
$SHADEDGE
 70
     3
  9
$SHADEDIF
 70
    70
  9
$TILEMODE
 70
     1
  9
$MAXACTVP
 70
    64
  9
$PLIMCHECK
 70
     0
  9
$PEXTMIN
 10
0.0
 20
0.0
 30
0.0
  9
$PEXTMAX
 10
0.0
 20
0.0
 30
0.0
  9
$PLIMMIN
 10
0.0
 20
0.0
  9
$PLIMMAX
 10
12.0
 20
9.0
  9
$UNITMODE
 70
     0
  9
$VISRETAIN
 70
     1
  9
$PLINEGEN
 70
     0
  9
$PSLTSCALE
 70
     1
  0
ENDSEC
  0
SECTION
  2
TABLES
  0
TABLE
  2
VPORT
 70
     2
  0
VPORT
  2
*ACTIVE
 70
     0
 10
0.0
 20
0.0
 11
1.0
 21
1.0
 12
84.169452533706178
 22
383.44430517296871
 13
0.0
 23
0.0
 14
10.0
 24
10.0
 15
10.0
 25
10.0
 16
0.0
 26
0.0
 36
1.0
 17
0.0
 27
0.0
 37
0.0
 40
60.907690683371023
 41
2.5720620842572059
 42
50.0
 43
0.0
 44
0.0
 50
0.0
 51
0.0
 71
     0
 72
  1000
 73
     1
 74
     3
 75
     0
 76
     0
 77
     0
 78
     0
  0
ENDTAB
  0
TABLE
  2
LTYPE
 70
     1
  0
LTYPE
  2
CONTINUOUS
 70
     0
  3
Solid line
 72
    65
 73
     0
 40
0.0
  0
ENDTAB
  0
TABLE
  2
LAYER
 70
     2
  0
LAYER
  2
0
 70
     0
 62
   242
  6
CONTINUOUS
  0
LAYER
  2
1
 70
     0
 62
     7
  6
CONTINUOUS
  0
ENDTAB
  0
TABLE
  2
STYLE
 70
     1
  0
STYLE
  2
STANDARD
 70
     0
 40
0.0
 41
1.0
 50
0.0
 71
     0
 42
2.5
  3
txt
  4
gbcbig.shx
  0
ENDTAB
  0
TABLE
  2
VIEW
 70
     0
  0
ENDTAB
  0
TABLE
  2
UCS
 70
     0
  0
ENDTAB
  0
TABLE
  2
APPID
 70
     6
  0
APPID
  2
ACAD
 70
     0
  0
APPID
  2
ACAD_PSEXT
 70
     0
  0
APPID
  2
ACAECLAYERSTANDARD
 70
     0
  0
APPID
  2
ACAD_EXEMPT_FROM_CAD_STANDARDS
 70
     0
  0
APPID
  2
RAK
 70
     0
  0
APPID
  2
ACDBBLOCKREPETAG
 70
     0
  0
ENDTAB
  0
TABLE
  2
DIMSTYLE
 70
     2
  0
DIMSTYLE
  2
ISO-25
 70
     0
  3

  4

  5

  6

  7

 40
1.0
 41
2.5
 42
0.625
 43
3.75
 44
1.25
 45
0.0
 46
0.0
 47
0.0
 48
0.0
140
2.5
141
2.5
142
0.0
143
0.03937007874016
144
1.0
145
0.0
146
1.0
147
0.625
 71
     0
 72
     0
 73
     0
 74
     0
 75
     0
 76
     0
 77
     1
 78
     8
170
     0
171
     3
172
     1
173
     0
174
     0
175
     0
176
     0
177
     0
178
     0
  0
DIMSTYLE
  2
STANDARD
 70
     0
  3

  4

  5

  6

  7

 40
1.0
 41
0.18
 42
0.0625
 43
0.38
 44
0.18
 45
0.0
 46
0.0
 47
0.0
 48
0.0
140
0.18
141
0.09
142
0.0
143
25.399999999999999
144
1.0
145
0.0
146
1.0
147
0.09
 71
     0
 72
     0
 73
     1
 74
     1
 75
     0
 76
     0
 77
     0
 78
     0
170
     0
171
     2
172
     0
173
     0
174
     0
175
     0
176
     0
177
     0
178
     0
  0
ENDTAB
  0
ENDSEC
  0
SECTION
  2
BLOCKS
  0
BLOCK
  8
0
  2
$MODEL_SPACE
 70
     0
 10
0.0
 20
0.0
 30
0.0
  3
$MODEL_SPACE
  1

  0
ENDBLK
  5
4791
  8
0
  0
BLOCK
 67
     1
  8
0
  2
$PAPER_SPACE
 70
     0
 10
0.0
 20
0.0
 30
0.0
  3
$PAPER_SPACE
  1

  0
ENDBLK
  5
478D
 67
     1
  8
0
  0
ENDSEC
  0
SECTION
  2
ENTITIES
  0
POLYLINE
  5
46B4
  8
1
 66
     1
 10
0.0
 20
0.0
 30
0.0
 70
     1
  0
VERTEX
  5
47B0
  8
1
 10
43.405821867854677
 20
364.0
 30
0.0
  0
VERTEX
  5
47B1
  8
1
 10
47.105943668990221
 20
364.51717455089971
 30
0.0
  0
VERTEX
  5
47B2
  8
1
 10
54.24044769260945
 20
365.37314045747922
 30
0.0
  0
VERTEX
  5
47B3
  8
1
 10
60.923831463168952
 20
367.47235406524209
 30
0.0
  0
VERTEX
  5
47B4
  8
1
 10
66.572544573522464
 20
369.87745631343569
 30
0.0
  0
VERTEX
  5
47B5
  8
1
 10
70.15283141464171
 20
373.0569725089299
 30
0.0
  0
VERTEX
  5
47B6
  8
1
 10
76.111390451164297
 20
378.87411518798609
 30
0.0
  0
VERTEX
  5
47B7
  8
1
 10
80.356785908494189
 20
383.58247763408872
 30
0.0
  0
VERTEX
  5
47B8
  8
1
 10
87.047292239694784
 20
389.17933164026181
 30
0.0
  0
VERTEX
  5
47B9
  8
1
 10
93.192353254598814
 20
396.65574163550627
 30
0.0
  0
VERTEX
  5
47BA
  8
1
 10
97.071981903214066
 20
404.57247372000739
 30
0.0
  0
VERTEX
  5
47BB
  8
1
 10
84.138059623437542
 20
404.59026894261478
 30
0.0
  0
VERTEX
  5
47BC
  8
1
 10
82.183544700317739
 20
400.26320016292431
 30
0.0
  0
VERTEX
  5
47BD
  8
1
 10
74.56180067807145
 20
395.0
 30
0.0
  0
VERTEX
  5
47BE
  8
1
 10
69.49890022769975
 20
391.0
 30
0.0
  0
VERTEX
  5
47BF
  8
1
 10
67.844965242293256
 20
389.5
 30
0.0
  0
VERTEX
  5
47C0
  8
1
 10
65.421656073605845
 20
386.5
 30
0.0
  0
VERTEX
  5
47C1
  8
1
 10
61.645987929856346
 20
383.0
 30
0.0
  0
VERTEX
  5
47C2
  8
1
 10
57.972431191621581
 20
378.0
 30
0.0
  0
VERTEX
  5
47C3
  8
1
 10
55.739237794718058
 20
375.0
 30
0.0
  0
VERTEX
  5
47C4
  8
1
 10
53.038898575163309
 20
372.0
 30
0.0
  0
VERTEX
  5
47C5
  8
1
 10
51.459090776617813
 20
371.0
 30
0.0
  0
VERTEX
  5
47C6
  8
1
 10
43.405821867854677
 20
364.0
 30
0.0
  0
SEQEND
  5
47C7
  8
1
  0
3DFACE
  5
46C1
  8
1
 10
84.483702882946375
 20
403.76225877679911
 30
0.0
 11
84.483702882946375
 21
395.77871982171911
 31
0.0
 12
92.146016903690835
 22
395.77871982171911
 32
0.0
 13
92.146016903690835
 23
403.58371316435631
 33
0.0
  0
3DFACE
  5
46C2
  8
1
 10
76.62862502610227
 20
395.43415207881509
 30
0.0
 11
76.62862502610227
 21
387.45061312373508
 31
0.0
 12
84.290939046846731
 22
387.45061312373508
 32
0.0
 13
84.290939046846731
 23
395.2556064663724
 33
0.0
  0
3DFACE
  5
46C3
  8
1
 10
68.293326608449149
 20
388.97371356608568
 30
0.0
 11
68.293326608449149
 21
380.99017461100561
 31
0.0
 12
75.955640629193624
 22
380.99017461100561
 32
0.0
 13
75.955640629193624
 23
388.79516795364287
 33
0.0
  0
3DFACE
  5
46C4
  8
1
 10
60.331252139381647
 20
379.90425105227843
 30
0.0
 11
60.331252139381647
 21
371.9207120971983
 31
0.0
 12
67.993566160126136
 22
371.9207120971983
 32
0.0
 13
67.993566160126136
 23
379.72570543983568
 33
0.0
  0
3DFACE
  5
46C5
  8
1
 10
51.425635092325287
 20
370.72334446251278
 30
0.0
 11
51.425635092325287
 21
367.14662670297707
 31
0.0
 12
59.087949113069783
 22
367.30474217770973
 32
0.0
 13
59.087949113069783
 23
370.59447222826287
 33
0.0
  0
3DFACE
  5
47A3
  8
1
 10
46.788121065134071
 20
366.74789868026642
 30
0.0
 11
46.765413800747872
 21
365.28810192604351
 31
0.0
 12
53.622049467639208
 22
365.5365949139487
 32
0.0
 13
53.576900717074921
 23
366.93572883209367
 33
0.0
  0
3DFACE
  5
47A4
  8
1
 10
55.804983945328047
 20
374.1576780497295
 30
0.0
 11
55.804983945328047
 21
371.11489603742291
 31
0.0
 12
59.541750721256328
 22
371.20101250158228
 32
0.0
 13
59.484262206733092
 23
374.1002670178882
 33
0.0
  0
3DFACE
  5
47A5
  8
1
 10
69.766954636452525
 20
379.2850003275845
 30
0.0
 11
69.766954636452525
 21
376.24221831527791
 31
0.0
 12
73.503721412380813
 22
376.32833477943728
 32
0.0
 13
73.44623289785757
 23
379.2275892957432
 33
0.0
  0
3DFACE
  5
47A6
  8
1
 10
63.083456505303388
 20
383.75081238501173
 30
0.0
 11
63.083456505303388
 21
380.70803037270503
 31
0.0
 12
66.820223281231677
 22
380.79414683686451
 32
0.0
 13
66.762734766708434
 23
383.69340135317037
 33
0.0
  0
3DFACE
  5
47A7
  8
1
 10
76.620019132565901
 20
386.53914318223588
 30
0.0
 11
76.620019132565901
 21
383.49636116992929
 31
0.0
 12
80.356785908494189
 22
383.58247763408872
 32
0.0
 13
80.299297393970946
 23
386.48173215039469
 33
0.0
  0
3DFACE
  5
47A8
  8
1
 10
72.218873853265336
 20
391.75183350179009
 30
0.0
 11
72.218873853265336
 21
388.70905148948339
 31
0.0
 12
75.955640629193624
 22
388.79516795364287
 32
0.0
 13
75.898152114670381
 23
391.69442246994879
 33
0.0
  0
3DFACE
  5
47A9
  8
1
 10
85.123130668022753
 20
394.34130965539111
 30
0.0
 11
85.123130668022753
 21
391.29852764308453
 31
0.0
 12
88.859897443951056
 22
391.3846441072439
 32
0.0
 13
88.802408929427813
 23
394.28389862354982
 33
0.0
  0
3DFACE
  5
47AA
  8
1
 10
80.746936107018087
 20
398.73538536986632
 30
0.0
 11
80.746936107018087
 21
395.69260335755968
 31
0.0
 12
84.483702882946375
 22
395.77871982171911
 32
0.0
 13
84.426214368423146
 23
398.67797433802502
 33
0.0
  0
ENDSEC
  0
EOF
